<svg width="411" height="315" viewBox="0 0 411 315" fill="none" xmlns="http://www.w3.org/2000/svg">
<path d="M409.5 34.5C410.198 8.90975 403.54 1.78018 380.5 0.5H22C1.49998 0.5 0.249059 15.2763 1.49999 34.5M409.5 34.5V286C406.965 306.042 398.925 311.875 375 314H22C7.48898 308.861 3.66429 302.138 1.49999 286V34.5M409.5 34.5H1.49999M148.5 10V27H363V10H148.5Z" stroke="black"/>
<circle cx="33" cy="19" r="12" fill="#FFDFF0"/>
<circle cx="65" cy="19" r="12" fill="#FFD6CA"/>
<circle cx="97" cy="19" r="12" fill="#FFE685"/>
<line x1="206" y1="100.5" x2="343" y2="100.5" stroke="black"/>
<line x1="208" y1="119.5" x2="252" y2="119.5" stroke="black"/>
<line x1="266" y1="119.5" x2="310" y2="119.5" stroke="black"/>
<line x1="325" y1="119.5" x2="369" y2="119.5" stroke="black"/>
<line x1="208" y1="143.5" x2="345" y2="143.5" stroke="black"/>
<line x1="208" y1="165.5" x2="345" y2="165.5" stroke="black"/>
<line x1="210" y1="183.5" x2="347" y2="183.5" stroke="black"/>
<line x1="210" y1="200.5" x2="254" y2="200.5" stroke="black"/>
<path d="M175.08 16H174.023C173.96 15.696 173.851 15.429 173.695 15.1989C173.541 14.9688 173.354 14.7756 173.132 14.6193C172.913 14.4602 172.67 14.3409 172.403 14.2614C172.136 14.1818 171.858 14.142 171.568 14.142C171.04 14.142 170.561 14.2756 170.132 14.5426C169.706 14.8097 169.366 15.2031 169.114 15.723C168.864 16.2429 168.739 16.8807 168.739 17.6364C168.739 18.392 168.864 19.0298 169.114 19.5497C169.366 20.0696 169.706 20.4631 170.132 20.7301C170.561 20.9972 171.04 21.1307 171.568 21.1307C171.858 21.1307 172.136 21.0909 172.403 21.0114C172.67 20.9318 172.913 20.8139 173.132 20.6577C173.354 20.4986 173.541 20.304 173.695 20.0739C173.851 19.8409 173.96 19.5739 174.023 19.2727H175.08C175 19.7187 174.855 20.1179 174.645 20.4702C174.435 20.8224 174.173 21.1222 173.861 21.3693C173.548 21.6136 173.197 21.7997 172.808 21.9276C172.422 22.0554 172.009 22.1193 171.568 22.1193C170.824 22.1193 170.162 21.9375 169.582 21.5739C169.003 21.2102 168.547 20.6932 168.214 20.0227C167.882 19.3523 167.716 18.5568 167.716 17.6364C167.716 16.7159 167.882 15.9205 168.214 15.25C168.547 14.5795 169.003 14.0625 169.582 13.6989C170.162 13.3352 170.824 13.1534 171.568 13.1534C172.009 13.1534 172.422 13.2173 172.808 13.3452C173.197 13.473 173.548 13.6605 173.861 13.9077C174.173 14.152 174.435 14.4503 174.645 14.8026C174.855 15.152 175 15.5511 175.08 16ZM179.208 20.4659V14.8409H180.162V20.4659H179.208ZM176.873 18.1307V17.1761H182.498V18.1307H176.873ZM187.118 20.4659V14.8409H188.072V20.4659H187.118ZM184.783 18.1307V17.1761H190.408V18.1307H184.783ZM192.608 22V13.2727H195.556C196.241 13.2727 196.801 13.3963 197.235 13.6435C197.673 13.8878 197.997 14.2188 198.207 14.6364C198.417 15.054 198.522 15.5199 198.522 16.0341C198.522 16.5483 198.417 17.0156 198.207 17.4361C198 17.8565 197.679 18.1918 197.244 18.4418C196.809 18.6889 196.252 18.8125 195.574 18.8125H193.46V17.875H195.539C196.008 17.875 196.385 17.794 196.669 17.6321C196.953 17.4702 197.159 17.2514 197.287 16.9759C197.417 16.6974 197.483 16.3835 197.483 16.0341C197.483 15.6847 197.417 15.3722 197.287 15.0966C197.159 14.821 196.951 14.6051 196.664 14.4489C196.377 14.2898 195.997 14.2102 195.522 14.2102H193.664V22H192.608ZM200.088 22V15.4545H201.06V16.4432H201.128C201.248 16.1193 201.463 15.8565 201.776 15.6548C202.088 15.4531 202.441 15.3523 202.833 15.3523C202.907 15.3523 202.999 15.3537 203.11 15.3565C203.221 15.3594 203.304 15.3636 203.361 15.3693V16.392C203.327 16.3835 203.249 16.3707 203.127 16.3537C203.007 16.3338 202.881 16.3239 202.748 16.3239C202.429 16.3239 202.145 16.3906 201.895 16.5241C201.648 16.6548 201.452 16.8366 201.307 17.0696C201.165 17.2997 201.094 17.5625 201.094 17.858V22H200.088ZM207.013 22.1364C206.422 22.1364 205.904 21.9957 205.458 21.7145C205.015 21.4332 204.668 21.0398 204.418 20.5341C204.171 20.0284 204.047 19.4375 204.047 18.7614C204.047 18.0795 204.171 17.4844 204.418 16.9759C204.668 16.4673 205.015 16.0724 205.458 15.7912C205.904 15.5099 206.422 15.3693 207.013 15.3693C207.604 15.3693 208.121 15.5099 208.564 15.7912C209.01 16.0724 209.357 16.4673 209.604 16.9759C209.854 17.4844 209.979 18.0795 209.979 18.7614C209.979 19.4375 209.854 20.0284 209.604 20.5341C209.357 21.0398 209.01 21.4332 208.564 21.7145C208.121 21.9957 207.604 22.1364 207.013 22.1364ZM207.013 21.233C207.462 21.233 207.831 21.1179 208.121 20.8878C208.411 20.6577 208.625 20.3551 208.765 19.9801C208.904 19.6051 208.973 19.1989 208.973 18.7614C208.973 18.3239 208.904 17.9162 208.765 17.5384C208.625 17.1605 208.411 16.8551 208.121 16.6222C207.831 16.3892 207.462 16.2727 207.013 16.2727C206.564 16.2727 206.195 16.3892 205.905 16.6222C205.615 16.8551 205.401 17.1605 205.262 17.5384C205.123 17.9162 205.053 18.3239 205.053 18.7614C205.053 19.1989 205.123 19.6051 205.262 19.9801C205.401 20.3551 205.615 20.6577 205.905 20.8878C206.195 21.1179 206.564 21.233 207.013 21.233ZM211.514 15.4545H212.52V22.4773C212.52 22.8807 212.45 23.2301 212.311 23.5256C212.175 23.821 211.967 24.0497 211.689 24.2116C211.413 24.3736 211.065 24.4545 210.645 24.4545C210.611 24.4545 210.577 24.4545 210.543 24.4545C210.509 24.4545 210.474 24.4545 210.44 24.4545V23.517C210.474 23.517 210.506 23.517 210.534 23.517C210.562 23.517 210.594 23.517 210.628 23.517C210.935 23.517 211.159 23.4261 211.301 23.2443C211.443 23.0653 211.514 22.8097 211.514 22.4773V15.4545ZM212.009 14.3636C211.813 14.3636 211.643 14.2969 211.501 14.1634C211.362 14.0298 211.293 13.8693 211.293 13.6818C211.293 13.4943 211.362 13.3338 211.501 13.2003C211.643 13.0668 211.813 13 212.009 13C212.205 13 212.372 13.0668 212.511 13.2003C212.653 13.3338 212.724 13.4943 212.724 13.6818C212.724 13.8693 212.653 14.0298 212.511 14.1634C212.372 14.2969 212.205 14.3636 212.009 14.3636ZM217.106 22.1364C216.475 22.1364 215.931 21.9972 215.474 21.7188C215.02 21.4375 214.669 21.0455 214.422 20.5426C214.177 20.0369 214.055 19.4489 214.055 18.7784C214.055 18.108 214.177 17.517 214.422 17.0057C214.669 16.4915 215.012 16.0909 215.453 15.804C215.896 15.5142 216.413 15.3693 217.004 15.3693C217.345 15.3693 217.681 15.4261 218.014 15.5398C218.346 15.6534 218.649 15.8381 218.922 16.0938C219.194 16.3466 219.412 16.6818 219.574 17.0994C219.735 17.517 219.816 18.0312 219.816 18.642V19.0682H214.771V18.1989H218.794C218.794 17.8295 218.72 17.5 218.572 17.2102C218.427 16.9205 218.22 16.6918 217.95 16.5241C217.683 16.3565 217.368 16.2727 217.004 16.2727C216.603 16.2727 216.257 16.3722 215.964 16.571C215.674 16.767 215.451 17.0227 215.295 17.3381C215.139 17.6534 215.061 17.9915 215.061 18.3523V18.9318C215.061 19.4261 215.146 19.8452 215.316 20.1889C215.49 20.5298 215.73 20.7898 216.037 20.9688C216.343 21.1449 216.7 21.233 217.106 21.233C217.37 21.233 217.609 21.196 217.822 21.1222C218.038 21.0455 218.224 20.9318 218.38 20.7812C218.537 20.6278 218.657 20.4375 218.743 20.2102L219.714 20.483C219.612 20.8125 219.44 21.1023 219.199 21.3523C218.957 21.5994 218.659 21.7926 218.304 21.9318C217.949 22.0682 217.549 22.1364 217.106 22.1364ZM224.005 22.1364C223.392 22.1364 222.863 21.9915 222.42 21.7017C221.977 21.4119 221.636 21.0128 221.397 20.5043C221.159 19.9957 221.039 19.4148 221.039 18.7614C221.039 18.0966 221.162 17.5099 221.406 17.0014C221.653 16.4901 221.997 16.0909 222.437 15.804C222.88 15.5142 223.397 15.3693 223.988 15.3693C224.449 15.3693 224.863 15.4545 225.233 15.625C225.602 15.7955 225.904 16.0341 226.14 16.3409C226.376 16.6477 226.522 17.0057 226.579 17.4148H225.574C225.497 17.1165 225.326 16.8523 225.062 16.6222C224.801 16.3892 224.449 16.2727 224.005 16.2727C223.613 16.2727 223.27 16.375 222.974 16.5795C222.681 16.7812 222.453 17.0668 222.288 17.4361C222.126 17.8026 222.045 18.233 222.045 18.7273C222.045 19.233 222.125 19.6733 222.284 20.0483C222.446 20.4233 222.673 20.7145 222.966 20.9219C223.261 21.1293 223.608 21.233 224.005 21.233C224.267 21.233 224.504 21.1875 224.717 21.0966C224.93 21.0057 225.11 20.875 225.258 20.7045C225.406 20.5341 225.511 20.3295 225.574 20.0909H226.579C226.522 20.4773 226.382 20.8253 226.157 21.1349C225.936 21.4418 225.642 21.6861 225.275 21.8679C224.912 22.0469 224.488 22.1364 224.005 22.1364ZM230.896 15.4545V16.3068H227.504V15.4545H230.896ZM228.493 13.8864H229.498V20.125C229.498 20.4091 229.539 20.6222 229.622 20.7642C229.707 20.9034 229.815 20.9972 229.946 21.0455C230.079 21.0909 230.22 21.1136 230.368 21.1136C230.478 21.1136 230.569 21.108 230.64 21.0966C230.711 21.0824 230.768 21.071 230.811 21.0625L231.015 21.9659C230.947 21.9915 230.852 22.017 230.73 22.0426C230.608 22.071 230.453 22.0852 230.265 22.0852C229.981 22.0852 229.703 22.0241 229.43 21.902C229.16 21.7798 228.936 21.5938 228.757 21.3438C228.581 21.0938 228.493 20.7784 228.493 20.3977V13.8864ZM233.142 22.0682C232.931 22.0682 232.751 21.9929 232.6 21.8423C232.45 21.6918 232.375 21.5114 232.375 21.3011C232.375 21.0909 232.45 20.9105 232.6 20.7599C232.751 20.6094 232.931 20.5341 233.142 20.5341C233.352 20.5341 233.532 20.6094 233.683 20.7599C233.833 20.9105 233.909 21.0909 233.909 21.3011C233.909 21.4403 233.873 21.5682 233.802 21.6847C233.734 21.8011 233.642 21.8949 233.525 21.9659C233.412 22.0341 233.284 22.0682 233.142 22.0682ZM236.208 22H235.1L238.304 13.2727H239.395L242.6 22H241.492L238.884 14.6534H238.816L236.208 22ZM236.617 18.5909H241.083V19.5284H236.617V18.5909ZM244.828 13.2727V22H243.823V13.2727H244.828ZM247.318 24.4545C247.148 24.4545 246.996 24.4403 246.862 24.4119C246.729 24.3864 246.636 24.3608 246.585 24.3352L246.841 23.4489C247.085 23.5114 247.301 23.5341 247.489 23.517C247.676 23.5 247.842 23.4162 247.987 23.2656C248.135 23.1179 248.27 22.8778 248.392 22.5455L248.58 22.0341L246.159 15.4545H247.25L249.057 20.6705H249.125L250.932 15.4545H252.023L249.244 22.9545C249.119 23.2926 248.964 23.5724 248.78 23.794C248.595 24.0185 248.381 24.1847 248.136 24.2926C247.895 24.4006 247.622 24.4545 247.318 24.4545ZM259.452 16C259.359 15.7131 259.235 15.456 259.082 15.2287C258.931 14.9986 258.751 14.8026 258.54 14.6406C258.333 14.4787 258.097 14.3551 257.833 14.2699C257.569 14.1847 257.279 14.142 256.964 14.142C256.447 14.142 255.977 14.2756 255.553 14.5426C255.13 14.8097 254.793 15.2031 254.543 15.723C254.293 16.2429 254.168 16.8807 254.168 17.6364C254.168 18.392 254.295 19.0298 254.548 19.5497C254.8 20.0696 255.143 20.4631 255.575 20.7301C256.006 20.9972 256.492 21.1307 257.032 21.1307C257.532 21.1307 257.972 21.0241 258.353 20.8111C258.737 20.5952 259.035 20.2912 259.248 19.8991C259.464 19.5043 259.572 19.0398 259.572 18.5057L259.896 18.5739H257.271V17.6364H260.594V18.5739C260.594 19.2926 260.441 19.9176 260.134 20.4489C259.83 20.9801 259.41 21.392 258.873 21.6847C258.339 21.9744 257.725 22.1193 257.032 22.1193C256.259 22.1193 255.58 21.9375 254.995 21.5739C254.413 21.2102 253.958 20.6932 253.631 20.0227C253.308 19.3523 253.146 18.5568 253.146 17.6364C253.146 16.946 253.238 16.3253 253.423 15.7741C253.61 15.2202 253.874 14.7486 254.215 14.3594C254.556 13.9702 254.96 13.6719 255.425 13.4645C255.891 13.2571 256.404 13.1534 256.964 13.1534C257.424 13.1534 257.853 13.223 258.251 13.3622C258.651 13.4986 259.008 13.6932 259.32 13.946C259.636 14.196 259.898 14.4957 260.109 14.8452C260.319 15.1918 260.464 15.5767 260.543 16H259.452ZM262.493 22H261.385L264.589 13.2727H265.68L268.885 22H267.777L265.169 14.6534H265.101L262.493 22ZM262.902 18.5909H267.368V19.5284H262.902V18.5909Z" fill="black"/>
<path d="M166.993 126.512C166.992 124.023 166.434 121.824 165.306 119.938C164.198 118.081 162.539 116.526 160.313 115.296C141.942 105.188 123.552 95.1103 105.187 84.9918C100.235 82.2642 95.4347 82.3642 90.5202 85.1309C83.2077 89.2455 46.5968 109.261 35.6872 115.29C31.1943 117.773 29.0081 121.571 29.007 126.507C29 146.835 29.007 167.164 29 187.492C29 189.926 29.5351 192.083 30.6134 193.941C31.7219 195.853 33.4043 197.451 35.6813 198.709C46.5914 204.739 83.2071 224.752 90.518 228.868C95.4347 231.637 100.235 231.736 105.188 229.007C123.554 218.888 141.945 208.811 160.319 198.703C162.596 197.446 164.279 195.846 165.387 193.936C166.464 192.077 167 189.921 167 187.486C167 187.486 167 146.841 166.993 126.512Z" fill="#FFD6CA"/>
<path d="M98.2113 156.802L30.6136 193.941C31.7221 195.853 33.4045 197.451 35.6815 198.709C46.5916 204.739 83.2073 224.752 90.5182 228.868C95.4349 231.637 100.236 231.736 105.188 229.007C123.555 218.888 141.945 208.811 160.319 198.703C162.596 197.446 164.279 195.846 165.387 193.936L98.2113 156.802Z" fill="#FFDFF0"/>
<path d="M166.993 126.512C166.992 124.023 166.434 121.824 165.306 119.937L98.2111 156.802L165.387 193.936C166.464 192.077 166.999 189.921 167 187.486C167 187.486 167 146.84 166.993 126.512Z" fill="#FFD9E4"/>
<path d="M98.3593 108.053C117.335 108.053 133.902 117.887 142.776 132.504L142.69 132.363L120.363 144.63C115.965 137.523 107.901 132.727 98.6503 132.628L98.3587 132.627C84.2527 132.627 72.8167 143.539 72.8167 156.999C72.8121 161.242 73.9736 165.411 76.1854 169.092C80.5881 176.426 88.8649 181.373 98.3593 181.373C107.913 181.373 116.236 176.363 120.616 168.951L120.51 169.128L142.803 181.452C134.026 195.945 117.686 205.748 98.9305 205.943L98.3593 205.946C79.3236 205.946 62.7095 196.052 53.8576 181.358C49.5365 174.184 47.0641 165.868 47.0641 156.999C47.0641 129.968 70.029 108.053 98.3587 108.053L98.3593 108.053Z" fill="white"/>
<line x1="150.796" y1="149.41" x2="150.796" y2="168.385" stroke="white"/>
<line x1="142.343" y1="158.397" x2="160.239" y2="158.397" stroke="white"/>
<line x1="128.923" y1="149.41" x2="128.923" y2="168.385" stroke="white"/>
<line x1="120.469" y1="158.397" x2="138.366" y2="158.397" stroke="white"/>
</svg>
