<svg width="170" height="165" viewBox="0 0 170 165" fill="none" xmlns="http://www.w3.org/2000/svg">
<path d="M85.6213 139.432H96.2587C98.061 136.382 98.5228 136.537 97.5101 132.071C96.4975 127.605 93.1868 121.221 92.5043 113.054C92.0904 109.221 91.9916 107.072 92.5043 103.239C93.7158 98.9177 94.6083 97.1044 96.2587 94.0373H90.6271C86.1645 98.1533 84.1326 100.92 81.8669 107.182C84.3204 113.944 85.8445 117.569 89.3757 123.132C90.0611 130.717 88.6567 133.063 84.9955 136.014L85.6213 139.432Z" fill="white" stroke="black"/>
<path d="M84.9955 136.365C86.9988 134.56 87.8923 133.398 88.7499 130.844C90.0241 127.756 90.053 126.007 89.3757 122.869C85.6721 117.378 83.7786 112.907 82.4926 106.92" stroke="black"/>
<path d="M160.709 94.6508C166.223 106.389 166.009 112.971 160.709 124.71C156.675 131.401 155.966 135.324 156.329 142.5C161.634 143.151 163.098 143.904 164.463 145.567C165.616 148.778 165.342 150.31 164.463 152.928H153.2C150.237 149.338 149.202 147.025 148.194 142.5C148.387 134.647 147.884 130.573 151.949 124.71C153.096 117.827 151.409 113.232 150.697 105.079C145.981 100.476 146.329 98.3562 142.563 94.6508H160.709Z" fill="white"/>
<path d="M164.463 152.928C165.342 150.31 165.616 148.778 164.463 145.567C163.098 143.904 161.634 143.151 156.329 142.5C155.966 135.324 156.675 131.401 160.709 124.71C166.009 112.971 166.223 106.389 160.709 94.6508H142.563C146.329 98.3562 145.981 100.476 150.697 105.079C151.409 113.232 153.096 117.827 151.949 124.71C147.884 130.573 148.387 134.647 148.194 142.5C149.202 147.025 150.237 149.338 153.2 152.928M164.463 152.928C160.065 152.928 157.599 152.928 153.2 152.928M164.463 152.928H153.2" stroke="black"/>
<path d="M90.6271 94.2999C85.7383 98.5441 83.6034 102.02 81.2411 109.373C80.5884 114.953 80.5643 118.17 81.2411 124.096C82.5156 128.659 83.151 131.123 84.9955 136.365C85.5312 140.924 85.4865 143.012 84.9955 146.18C84.009 149.155 83.2144 150.411 81.2411 151.701C77.3314 152.312 75.1392 152.511 71.2294 151.701C69.9466 151.356 69.2866 151.137 68.7265 150.474V145.567L71.2294 144.34L75.6095 143.113C76.0518 142.682 76.3098 142.429 76.861 141.886V136.365C73.6061 129.884 72.2094 125.536 69.978 117.348C68.9815 113.626 68.9267 111.667 68.7265 108.147V103.852C69.2252 99.9449 70.0352 97.6334 71.8552 94.2999H90.6271Z" fill="white"/>
<path d="M71.2294 144.34L68.7265 145.567V150.474C69.2866 151.137 69.9466 151.356 71.2294 151.701C75.1392 152.511 77.3314 152.312 81.2411 151.701C83.2144 150.411 84.009 149.155 84.9955 146.18C85.4865 143.012 85.5312 140.924 84.9955 136.365C83.151 131.123 82.5156 128.659 81.2411 124.096C80.5643 118.17 80.5884 114.953 81.2411 109.373C83.6034 102.02 85.7383 98.5441 90.6271 94.2999H71.8552C70.0352 97.6334 69.2252 99.9449 68.7265 103.852V108.147C68.9267 111.667 68.9815 113.626 69.978 117.348C72.2094 125.536 73.6061 129.884 76.861 136.365V141.886C76.3098 142.429 76.0518 142.682 75.6095 143.113M71.2294 144.34C72.94 143.861 73.899 143.592 75.6095 143.113M71.2294 144.34L75.6095 143.113" stroke="black"/>
<path d="M150.697 106.92C148.826 114.242 146.567 117.125 144.44 124.71C143.539 126.729 143.843 128.597 144.44 130.844C145.277 133.46 146.226 134.211 148.194 135.138" stroke="black"/>
<path d="M137.557 94.6508L141.937 104.466C139.989 113.985 139.352 119.382 138.182 129.004C137.514 130.032 137.215 130.68 136.931 132.071C136.31 134.227 136.291 135.436 136.931 137.592C137.539 139.023 138.076 139.448 139.434 139.432C142.855 139.991 148.194 139.432 148.194 139.432V134.787C146.154 134.123 145.34 133.307 144.44 131.107C143.712 128.928 143.637 127.722 143.814 125.586C146.746 118.426 148 114.584 150.697 107.182V105.342L142.563 94.6508L141.937 94.1686H137.557V94.6508Z" fill="white" stroke="black"/>
<path d="M161.96 94.0373H71.2294C70.1066 92.1208 69.5804 91.0463 71.2294 89.1298C68.2921 86.3782 68.4443 85.0533 71.2294 82.9953C70.1748 79.7015 69.4356 77.6605 67.475 73.1802C65.113 68.9907 63.986 66.5793 62.4692 62.1382C61.0165 57.6917 60.8138 55.1319 61.2177 50.4827C62.1895 46.058 63.2148 43.632 66.2236 39.4407C70.7699 37.2072 73.5309 36.2434 79.3639 35.76H150.697C155.029 37.3761 157.87 38.4784 161.96 41.281C165.683 44.2053 167.16 46.1644 168.218 50.4827C168.879 55.2908 168.606 57.504 168.218 61.5247C167.124 70.2877 165.949 75.0434 161.96 82.9953C165.9 85.391 165.747 86.7341 161.96 89.1298C163.954 90.8424 164.079 91.9043 161.96 94.0373Z" fill="white"/>
<path d="M161.96 89.1298C163.954 90.8424 164.079 91.9043 161.96 94.0373H71.2294C70.1066 92.1208 69.5804 91.0463 71.2294 89.1298M161.96 89.1298H71.2294M161.96 89.1298C165.747 86.7341 165.9 85.391 161.96 82.9953M71.2294 89.1298C68.2921 86.3782 68.4443 85.0533 71.2294 82.9953M71.2294 82.9953H161.96M71.2294 82.9953C70.1748 79.7015 69.4356 77.6605 67.475 73.1802C65.113 68.9907 63.986 66.5793 62.4692 62.1382C61.0165 57.6917 60.8138 55.1319 61.2177 50.4827C62.1895 46.058 63.2148 43.632 66.2236 39.4407C70.7699 37.2072 73.5309 36.2434 79.3639 35.76H150.697C155.029 37.3761 157.87 38.4784 161.96 41.281C165.683 44.2053 167.16 46.1644 168.218 50.4827C168.879 55.2909 168.606 57.504 168.218 61.5247C167.124 70.2877 165.949 75.0434 161.96 82.9953" stroke="black"/>
<path d="M59.3405 145.567C62.7617 145.987 64.6797 145.857 68.1008 145.567L75.6095 143.376L76.861 141.535V136.014L71.2294 123.483C68.6409 118.156 66.5273 115.002 62.4692 112.348C48.4939 114.046 40.3489 114.465 24.9253 113.668L23.6739 114.281C29.3683 117.623 30.4344 121.2 30.5569 129.004C31.8043 137.257 33.198 140.583 36.1885 145.567L43.0715 143.376L47.4516 141.535L53.7089 142.149L59.3405 145.567Z" fill="white"/>
<path d="M58.0891 109.987C59.7813 110.759 61.2177 111.53 62.4692 112.348M62.4692 112.348C66.5273 115.002 68.6409 118.156 71.2294 123.483L76.861 136.014V141.535L75.6095 143.376L68.1008 145.567C64.6797 145.857 62.7617 145.987 59.3405 145.567L53.7089 142.149L47.4516 141.535L43.0715 143.376L36.1885 145.567C33.198 140.583 31.8043 137.257 30.5569 129.004C30.4344 121.2 29.3683 117.623 23.6739 114.281M62.4692 112.348C48.4939 114.046 40.3489 114.465 24.9253 113.668L23.6739 114.281M23.6739 114.281C22.6269 120.984 22.9104 124.421 19.2938 132.071C16.2179 135.904 17.3102 138.053 19.2938 141.886C23.671 140.341 24.0416 138.061 23.6739 133.298C23.8729 128.568 24.1662 126.782 24.9253 124.71" stroke="black"/>
<path d="M21.171 116.121C16.6863 120.634 15.2726 123.532 13.6622 129.004C12.5726 130.352 11.7549 131.277 10.9143 132.071C10.2299 132.718 9.53026 133.278 8.65635 133.911C3.55444 136.697 2.56893 139.248 5.45705 142.5C5.73341 142.811 6.04524 143.128 6.39232 143.453C6.70185 143.743 7.03942 144.038 7.40488 144.34C15.6264 149.528 19.8334 149.376 27.3557 149.247L28.3788 149.836C31.2754 148.035 33.5241 146.723 36.1885 145.758C33.2497 139.942 31.4954 136.77 30.5569 129.266C30.7589 126.739 30.8158 125.218 29.9311 120.678C27.9998 117.521 26.5778 116.085 23.6296 113.93L21.171 116.121Z" fill="white"/>
<path d="M5.45705 142.5C1.65167 146.365 0.564409 148.989 1.1475 154.768C6.65653 162.069 10.6031 163.052 18.0422 163.357C26.5209 164.68 30.685 163.809 38.0656 162.13C42.6988 161.488 44.8587 161.516 48.0773 162.13C53.9554 164.225 56.2774 163.748 59.9662 162.13C63.1136 157.932 62.3916 155.275 60.5919 150.474C59.6476 145.644 58.4346 143.718 54.3347 142.5C49.4477 141.046 46.7071 141.623 41.82 144.34C39.6211 144.704 37.8262 145.165 36.1885 145.758C33.5241 146.723 31.2754 148.035 28.3788 149.836L30.5569 151.088C38.3854 151.138 42.6286 150.731 49.3288 147.407C54.1095 143.922 55.9716 145.404 58.7148 150.474C58.9922 153.682 58.8958 155.436 58.089 158.449C55.3493 159.601 53.3629 159.643 49.3288 159.063C43.4164 157.104 40.0271 156.84 33.6856 159.676C28.121 160.181 24.8815 160.262 18.668 159.676C14.1326 157.765 10.1517 158.897 6.39232 152.928C5.15844 149.576 3.90467 147.4 6.39232 143.453C6.04524 143.128 5.73341 142.811 5.45705 142.5Z" fill="white"/>
<path d="M27.3557 149.247C19.8334 149.376 15.6264 149.528 7.40488 144.34C13.0125 151.535 17.7444 152.418 27.3557 150.474C27.7063 150.255 28.0468 150.042 28.3788 149.836L27.3557 149.247Z" fill="white"/>
<path d="M54.3347 100.785C44.2751 99.3316 38.6161 98.721 28.054 102.626C26.9228 104.654 26.7248 106.093 27.3557 108.147C27.5276 108.706 27.7611 109.312 28.054 109.987H33.6856C33.036 108.31 33.0117 107.37 33.6856 105.693C41.7507 104.029 45.9917 103.778 53.0832 104.466C54.3239 106.482 54.3844 107.73 54.3347 109.987H57.4634C57.6316 106.026 57.2776 103.924 54.3347 100.785Z" fill="white"/>
<path d="M28.054 109.987C27.7611 109.312 27.5276 108.706 27.3557 108.147C18.3668 112.661 15.1599 117.027 12.4107 127.777L10.9143 132.071C11.7549 131.277 12.5726 130.352 13.6622 129.004C15.2726 123.532 16.6863 120.634 21.171 116.121L23.6296 113.93L28.054 109.987Z" fill="white"/>
<path d="M57.4634 109.987H54.3347H33.6856H28.054L23.6296 113.93C38.7279 114.774 47.139 114.49 62 112L57.4634 109.987Z" fill="white"/>
<path d="M57.4634 109.987C57.6316 106.026 57.2776 103.924 54.3347 100.785C44.2751 99.3316 38.6161 98.721 28.054 102.626C26.9228 104.654 26.7248 106.093 27.3557 108.147M57.4634 109.987H28.054M57.4634 109.987H54.3347M57.4634 109.987L62 112C47.139 114.49 38.7279 114.774 23.6296 113.93M28.054 109.987C27.7611 109.312 27.5276 108.706 27.3557 108.147M28.054 109.987L23.6296 113.93M28.054 109.987H33.6856M33.6856 109.987C33.036 108.31 33.0117 107.37 33.6856 105.693C41.7507 104.029 45.9917 103.778 53.0832 104.466C54.3239 106.482 54.3844 107.73 54.3347 109.987M33.6856 109.987H54.3347M27.3557 108.147C18.3668 112.661 15.1599 117.027 12.4107 127.777L10.9143 132.071M7.40488 144.34C15.6264 149.528 19.8334 149.376 27.3557 149.247L28.3788 149.836M7.40488 144.34C13.0125 151.535 17.7444 152.418 27.3557 150.474C27.7063 150.255 28.0468 150.042 28.3788 149.836M7.40488 144.34C7.03942 144.038 6.70185 143.743 6.39232 143.453M10.9143 132.071C11.7549 131.277 12.5726 130.352 13.6622 129.004C15.2726 123.532 16.6863 120.634 21.171 116.121L23.6296 113.93M10.9143 132.071C10.2299 132.718 9.53026 133.278 8.65635 133.911C3.55444 136.697 2.56893 139.248 5.45705 142.5M5.45705 142.5C1.65167 146.365 0.564409 148.989 1.1475 154.768C6.65653 162.069 10.6031 163.052 18.0422 163.357C26.5209 164.68 30.685 163.809 38.0656 162.13C42.6988 161.488 44.8587 161.516 48.0773 162.13C53.9554 164.225 56.2774 163.748 59.9662 162.13C63.1136 157.932 62.3916 155.275 60.5919 150.474C59.6476 145.644 58.4346 143.718 54.3347 142.5C49.4477 141.046 46.7071 141.623 41.82 144.34C39.6211 144.704 37.8262 145.165 36.1885 145.758M5.45705 142.5C5.73341 142.811 6.04524 143.128 6.39232 143.453M6.39232 143.453C3.90467 147.4 5.15844 149.576 6.39232 152.928C10.1517 158.897 14.1326 157.765 18.668 159.676C24.8815 160.262 28.121 160.181 33.6856 159.676C40.0271 156.84 43.4164 157.104 49.3288 159.063C53.3629 159.643 55.3493 159.601 58.089 158.449C58.8958 155.436 58.9922 153.682 58.7148 150.474C55.9716 145.404 54.1095 143.922 49.3288 147.407C42.6286 150.731 38.3854 151.138 30.5569 151.088L28.3788 149.836M23.6296 113.93C26.5778 116.085 27.9998 117.521 29.9311 120.678C30.8158 125.218 30.7589 126.739 30.5569 129.266C31.4954 136.77 33.2497 139.942 36.1885 145.758M23.6296 113.93L22.4224 126.813L21.7966 131.107C21.3729 134.217 22.043 134.782 24.2996 133.56L26.8025 129.266M36.1885 145.758C33.5241 146.723 31.2754 148.035 28.3788 149.836" stroke="black"/>
<path d="M41.75 128L39 121.5L37.75 128H41.75Z" fill="white"/>
<path d="M36.5 134.5L37.75 128M44.5 134.5L41.75 128M41.75 128L39 121.5L37.75 128M41.75 128H37.75M45.5 121C46.6716 126.272 47.3284 129.228 48.5 134.5L54.5 133M54.5 121.5L61 125L62.5 120L59.5 134" stroke="black"/>
<path d="M160.313 68.3492C160.643 65.6426 161.228 63.618 162.047 61.0826C162.169 60.7068 162.082 60.2655 162.097 59.8756C162.121 59.2223 162.543 58.7066 162.543 58.0405C162.543 57.1306 162.721 56.4662 162.989 55.6019C163.248 54.7638 164.054 51.9196 163.311 51.1803C163.044 50.9153 161.668 50.9376 161.477 51.2788C160.892 52.3275 160.646 53.7344 160.264 54.8752C159.655 56.6917 158.743 58.2783 158.133 60.0973C157.547 61.8463 157.419 63.628 156.634 65.344C156.276 66.1273 155.627 66.8336 155.359 67.6349C155.019 68.6471 154.314 69.3558 153.959 70.3444C153.457 71.7427 153.001 74.3122 151.618 75" stroke="black" stroke-linecap="round"/>
<path d="M149.618 43C152.236 43 149.678 43 152.314 43C154.028 43 155.842 44 157.618 44" stroke="black" stroke-linecap="round"/>
<path d="M156.618 46C157.155 47.318 157.745 47.9554 157.792 49.3111C157.82 50.1382 158.444 51.0001 158.496 51.8C158.543 52.528 158.773 53.9341 158.444 54.6C158.163 55.1686 157.618 55.4963 157.322 56" stroke="black" stroke-linecap="round"/>
<path d="M147.118 70C147.054 67.6053 146.618 65.2841 146.618 62.8644C146.618 60.7696 147.47 58.1072 148.979 56.4519C150.52 54.7608 151.618 58.3012 151.618 59.1189C151.618 61.2845 151.368 63.3752 151.368 65.5195" stroke="black" stroke-linecap="round"/>
<path d="M128.618 52C129.797 52.6668 131.116 53.1167 132.219 53.7739C133.029 54.2566 133.496 55.2162 134.357 55.571C134.953 55.8167 135.668 57.575 135.807 58.1565C136.069 59.2468 136.313 60.2914 136.483 61.3913C136.78 63.3198 136.495 65.4962 136.495 67.4435C136.495 70.2957 136.495 73.1478 136.495 76" stroke="black" stroke-linecap="round"/>
<path d="M121.618 65C122.072 67.6907 122.143 70.3864 122.868 73.0331C123.168 74.1271 123.233 77.3681 124.618 78" stroke="black" stroke-linecap="round"/>
<path d="M114.945 59C114.9 61.0481 114.305 63.5942 114.84 65.642C115.131 66.755 115.546 68.4308 116.618 69" stroke="black" stroke-linecap="round"/>
<path d="M107.116 57C107.624 58.2904 107.866 59.5989 107.866 60.9552C107.866 62.5049 108.365 63.9491 108.365 65.4985C108.365 67.6087 108.365 69.7189 108.365 71.8291C108.365 72.9155 108.615 73.9589 108.615 75.0578C108.615 76.0654 108.71 76.2814 107.81 76.8798C106.392 77.8225 105.618 72.9231 105.618 72.5671" stroke="black" stroke-linecap="round"/>
<path d="M99.6179 51C101.947 53.0099 102.236 51.7277 100.515 54" stroke="black" stroke-linecap="round"/>
<path d="M93.6179 54C93.6179 55.6306 94.0365 57.2008 94.0365 58.8201C94.0365 59.5107 94.0796 60.0869 94.2846 60.7438C94.3645 61 94.1925 61.4477 94.3854 61.6596C94.53 61.8185 94.4468 62.1349 94.4551 62.334C94.4697 62.6797 94.6739 63.0419 94.742 63.3846C94.9588 64.4768 95.3426 65.596 95.4396 66.7068C95.4842 67.2172 95.7895 67.7373 95.9202 68.2401C96.0161 68.6089 95.9446 68.981 96.0985 69.3333C96.537 70.337 96.5272 71.533 96.8582 72.5562C97.144 73.4392 97.3868 74.3471 97.9435 75.1117C98.2524 75.536 98.6554 75.9935 98.9202 76.4179C99.0454 76.6184 99.4416 76.7577 99.6179 77" stroke="black" stroke-linecap="round"/>
<path d="M88.8114 73C88.6252 71.6704 88.5842 70.4042 88.5563 69.0675C88.5385 68.2155 88.0862 67.3896 87.9468 66.5518C87.867 66.0723 87.7561 65.6596 87.6349 65.1928C87.5106 64.7135 87.5892 64.2325 87.4719 63.7542C87.3119 63.1011 87.4648 62.4077 87.3444 61.7446C87.2102 61.0056 87.1182 60.3115 86.8979 59.5976C86.6509 58.7975 86.844 57.9408 86.6711 57.1253C86.5712 56.6539 86.6427 56.1091 86.6427 55.6289C86.6427 55.016 86.6296 54.4951 86.8341 53.9157C86.9391 53.6181 87.1135 52.1644 87.479 52.0578C88.5163 51.7555 89.7591 52.6828 89.9312 53.8C90.2514 55.8784 90.465 58.0337 91.0439 60.0675C91.3501 61.1433 91.16 62.2691 91.4266 63.3566C91.5918 64.0309 91.6179 64.6306 91.6179 65.3229" stroke="black" stroke-linecap="round"/>
<path d="M84.6179 43C83.5274 42.8546 82.4832 42.676 81.3957 42.5944C80.4803 42.5258 79.5117 42 78.6179 42" stroke="black" stroke-linecap="round"/>
<path d="M78.6179 45C78.6179 46.3432 78.6179 47.6864 78.6179 49.0296C78.6179 49.9777 78.7021 52.5116 79.6179 53" stroke="black" stroke-linecap="round"/>
<path d="M77.6179 56C78.0328 57.1281 78.423 58.2284 78.6726 59.3819C78.8459 60.1831 78.9488 60.9972 79.3054 61.75C79.6422 62.461 79.6529 63.4711 79.7976 64.2431C79.9436 65.0217 80.5614 65.6834 80.7117 66.4514C80.9954 67.9016 81.7033 69.8576 82.821 70.9931C84.3127 72.5084 85.0039 74.5653 86.6179 76" stroke="black" stroke-linecap="round"/>
<path d="M71.6179 45C71.6179 45.9984 71.6179 46.9899 71.6179 48" stroke="black" stroke-linecap="round"/>
<path d="M74.6179 61.5782C74.2286 60.2769 73.5478 59.1773 73.5164 57.8184C73.492 56.7614 73.1003 55.9806 72.6903 55.0162C72.4237 54.3889 72.3725 53.8021 72.1396 53.1715C71.9878 52.7607 72.0199 52.1931 71.7877 51.8267C71.6692 51.6397 71.4626 51.5111 71.3441 51.3127C70.8992 50.5683 70.6627 49.109 69.7989 48.6231C69.4683 48.4372 69.3975 48.0176 68.9728 48.0176C68.5424 48.0176 68.1301 47.8945 67.9478 48.2993C67.1819 49.9994 67.9485 52.1055 68.2538 53.8192C68.5477 55.4696 68.9442 56.9765 69.7377 58.4802C69.8504 58.6937 69.7756 58.9355 69.8066 59.1632C69.8426 59.4285 70.0507 59.6205 70.0743 59.9025C70.1062 60.2847 70.4637 60.5555 70.5944 60.9163C71.1559 62.4669 72.1469 63.8661 73.3787 65" stroke="black" stroke-linecap="round"/>
<path d="M152.518 49.1723H80.797C79.4311 49.3552 80.2342 48.5848 81.4261 47.3445L90.234 37.5964C90.3789 37.3554 90.5291 37.1674 90.788 36.9871L90.234 4.08704C90.2084 1.16896 91.5592 0.884945 94.6379 1.04075H136.79C142.028 0.785551 143.489 1.67287 143.081 5.30556V36.9871L152.518 47.9538C153.581 49.2303 153.247 49.2458 152.518 49.1723Z" fill="white"/>
<path d="M143.081 36.9871L152.518 47.9538C153.581 49.2303 153.247 49.2457 152.518 49.1723H80.797C79.4311 49.3552 80.2342 48.5848 81.4261 47.3445L90.234 37.5964C90.3789 37.3554 90.5291 37.1674 90.788 36.9871M143.081 36.9871C142.5 36.6766 141.921 36.5309 139.936 36.3778H92.1214C91.4675 36.6094 91.0654 36.7939 90.788 36.9871M143.081 36.9871V5.30556C143.489 1.67287 142.028 0.785551 136.79 1.04075H94.6379C91.5592 0.884945 90.2084 1.16896 90.234 4.08704L90.788 36.9871M80.1679 49.7815C78.9096 49.1722 80.0158 50.7122 81.4261 51H151.889C152.847 50.4962 154.406 48.563 153.147 49.7815M105.962 45.5167H127.353V44.2982C118.999 44.2982 114.316 44.2982 105.962 44.2982M133.998 44.9074C134.981 44.9074 135.532 44.9074 136.514 44.9074H137.144M101.558 44.2982L100.929 45.5167H104.075L104.704 44.2982C103.476 44.2982 102.787 44.2982 101.558 44.2982ZM97.1545 44.2982L96.5253 45.5167H98.4127L99.0419 44.2982H97.1545ZM92.1214 44.2982L91.4923 46.1259H93.3797L94.6379 44.2982H92.1214ZM129.869 44.2982L131.128 46.1259H132.386L131.757 44.2982H129.869ZM139.306 45.5167H141.823L141.194 44.2982H138.048L138.677 45.5167H139.306ZM92.1214 4.08704V31.5038H141.194V4.08704H92.1214Z" stroke="black"/>
</svg>
