<svg width="411" height="315" viewBox="0 0 411 315" fill="none" xmlns="http://www.w3.org/2000/svg">
<path d="M409.5 34.5C410.198 8.90975 403.54 1.78018 380.5 0.5H22C1.49998 0.5 0.249059 15.2763 1.49999 34.5M409.5 34.5V286C406.965 306.042 398.925 311.875 375 314H22C7.48898 308.861 3.66429 302.138 1.49999 286V34.5M409.5 34.5H1.49999M148.5 10V27H363V10H148.5Z" stroke="black"/>
<circle cx="33" cy="19" r="12" fill="#FFDFF0"/>
<circle cx="65" cy="19" r="12" fill="#FFD6CA"/>
<circle cx="97" cy="19" r="12" fill="#FFE685"/>
<rect x="23" y="82" width="148" height="151" rx="40" fill="#FFDFF0"/>
<mask id="mask0_4_114" style="mask-type:alpha" maskUnits="userSpaceOnUse" x="23" y="82" width="148" height="151">
<rect x="23" y="82" width="148" height="151" rx="40" fill="white"/>
</mask>
<g mask="url(#mask0_4_114)">
<path fill-rule="evenodd" clip-rule="evenodd" d="M106.096 103.14C108.125 105.497 108.795 108.867 108.211 111.907C107.585 115.321 105.728 118.339 103.548 120.938C101.799 123.03 99.7913 124.881 97.6974 126.599C95.2578 128.603 92.8613 130.762 91.3285 133.581C90.0331 135.872 89.7309 138.692 90.616 141.181C92.0625 145.454 95.4305 148.626 97.2656 152.657C95.2362 150.828 93.2499 148.934 91.3933 146.93C89.4502 144.815 87.6151 142.568 86.4061 139.925C85.5857 138.075 85.2187 135.916 85.8448 133.956C86.4709 131.951 87.8742 130.343 89.2775 128.845C93.1852 124.859 97.9998 121.929 101.821 117.876C103.937 115.651 105.685 112.986 106.29 109.924C106.786 107.678 106.549 105.365 106.096 103.14Z" fill="white"/>
<path fill-rule="evenodd" clip-rule="evenodd" d="M106.096 103.14C108.125 105.497 108.795 108.867 108.211 111.907C107.585 115.321 105.728 118.339 103.548 120.938C101.799 123.03 99.7913 124.881 97.6974 126.599C95.2578 128.603 92.8613 130.762 91.3285 133.581C90.0331 135.872 89.7309 138.692 90.616 141.181C92.0625 145.454 95.4305 148.626 97.2656 152.657C95.2362 150.828 93.2499 148.934 91.3933 146.93C89.4502 144.815 87.6151 142.568 86.4061 139.925C85.5857 138.075 85.2187 135.916 85.8448 133.956C86.4709 131.951 87.8742 130.343 89.2775 128.845C93.1852 124.859 97.9998 121.929 101.821 117.876C103.937 115.651 105.685 112.986 106.29 109.924C106.786 107.678 106.549 105.365 106.096 103.14Z" stroke="white" stroke-width="0.094"/>
<path fill-rule="evenodd" clip-rule="evenodd" d="M102.9 128.229C107.089 125.079 111.989 123.074 116.955 121.621C113.026 124.176 108.924 126.511 105.534 129.793C104.304 131.004 103.138 132.392 102.598 134.088C102.188 135.343 102.361 136.731 102.858 137.921C103.764 140.035 105.297 141.753 106.463 143.692C107.456 145.344 107.629 147.458 106.873 149.243C105.728 151.864 103.483 153.78 101.152 155.3C100.849 155.476 100.591 155.807 100.223 155.851C101.778 154.419 102.987 152.392 102.943 150.212C102.9 148.582 102.015 147.15 100.979 145.983C98.8415 143.383 97.0498 140.079 97.4168 136.577C97.784 133.075 100.245 130.255 102.9 128.229Z" fill="white"/>
<path fill-rule="evenodd" clip-rule="evenodd" d="M102.9 128.229C107.089 125.079 111.989 123.074 116.955 121.621C113.026 124.176 108.924 126.511 105.534 129.793C104.304 131.004 103.138 132.392 102.598 134.088C102.188 135.343 102.361 136.731 102.858 137.921C103.764 140.035 105.297 141.753 106.463 143.692C107.456 145.344 107.629 147.458 106.873 149.243C105.728 151.864 103.483 153.78 101.152 155.3C100.849 155.476 100.591 155.807 100.223 155.851C101.778 154.419 102.987 152.392 102.943 150.212C102.9 148.582 102.015 147.15 100.979 145.983C98.8415 143.383 97.0498 140.079 97.4168 136.577C97.784 133.075 100.245 130.255 102.9 128.229Z" stroke="white" stroke-width="0.094"/>
<path fill-rule="evenodd" clip-rule="evenodd" d="M117.754 153.692C118.661 152.569 120.107 152.282 121.424 152.106C123.713 151.798 126.152 152.392 127.879 154C129.305 155.3 130.103 157.326 129.801 159.287C129.477 161.556 127.987 163.45 126.303 164.882C123.26 167.371 119.503 168.825 115.746 169.794C115.962 169.551 116.199 169.331 116.48 169.155C119.33 167.591 122.158 165.763 124.252 163.208C125.526 161.622 126.519 159.551 126.109 157.459C125.677 155.036 123.367 153.273 121.014 153.141C119.891 153.031 118.834 153.472 117.754 153.692Z" fill="white"/>
<path fill-rule="evenodd" clip-rule="evenodd" d="M117.754 153.692C118.661 152.569 120.107 152.282 121.424 152.106C123.713 151.798 126.152 152.392 127.879 154C129.305 155.3 130.103 157.326 129.801 159.287C129.477 161.556 127.987 163.45 126.303 164.882C123.26 167.371 119.503 168.825 115.746 169.794C115.962 169.551 116.199 169.331 116.48 169.155C119.33 167.591 122.158 165.763 124.252 163.208C125.526 161.622 126.519 159.551 126.109 157.459C125.677 155.036 123.367 153.273 121.014 153.141C119.891 153.031 118.834 153.472 117.754 153.692Z" stroke="white" stroke-width="0.094"/>
<path fill-rule="evenodd" clip-rule="evenodd" d="M74.3593 155.696C78.3318 153.956 82.6494 152.833 86.9891 152.899C84.4631 153.648 81.8724 154.287 79.4976 155.432C78.9363 155.74 78.2886 156.027 77.9647 156.622C77.7918 157.084 78.267 157.392 78.6124 157.547C80.0805 158.163 81.6997 158.252 83.2757 158.406C88.8026 158.78 94.3511 158.56 99.8564 158.207C105.297 157.855 110.694 157.106 116.07 156.225C114.883 156.798 113.674 157.37 112.573 158.097C112.011 158.494 111.32 158.604 110.694 158.758C104.088 160.256 97.3088 160.719 90.5729 160.829C87.9606 160.851 85.3699 160.807 82.7792 160.63C79.8862 160.432 76.9716 160.212 74.1434 159.441C73.323 159.199 72.4595 158.934 71.8118 158.34C71.4879 158.075 71.4879 157.547 71.7686 157.238C72.481 156.489 73.4742 156.137 74.3593 155.696Z" fill="white"/>
<path fill-rule="evenodd" clip-rule="evenodd" d="M74.3593 155.696C78.3318 153.956 82.6494 152.833 86.9891 152.899C84.4631 153.648 81.8724 154.287 79.4976 155.432C78.9363 155.74 78.2886 156.027 77.9647 156.622C77.7918 157.084 78.267 157.392 78.6124 157.547C80.0805 158.163 81.6997 158.252 83.2757 158.406C88.8026 158.78 94.3511 158.56 99.8564 158.207C105.297 157.855 110.694 157.106 116.07 156.225C114.883 156.798 113.674 157.37 112.573 158.097C112.011 158.494 111.32 158.604 110.694 158.758C104.088 160.256 97.3088 160.719 90.5729 160.829C87.9606 160.851 85.3699 160.807 82.7792 160.63C79.8862 160.432 76.9716 160.212 74.1434 159.441C73.323 159.199 72.4595 158.934 71.8118 158.34C71.4879 158.075 71.4879 157.547 71.7686 157.238C72.481 156.489 73.4742 156.137 74.3593 155.696Z" stroke="white" stroke-width="0.094"/>
<path fill-rule="evenodd" clip-rule="evenodd" d="M79.4545 165.102C80.5772 164.199 81.9157 163.692 83.2542 163.208C82.8225 163.736 82.218 164.243 82.1748 164.97C82.1532 165.432 82.5202 165.785 82.8872 166.005C83.5997 166.38 84.3985 166.512 85.1973 166.622C89.3425 167.062 93.5308 167.305 97.7191 167.018C101.54 166.82 105.34 166.181 109.119 165.498C110.154 166.49 111.385 167.172 112.681 167.767C108.125 169.133 103.44 169.926 98.7336 170.3C94.2864 170.609 89.7742 170.587 85.3484 169.86C83.5997 169.529 81.8078 169.155 80.2101 168.318C79.5625 167.965 78.8284 167.503 78.6341 166.732C78.5046 166.071 78.9795 165.476 79.4545 165.102Z" fill="white"/>
<path fill-rule="evenodd" clip-rule="evenodd" d="M79.4545 165.102C80.5772 164.199 81.9157 163.692 83.2542 163.208C82.8225 163.736 82.218 164.243 82.1748 164.97C82.1532 165.432 82.5202 165.785 82.8872 166.005C83.5997 166.38 84.3985 166.512 85.1973 166.622C89.3425 167.062 93.5308 167.305 97.7191 167.018C101.54 166.82 105.34 166.181 109.119 165.498C110.154 166.49 111.385 167.172 112.681 167.767C108.125 169.133 103.44 169.926 98.7336 170.3C94.2864 170.609 89.7742 170.587 85.3484 169.86C83.5997 169.529 81.8078 169.155 80.2101 168.318C79.5625 167.965 78.8284 167.503 78.6341 166.732C78.5046 166.071 78.9795 165.476 79.4545 165.102Z" stroke="white" stroke-width="0.094"/>
<path fill-rule="evenodd" clip-rule="evenodd" d="M81.9588 174.706C82.9519 173.891 84.1825 173.472 85.3915 173.12C85.0029 173.494 84.3121 173.957 84.6143 174.595C85.1972 175.366 86.2767 175.455 87.1403 175.653C90.7889 176.115 94.4807 176.424 98.1293 176.137C100.893 175.961 103.613 175.455 106.312 174.97C107.866 175.895 109.485 176.688 111.147 177.393C108.6 178.56 105.858 179.309 103.116 179.838C98.4961 180.675 93.725 180.785 89.0833 180.036C87.0323 179.662 84.9382 179.177 83.0815 178.142C82.369 177.724 81.6134 177.239 81.3112 176.424C81.0737 175.785 81.4623 175.102 81.9588 174.706Z" fill="white"/>
<path fill-rule="evenodd" clip-rule="evenodd" d="M81.9588 174.706C82.9519 173.891 84.1825 173.472 85.3915 173.12C85.0029 173.494 84.3121 173.957 84.6143 174.595C85.1972 175.366 86.2767 175.455 87.1403 175.653C90.7889 176.115 94.4807 176.424 98.1293 176.137C100.893 175.961 103.613 175.455 106.312 174.97C107.866 175.895 109.485 176.688 111.147 177.393C108.6 178.56 105.858 179.309 103.116 179.838C98.4961 180.675 93.725 180.785 89.0833 180.036C87.0323 179.662 84.9382 179.177 83.0815 178.142C82.369 177.724 81.6134 177.239 81.3112 176.424C81.0737 175.785 81.4623 175.102 81.9588 174.706Z" stroke="white" stroke-width="0.094"/>
<path fill-rule="evenodd" clip-rule="evenodd" d="M69.9767 180.939C71.963 180.257 74.014 179.706 76.1081 179.64C76.9501 179.618 77.8137 179.662 78.5477 180.102C76.0434 180.257 73.539 180.895 71.2937 182.063C70.7971 182.349 70.2358 182.68 70.0415 183.274C70.0415 183.957 70.7971 184.177 71.2937 184.397C74.4242 185.587 77.7705 185.961 81.0521 186.314C90.8321 187.151 100.677 186.93 110.457 186.028C114.148 185.609 117.862 185.19 121.446 184.155C122.59 183.759 123.885 183.362 124.641 182.327C125.095 181.71 124.792 180.939 124.339 180.411C125.073 180.829 126.109 181.358 125.958 182.371C125.677 183.428 124.619 183.979 123.756 184.486C120.993 185.917 117.948 186.645 114.926 187.283C106.139 189.045 97.1362 189.442 88.1982 189.178C81.4623 188.935 74.7264 188.274 68.0769 187.107C66.8895 186.82 65.5509 186.578 64.6873 185.631C64.126 184.97 64.6226 184.045 65.1623 183.561C66.5224 182.283 68.2712 181.578 69.9767 180.939Z" fill="white"/>
<path fill-rule="evenodd" clip-rule="evenodd" d="M69.9767 180.939C71.963 180.257 74.014 179.706 76.1081 179.64C76.9501 179.618 77.8137 179.662 78.5477 180.102C76.0434 180.257 73.539 180.895 71.2937 182.063C70.7971 182.349 70.2358 182.68 70.0415 183.274C70.0415 183.957 70.7971 184.177 71.2937 184.397C74.4242 185.587 77.7705 185.961 81.0521 186.314C90.8321 187.151 100.677 186.93 110.457 186.028C114.148 185.609 117.862 185.19 121.446 184.155C122.59 183.759 123.885 183.362 124.641 182.327C125.095 181.71 124.792 180.939 124.339 180.411C125.073 180.829 126.109 181.358 125.958 182.371C125.677 183.428 124.619 183.979 123.756 184.486C120.993 185.917 117.948 186.645 114.926 187.283C106.139 189.045 97.1362 189.442 88.1982 189.178C81.4623 188.935 74.7264 188.274 68.0769 187.107C66.8895 186.82 65.5509 186.578 64.6873 185.631C64.126 184.97 64.6226 184.045 65.1623 183.561C66.5224 182.283 68.2712 181.578 69.9767 180.939Z" stroke="white" stroke-width="0.094"/>
<path fill-rule="evenodd" clip-rule="evenodd" d="M123.777 188.472C125.958 187.701 128.289 186.887 129.909 185.125C129.628 187.041 128.009 188.362 126.411 189.222C123.346 190.852 119.913 191.601 116.502 192.217C109.291 193.385 101.972 193.671 94.6534 193.539C89.6663 193.385 84.636 193.186 79.735 192.129C78.5693 191.798 77.3172 191.578 76.3025 190.874C80.6635 191.622 85.0893 191.931 89.5152 192.107C96.7908 192.327 104.088 192.041 111.32 191.116C115.509 190.521 119.719 189.794 123.777 188.472Z" fill="white"/>
<path fill-rule="evenodd" clip-rule="evenodd" d="M123.777 188.472C125.958 187.701 128.289 186.887 129.909 185.125C129.628 187.041 128.009 188.362 126.411 189.222C123.346 190.852 119.913 191.601 116.502 192.217C109.291 193.385 101.972 193.671 94.6534 193.539C89.6663 193.385 84.636 193.186 79.735 192.129C78.5693 191.798 77.3172 191.578 76.3025 190.874C80.6635 191.622 85.0893 191.931 89.5152 192.107C96.7908 192.327 104.088 192.041 111.32 191.116C115.509 190.521 119.719 189.794 123.777 188.472Z" stroke="white" stroke-width="0.094"/>
</g>
<line x1="206" y1="100.5" x2="343" y2="100.5" stroke="black"/>
<line x1="208" y1="119.5" x2="252" y2="119.5" stroke="black"/>
<line x1="266" y1="119.5" x2="310" y2="119.5" stroke="black"/>
<line x1="325" y1="119.5" x2="369" y2="119.5" stroke="black"/>
<line x1="208" y1="143.5" x2="345" y2="143.5" stroke="black"/>
<line x1="208" y1="165.5" x2="345" y2="165.5" stroke="black"/>
<line x1="210" y1="183.5" x2="347" y2="183.5" stroke="black"/>
<line x1="210" y1="200.5" x2="254" y2="200.5" stroke="black"/>
<path d="M171.398 13.2727H172.455V19.5114C172.455 20.0682 172.352 20.5412 172.148 20.9304C171.943 21.3196 171.655 21.6151 171.283 21.8168C170.911 22.0185 170.472 22.1193 169.966 22.1193C169.489 22.1193 169.064 22.0327 168.692 21.8594C168.32 21.6832 168.027 21.4332 167.814 21.1094C167.601 20.7855 167.494 20.4006 167.494 19.9545H168.534C168.534 20.2017 168.595 20.4176 168.717 20.6023C168.842 20.7841 169.013 20.9261 169.229 21.0284C169.445 21.1307 169.69 21.1818 169.966 21.1818C170.27 21.1818 170.528 21.1179 170.741 20.9901C170.955 20.8622 171.116 20.6747 171.227 20.4276C171.341 20.1776 171.398 19.8722 171.398 19.5114V13.2727ZM176.362 22.1534C175.947 22.1534 175.571 22.0753 175.233 21.919C174.895 21.7599 174.626 21.5312 174.428 21.233C174.229 20.9318 174.129 20.5682 174.129 20.142C174.129 19.767 174.203 19.4631 174.351 19.2301C174.499 18.9943 174.696 18.8097 174.943 18.6761C175.19 18.5426 175.463 18.4432 175.761 18.3778C176.063 18.3097 176.365 18.2557 176.669 18.2159C177.067 18.1648 177.389 18.1264 177.636 18.1009C177.886 18.0724 178.068 18.0256 178.182 17.9602C178.298 17.8949 178.357 17.7812 178.357 17.6193V17.5852C178.357 17.1648 178.241 16.8381 178.011 16.6051C177.784 16.3722 177.439 16.2557 176.976 16.2557C176.496 16.2557 176.119 16.3608 175.847 16.571C175.574 16.7812 175.382 17.0057 175.271 17.2443L174.317 16.9034C174.487 16.5057 174.714 16.196 174.999 15.9744C175.286 15.75 175.598 15.5937 175.936 15.5057C176.277 15.4148 176.612 15.3693 176.942 15.3693C177.152 15.3693 177.393 15.3949 177.666 15.446C177.942 15.4943 178.207 15.5952 178.463 15.7486C178.722 15.902 178.936 16.1335 179.107 16.4432C179.277 16.7528 179.362 17.1676 179.362 17.6875V22H178.357V21.1136H178.305C178.237 21.2557 178.124 21.4077 177.964 21.5696C177.805 21.7315 177.594 21.8693 177.33 21.983C177.065 22.0966 176.743 22.1534 176.362 22.1534ZM176.516 21.25C176.913 21.25 177.249 21.1719 177.521 21.0156C177.797 20.8594 178.004 20.6577 178.143 20.4105C178.286 20.1634 178.357 19.9034 178.357 19.6307V18.7102C178.314 18.7614 178.22 18.8082 178.075 18.8509C177.933 18.8906 177.768 18.9261 177.581 18.9574C177.396 18.9858 177.216 19.0114 177.04 19.0341C176.866 19.054 176.726 19.071 176.618 19.0852C176.357 19.1193 176.112 19.1747 175.885 19.2514C175.661 19.3253 175.479 19.4375 175.339 19.5881C175.203 19.7358 175.135 19.9375 175.135 20.1932C175.135 20.5426 175.264 20.8068 175.523 20.9858C175.784 21.1619 176.115 21.25 176.516 21.25ZM186.316 15.4545L183.895 22H182.873L180.452 15.4545H181.543L183.35 20.6705H183.418L185.225 15.4545H186.316ZM189.37 22.1534C188.955 22.1534 188.579 22.0753 188.241 21.919C187.903 21.7599 187.634 21.5312 187.435 21.233C187.237 20.9318 187.137 20.5682 187.137 20.142C187.137 19.767 187.211 19.4631 187.359 19.2301C187.506 18.9943 187.704 18.8097 187.951 18.6761C188.198 18.5426 188.471 18.4432 188.769 18.3778C189.07 18.3097 189.373 18.2557 189.677 18.2159C190.075 18.1648 190.397 18.1264 190.644 18.1009C190.894 18.0724 191.076 18.0256 191.19 17.9602C191.306 17.8949 191.364 17.7812 191.364 17.6193V17.5852C191.364 17.1648 191.249 16.8381 191.019 16.6051C190.792 16.3722 190.447 16.2557 189.984 16.2557C189.504 16.2557 189.127 16.3608 188.854 16.571C188.582 16.7812 188.39 17.0057 188.279 17.2443L187.325 16.9034C187.495 16.5057 187.722 16.196 188.006 15.9744C188.293 15.75 188.606 15.5937 188.944 15.5057C189.285 15.4148 189.62 15.3693 189.95 15.3693C190.16 15.3693 190.401 15.3949 190.674 15.446C190.95 15.4943 191.215 15.5952 191.471 15.7486C191.729 15.902 191.944 16.1335 192.114 16.4432C192.285 16.7528 192.37 17.1676 192.37 17.6875V22H191.364V21.1136H191.313C191.245 21.2557 191.131 21.4077 190.972 21.5696C190.813 21.7315 190.602 21.8693 190.337 21.983C190.073 22.0966 189.751 22.1534 189.37 22.1534ZM189.523 21.25C189.921 21.25 190.256 21.1719 190.529 21.0156C190.805 20.8594 191.012 20.6577 191.151 20.4105C191.293 20.1634 191.364 19.9034 191.364 19.6307V18.7102C191.322 18.7614 191.228 18.8082 191.083 18.8509C190.941 18.8906 190.776 18.9261 190.589 18.9574C190.404 18.9858 190.224 19.0114 190.048 19.0341C189.874 19.054 189.734 19.071 189.626 19.0852C189.364 19.1193 189.12 19.1747 188.893 19.2514C188.668 19.3253 188.487 19.4375 188.347 19.5881C188.211 19.7358 188.143 19.9375 188.143 20.1932C188.143 20.5426 188.272 20.8068 188.531 20.9858C188.792 21.1619 189.123 21.25 189.523 21.25ZM197.956 17.7898V18.7273H194.137V17.7898H197.956ZM199.862 22V13.2727H202.81C203.495 13.2727 204.055 13.3963 204.489 13.6435C204.927 13.8878 205.251 14.2188 205.461 14.6364C205.671 15.054 205.776 15.5199 205.776 16.0341C205.776 16.5483 205.671 17.0156 205.461 17.4361C205.254 17.8565 204.933 18.1918 204.498 18.4418C204.063 18.6889 203.506 18.8125 202.827 18.8125H200.714V17.875H202.793C203.262 17.875 203.638 17.794 203.923 17.6321C204.207 17.4702 204.413 17.2514 204.54 16.9759C204.671 16.6974 204.737 16.3835 204.737 16.0341C204.737 15.6847 204.671 15.3722 204.54 15.0966C204.413 14.821 204.205 14.6051 203.918 14.4489C203.631 14.2898 203.251 14.2102 202.776 14.2102H200.918V22H199.862ZM207.342 22V15.4545H208.314V16.4432H208.382C208.501 16.1193 208.717 15.8565 209.03 15.6548C209.342 15.4531 209.695 15.3523 210.087 15.3523C210.161 15.3523 210.253 15.3537 210.364 15.3565C210.474 15.3594 210.558 15.3636 210.615 15.3693V16.392C210.581 16.3835 210.503 16.3707 210.381 16.3537C210.261 16.3338 210.135 16.3239 210.001 16.3239C209.683 16.3239 209.399 16.3906 209.149 16.5241C208.902 16.6548 208.706 16.8366 208.561 17.0696C208.419 17.2997 208.348 17.5625 208.348 17.858V22H207.342ZM214.267 22.1364C213.676 22.1364 213.158 21.9957 212.712 21.7145C212.268 21.4332 211.922 21.0398 211.672 20.5341C211.425 20.0284 211.301 19.4375 211.301 18.7614C211.301 18.0795 211.425 17.4844 211.672 16.9759C211.922 16.4673 212.268 16.0724 212.712 15.7912C213.158 15.5099 213.676 15.3693 214.267 15.3693C214.858 15.3693 215.375 15.5099 215.818 15.7912C216.264 16.0724 216.611 16.4673 216.858 16.9759C217.108 17.4844 217.233 18.0795 217.233 18.7614C217.233 19.4375 217.108 20.0284 216.858 20.5341C216.611 21.0398 216.264 21.4332 215.818 21.7145C215.375 21.9957 214.858 22.1364 214.267 22.1364ZM214.267 21.233C214.716 21.233 215.085 21.1179 215.375 20.8878C215.665 20.6577 215.879 20.3551 216.018 19.9801C216.158 19.6051 216.227 19.1989 216.227 18.7614C216.227 18.3239 216.158 17.9162 216.018 17.5384C215.879 17.1605 215.665 16.8551 215.375 16.6222C215.085 16.3892 214.716 16.2727 214.267 16.2727C213.818 16.2727 213.449 16.3892 213.159 16.6222C212.869 16.8551 212.655 17.1605 212.516 17.5384C212.376 17.9162 212.307 18.3239 212.307 18.7614C212.307 19.1989 212.376 19.6051 212.516 19.9801C212.655 20.3551 212.869 20.6577 213.159 20.8878C213.449 21.1179 213.818 21.233 214.267 21.233ZM218.768 15.4545H219.774V22.4773C219.774 22.8807 219.704 23.2301 219.565 23.5256C219.429 23.821 219.221 24.0497 218.943 24.2116C218.667 24.3736 218.319 24.4545 217.899 24.4545C217.865 24.4545 217.831 24.4545 217.797 24.4545C217.762 24.4545 217.728 24.4545 217.694 24.4545V23.517C217.728 23.517 217.76 23.517 217.788 23.517C217.816 23.517 217.848 23.517 217.882 23.517C218.189 23.517 218.413 23.4261 218.555 23.2443C218.697 23.0653 218.768 22.8097 218.768 22.4773V15.4545ZM219.262 14.3636C219.066 14.3636 218.897 14.2969 218.755 14.1634C218.616 14.0298 218.547 13.8693 218.547 13.6818C218.547 13.4943 218.616 13.3338 218.755 13.2003C218.897 13.0668 219.066 13 219.262 13C219.458 13 219.626 13.0668 219.765 13.2003C219.907 13.3338 219.978 13.4943 219.978 13.6818C219.978 13.8693 219.907 14.0298 219.765 14.1634C219.626 14.2969 219.458 14.3636 219.262 14.3636ZM224.36 22.1364C223.729 22.1364 223.185 21.9972 222.728 21.7188C222.273 21.4375 221.923 21.0455 221.675 20.5426C221.431 20.0369 221.309 19.4489 221.309 18.7784C221.309 18.108 221.431 17.517 221.675 17.0057C221.923 16.4915 222.266 16.0909 222.707 15.804C223.15 15.5142 223.667 15.3693 224.258 15.3693C224.599 15.3693 224.935 15.4261 225.268 15.5398C225.6 15.6534 225.903 15.8381 226.175 16.0938C226.448 16.3466 226.665 16.6818 226.827 17.0994C226.989 17.517 227.07 18.0312 227.07 18.642V19.0682H222.025V18.1989H226.048C226.048 17.8295 225.974 17.5 225.826 17.2102C225.681 16.9205 225.474 16.6918 225.204 16.5241C224.937 16.3565 224.621 16.2727 224.258 16.2727C223.857 16.2727 223.511 16.3722 223.218 16.571C222.928 16.767 222.705 17.0227 222.549 17.3381C222.393 17.6534 222.315 17.9915 222.315 18.3523V18.9318C222.315 19.4261 222.4 19.8452 222.57 20.1889C222.744 20.5298 222.984 20.7898 223.29 20.9688C223.597 21.1449 223.954 21.233 224.36 21.233C224.624 21.233 224.863 21.196 225.076 21.1222C225.292 21.0455 225.478 20.9318 225.634 20.7812C225.79 20.6278 225.911 20.4375 225.996 20.2102L226.968 20.483C226.866 20.8125 226.694 21.1023 226.452 21.3523C226.211 21.5994 225.913 21.7926 225.558 21.9318C225.202 22.0682 224.803 22.1364 224.36 22.1364ZM231.259 22.1364C230.646 22.1364 230.117 21.9915 229.674 21.7017C229.231 21.4119 228.89 21.0128 228.651 20.5043C228.413 19.9957 228.293 19.4148 228.293 18.7614C228.293 18.0966 228.415 17.5099 228.66 17.0014C228.907 16.4901 229.251 16.0909 229.691 15.804C230.134 15.5142 230.651 15.3693 231.242 15.3693C231.702 15.3693 232.117 15.4545 232.487 15.625C232.856 15.7955 233.158 16.0341 233.394 16.3409C233.63 16.6477 233.776 17.0057 233.833 17.4148H232.827C232.751 17.1165 232.58 16.8523 232.316 16.6222C232.055 16.3892 231.702 16.2727 231.259 16.2727C230.867 16.2727 230.523 16.375 230.228 16.5795C229.935 16.7812 229.707 17.0668 229.542 17.4361C229.38 17.8026 229.299 18.233 229.299 18.7273C229.299 19.233 229.379 19.6733 229.538 20.0483C229.7 20.4233 229.927 20.7145 230.219 20.9219C230.515 21.1293 230.862 21.233 231.259 21.233C231.521 21.233 231.758 21.1875 231.971 21.0966C232.184 21.0057 232.364 20.875 232.512 20.7045C232.66 20.5341 232.765 20.3295 232.827 20.0909H233.833C233.776 20.4773 233.636 20.8253 233.411 21.1349C233.19 21.4418 232.896 21.6861 232.529 21.8679C232.165 22.0469 231.742 22.1364 231.259 22.1364ZM238.15 15.4545V16.3068H234.758V15.4545H238.15ZM235.746 13.8864H236.752V20.125C236.752 20.4091 236.793 20.6222 236.876 20.7642C236.961 20.9034 237.069 20.9972 237.2 21.0455C237.333 21.0909 237.474 21.1136 237.621 21.1136C237.732 21.1136 237.823 21.108 237.894 21.0966C237.965 21.0824 238.022 21.071 238.065 21.0625L238.269 21.9659C238.201 21.9915 238.106 22.017 237.984 22.0426C237.862 22.071 237.707 22.0852 237.519 22.0852C237.235 22.0852 236.957 22.0241 236.684 21.902C236.414 21.7798 236.19 21.5938 236.011 21.3438C235.835 21.0938 235.746 20.7784 235.746 20.3977V13.8864ZM240.396 22.0682C240.185 22.0682 240.005 21.9929 239.854 21.8423C239.704 21.6918 239.629 21.5114 239.629 21.3011C239.629 21.0909 239.704 20.9105 239.854 20.7599C240.005 20.6094 240.185 20.5341 240.396 20.5341C240.606 20.5341 240.786 20.6094 240.937 20.7599C241.087 20.9105 241.163 21.0909 241.163 21.3011C241.163 21.4403 241.127 21.5682 241.056 21.6847C240.988 21.8011 240.896 21.8949 240.779 21.9659C240.665 22.0341 240.538 22.0682 240.396 22.0682ZM243.462 22H242.354L245.558 13.2727H246.649L249.854 22H248.746L246.138 14.6534H246.07L243.462 22ZM243.871 18.5909H248.337V19.5284H243.871V18.5909ZM252.082 13.2727V22H251.077V13.2727H252.082ZM254.572 24.4545C254.402 24.4545 254.25 24.4403 254.116 24.4119C253.983 24.3864 253.89 24.3608 253.839 24.3352L254.095 23.4489C254.339 23.5114 254.555 23.5341 254.743 23.517C254.93 23.5 255.096 23.4162 255.241 23.2656C255.389 23.1179 255.524 22.8778 255.646 22.5455L255.833 22.0341L253.413 15.4545H254.504L256.311 20.6705H256.379L258.186 15.4545H259.277L256.498 22.9545C256.373 23.2926 256.218 23.5724 256.034 23.794C255.849 24.0185 255.635 24.1847 255.39 24.2926C255.149 24.4006 254.876 24.4545 254.572 24.4545ZM266.706 16C266.613 15.7131 266.489 15.456 266.336 15.2287C266.185 14.9986 266.005 14.8026 265.794 14.6406C265.587 14.4787 265.351 14.3551 265.087 14.2699C264.823 14.1847 264.533 14.142 264.218 14.142C263.701 14.142 263.23 14.2756 262.807 14.5426C262.384 14.8097 262.047 15.2031 261.797 15.723C261.547 16.2429 261.422 16.8807 261.422 17.6364C261.422 18.392 261.549 19.0298 261.801 19.5497C262.054 20.0696 262.397 20.4631 262.828 20.7301C263.26 20.9972 263.746 21.1307 264.286 21.1307C264.786 21.1307 265.226 21.0241 265.607 20.8111C265.99 20.5952 266.289 20.2912 266.502 19.8991C266.718 19.5043 266.826 19.0398 266.826 18.5057L267.15 18.5739H264.525V17.6364H267.848V18.5739C267.848 19.2926 267.695 19.9176 267.388 20.4489C267.084 20.9801 266.664 21.392 266.127 21.6847C265.593 21.9744 264.979 22.1193 264.286 22.1193C263.513 22.1193 262.834 21.9375 262.249 21.5739C261.667 21.2102 261.212 20.6932 260.885 20.0227C260.561 19.3523 260.4 18.5568 260.4 17.6364C260.4 16.946 260.492 16.3253 260.676 15.7741C260.864 15.2202 261.128 14.7486 261.469 14.3594C261.81 13.9702 262.213 13.6719 262.679 13.4645C263.145 13.2571 263.658 13.1534 264.218 13.1534C264.678 13.1534 265.107 13.223 265.505 13.3622C265.905 13.4986 266.262 13.6932 266.574 13.946C266.89 14.196 267.152 14.4957 267.363 14.8452C267.573 15.1918 267.718 15.5767 267.797 16H266.706ZM269.747 22H268.639L271.843 13.2727H272.934L276.139 22H275.031L272.423 14.6534H272.355L269.747 22ZM270.156 18.5909H274.622V19.5284H270.156V18.5909Z" fill="black"/>
</svg>
