<svg width="411" height="315" viewBox="0 0 411 315" fill="none" xmlns="http://www.w3.org/2000/svg">
<path d="M87.1932 192.818H90.3636V211.534C90.3636 213.205 90.0568 214.624 89.4432 215.791C88.8295 216.959 87.9645 217.845 86.848 218.45C85.7315 219.055 84.4148 219.358 82.8977 219.358C81.4659 219.358 80.1918 219.098 79.0753 218.578C77.9588 218.05 77.081 217.3 76.4418 216.328C75.8026 215.357 75.483 214.202 75.483 212.864H78.6023C78.6023 213.605 78.7855 214.253 79.152 214.807C79.527 215.352 80.0384 215.778 80.6861 216.085C81.3338 216.392 82.071 216.545 82.8977 216.545C83.8097 216.545 84.5852 216.354 85.2244 215.97C85.8636 215.587 86.3494 215.024 86.6818 214.283C87.0227 213.533 87.1932 212.616 87.1932 211.534V192.818ZM111.036 199.364C110.882 198.068 110.26 197.062 109.169 196.347C108.078 195.631 106.74 195.273 105.155 195.273C103.996 195.273 102.982 195.46 102.112 195.835C101.251 196.21 100.578 196.726 100.092 197.382C99.6151 198.038 99.3764 198.784 99.3764 199.619C99.3764 200.318 99.5426 200.919 99.875 201.422C100.216 201.916 100.651 202.33 101.179 202.662C101.707 202.986 102.261 203.254 102.841 203.467C103.42 203.672 103.953 203.838 104.439 203.966L107.098 204.682C107.78 204.861 108.538 205.108 109.374 205.423C110.217 205.739 111.023 206.169 111.79 206.714C112.565 207.251 113.205 207.942 113.707 208.786C114.21 209.629 114.462 210.665 114.462 211.892C114.462 213.307 114.091 214.585 113.349 215.727C112.616 216.869 111.543 217.777 110.128 218.45C108.722 219.124 107.013 219.46 105.001 219.46C103.126 219.46 101.503 219.158 100.131 218.553C98.767 217.947 97.6932 217.104 96.9091 216.021C96.1335 214.939 95.6946 213.682 95.5923 212.25H98.8651C98.9503 213.239 99.2827 214.057 99.8622 214.705C100.45 215.344 101.192 215.821 102.087 216.136C102.99 216.443 103.962 216.597 105.001 216.597C106.212 216.597 107.298 216.401 108.261 216.009C109.224 215.608 109.987 215.054 110.55 214.347C111.112 213.631 111.393 212.795 111.393 211.841C111.393 210.972 111.151 210.264 110.665 209.719C110.179 209.173 109.54 208.73 108.747 208.389C107.955 208.048 107.098 207.75 106.178 207.494L102.956 206.574C100.911 205.986 99.2912 205.146 98.098 204.055C96.9048 202.964 96.3082 201.537 96.3082 199.773C96.3082 198.307 96.7045 197.028 97.4972 195.938C98.2983 194.838 99.3722 193.986 100.719 193.381C102.074 192.767 103.587 192.46 105.257 192.46C106.945 192.46 108.445 192.763 109.757 193.368C111.07 193.964 112.109 194.783 112.876 195.822C113.652 196.862 114.061 198.043 114.104 199.364H111.036Z" fill="black"/>
<path fill-rule="evenodd" clip-rule="evenodd" d="M156.763 84.3521C157.73 73.3942 156.224 69.0029 143.011 70.1876H71.1984V98.5167C70.4915 104.005 68.6517 105.991 62.0308 107.015H33V183.504H156.763V84.3521ZM127.732 138.177L104.813 125.429V131.095L117.037 138.177C121.557 140.65 119.789 141.789 117.037 143.843L104.813 149.509V156.591L127.732 143.843C130.834 142.16 131.245 140.989 127.732 138.177ZM83.4219 156.591L94.1175 125.429H100.229L91.0616 156.591H83.4219ZM55.9191 138.177L78.8381 125.429V131.095L66.6146 138.177C62.0937 140.65 63.8622 141.789 66.6146 143.843L78.8381 149.509V156.591L55.9191 143.843C52.8169 142.16 52.4063 140.989 55.9191 138.177Z" fill="#FFDFF0"/>
<path d="M71.1984 70.1876L33 107.015H62.0308C68.6517 105.991 70.4915 104.005 71.1984 98.5167V70.1876Z" fill="white"/>
<path d="M143.011 70.1876V70.6876H143.034L143.056 70.6856L143.011 70.1876ZM156.763 84.3521L156.265 84.3082L156.263 84.3301V84.3521H156.763ZM156.763 218.915L157.253 219.012L157.263 218.964V218.915H156.763ZM143.011 228.83L143.058 228.333L143.035 228.33H143.011V228.83ZM46.7514 228.83L46.7338 229.33L46.7426 229.33H46.7514V228.83ZM33 218.915H32.5V218.939L32.5024 218.964L33 218.915ZM33 107.015L32.653 106.655L32.5 106.803V107.015H33ZM71.1984 70.1876V69.6876H70.9967L70.8514 69.8276L71.1984 70.1876ZM71.1984 98.5167L71.6943 98.5805L71.6984 98.5487V98.5167H71.1984ZM62.0308 107.015V107.515H62.0693L62.1073 107.51L62.0308 107.015ZM104.813 125.429L105.056 124.992L104.313 124.579V125.429H104.813ZM127.732 138.177L128.045 137.787L128.012 137.761L127.975 137.74L127.732 138.177ZM127.732 143.843L127.494 143.404L127.489 143.406L127.732 143.843ZM104.813 156.591H104.313V157.441L105.056 157.028L104.813 156.591ZM104.813 149.509L104.603 149.055L104.313 149.19V149.509H104.813ZM117.037 143.843L117.247 144.297L117.294 144.275L117.336 144.244L117.037 143.843ZM117.037 138.177L116.786 138.61L116.797 138.616L117.037 138.177ZM104.813 131.095H104.313V131.383L104.562 131.528L104.813 131.095ZM94.1175 125.429V124.929H93.7605L93.6446 125.267L94.1175 125.429ZM83.4219 156.591L82.949 156.429L82.7217 157.091H83.4219V156.591ZM91.0616 156.591V157.091H91.4357L91.5413 156.732L91.0616 156.591ZM100.229 125.429L100.709 125.57L100.898 124.929H100.229V125.429ZM78.8381 125.429H79.3381V124.579L78.5951 124.992L78.8381 125.429ZM55.9191 138.177L55.676 137.74L55.6394 137.761L55.6066 137.787L55.9191 138.177ZM55.9191 143.843L56.1621 143.406L56.1575 143.404L55.9191 143.843ZM78.8381 156.591L78.5951 157.028L79.3381 157.441V156.591H78.8381ZM78.8381 149.509H79.3381V149.19L79.0484 149.055L78.8381 149.509ZM66.6146 143.843L66.3155 144.244L66.3572 144.275L66.4044 144.297L66.6146 143.843ZM66.6146 138.177L66.8546 138.616L66.8653 138.61L66.6146 138.177ZM78.8381 131.095L79.0888 131.528L79.3381 131.383V131.095H78.8381ZM143.056 70.6856C149.665 70.093 153.09 70.9322 154.818 73.0339C155.687 74.0904 156.177 75.5222 156.383 77.4038C156.589 79.2873 156.506 81.5763 156.265 84.3082L157.261 84.3961C157.503 81.649 157.594 79.2799 157.377 77.2951C157.16 75.3084 156.629 73.6618 155.591 72.3988C153.505 69.8616 149.571 69.0975 142.967 69.6896L143.056 70.6856ZM156.272 218.818C155.438 223.047 154.318 225.572 152.397 226.977C150.473 228.385 147.62 228.762 143.058 228.333L142.965 229.328C147.558 229.76 150.744 229.426 152.988 227.784C155.235 226.139 156.412 223.276 157.253 219.012L156.272 218.818ZM143.011 228.33H46.7514V229.33H143.011V228.33ZM46.7691 228.331C44.6963 228.258 42.8851 228.188 41.3077 227.981C39.7315 227.774 38.4268 227.434 37.3599 226.842C35.2781 225.687 33.9473 223.481 33.4976 218.867L32.5024 218.964C32.9663 223.725 34.3766 226.331 36.8748 227.717C38.0978 228.395 39.5429 228.758 41.1776 228.972C42.811 229.187 44.6719 229.257 46.7338 229.33L46.7691 228.331ZM33.347 107.375L71.5455 70.5476L70.8514 69.8276L32.653 106.655L33.347 107.375ZM71.1984 70.6876H143.011V69.6876H71.1984V70.6876ZM33.5 218.915V183.504H32.5V218.915H33.5ZM33.5 183.504V107.015H32.5V183.504H33.5ZM156.263 84.3521V183.504H157.263V84.3521H156.263ZM156.263 183.504V218.915H157.263V183.504H156.263ZM33 184.004H156.763V183.004H33V184.004ZM70.6984 70.1876V98.5167H71.6984V70.1876H70.6984ZM70.7025 98.4528C70.3533 101.164 69.7361 102.889 68.4875 104.078C67.2279 105.278 65.2439 106.012 61.9544 106.521L62.1073 107.51C65.4385 106.994 67.6849 106.223 69.1772 104.802C70.6805 103.37 71.3367 101.358 71.6943 98.5805L70.7025 98.4528ZM62.0308 106.515H33V107.515H62.0308V106.515ZM104.57 125.866L127.489 138.614L127.975 137.74L105.056 124.992L104.57 125.866ZM127.42 138.568C128.287 139.262 128.883 139.832 129.253 140.316C129.625 140.802 129.729 141.146 129.714 141.403C129.699 141.653 129.564 141.933 129.194 142.277C128.822 142.623 128.26 142.988 127.494 143.404L127.971 144.283C128.756 143.857 129.408 143.444 129.875 143.009C130.346 142.572 130.675 142.068 130.712 141.463C130.748 140.866 130.49 140.286 130.047 139.708C129.604 139.129 128.934 138.499 128.045 137.787L127.42 138.568ZM127.489 143.406L104.57 156.154L105.056 157.028L127.975 144.28L127.489 143.406ZM105.313 156.591V149.509H104.313V156.591H105.313ZM105.023 149.963L117.247 144.297L116.826 143.389L104.603 149.055L105.023 149.963ZM117.336 144.244C118.013 143.738 118.664 143.264 119.168 142.81C119.663 142.364 120.098 141.869 120.248 141.293C120.412 140.662 120.208 140.059 119.707 139.487C119.221 138.933 118.422 138.365 117.276 137.739L116.797 138.616C117.912 139.226 118.587 139.727 118.955 140.146C119.307 140.548 119.337 140.821 119.28 141.041C119.209 141.316 118.968 141.644 118.499 142.067C118.038 142.482 117.437 142.92 116.737 143.442L117.336 144.244ZM117.287 137.745L105.064 130.662L104.562 131.528L116.786 138.61L117.287 137.745ZM105.313 131.095V125.429H104.313V131.095H105.313ZM93.6446 125.267L82.949 156.429L83.8949 156.753L94.5904 125.592L93.6446 125.267ZM83.4219 157.091H91.0616V156.091H83.4219V157.091ZM91.5413 156.732L100.709 125.57L99.7496 125.288L90.582 156.45L91.5413 156.732ZM100.229 124.929H94.1175V125.929H100.229V124.929ZM78.5951 124.992L55.676 137.74L56.1621 138.614L79.0812 125.866L78.5951 124.992ZM55.6066 137.787C54.7172 138.499 54.0474 139.129 53.6039 139.708C53.1616 140.286 52.9035 140.866 52.9394 141.463C52.9757 142.068 53.3056 142.572 53.7759 143.009C54.2432 143.444 54.8957 143.857 55.6806 144.283L56.1575 143.404C55.3914 142.988 54.8292 142.623 54.4568 142.277C54.0874 141.933 53.9526 141.653 53.9376 141.403C53.9221 141.146 54.0261 140.802 54.3978 140.316C54.7683 139.832 55.3646 139.262 56.2315 138.568L55.6066 137.787ZM55.676 144.28L78.5951 157.028L79.0812 156.154L56.1621 143.406L55.676 144.28ZM79.3381 156.591V149.509H78.3381V156.591H79.3381ZM79.0484 149.055L66.8249 143.389L66.4044 144.297L78.6279 149.963L79.0484 149.055ZM66.9137 143.442C66.2144 142.92 65.6127 142.482 65.1523 142.067C64.6829 141.644 64.4424 141.316 64.371 141.041C64.3138 140.821 64.344 140.548 64.6961 140.146C65.0643 139.727 65.7392 139.226 66.8545 138.616L66.3747 137.739C65.2296 138.365 64.4302 138.933 63.9445 139.487C63.4427 140.059 63.2394 140.662 63.4032 141.293C63.5529 141.869 63.9881 142.364 64.4831 142.81C64.9871 143.264 65.6386 143.738 66.3155 144.244L66.9137 143.442ZM66.8653 138.61L79.0888 131.528L78.5875 130.662L66.364 137.745L66.8653 138.61ZM79.3381 131.095V125.429H78.3381V131.095H79.3381Z" fill="black"/>
<path d="M409.5 34.5C410.198 8.90975 403.54 1.78018 380.5 0.5H22C1.49998 0.5 0.249059 15.2763 1.49999 34.5M409.5 34.5V286C406.965 306.042 398.925 311.875 375 314H22C7.48898 308.861 3.66429 302.138 1.49999 286V34.5M409.5 34.5H1.49999M148.5 10V27H363V10H148.5Z" stroke="black"/>
<circle cx="33" cy="19" r="12" fill="#FFDFF0"/>
<circle cx="65" cy="19" r="12" fill="#FFD6CA"/>
<circle cx="97" cy="19" r="12" fill="#FFE685"/>
<line x1="206" y1="100.5" x2="343" y2="100.5" stroke="black"/>
<line x1="208" y1="119.5" x2="252" y2="119.5" stroke="black"/>
<line x1="266" y1="119.5" x2="310" y2="119.5" stroke="black"/>
<line x1="325" y1="119.5" x2="369" y2="119.5" stroke="black"/>
<line x1="208" y1="143.5" x2="345" y2="143.5" stroke="black"/>
<line x1="208" y1="165.5" x2="345" y2="165.5" stroke="black"/>
<line x1="210" y1="183.5" x2="347" y2="183.5" stroke="black"/>
<line x1="210" y1="200.5" x2="254" y2="200.5" stroke="black"/>
<path d="M169.642 22L167.256 13.2727H168.33L170.153 20.3807H170.239L172.097 13.2727H173.29L175.148 20.3807H175.233L177.057 13.2727H178.131L175.744 22H174.653L172.727 15.0455H172.659L170.733 22H169.642ZM181.446 22.1364C180.815 22.1364 180.271 21.9972 179.814 21.7188C179.359 21.4375 179.009 21.0455 178.761 20.5426C178.517 20.0369 178.395 19.4489 178.395 18.7784C178.395 18.108 178.517 17.517 178.761 17.0057C179.009 16.4915 179.352 16.0909 179.793 15.804C180.236 15.5142 180.753 15.3693 181.344 15.3693C181.685 15.3693 182.021 15.4261 182.354 15.5398C182.686 15.6534 182.989 15.8381 183.261 16.0938C183.534 16.3466 183.751 16.6818 183.913 17.0994C184.075 17.517 184.156 18.0312 184.156 18.642V19.0682H179.111V18.1989H183.134C183.134 17.8295 183.06 17.5 182.912 17.2102C182.767 16.9205 182.56 16.6918 182.29 16.5241C182.023 16.3565 181.707 16.2727 181.344 16.2727C180.943 16.2727 180.597 16.3722 180.304 16.571C180.014 16.767 179.791 17.0227 179.635 17.3381C179.479 17.6534 179.401 17.9915 179.401 18.3523V18.9318C179.401 19.4261 179.486 19.8452 179.656 20.1889C179.83 20.5298 180.07 20.7898 180.376 20.9688C180.683 21.1449 181.04 21.233 181.446 21.233C181.71 21.233 181.949 21.196 182.162 21.1222C182.378 21.0455 182.564 20.9318 182.72 20.7812C182.876 20.6278 182.997 20.4375 183.082 20.2102L184.054 20.483C183.952 20.8125 183.78 21.1023 183.538 21.3523C183.297 21.5994 182.999 21.7926 182.643 21.9318C182.288 22.0682 181.889 22.1364 181.446 22.1364ZM185.822 22V13.2727H186.828V16.4943H186.913C186.987 16.3807 187.089 16.2358 187.22 16.0597C187.354 15.8807 187.544 15.7216 187.791 15.5824C188.041 15.4403 188.379 15.3693 188.805 15.3693C189.357 15.3693 189.842 15.5071 190.263 15.7827C190.683 16.0582 191.011 16.4489 191.247 16.9545C191.483 17.4602 191.601 18.0568 191.601 18.7443C191.601 19.4375 191.483 20.0384 191.247 20.5469C191.011 21.0526 190.685 21.4446 190.267 21.723C189.849 21.9986 189.368 22.1364 188.822 22.1364C188.402 22.1364 188.065 22.0668 187.812 21.9276C187.56 21.7855 187.365 21.625 187.229 21.446C187.092 21.2642 186.987 21.1136 186.913 20.9943H186.794V22H185.822ZM186.811 18.7273C186.811 19.2216 186.884 19.6577 187.028 20.0355C187.173 20.4105 187.385 20.7045 187.663 20.9176C187.942 21.1278 188.283 21.233 188.686 21.233C189.107 21.233 189.457 21.1222 189.739 20.9006C190.023 20.6761 190.236 20.375 190.378 19.9972C190.523 19.6165 190.595 19.1932 190.595 18.7273C190.595 18.267 190.524 17.8523 190.382 17.483C190.243 17.1108 190.031 16.8168 189.747 16.6009C189.466 16.3821 189.112 16.2727 188.686 16.2727C188.277 16.2727 187.933 16.3764 187.655 16.5838C187.376 16.7884 187.166 17.0753 187.024 17.4446C186.882 17.8111 186.811 18.2386 186.811 18.7273ZM196.889 17.7898V18.7273H193.071V17.7898H196.889ZM198.795 22V13.2727H201.744C202.429 13.2727 202.988 13.3963 203.423 13.6435C203.86 13.8878 204.184 14.2188 204.395 14.6364C204.605 15.054 204.71 15.5199 204.71 16.0341C204.71 16.5483 204.605 17.0156 204.395 17.4361C204.187 17.8565 203.866 18.1918 203.431 18.4418C202.997 18.6889 202.44 18.8125 201.761 18.8125H199.647V17.875H201.727C202.196 17.875 202.572 17.794 202.856 17.6321C203.14 17.4702 203.346 17.2514 203.474 16.9759C203.605 16.6974 203.67 16.3835 203.67 16.0341C203.67 15.6847 203.605 15.3722 203.474 15.0966C203.346 14.821 203.139 14.6051 202.852 14.4489C202.565 14.2898 202.184 14.2102 201.71 14.2102H199.852V22H198.795ZM206.276 22V15.4545H207.248V16.4432H207.316C207.435 16.1193 207.651 15.8565 207.963 15.6548C208.276 15.4531 208.628 15.3523 209.02 15.3523C209.094 15.3523 209.186 15.3537 209.297 15.3565C209.408 15.3594 209.492 15.3636 209.549 15.3693V16.392C209.515 16.3835 209.436 16.3707 209.314 16.3537C209.195 16.3338 209.069 16.3239 208.935 16.3239C208.617 16.3239 208.333 16.3906 208.083 16.5241C207.836 16.6548 207.64 16.8366 207.495 17.0696C207.353 17.2997 207.282 17.5625 207.282 17.858V22H206.276ZM213.201 22.1364C212.61 22.1364 212.091 21.9957 211.645 21.7145C211.202 21.4332 210.855 21.0398 210.605 20.5341C210.358 20.0284 210.235 19.4375 210.235 18.7614C210.235 18.0795 210.358 17.4844 210.605 16.9759C210.855 16.4673 211.202 16.0724 211.645 15.7912C212.091 15.5099 212.61 15.3693 213.201 15.3693C213.792 15.3693 214.309 15.5099 214.752 15.7912C215.198 16.0724 215.544 16.4673 215.792 16.9759C216.042 17.4844 216.167 18.0795 216.167 18.7614C216.167 19.4375 216.042 20.0284 215.792 20.5341C215.544 21.0398 215.198 21.4332 214.752 21.7145C214.309 21.9957 213.792 22.1364 213.201 22.1364ZM213.201 21.233C213.65 21.233 214.019 21.1179 214.309 20.8878C214.598 20.6577 214.813 20.3551 214.952 19.9801C215.091 19.6051 215.161 19.1989 215.161 18.7614C215.161 18.3239 215.091 17.9162 214.952 17.5384C214.813 17.1605 214.598 16.8551 214.309 16.6222C214.019 16.3892 213.65 16.2727 213.201 16.2727C212.752 16.2727 212.382 16.3892 212.093 16.6222C211.803 16.8551 211.588 17.1605 211.449 17.5384C211.31 17.9162 211.24 18.3239 211.24 18.7614C211.24 19.1989 211.31 19.6051 211.449 19.9801C211.588 20.3551 211.803 20.6577 212.093 20.8878C212.382 21.1179 212.752 21.233 213.201 21.233ZM217.702 15.4545H218.707V22.4773C218.707 22.8807 218.638 23.2301 218.499 23.5256C218.362 23.821 218.155 24.0497 217.876 24.2116C217.601 24.3736 217.253 24.4545 216.832 24.4545C216.798 24.4545 216.764 24.4545 216.73 24.4545C216.696 24.4545 216.662 24.4545 216.628 24.4545V23.517C216.662 23.517 216.693 23.517 216.722 23.517C216.75 23.517 216.781 23.517 216.815 23.517C217.122 23.517 217.347 23.4261 217.489 23.2443C217.631 23.0653 217.702 22.8097 217.702 22.4773V15.4545ZM218.196 14.3636C218 14.3636 217.831 14.2969 217.689 14.1634C217.55 14.0298 217.48 13.8693 217.48 13.6818C217.48 13.4943 217.55 13.3338 217.689 13.2003C217.831 13.0668 218 13 218.196 13C218.392 13 218.56 13.0668 218.699 13.2003C218.841 13.3338 218.912 13.4943 218.912 13.6818C218.912 13.8693 218.841 14.0298 218.699 14.1634C218.56 14.2969 218.392 14.3636 218.196 14.3636ZM223.294 22.1364C222.663 22.1364 222.119 21.9972 221.662 21.7188C221.207 21.4375 220.856 21.0455 220.609 20.5426C220.365 20.0369 220.243 19.4489 220.243 18.7784C220.243 18.108 220.365 17.517 220.609 17.0057C220.856 16.4915 221.2 16.0909 221.64 15.804C222.083 15.5142 222.6 15.3693 223.191 15.3693C223.532 15.3693 223.869 15.4261 224.201 15.5398C224.534 15.6534 224.836 15.8381 225.109 16.0938C225.382 16.3466 225.599 16.6818 225.761 17.0994C225.923 17.517 226.004 18.0312 226.004 18.642V19.0682H220.958V18.1989H224.981C224.981 17.8295 224.907 17.5 224.76 17.2102C224.615 16.9205 224.407 16.6918 224.137 16.5241C223.87 16.3565 223.555 16.2727 223.191 16.2727C222.791 16.2727 222.444 16.3722 222.152 16.571C221.862 16.767 221.639 17.0227 221.483 17.3381C221.326 17.6534 221.248 17.9915 221.248 18.3523V18.9318C221.248 19.4261 221.333 19.8452 221.504 20.1889C221.677 20.5298 221.917 20.7898 222.224 20.9688C222.531 21.1449 222.887 21.233 223.294 21.233C223.558 21.233 223.797 21.196 224.01 21.1222C224.225 21.0455 224.412 20.9318 224.568 20.7812C224.724 20.6278 224.845 20.4375 224.93 20.2102L225.902 20.483C225.799 20.8125 225.627 21.1023 225.386 21.3523C225.145 21.5994 224.846 21.7926 224.491 21.9318C224.136 22.0682 223.737 22.1364 223.294 22.1364ZM230.193 22.1364C229.579 22.1364 229.051 21.9915 228.608 21.7017C228.164 21.4119 227.824 21.0128 227.585 20.5043C227.346 19.9957 227.227 19.4148 227.227 18.7614C227.227 18.0966 227.349 17.5099 227.593 17.0014C227.841 16.4901 228.184 16.0909 228.625 15.804C229.068 15.5142 229.585 15.3693 230.176 15.3693C230.636 15.3693 231.051 15.4545 231.42 15.625C231.789 15.7955 232.092 16.0341 232.328 16.3409C232.564 16.6477 232.71 17.0057 232.767 17.4148H231.761C231.684 17.1165 231.514 16.8523 231.25 16.6222C230.988 16.3892 230.636 16.2727 230.193 16.2727C229.801 16.2727 229.457 16.375 229.162 16.5795C228.869 16.7812 228.64 17.0668 228.475 17.4361C228.314 17.8026 228.233 18.233 228.233 18.7273C228.233 19.233 228.312 19.6733 228.471 20.0483C228.633 20.4233 228.86 20.7145 229.153 20.9219C229.449 21.1293 229.795 21.233 230.193 21.233C230.454 21.233 230.691 21.1875 230.904 21.0966C231.118 21.0057 231.298 20.875 231.446 20.7045C231.593 20.5341 231.699 20.3295 231.761 20.0909H232.767C232.71 20.4773 232.569 20.8253 232.345 21.1349C232.123 21.4418 231.829 21.6861 231.463 21.8679C231.099 22.0469 230.676 22.1364 230.193 22.1364ZM237.083 15.4545V16.3068H233.691V15.4545H237.083ZM234.68 13.8864H235.686V20.125C235.686 20.4091 235.727 20.6222 235.809 20.7642C235.895 20.9034 236.002 20.9972 236.133 21.0455C236.267 21.0909 236.407 21.1136 236.555 21.1136C236.666 21.1136 236.757 21.108 236.828 21.0966C236.899 21.0824 236.956 21.071 236.998 21.0625L237.203 21.9659C237.135 21.9915 237.039 22.017 236.917 22.0426C236.795 22.071 236.64 22.0852 236.453 22.0852C236.169 22.0852 235.89 22.0241 235.618 21.902C235.348 21.7798 235.123 21.5938 234.944 21.3438C234.768 21.0938 234.68 20.7784 234.68 20.3977V13.8864ZM239.329 22.0682C239.119 22.0682 238.939 21.9929 238.788 21.8423C238.637 21.6918 238.562 21.5114 238.562 21.3011C238.562 21.0909 238.637 20.9105 238.788 20.7599C238.939 20.6094 239.119 20.5341 239.329 20.5341C239.539 20.5341 239.72 20.6094 239.87 20.7599C240.021 20.9105 240.096 21.0909 240.096 21.3011C240.096 21.4403 240.061 21.5682 239.99 21.6847C239.922 21.8011 239.829 21.8949 239.713 21.9659C239.599 22.0341 239.471 22.0682 239.329 22.0682ZM242.395 22H241.287L244.492 13.2727H245.583L248.787 22H247.679L245.071 14.6534H245.003L242.395 22ZM242.804 18.5909H247.27V19.5284H242.804V18.5909ZM251.016 13.2727V22H250.01V13.2727H251.016ZM253.506 24.4545C253.335 24.4545 253.183 24.4403 253.05 24.4119C252.916 24.3864 252.824 24.3608 252.773 24.3352L253.028 23.4489C253.273 23.5114 253.489 23.5341 253.676 23.517C253.864 23.5 254.03 23.4162 254.175 23.2656C254.322 23.1179 254.457 22.8778 254.58 22.5455L254.767 22.0341L252.347 15.4545H253.438L255.244 20.6705H255.312L257.119 15.4545H258.21L255.432 22.9545C255.307 23.2926 255.152 23.5724 254.967 23.794C254.783 24.0185 254.568 24.1847 254.324 24.2926C254.082 24.4006 253.81 24.4545 253.506 24.4545ZM265.64 16C265.546 15.7131 265.423 15.456 265.269 15.2287C265.119 14.9986 264.938 14.8026 264.728 14.6406C264.521 14.4787 264.285 14.3551 264.021 14.2699C263.756 14.1847 263.467 14.142 263.151 14.142C262.634 14.142 262.164 14.2756 261.741 14.5426C261.317 14.8097 260.981 15.2031 260.731 15.723C260.481 16.2429 260.356 16.8807 260.356 17.6364C260.356 18.392 260.482 19.0298 260.735 19.5497C260.988 20.0696 261.33 20.4631 261.762 20.7301C262.194 20.9972 262.68 21.1307 263.219 21.1307C263.719 21.1307 264.16 21.0241 264.54 20.8111C264.924 20.5952 265.222 20.2912 265.435 19.8991C265.651 19.5043 265.759 19.0398 265.759 18.5057L266.083 18.5739H263.458V17.6364H266.782V18.5739C266.782 19.2926 266.629 19.9176 266.322 20.4489C266.018 20.9801 265.597 21.392 265.06 21.6847C264.526 21.9744 263.913 22.1193 263.219 22.1193C262.447 22.1193 261.768 21.9375 261.183 21.5739C260.6 21.2102 260.146 20.6932 259.819 20.0227C259.495 19.3523 259.333 18.5568 259.333 17.6364C259.333 16.946 259.425 16.3253 259.61 15.7741C259.798 15.2202 260.062 14.7486 260.403 14.3594C260.744 13.9702 261.147 13.6719 261.613 13.4645C262.079 13.2571 262.592 13.1534 263.151 13.1534C263.612 13.1534 264.04 13.223 264.438 13.3622C264.839 13.4986 265.195 13.6932 265.508 13.946C265.823 14.196 266.086 14.4957 266.296 14.8452C266.506 15.1918 266.651 15.5767 266.731 16H265.64ZM268.68 22H267.572L270.777 13.2727H271.868L275.072 22H273.964L271.357 14.6534H271.288L268.68 22ZM269.089 18.5909H273.555V19.5284H269.089V18.5909Z" fill="black"/>
</svg>
