<svg width="411" height="315" viewBox="0 0 411 315" fill="none" xmlns="http://www.w3.org/2000/svg">
<path d="M409.5 34.5C410.198 8.90975 403.54 1.78018 380.5 0.5H22C1.49998 0.5 0.249059 15.2763 1.49999 34.5M409.5 34.5V286C406.965 306.042 398.925 311.875 375 314H22C7.48898 308.861 3.66429 302.138 1.49999 286V34.5M409.5 34.5H1.49999M148.5 10V27H363V10H148.5Z" stroke="black"/>
<circle cx="33" cy="19" r="12" fill="#FFDFF0"/>
<circle cx="65" cy="19" r="12" fill="#FFD6CA"/>
<circle cx="97" cy="19" r="12" fill="#FFE685"/>
<line x1="206" y1="100.5" x2="343" y2="100.5" stroke="black"/>
<line x1="208" y1="119.5" x2="252" y2="119.5" stroke="black"/>
<line x1="266" y1="119.5" x2="310" y2="119.5" stroke="black"/>
<line x1="325" y1="119.5" x2="369" y2="119.5" stroke="black"/>
<line x1="208" y1="143.5" x2="345" y2="143.5" stroke="black"/>
<line x1="208" y1="165.5" x2="345" y2="165.5" stroke="black"/>
<line x1="210" y1="183.5" x2="347" y2="183.5" stroke="black"/>
<line x1="210" y1="200.5" x2="254" y2="200.5" stroke="black"/>
<path d="M168.057 22V13.2727H171.006C171.69 13.2727 172.25 13.3963 172.685 13.6435C173.122 13.8878 173.446 14.2188 173.656 14.6364C173.866 15.054 173.972 15.5199 173.972 16.0341C173.972 16.5483 173.866 17.0156 173.656 17.4361C173.449 17.8565 173.128 18.1918 172.693 18.4418C172.259 18.6889 171.702 18.8125 171.023 18.8125H168.909V17.875H170.989C171.457 17.875 171.834 17.794 172.118 17.6321C172.402 17.4702 172.608 17.2514 172.736 16.9759C172.866 16.6974 172.932 16.3835 172.932 16.0341C172.932 15.6847 172.866 15.3722 172.736 15.0966C172.608 14.821 172.401 14.6051 172.114 14.4489C171.827 14.2898 171.446 14.2102 170.972 14.2102H169.114V22H168.057ZM176.185 24.4545C176.015 24.4545 175.863 24.4403 175.729 24.4119C175.596 24.3864 175.504 24.3608 175.452 24.3352L175.708 23.4489C175.952 23.5114 176.168 23.5341 176.356 23.517C176.543 23.5 176.71 23.4162 176.854 23.2656C177.002 23.1179 177.137 22.8778 177.259 22.5455L177.447 22.0341L175.026 15.4545H176.117L177.924 20.6705H177.992L179.799 15.4545H180.89L178.112 22.9545C177.987 23.2926 177.832 23.5724 177.647 23.794C177.462 24.0185 177.248 24.1847 177.004 24.2926C176.762 24.4006 176.489 24.4545 176.185 24.4545ZM185.064 15.4545V16.3068H181.672V15.4545H185.064ZM182.661 13.8864H183.666V20.125C183.666 20.4091 183.707 20.6222 183.79 20.7642C183.875 20.9034 183.983 20.9972 184.114 21.0455C184.247 21.0909 184.388 21.1136 184.536 21.1136C184.646 21.1136 184.737 21.108 184.808 21.0966C184.879 21.0824 184.936 21.071 184.979 21.0625L185.183 21.9659C185.115 21.9915 185.02 22.017 184.898 22.0426C184.776 22.071 184.621 22.0852 184.433 22.0852C184.149 22.0852 183.871 22.0241 183.598 21.902C183.328 21.7798 183.104 21.5938 182.925 21.3438C182.749 21.0938 182.661 20.7784 182.661 20.3977V13.8864ZM187.723 18.0625V22H186.717V13.2727H187.723V16.4773H187.808C187.962 16.1392 188.192 15.8707 188.499 15.6719C188.808 15.4702 189.22 15.3693 189.734 15.3693C190.18 15.3693 190.571 15.4588 190.906 15.6378C191.241 15.8139 191.501 16.0852 191.686 16.4517C191.874 16.8153 191.967 17.2784 191.967 17.8409V22H190.962V17.9091C190.962 17.3892 190.827 16.9872 190.557 16.7031C190.29 16.4162 189.919 16.2727 189.445 16.2727C189.115 16.2727 188.82 16.3423 188.558 16.4815C188.3 16.6207 188.095 16.8239 187.945 17.0909C187.797 17.358 187.723 17.6818 187.723 18.0625ZM196.466 22.1364C195.875 22.1364 195.357 21.9957 194.911 21.7145C194.468 21.4332 194.121 21.0398 193.871 20.5341C193.624 20.0284 193.5 19.4375 193.5 18.7614C193.5 18.0795 193.624 17.4844 193.871 16.9759C194.121 16.4673 194.468 16.0724 194.911 15.7912C195.357 15.5099 195.875 15.3693 196.466 15.3693C197.057 15.3693 197.574 15.5099 198.017 15.7912C198.463 16.0724 198.81 16.4673 199.057 16.9759C199.307 17.4844 199.432 18.0795 199.432 18.7614C199.432 19.4375 199.307 20.0284 199.057 20.5341C198.81 21.0398 198.463 21.4332 198.017 21.7145C197.574 21.9957 197.057 22.1364 196.466 22.1364ZM196.466 21.233C196.915 21.233 197.284 21.1179 197.574 20.8878C197.864 20.6577 198.078 20.3551 198.218 19.9801C198.357 19.6051 198.426 19.1989 198.426 18.7614C198.426 18.3239 198.357 17.9162 198.218 17.5384C198.078 17.1605 197.864 16.8551 197.574 16.6222C197.284 16.3892 196.915 16.2727 196.466 16.2727C196.017 16.2727 195.648 16.3892 195.358 16.6222C195.069 16.8551 194.854 17.1605 194.715 17.5384C194.576 17.9162 194.506 18.3239 194.506 18.7614C194.506 19.1989 194.576 19.6051 194.715 19.9801C194.854 20.3551 195.069 20.6577 195.358 20.8878C195.648 21.1179 196.017 21.233 196.466 21.233ZM201.973 18.0625V22H200.967V15.4545H201.939V16.4773H202.024C202.178 16.1449 202.411 15.8778 202.723 15.6761C203.036 15.4716 203.439 15.3693 203.933 15.3693C204.376 15.3693 204.764 15.4602 205.097 15.642C205.429 15.821 205.688 16.0938 205.872 16.4602C206.057 16.8239 206.149 17.2841 206.149 17.8409V22H205.143V17.9091C205.143 17.3949 205.01 16.9943 204.743 16.7074C204.476 16.4176 204.109 16.2727 203.643 16.2727C203.322 16.2727 203.036 16.3423 202.783 16.4815C202.533 16.6207 202.335 16.8239 202.19 17.0909C202.045 17.358 201.973 17.6818 201.973 18.0625ZM211.737 17.7898V18.7273H207.919V17.7898H211.737ZM213.643 22V13.2727H216.592C217.276 13.2727 217.836 13.3963 218.271 13.6435C218.708 13.8878 219.032 14.2188 219.242 14.6364C219.452 15.054 219.558 15.5199 219.558 16.0341C219.558 16.5483 219.452 17.0156 219.242 17.4361C219.035 17.8565 218.714 18.1918 218.279 18.4418C217.844 18.6889 217.288 18.8125 216.609 18.8125H214.495V17.875H216.575C217.043 17.875 217.42 17.794 217.704 17.6321C217.988 17.4702 218.194 17.2514 218.322 16.9759C218.452 16.6974 218.518 16.3835 218.518 16.0341C218.518 15.6847 218.452 15.3722 218.322 15.0966C218.194 14.821 217.987 14.6051 217.7 14.4489C217.413 14.2898 217.032 14.2102 216.558 14.2102H214.7V22H213.643ZM221.124 22V15.4545H222.095V16.4432H222.163C222.283 16.1193 222.499 15.8565 222.811 15.6548C223.124 15.4531 223.476 15.3523 223.868 15.3523C223.942 15.3523 224.034 15.3537 224.145 15.3565C224.256 15.3594 224.339 15.3636 224.396 15.3693V16.392C224.362 16.3835 224.284 16.3707 224.162 16.3537C224.043 16.3338 223.916 16.3239 223.783 16.3239C223.464 16.3239 223.18 16.3906 222.93 16.5241C222.683 16.6548 222.487 16.8366 222.342 17.0696C222.2 17.2997 222.129 17.5625 222.129 17.858V22H221.124ZM228.048 22.1364C227.457 22.1364 226.939 21.9957 226.493 21.7145C226.05 21.4332 225.703 21.0398 225.453 20.5341C225.206 20.0284 225.082 19.4375 225.082 18.7614C225.082 18.0795 225.206 17.4844 225.453 16.9759C225.703 16.4673 226.05 16.0724 226.493 15.7912C226.939 15.5099 227.457 15.3693 228.048 15.3693C228.639 15.3693 229.156 15.5099 229.599 15.7912C230.045 16.0724 230.392 16.4673 230.639 16.9759C230.889 17.4844 231.014 18.0795 231.014 18.7614C231.014 19.4375 230.889 20.0284 230.639 20.5341C230.392 21.0398 230.045 21.4332 229.599 21.7145C229.156 21.9957 228.639 22.1364 228.048 22.1364ZM228.048 21.233C228.497 21.233 228.866 21.1179 229.156 20.8878C229.446 20.6577 229.661 20.3551 229.8 19.9801C229.939 19.6051 230.009 19.1989 230.009 18.7614C230.009 18.3239 229.939 17.9162 229.8 17.5384C229.661 17.1605 229.446 16.8551 229.156 16.6222C228.866 16.3892 228.497 16.2727 228.048 16.2727C227.599 16.2727 227.23 16.3892 226.94 16.6222C226.651 16.8551 226.436 17.1605 226.297 17.5384C226.158 17.9162 226.088 18.3239 226.088 18.7614C226.088 19.1989 226.158 19.6051 226.297 19.9801C226.436 20.3551 226.651 20.6577 226.94 20.8878C227.23 21.1179 227.599 21.233 228.048 21.233ZM232.549 15.4545H233.555V22.4773C233.555 22.8807 233.485 23.2301 233.346 23.5256C233.21 23.821 233.002 24.0497 232.724 24.2116C232.449 24.3736 232.1 24.4545 231.68 24.4545C231.646 24.4545 231.612 24.4545 231.578 24.4545C231.544 24.4545 231.51 24.4545 231.475 24.4545V23.517C231.51 23.517 231.541 23.517 231.569 23.517C231.598 23.517 231.629 23.517 231.663 23.517C231.97 23.517 232.194 23.4261 232.336 23.2443C232.478 23.0653 232.549 22.8097 232.549 22.4773V15.4545ZM233.044 14.3636C232.848 14.3636 232.679 14.2969 232.537 14.1634C232.397 14.0298 232.328 13.8693 232.328 13.6818C232.328 13.4943 232.397 13.3338 232.537 13.2003C232.679 13.0668 232.848 13 233.044 13C233.24 13 233.407 13.0668 233.547 13.2003C233.689 13.3338 233.76 13.4943 233.76 13.6818C233.76 13.8693 233.689 14.0298 233.547 14.1634C233.407 14.2969 233.24 14.3636 233.044 14.3636ZM238.141 22.1364C237.511 22.1364 236.967 21.9972 236.509 21.7188C236.055 21.4375 235.704 21.0455 235.457 20.5426C235.212 20.0369 235.09 19.4489 235.09 18.7784C235.09 18.108 235.212 17.517 235.457 17.0057C235.704 16.4915 236.048 16.0909 236.488 15.804C236.931 15.5142 237.448 15.3693 238.039 15.3693C238.38 15.3693 238.717 15.4261 239.049 15.5398C239.381 15.6534 239.684 15.8381 239.957 16.0938C240.229 16.3466 240.447 16.6818 240.609 17.0994C240.771 17.517 240.852 18.0312 240.852 18.642V19.0682H235.806V18.1989H239.829C239.829 17.8295 239.755 17.5 239.607 17.2102C239.462 16.9205 239.255 16.6918 238.985 16.5241C238.718 16.3565 238.403 16.2727 238.039 16.2727C237.638 16.2727 237.292 16.3722 236.999 16.571C236.71 16.767 236.487 17.0227 236.33 17.3381C236.174 17.6534 236.096 17.9915 236.096 18.3523V18.9318C236.096 19.4261 236.181 19.8452 236.352 20.1889C236.525 20.5298 236.765 20.7898 237.072 20.9688C237.379 21.1449 237.735 21.233 238.141 21.233C238.406 21.233 238.644 21.196 238.857 21.1222C239.073 21.0455 239.259 20.9318 239.415 20.7812C239.572 20.6278 239.692 20.4375 239.778 20.2102L240.749 20.483C240.647 20.8125 240.475 21.1023 240.234 21.3523C239.992 21.5994 239.694 21.7926 239.339 21.9318C238.984 22.0682 238.585 22.1364 238.141 22.1364ZM245.04 22.1364C244.427 22.1364 243.898 21.9915 243.455 21.7017C243.012 21.4119 242.671 21.0128 242.433 20.5043C242.194 19.9957 242.075 19.4148 242.075 18.7614C242.075 18.0966 242.197 17.5099 242.441 17.0014C242.688 16.4901 243.032 16.0909 243.472 15.804C243.915 15.5142 244.433 15.3693 245.023 15.3693C245.484 15.3693 245.898 15.4545 246.268 15.625C246.637 15.7955 246.94 16.0341 247.175 16.3409C247.411 16.6477 247.558 17.0057 247.614 17.4148H246.609C246.532 17.1165 246.362 16.8523 246.097 16.6222C245.836 16.3892 245.484 16.2727 245.04 16.2727C244.648 16.2727 244.305 16.375 244.009 16.5795C243.717 16.7812 243.488 17.0668 243.323 17.4361C243.161 17.8026 243.08 18.233 243.08 18.7273C243.08 19.233 243.16 19.6733 243.319 20.0483C243.481 20.4233 243.708 20.7145 244.001 20.9219C244.296 21.1293 244.643 21.233 245.04 21.233C245.302 21.233 245.539 21.1875 245.752 21.0966C245.965 21.0057 246.146 20.875 246.293 20.7045C246.441 20.5341 246.546 20.3295 246.609 20.0909H247.614C247.558 20.4773 247.417 20.8253 247.192 21.1349C246.971 21.4418 246.677 21.6861 246.31 21.8679C245.947 22.0469 245.523 22.1364 245.04 22.1364ZM251.931 15.4545V16.3068H248.539V15.4545H251.931ZM249.528 13.8864H250.533V20.125C250.533 20.4091 250.575 20.6222 250.657 20.7642C250.742 20.9034 250.85 20.9972 250.981 21.0455C251.114 21.0909 251.255 21.1136 251.403 21.1136C251.513 21.1136 251.604 21.108 251.675 21.0966C251.746 21.0824 251.803 21.071 251.846 21.0625L252.05 21.9659C251.982 21.9915 251.887 22.017 251.765 22.0426C251.643 22.071 251.488 22.0852 251.3 22.0852C251.016 22.0852 250.738 22.0241 250.465 21.902C250.195 21.7798 249.971 21.5938 249.792 21.3438C249.616 21.0938 249.528 20.7784 249.528 20.3977V13.8864ZM254.177 22.0682C253.967 22.0682 253.786 21.9929 253.636 21.8423C253.485 21.6918 253.41 21.5114 253.41 21.3011C253.41 21.0909 253.485 20.9105 253.636 20.7599C253.786 20.6094 253.967 20.5341 254.177 20.5341C254.387 20.5341 254.567 20.6094 254.718 20.7599C254.869 20.9105 254.944 21.0909 254.944 21.3011C254.944 21.4403 254.908 21.5682 254.837 21.6847C254.769 21.8011 254.677 21.8949 254.56 21.9659C254.447 22.0341 254.319 22.0682 254.177 22.0682ZM257.243 22H256.135L259.339 13.2727H260.43L263.635 22H262.527L259.919 14.6534H259.851L257.243 22ZM257.652 18.5909H262.118V19.5284H257.652V18.5909ZM265.864 13.2727V22H264.858V13.2727H265.864ZM268.353 24.4545C268.183 24.4545 268.031 24.4403 267.897 24.4119C267.764 24.3864 267.672 24.3608 267.62 24.3352L267.876 23.4489C268.12 23.5114 268.336 23.5341 268.524 23.517C268.711 23.5 268.877 23.4162 269.022 23.2656C269.17 23.1179 269.305 22.8778 269.427 22.5455L269.615 22.0341L267.194 15.4545H268.285L270.092 20.6705H270.16L271.967 15.4545H273.058L270.279 22.9545C270.154 23.2926 270 23.5724 269.815 23.794C269.63 24.0185 269.416 24.1847 269.172 24.2926C268.93 24.4006 268.657 24.4545 268.353 24.4545ZM280.488 16C280.394 15.7131 280.27 15.456 280.117 15.2287C279.966 14.9986 279.786 14.8026 279.576 14.6406C279.368 14.4787 279.132 14.3551 278.868 14.2699C278.604 14.1847 278.314 14.142 277.999 14.142C277.482 14.142 277.012 14.2756 276.588 14.5426C276.165 14.8097 275.828 15.2031 275.578 15.723C275.328 16.2429 275.203 16.8807 275.203 17.6364C275.203 18.392 275.33 19.0298 275.583 19.5497C275.836 20.0696 276.178 20.4631 276.61 20.7301C277.042 20.9972 277.527 21.1307 278.067 21.1307C278.567 21.1307 279.007 21.0241 279.388 20.8111C279.772 20.5952 280.07 20.2912 280.283 19.8991C280.499 19.5043 280.607 19.0398 280.607 18.5057L280.931 18.5739H278.306V17.6364H281.63V18.5739C281.63 19.2926 281.476 19.9176 281.169 20.4489C280.865 20.9801 280.445 21.392 279.908 21.6847C279.374 21.9744 278.76 22.1193 278.067 22.1193C277.294 22.1193 276.615 21.9375 276.03 21.5739C275.448 21.2102 274.993 20.6932 274.667 20.0227C274.343 19.3523 274.181 18.5568 274.181 17.6364C274.181 16.946 274.273 16.3253 274.458 15.7741C274.645 15.2202 274.909 14.7486 275.25 14.3594C275.591 13.9702 275.995 13.6719 276.461 13.4645C276.926 13.2571 277.439 13.1534 277.999 13.1534C278.459 13.1534 278.888 13.223 279.286 13.3622C279.686 13.4986 280.043 13.6932 280.355 13.946C280.671 14.196 280.934 14.4957 281.144 14.8452C281.354 15.1918 281.499 15.5767 281.578 16H280.488ZM283.528 22H282.42L285.625 13.2727H286.716L289.92 22H288.812L286.204 14.6534H286.136L283.528 22ZM283.937 18.5909H288.403V19.5284H283.937V18.5909Z" fill="black"/>
<path d="M91.1122 128.977C89.4001 128.651 88.7579 128.857 87.5401 130.075C86.9466 130.669 89.9408 131.129 90.2932 131.155C90.4089 131.164 92.8283 131.213 92.2971 130.615C92.0515 130.339 90.9452 130.546 92.3668 130.546" stroke="#FFDFF0" stroke-width="5" stroke-linecap="round"/>
<path d="M115.263 143.719C112.491 144.815 109.657 145.831 106.899 146.786C106.562 146.902 104.761 147.107 105.261 147.657C106.299 148.799 108.143 148.455 109.548 148.423C110.377 148.405 111.912 146.986 112.754 146.472C113.477 146.03 114.063 144.497 114.322 143.719" stroke="#FFDFF0" stroke-width="5" stroke-linecap="round"/>
<path d="M38.1055 145.287C38.0111 148.309 36.108 153.165 37.4956 156.056C38.2968 157.725 38.1055 154.836 38.1055 154.383C38.1055 153.131 38.4886 151.09 37.6002 150.061C35.5612 147.701 34.7893 150.403 34.7251 152.362C34.6262 155.376 37.3513 159.35 40.301 156.892" stroke="#FFDFF0" stroke-width="5" stroke-linecap="round"/>
<path d="M126.241 129.291C125.207 131.359 124.686 132.938 125.056 135.25C125.262 136.539 125.511 138.152 126.868 138.631C127.484 138.848 126.924 134.581 126.485 133.821C126.268 133.448 123.709 129.206 124.237 128.995C125.15 128.629 126.985 128.977 127.966 128.977C129.563 128.977 130.658 129.289 132.2 129.57C134.597 130.005 135.548 130.407 137.654 131.626C138.649 132.202 139.747 133.498 140.669 133.682" stroke="#FFE685" stroke-width="5" stroke-linecap="round"/>
<path d="M137.219 129.605C140.042 129.652 142.62 130.506 144.886 131.8C145.619 132.219 146.001 133.925 146.001 134.693C146.001 136.175 146.69 137.358 147.011 138.77C147.979 143.026 148.946 147.139 150.235 151.264C150.808 153.096 151.114 155.746 150.636 157.659C150.324 158.904 149.482 159.843 149.12 161.109C148.826 162.137 147.869 163.241 147.412 164.245C146.827 165.533 146.351 167.544 145.373 168.636C144.756 169.327 144.212 170.013 143.492 170.693C142.625 171.511 142.863 169.749 142.847 169.299C142.759 166.936 142.551 164.591 142.551 162.224C142.551 159.954 142.237 157.755 142.237 155.481C142.237 152.347 142.695 148.851 142.08 145.775C141.842 144.586 141.642 143.044 141.61 141.837C141.573 140.477 142.099 138.324 141.366 137.132C140.036 134.971 142.449 142.095 143.195 144.52C144.321 148.179 143.957 152.601 144.101 156.422C144.171 158.261 145.231 161.789 143.962 163.339C143.245 164.215 142.305 165.254 141.906 166.319C141.385 167.707 141.296 168.622 141.296 170.135C141.296 171.364 140.969 171.546 140.425 172.574C139.717 173.911 138.076 173.829 136.748 173.829C132.499 173.829 128.373 173.632 124.045 173.515C122.623 173.477 121.314 172.888 119.828 172.888C119.091 172.888 118.353 172.888 117.615 172.888C113.939 172.888 110.262 172.888 106.585 172.888C103.913 172.888 101.386 173.829 98.7791 173.829C96.7883 173.829 94.4584 173.492 92.5061 173.846C91.668 173.999 90.6274 174.094 89.8576 174.456C88.5374 175.078 88.6207 174.702 87.8014 175.955C86.7774 177.521 87.0347 178.144 87.0347 179.945C87.0347 181.461 87.0347 182.977 87.0347 184.493C87.0347 186.609 87.0445 186.98 88.9863 187.699C90.7694 188.36 92.445 189.198 94.4055 189.198C96.1627 189.198 97.8294 188.884 99.5807 188.884C100.818 188.884 102.055 188.884 103.292 188.884C104.195 188.884 106.426 189.282 107.091 188.727C108.342 187.685 111.296 189.519 112.597 189.808C113.087 189.917 116.27 190.712 116.134 191.08C115.636 192.434 116.279 195.961 115.106 196.743C114.226 197.33 113.756 201.264 113.695 202.371C113.641 203.346 110.896 203.355 110.314 204.253C109.514 205.49 107.128 205.811 105.854 206.449C104.995 206.878 104.137 207.703 103.188 207.703C101.402 207.703 98.7137 208.639 97.0715 207.947C95.137 207.133 92.1027 207.703 90.0144 207.703C88.9747 207.703 87.935 207.703 86.8953 207.703C85.6295 207.703 84.6434 207.076 83.4452 207.076C82.6895 207.076 82.1126 206.802 81.389 206.762C80.4917 206.712 79.5388 205.898 80.8314 207.006C81.9087 207.93 84.242 208.083 85.5187 208.801C88.0081 210.201 91.8227 209.448 94.5623 209.585C95.206 209.617 95.7899 209.899 96.4442 209.899C97.2125 209.899 93.6906 210.167 93.2728 210.212C90.6831 210.494 88.4921 210.322 86.0241 210.212C83.7712 210.112 81.1759 209.57 79.1761 208.47C78.2204 207.944 77.3011 207.662 76.3707 207.146C75.63 206.734 75.3593 205.873 74.4888 205.438C73.21 204.799 72.6048 204.189 71.5091 203.312C70.3306 202.369 70.0246 200.79 69.1567 199.705C67.1403 197.185 66.3339 192.921 66.3339 189.686C66.3339 186.387 66.3339 183.088 66.3339 179.788C66.3339 178.025 66.6475 176.406 66.6475 174.613C66.6475 173.722 67.1639 172.746 67.5188 171.947C67.8123 171.287 67.5885 170.147 67.5885 169.438C67.5885 167.993 67.9021 166.423 67.9021 164.89C67.9021 163.293 67.0495 162.279 68.6863 160.969C69.0415 160.685 69.4097 160.297 69.7143 159.959C69.9062 159.746 69.9752 159.19 70.2719 159.105C70.718 158.978 70.9609 159.122 71.3523 158.774C72.2907 157.94 73.8378 157.085 75.0986 156.875C80.041 156.051 85.0226 156.578 90.1015 156.578C95.3748 156.578 100.826 156.265 106.167 156.265C107.512 156.265 108.796 156.113 110.123 155.916C112.475 155.568 114.605 153.826 116.988 153.459C118.577 153.215 120.635 151.73 121.658 150.48C122.073 149.973 122.337 149.45 122.721 148.981C123.042 148.589 123.054 147.932 123.279 147.483C123.627 146.786 124.437 146.361 124.917 145.74C126.464 143.734 126.554 140.678 126.554 138.247C126.554 136.971 126.652 135.65 126.554 134.379C126.501 133.683 123.646 136.752 123.418 137.341C122.3 140.224 122.791 143.782 122.791 146.855" stroke="#FFE685" stroke-width="5" stroke-linecap="round"/>
<path d="M140.041 136.818C138.384 141.326 138.334 146.903 141.191 150.968C141.551 151.479 143.365 153.977 144.363 153.616C145.146 153.333 145.658 151.215 145.809 150.567C146.276 148.554 147.007 144.793 145.931 142.848C144.05 139.447 144.432 146.719 144.432 147.134C144.432 150.99 144.348 154.883 144.781 158.722C144.881 159.604 144.977 161.875 146.001 162.468C147.191 163.157 146.942 161.06 146.942 160.551C146.942 156.969 147.285 152.679 146.175 149.225C145.93 148.463 145.095 146.282 145.095 147.082C145.095 147.749 145.764 148.809 146.001 149.382C146.297 150.097 146.612 152.169 147.255 152.675C148.201 153.419 146.876 150.298 146.628 149.12C145.957 145.928 145.462 142.702 144.589 139.554C144.503 139.243 143.207 133.969 142.481 135.529C141.793 137.006 141.578 138.755 141.296 140.338C141.238 140.663 140.863 144.979 140.303 143.858C140.168 143.588 137.111 134.993 135.581 137.08C133.81 139.495 132.689 148.673 133.768 145.879C134.92 142.9 134.396 139.031 134.396 135.895C134.396 135.457 134.524 133.808 133.559 134.065C131.763 134.544 131.206 138.009 131.329 139.502C131.501 141.587 132.527 140.905 132.793 139.31C133.059 137.71 132.678 136.178 131.956 134.762C131.338 133.549 130.617 134.124 130.022 135.128C128.909 137.006 129.167 139.978 131.294 141C133.091 141.865 132.355 136.459 132.2 135.825C131.298 132.125 129.915 140.73 129.83 141.14C129.049 144.939 128.61 148.768 129.099 152.64C129.348 154.616 129.73 158.891 132.008 159.819C133.946 160.609 133.923 157.722 134.082 156.474C134.772 151.062 135.859 144.833 134.378 139.467C133.484 136.226 132.353 137.868 131.747 140.269C130.397 145.618 128.728 154.189 132.026 159.192C134.035 162.241 135.566 157.269 135.825 155.951C136.449 152.772 137.123 148.505 134.727 145.949C132.922 144.024 131.35 144.487 130.388 146.96C130.216 147.402 128.427 152.613 129.935 152.501C132.257 152.329 132.414 144.572 132.479 143.109C132.564 141.185 133.03 135.717 130.702 134.693C130.25 134.494 129.617 133.887 129.255 133.525C128.796 133.066 128.413 132.781 129.308 132.741C129.919 132.714 130.901 132.428 131.468 132.706C132.482 133.203 132.279 137.012 132.409 137.899C133.276 143.793 134.327 150.539 136.661 156.056C137.008 156.876 137.579 159.188 138.003 157.397C138.358 155.898 138.701 150.371 138.16 155.01C137.722 158.76 137.67 162.668 137.863 166.441C138.037 169.821 138.114 166.832 138.229 165.256C138.233 165.201 138.358 163.13 138.543 163.13C138.93 163.13 139.069 165.389 139.083 165.639C139.175 167.303 139.04 168.497 137.166 168.497C133.734 168.497 130.301 168.497 126.868 168.497C121.792 168.497 116.715 168.497 111.639 168.497C111.279 168.497 110.074 168.301 109.809 168.671C109.494 169.112 110.714 169.105 110.75 169.107C113.599 169.231 116.493 169.157 119.341 169.055C123.791 168.894 136.897 167.043 132.688 168.497C129.916 169.455 126.906 170.516 123.958 170.675C121.187 170.825 124.708 170.867 125.614 170.937C128.674 171.172 131.54 171.634 134.64 171.634C136.131 171.634 136.215 169.408 136.26 168.305C136.445 163.785 136.304 159.219 136.278 154.696C136.273 153.826 136.641 149.992 135.197 149.992C133.399 149.992 131.628 149.698 129.83 149.678C127.4 149.651 126.038 150.138 125.439 152.693C124.473 156.815 123.118 163.277 125.683 167.103C126.69 168.605 128.356 169.318 129.83 168.079C133.581 164.925 135.023 160.48 135.023 155.759C135.023 154.485 135.321 152.815 133.699 152.815C132.407 152.815 131.078 152.718 130.336 154.017C129.025 156.31 129.186 158.792 131.19 160.516C131.742 160.992 132.207 161.68 132.845 160.882C133.154 160.496 134.431 158.06 133.629 157.589C131.484 156.327 127.826 159.173 126.433 160.307C125.484 161.08 119.204 167.964 123.244 168.741C125.185 169.114 125.191 167.771 125.805 166.476C126.713 164.56 126.781 161.61 124.167 161.126C122.553 160.827 120.071 161.562 121.292 163.723C122.719 166.248 128.29 163.843 130.074 163.182C130.3 163.099 134.646 160.963 132.549 161.736C131.366 162.172 130.029 162.849 129.238 163.862C128.781 164.447 128.078 167.271 129.482 167.364C132.336 167.555 134.752 162.393 134.988 160.15C135.128 158.825 134.799 158.828 133.699 158.216C131.546 157.02 128.524 157.033 126.189 157.45C124.271 157.792 122.238 158.53 120.926 160.046C119.991 161.127 119.68 162.826 121.292 163.409C125.597 164.965 131.694 162.672 135.075 160.063C138.102 157.729 135.019 155.101 132.723 153.825C129.411 151.985 125.987 153.861 123.087 155.69C122.014 156.366 116.243 159.298 117.737 161.457C120.84 165.939 134.904 157.687 131.747 154.696C129.247 152.328 124.024 153.572 121.379 154.801C118.52 156.129 112.917 159.001 113.834 162.991C115.19 168.889 131.611 163.701 128.611 159.785C123.316 152.872 111.373 156.772 106.132 161.527C104.426 163.075 103.693 164.93 106.028 166.162C109.511 168 113.718 167.772 117.215 166.005C118.686 165.262 123.738 161.019 122.024 158.704C121.591 158.12 120.634 158.141 120.003 158.147C116.493 158.178 113.251 159.381 110.088 160.813C107.116 162.158 99.5496 166.271 102.16 170.727C103.574 173.143 106.777 169.501 107.945 168.567C109.286 167.494 110.789 166.313 109.792 164.524C108.865 162.861 107.98 161.931 106.464 163.548C105.468 164.61 103.516 167.589 106.376 167.556C109.284 167.523 114.999 166.044 116.134 162.921C116.613 161.605 111.625 162.218 111.081 162.224C108.222 162.253 105.402 162.459 102.578 162.921C100.145 163.319 97.0737 163.613 94.876 164.855C94.2777 165.193 93.7454 166.2 93.7608 166.859C93.8248 169.611 100.036 166.003 100.678 165.604C101.401 165.156 107.328 161.544 105.401 160.098C103.342 158.554 99.1143 159.522 96.9321 159.924C94.1485 160.437 91.3582 161.016 88.6204 161.736C88.0812 161.878 85.489 162.274 85.2748 163.095C84.369 166.568 90.523 167.782 92.6107 167.591C94.5346 167.415 98.5457 165.17 95.9389 162.904C95.3703 162.409 94.6086 162.28 93.8827 162.241C90.8572 162.082 87.751 162.349 84.7346 162.538C84.3457 162.562 81.708 162.443 81.2148 162.991C80.5918 163.683 82.821 164.615 83.0793 164.698C83.9331 164.973 86.0136 165.622 86.8431 164.977C87.541 164.434 85.6876 162.838 85.3968 162.607C83.5424 161.138 80.3787 159.492 78.0086 159.401C75.5452 159.306 76.1028 155.951 74.1054 155.951C72.8796 155.951 72.0737 156.001 71.0386 156.648C70.59 156.928 70.7661 157.572 70.5682 158.007C70.1617 158.901 69.7083 159.55 69.0871 160.342C68.904 160.576 66.7988 162.503 67.9893 162.503C71.5034 162.503 75.1974 160.101 78.5314 159.157C80.4179 158.623 82.2865 158.273 84.2467 158.6C84.9914 158.724 88.0164 159.11 87.9234 160.272C87.8143 161.637 86.7147 162.895 85.9718 163.949C84.2023 166.461 82.0854 169.082 81.5285 172.191C80.9206 175.585 82.9371 174.372 84.6475 172.662C87.9503 169.359 92.196 164.723 93.238 159.994C93.5498 158.579 91.8954 159.041 90.9031 159.14C88.1972 159.41 85.4944 160.15 83.0096 161.248C81.1025 162.091 77.2181 163.734 76.1267 165.744C75.3602 167.156 79.087 166.656 79.42 166.493C80.62 165.905 85.071 162.139 83.4452 160.342C81.2807 157.95 75.5767 161.814 73.9486 163.078C72.0983 164.514 71.7042 167.013 73.3736 168.811C74.1803 169.679 75.8465 172.034 77.2942 171.093C78.6039 170.242 79.03 167.023 78.2874 165.744C75.9992 161.803 72.0389 168.67 71.178 170.205C69.9306 172.429 68.3311 177.316 69.8537 179.893C71.3173 182.37 77.4386 177.628 78.3223 177.053C81.3055 175.112 84.1999 173.125 86.8953 170.797C87.8285 169.991 88.7712 168.93 89.9621 168.497C90.3989 168.338 89.053 167.953 88.603 168.532C87.7805 169.589 86.9828 171.817 88.8469 171.93C92.6482 172.16 96.8519 169.921 99.9292 167.87C101.542 166.795 99.0717 166.65 98.3609 166.65C94.0302 166.65 89.21 168.227 85.571 170.553C84.2852 171.375 87.1416 171.965 87.6969 172.087C89.6489 172.514 92.9597 171.973 94.0396 170.065C95.2288 167.964 91.8299 167.889 90.6591 167.922C85.4214 168.067 77.7499 170.454 74.907 175.223C72.032 180.046 78.2535 183.914 78.8102 177.419C79.0566 174.544 79.2353 170.109 76.2139 168.549C72.7641 166.769 70.362 174.189 69.8189 176.199C69.1965 178.502 68.1012 183.732 71.1606 184.929C73.1419 185.704 72.5984 177.882 72.6069 176.687C72.6097 176.285 72.5578 171.731 71.9796 174.108C70.8558 178.728 71.3468 184.008 72.7463 188.501C72.8743 188.912 74.4577 192.068 74.2448 190.243C74.0006 188.15 74.5726 185.838 74.0009 183.796C73.9185 183.502 72.9397 182.782 72.6766 183.308C72.2827 184.096 72.6349 185.896 72.6766 186.689C72.8105 189.233 73.0464 191.807 73.5653 194.303C73.8323 195.588 74.1591 196.937 74.7502 198.119C75.0354 198.69 73.9544 196.199 73.7918 195.889C72.8514 194.099 71.9725 192.278 70.9689 190.522C70.7852 190.201 69.1382 187.392 69.1742 187.752C69.4896 190.906 70.8868 193.848 71.6659 196.9C71.8572 197.649 72.7296 204.114 73.6698 204.114C74.2896 204.114 72.814 198.993 72.6766 198.607C72.4202 197.887 71.4493 196.683 71.3697 196.046C70.584 189.76 76.8013 198.854 77.7995 200.036C79.0883 201.563 80.302 203.113 81.4588 204.741C81.5311 204.843 82.796 206.418 82.2603 205.368C80.8981 202.698 78.3704 200.354 76.0919 198.485C74.7846 197.413 73.4355 196.337 72.0493 195.366C71.8104 195.199 72.7946 196.329 72.816 196.36C74.0333 198.081 75.0732 199.931 76.4055 201.57C77.4568 202.863 78.6385 204.161 79.9254 205.229C80.7235 205.891 79.2094 204.297 79.1587 204.253C77.0912 202.444 74.1839 200.993 72.6069 198.712C70.7318 196 70.1099 192.602 68.9999 189.564C68.5493 188.33 67.8053 187.246 67.3446 186.061C67.2143 185.727 67.8001 185.723 67.9719 185.678C68.8872 185.438 69.4217 184.848 69.9757 184.11C71.9656 181.457 74.1601 179.487 76.6843 177.349C76.7414 177.301 77.9926 176.154 78.1829 176.408C79.0402 177.551 78.0111 182.236 77.8866 183.395C77.5283 186.732 76.8067 190.012 76.4229 193.345C76.1501 195.715 75.7722 198.322 76.8586 200.559C77.8775 202.657 80.1384 197.359 80.4307 196.725C82.2284 192.83 82.301 188.651 82.33 184.423C82.3313 184.234 82.3765 179.992 82.1732 180.032C81.5862 180.15 81.7107 191.095 81.7027 192.299C81.6968 193.194 81.7027 195.877 81.7027 194.983C81.7027 193.328 81.7027 191.672 81.7027 190.017C81.7027 187.404 81.7313 184.783 81.5285 182.176C81.4739 181.474 81.5539 179.715 80.7618 179.231C80.6178 179.143 79.6661 178.447 79.5769 178.603C79.2745 179.133 79.8076 180.774 79.8905 181.252C80.3091 183.667 80.5784 186.189 81.2322 188.553C82.2857 192.362 84.8952 186.245 85.4665 185.051C85.7467 184.465 89.0759 177.2 88.0977 176.983C86.1109 176.541 85.0467 186.311 84.8392 187.525C84.3705 190.267 82.4467 198.39 82.9922 195.663C83.2333 194.457 83.7992 193.362 84.2119 192.212C85.2356 189.361 85.6696 186.279 85.9544 183.273C86.2256 180.411 86.0938 174.648 86.0938 174.648C86.0938 174.648 85.832 177.43 85.4839 178.778C84.5326 182.46 83.1104 186.022 81.877 189.616C81.5161 190.667 81.1552 192.831 80.2739 193.624C80.1062 193.775 80.1392 193.187 80.1345 192.962C80.1056 191.59 80.1122 190.203 80.1693 188.832C80.2606 186.641 80.5651 184.489 81.0406 182.35C81.1208 181.989 81.4286 179.942 81.0754 181.531C80.019 186.285 79.1239 191.415 79.2458 196.29C79.2795 197.64 79.7547 202.596 81.7724 199.966C84.5718 196.319 86.0819 192.149 88.0977 188.118C88.3535 187.606 88.2895 189.253 88.2719 189.825C88.1912 192.448 87.8568 195.024 87.3484 197.597C87.1712 198.493 85.8688 204.077 87.3658 200.559C88.258 198.462 89.18 196.323 89.6833 194.094C89.8389 193.405 90.0834 191.468 88.9515 192.822C86.333 195.955 84.8595 199.634 83.3232 203.347C82.9205 204.32 86.0004 201.011 86.4771 200.245C87.969 197.849 90.1342 196.148 91.844 193.972C92.2316 193.479 92.0328 194.591 92.0183 194.704C91.8423 196.068 91.0049 197.422 90.5546 198.712C90.0791 200.073 88.7496 204.162 88.9689 202.737C89.2482 200.922 90.6686 199.261 91.4955 197.666C91.7044 197.264 92.3855 195.574 92.2971 195.784C90.8824 199.144 88.0496 202.086 85.9892 205.089C84.6576 207.03 86.203 205.412 86.7385 204.689C88.521 202.282 90.0989 199.823 91.4955 197.178C92.2388 195.771 93.4716 194.766 94.3706 193.467C94.5851 193.157 91.8926 196.347 91.391 197.039C90.6808 198.018 85.7635 205.168 89.7182 204.88C93.2935 204.62 98.5766 199.01 99.6852 195.784C101.213 191.341 96.436 194.2 95.0676 195.976C93.9366 197.444 91.4536 201.468 92.6804 203.417C92.9695 203.876 94.4452 204.311 94.9282 204.166C96.8179 203.599 97.5808 200.557 98.0124 198.921C98.2822 197.899 99.1108 196.756 99.2496 195.784C99.3246 195.26 99.5627 193.033 98.57 193.868C96.3802 195.709 95.0991 199.435 94.7366 202.179C94.4627 204.253 94.781 204.601 97.0018 204.567C99.7559 204.524 101.418 201.194 102.839 199.252C103.973 197.703 105.54 195.855 106.098 193.972C106.359 193.09 104.241 193.834 103.972 194.164C102.033 196.544 98.6078 203.199 103.449 204.218C106.406 204.841 107.978 201.455 109.304 199.409C110.27 197.919 110.412 196.423 110.576 194.704C110.692 193.482 110.622 193.278 109.025 193.798C105.962 194.795 104.013 197.475 102.769 200.298C102.219 201.546 101.43 203.046 102.961 203.556C104.144 203.95 105.384 204.139 106.307 203.068C107.163 202.074 107.509 200.61 107.945 199.409C108.744 197.205 109.83 194.914 110.175 192.578C110.6 189.703 108.609 190.376 106.237 190.487C104.184 190.584 102.168 190.921 100.138 191.219C99.0138 191.384 97.2378 191.358 96.27 192.09C94.2945 193.585 97.6626 195.574 98.2564 194.216C98.52 193.614 95.0978 193.589 94.8585 193.589C94.0375 193.589 92.833 193.816 92.0531 193.519C91.5154 193.314 92.3394 192.174 92.3668 191.777C92.4793 190.145 87.4923 190.334 87.0347 191.707" stroke="#FFE685" stroke-width="5" stroke-linecap="round"/>
<path d="M81.389 100.122C79.3997 99.3453 78.8039 99.2388 78.0086 101.306C77.4781 102.686 76.998 103.234 76.998 104.826C76.998 108.394 80.597 110.963 84.0028 110.402C85.5645 110.145 89.2711 106.092 88.2196 104.199C86.6199 101.319 83.485 99.026 80.5178 97.8215C77.3628 96.5407 71.2907 96.4112 69.6795 100.191C68.9426 101.92 69.2705 104.789 71.3523 105.384C73.2526 105.927 74.3685 105.125 74.4713 103.119C74.6898 98.8592 71.3501 102.79 70.1325 104.182C69.0318 105.44 70.6916 108.921 72.4152 108.538C73.0622 108.394 72.6518 106.705 71.178 107.196C70.107 107.553 67.2748 109.388 67.2748 110.646C67.2748 111.958 67.3471 113.574 69.1742 113.574C69.7286 113.574 71.7677 111.55 71.178 110.96C70.1167 109.899 68.064 110.553 69.3484 111.552C70.3151 112.304 70.0977 108.292 70.0977 107.876C70.0977 106.967 69.9437 106.614 69.1567 106.151C68.2757 105.632 68.1067 105.454 66.9612 105.454C64.8715 105.454 68.6268 111.261 69.5401 111.657C70.9636 112.274 73.245 112.04 74.8024 112.04C77.519 112.04 80.2409 112.091 82.9573 112.04C84.694 112.007 86.3989 111.727 88.1499 111.727C89.1646 111.727 89.8305 111.933 90.7985 112.214C91.2634 112.35 94.7313 112.519 92.8547 112.284C87.8276 111.656 82.7537 111.727 77.695 111.727C77.3465 111.727 76.301 111.727 76.6495 111.727C78.9394 111.727 81.2444 111.804 83.5323 111.709C87.381 111.549 84.2768 110.801 82.6785 110.002C81.0834 109.204 79.4214 108.327 78.4094 106.865C77.6081 105.708 78.0842 104.211 77.451 102.944C76.4664 100.975 76.1148 100.048 77.695 98.3094C80.484 95.2415 86.644 94.1622 90.6591 94.1622C91.4691 94.1622 92.299 94.3549 93.0289 94.7198C93.7185 95.0646 91.4997 94.4858 90.7288 94.4759C88.7251 94.4502 86.5745 94.7294 84.5952 94.4062C83.8057 94.2773 83.1724 94.0765 82.3474 94.1797C81.4001 94.2981 79.8449 96.2748 79.1587 97.0374C76.8386 99.6152 75.5477 102.007 74.6456 105.314C74.2928 106.608 73.7459 107.986 75.0986 108.747C75.8671 109.179 75.8636 109.802 76.8586 109.165C78.0528 108.401 78.7703 107.12 78.5488 105.68C78.379 104.577 76.6184 106.808 76.5623 106.917C75.402 109.187 75.7109 110.328 78.4965 110.211C81.9084 110.066 85.6347 107.009 87.2612 104.094C88.0859 102.617 89.1232 99.3889 87.6794 98.0654C86.7343 97.199 88.4937 96.4587 89.1083 96.201C90.1447 95.7663 91.3585 94.7988 92.3668 94.5107C94.4128 93.9262 96.7234 95.3074 98.6397 95.8002C99.9055 96.1257 101.179 96.3664 102.473 96.6017C103.346 96.7605 105.541 97.1605 104.913 95.9047C103.937 93.9533 103.424 93.8731 101.532 93.291C100.815 93.0702 96.7159 93.1504 99.267 93.2213C101.248 93.2763 103.765 94.6462 105.714 95.1729C106.906 95.495 108.06 96.2196 109.304 96.3578C110.903 96.5355 113.193 99.9949 113.364 101.359C113.466 102.175 114.466 104.314 115.106 104.826C115.705 105.305 115.475 107.133 115.734 107.806C116.646 110.178 117.772 112.481 117.772 115.02C117.772 118.032 118.4 121.069 118.4 124.133C118.4 126.9 118.18 129.635 118.086 132.358C117.98 135.43 116.89 137.956 116.134 140.896C115.791 142.231 115.813 143.169 114.566 144.032C113.352 144.873 112.206 145.35 110.733 145.618C108.103 146.096 105.356 147.796 102.7 147.796C100.092 147.796 97.4839 147.796 94.8759 147.796C90.7985 147.796 86.7211 147.796 82.6436 147.796C81.5374 147.796 80.2735 147.483 79.0193 147.483C76.915 147.483 77.6654 147.751 79.0193 147.413C85.5586 145.778 90.4408 140.161 91.6698 133.647C91.9434 132.197 93.0007 131.276 93.935 130.232C94.7552 129.315 94.5623 128.049 94.5623 126.904C94.5623 122.937 94.5623 118.97 94.5623 115.002C94.5623 111.013 94.9784 107.108 95.1722 103.136C95.2277 101.997 95.361 100.645 95.1722 99.5117C95.0318 98.6696 93.9222 99.4233 93.7782 99.8776C93.2139 101.657 92.1909 105.648 93.6214 107.283C94.3534 108.12 94.8053 107.27 94.8585 106.499C94.9375 105.354 94.1299 98.9239 91.722 101.934C90.7305 103.173 86.5961 111.727 89.7007 111.727C91.9299 111.727 92.1235 102.633 91.1122 102.317C89.8042 101.908 88.7079 101.382 87.4181 102.457C84.8054 104.634 91.1996 106.944 89.4045 103.816C88.7187 102.62 83.0361 98.4218 81.8769 100.575C80.7653 102.639 80.1728 105.721 82.086 107.51C82.4328 107.834 85.295 109.374 85.7104 108.451C86.5009 106.694 85.0804 99.8642 82.2254 100.435C81.4745 100.585 83.6254 101.062 84.3513 101.306C85.6479 101.742 87.0875 102.106 88.4636 101.864C89.1913 101.736 91.9224 100.515 91.3561 99.32C90.2859 97.0607 84.2407 106.081 87.5575 106.081C91.1485 106.081 93.5101 100.582 95.2244 98.1003C95.6851 97.4334 96.0916 96.8809 96.479 96.1835C96.585 95.9928 96.6768 95.3884 96.7578 95.5911C97.4282 97.2669 97.2776 99.8132 97.542 101.603C97.6541 102.362 99.6293 109.52 101.166 108.137C102.482 106.953 103.329 104.512 103.798 102.84C104.181 101.47 104.114 106.199 104.198 106.743C104.268 107.192 106.029 112.86 106.15 110.141C106.263 107.593 106.449 104.769 106.15 102.23C106.096 101.768 105.406 101.451 105.035 101.794C104.467 102.318 103.726 105.325 103.641 104.983C103.211 103.266 103.401 102.103 101.707 101.376C101.159 101.142 99.6126 100.328 100.034 100.749C100.611 101.326 102.989 101.74 103.763 101.62C104.34 101.53 105.479 100.952 105.54 100.435C105.643 99.5627 109.487 100.172 109.617 101.306C109.667 101.734 110.415 104.273 110.715 104.513C111.491 105.133 111.523 107.295 111.656 108.137C111.972 110.134 112.602 112.168 112.737 114.184C112.849 115.872 112.754 117.599 112.754 119.289C112.754 121.316 112.754 123.343 112.754 125.37C112.754 126.153 112.803 130.843 112.928 130.807C114.037 130.49 113.381 124.361 113.381 122.826C113.381 121.564 113.533 120.192 113.224 118.958C112.766 117.126 113.322 118.553 113.364 119.777C113.466 122.792 113.381 125.82 113.381 128.838C113.381 131.277 112.227 133.119 111.883 135.494C111.699 136.763 112.033 138.111 111.569 139.328C111.033 140.736 113.684 137.693 113.765 137.585C113.922 137.375 117.051 132.544 114.496 133.821C112.65 134.744 111.402 138.541 110.733 140.408C110.149 142.035 109.777 143.091 108.049 143.091C103.807 143.091 99.5339 142.778 95.2593 142.778C94.1011 142.778 92.1541 142.436 91.1122 143.022C90.6813 143.264 93.2816 143.409 93.4471 143.405C95.4499 143.361 97.3113 142.464 99.267 142.464C102 142.464 104.697 142.32 107.143 141.035C107.86 140.659 112.467 138.983 110.715 137.62C110.065 137.114 108.339 137.424 107.648 137.498C104.778 137.806 102.147 139.073 99.4239 139.92C96.3551 140.875 92.6316 140.335 89.4045 140.896C88.9259 140.979 84.186 142.017 85.8498 143.562C87.7469 145.324 91.0444 146.042 92.8024 143.893C94.0286 142.394 88.6122 142.778 88.2893 142.795C87.6101 142.831 85.7871 142.593 86.268 143.074C86.5491 143.355 88.0003 142.803 88.237 142.726C91.5778 141.635 94.9287 140.257 97.8033 138.212C99.6736 136.882 101.855 135.261 102.961 133.194C104.353 130.592 104.106 127.762 104.669 124.97C105.405 121.315 106.54 117.611 107.457 113.992C108.078 111.538 108.708 108.388 109.861 106.081C110.095 105.613 109.931 107.126 109.931 107.649C109.931 110.296 109.973 112.949 109.861 115.595C109.697 119.504 108.819 123.214 107.875 126.991C107.656 127.865 107.743 127.47 107.736 126.782C107.714 124.688 107.57 122.601 107.492 120.509C107.357 116.925 106.793 112.253 108.049 108.799C109.071 105.988 108.287 114.793 108.032 117.773C107.545 123.452 107.108 129.112 107.108 134.815C107.108 136.117 107.108 139.22 107.108 136.052C107.108 133.577 107.108 131.103 107.108 128.629C107.108 126.944 107.108 125.26 107.108 123.576C107.108 123.513 107.138 121.483 107.143 121.485C108.421 121.804 108.366 131.121 108.502 132.305C108.568 132.881 108.748 134.362 109.13 133.926C109.581 133.41 109.557 131.558 109.635 130.999C110.052 128.006 110.269 124.983 110.802 122.007C110.96 121.127 111.284 120.27 111.43 119.394C111.561 118.604 110.361 120.589 109.896 121.241C107.369 124.783 105.549 129.259 102.613 132.462C102.066 133.059 102.094 130.901 102.09 130.092C102.075 126.84 102.09 123.587 102.09 120.335C102.09 118.058 102.109 115.78 102.09 113.504C102.086 113.042 102.238 112.01 101.776 111.657C100.528 110.703 100.838 113.787 100.835 114.201C100.819 116.789 100.8 119.386 100.905 121.972C100.948 123.025 100.792 125.047 101.463 126.015C101.83 126.545 102.006 125.605 102.02 125.457C102.262 122.882 102.095 120.234 102.16 117.651C102.276 113.03 102.498 108.405 102.404 103.781C102.29 98.2374 101.103 114.793 100.452 120.3C100.355 121.123 100.022 127.602 99.8246 123.506C99.5749 118.325 99.3827 113.079 99.6504 107.893C99.6661 107.588 100.04 103.866 99.8246 106.255C99.2682 112.438 98.6737 118.639 97.6291 124.76C97.5671 125.124 96.6015 132.295 97.3851 129.082C98.423 124.827 100.228 120.623 100.487 116.222C100.54 115.317 100.522 114.41 100.522 113.504C100.522 112.22 100.529 116.072 100.469 117.355C100.093 125.445 98.1763 132.98 96.2002 140.774C95.3356 144.185 95.2418 139.988 95.207 138.7C95.1401 136.223 95.8599 134.136 96.1131 131.73C96.1335 131.537 94.506 135.91 94.2661 136.906C93.8715 138.543 92.8559 142.257 93.4645 138.334C93.5777 137.605 94.5268 131.963 93.7259 131.818C92.8374 131.656 92.0028 132.111 91.2864 132.567C89.8284 133.495 87.1365 130.546 85.6233 130.546C83.0038 130.546 80.3842 130.546 77.7647 130.546C69.7511 130.546 61.689 130.859 53.6137 130.859C51.1142 130.859 47.6375 130.387 45.3194 131.417C44.3874 131.831 43.1243 131.16 42.1829 131.556C41.4674 131.857 40.3968 132.161 39.8306 132.602C37.9087 134.096 38.3891 135.681 37.3214 137.603C36.2711 139.493 34.4567 141.419 34.3417 143.719C34.1265 148.024 32.1567 152.139 32.7909 156.578C33.0664 158.507 33.6296 160.835 34.4811 162.538C35.2268 164.029 34.7203 166.432 36.3804 167.539C37.9682 168.597 39.3723 169.319 41.3988 169.769C43.1709 170.163 45.5992 170.402 47.2013 171.25C48.0216 171.684 48.6559 171.634 49.6408 171.634C51.7164 171.634 53.8803 172.261 56.0532 172.261C57.3038 172.261 58.4645 172.574 59.6776 172.574C61.7311 172.574 55.5458 172.293 53.5788 171.703C50.2682 170.71 46.6375 172.574 43.4375 172.574C43.0218 172.574 42.5978 172.599 42.1829 172.574C41.6217 172.541 42.0665 171.97 41.7996 171.703C41.5315 171.435 38.1361 169.938 39.5343 169.612C43.7394 168.631 48.0772 170.379 52.272 170.379C53.7434 170.379 55.6099 170.667 57.0116 170.17C57.7647 169.903 59.7457 168.501 60.0261 167.73C60.2428 167.134 59.8232 165.016 59.7647 165.221C59.3663 166.615 59.5667 168.759 59.451 170.205C59.393 170.93 59.4336 171.673 59.4336 172.4C59.4336 172.534 59.1595 173.226 59.2768 173.132C60.1879 172.403 60.3746 169.509 60.3746 168.305C60.3746 165.476 59.7473 162.718 59.7473 159.854C59.7473 156.79 61.7284 153.479 64.452 152.118C65.3991 151.644 66.7298 150.632 67.5188 149.922C67.9391 149.544 68.4827 149.678 69.0522 149.678C71.1577 149.678 72.9342 149.453 74.8895 148.615C76.2913 148.014 77.6371 148.35 79.0541 148.092C80.224 147.88 81.6574 145.877 82.3997 145.026C84.4762 142.644 86.6538 140.202 88.359 137.533C91.0717 133.287 84.9906 136.212 83.2709 137.15C82.4656 137.589 79.8208 138.67 79.8208 139.798C79.8208 141.098 83.9135 140.225 84.421 140.025C86.9057 139.043 90.5661 137.069 91.1122 134.065C91.3345 132.843 87.9974 133.827 87.4181 133.996C84.2048 134.933 81.0971 136.731 77.9389 137.899C76.0507 138.597 74.2073 139.408 72.3281 140.129C71.9333 140.281 70.9102 140.782 71.3174 140.896C73.4236 141.486 76.4981 140.589 78.5314 140.199C81.7664 139.579 84.9513 138.721 87.906 137.237C88.0479 137.165 93.5151 134.36 91.3561 134.309C88.3565 134.24 85.3446 134.344 82.3648 134.693C81.1239 134.838 67.8324 136.075 67.8324 136.749C67.8324 137.297 77.4398 136.256 78.4617 136.017C80.4376 135.555 76.6979 135.037 76.301 135.006C70.615 134.569 64.6738 135.914 59.12 136.958C58.8413 137.01 53.3813 137.853 53.3349 138.317C53.3327 138.339 60.0582 137.786 60.3049 137.759C63.8466 137.377 67.4004 137.025 70.9341 136.575C71.5272 136.499 73.424 136.21 71.7356 136.191C68.4283 136.154 65.1106 136.147 61.8034 136.191C58.54 136.235 54.9715 136.665 51.8712 137.759C51.2788 137.969 53.1467 137.819 53.7531 137.655C57.0832 136.753 60.1858 135.241 63.3542 133.909C64.0995 133.595 66.2528 132.979 65.4801 132.741C64.7865 132.528 64.0025 132.474 63.2845 132.445C59.7075 132.299 56.2879 132.647 52.8121 133.525C51.3428 133.897 50.1781 134.33 48.9612 135.215C48.9232 135.243 47.7273 135.895 48.09 136.034C49.3887 136.534 51.8426 136.735 53.1084 136.139C53.6347 135.891 55.2377 134.067 54.0842 133.682C52.5979 133.187 50.888 133.326 49.3446 133.386C47.77 133.446 45.4509 133.585 44.2391 134.797C42.7579 136.278 45.1508 137.335 46.2255 137.585C48.1459 138.032 53.939 138.689 52.1326 137.899C49.7715 136.866 46.6217 137.545 44.3262 138.317C40.2525 139.688 35.5206 142.216 34.1326 146.611C33.1949 149.581 36.3919 149.815 38.576 149.347C39.8575 149.072 50.2456 144.533 47.9854 142.273C47.3657 141.653 47.276 140.965 46.4346 140.46C45.0522 139.631 43.2328 145.111 43.0193 145.949C42.9034 146.404 42.5908 147.909 43.2633 148.214C44.1451 148.615 44.2928 145.151 44.3088 144.904C44.365 144.032 44.7924 137.998 42.7754 139.119C39.6076 140.878 37.3591 145.944 37.5479 149.469C37.5886 150.228 37.9616 152.122 39.1161 150.968C40.3778 149.706 41.0026 139.619 38.0358 141.035C36.3029 141.862 35.0423 145.97 35.3524 147.727C35.9005 150.833 39.5959 144.814 39.7086 144.59C41.5303 140.967 42.3598 136.64 44.5527 133.229C45.1933 132.233 44.3058 135.589 44.0648 136.749C43.4415 139.748 44.8213 136.551 45.2497 135.459C46.7008 131.762 44.0867 134.5 42.9496 136.156C41.9909 137.553 37.2071 143.642 40.1965 145.426C41.7865 146.376 43.976 146.161 45.7028 145.949C49.9984 145.422 54.2655 144.335 58.423 143.161C59.4363 142.875 64.2807 142.108 64.9748 141.035C65.2347 140.634 64.0096 141.056 63.5459 141.175C62.3482 141.48 61.3542 141.888 60.2352 142.429C57.8251 143.594 55.5186 144.996 53.1606 146.263C52.7247 146.497 51.4714 147.223 51.9583 147.134C52.8849 146.966 53.453 146.241 54.1016 145.618C55.7894 143.996 57.5071 142.351 59.451 141.035C61.9736 139.328 64.7522 138.052 67.3794 136.522C68.4826 135.88 68.5702 135.592 67.2574 135.425C64.2883 135.047 61.1686 135.482 58.2139 135.738C54.4817 136.062 50.9276 136.482 47.3581 137.655C46.6039 137.903 40.1087 139.489 41.2943 141.663C41.6953 142.398 44.6178 142.263 44.9187 142.273C51.3995 142.479 57.9232 142.161 64.3823 141.645C68.497 141.317 72.7141 140.958 76.7714 140.147C78.4445 139.812 76.9219 139.585 76.2835 139.502C73.2476 139.108 69.9892 139.956 67.0309 140.46C61.7968 141.352 56.6839 142.46 51.575 143.91C48.484 144.788 44.5957 145.451 41.7647 147.117C40.334 147.958 43.4123 148.271 43.6815 148.284C48.4363 148.524 53.3382 147.318 57.9699 146.437C63.1447 145.453 68.3169 144.547 73.513 143.684C74.3501 143.545 76.766 142.868 75.9176 142.848C71.5263 142.742 66.4604 144.435 62.3262 145.531C55.7775 147.267 49.159 149.279 43.0193 152.187C42.4553 152.454 40.211 153.59 39.5692 154.209C38.9879 154.769 39.8464 154.871 40.1268 154.871C43.0539 154.871 46.2013 153.127 48.8741 152.187C53.5463 150.545 58.2883 149.136 63.1277 148.075C63.2353 148.051 71.4817 146.59 68.0764 146.855C65.1609 147.082 62.2375 148.09 59.4336 148.842C56.3228 149.675 53.1591 150.462 50.1636 151.665C47.5759 152.703 49.1173 153.192 51 152.989C55.335 152.52 59.796 150.384 63.755 148.702C66.9625 147.34 69.8506 145.469 72.7637 143.579C73.2069 143.292 73.083 143.043 72.5895 143.213C70.9574 143.776 69.3948 144.901 67.9718 145.845C65.743 147.322 63.4344 148.832 61.4375 150.619C60.9733 151.034 59.8236 152.21 61.2458 152.24C64.0042 152.297 67.0833 150.605 69.453 149.434C72.4136 147.972 75.2858 146.277 77.8518 144.189C78.3878 143.753 79.53 142.835 78.026 143.196C75.5122 143.799 73.087 145.001 70.725 146.019C67.0703 147.594 57.0305 154.051 60.6882 152.484C62.4998 151.707 64.2705 149.992 65.9506 148.964C67.7163 147.883 69.5992 146.953 70.9341 145.322C71.965 144.062 71.1492 143.916 70.0106 144.642C66.5308 146.861 63.5668 150.143 60.4791 152.849C56.9477 155.945 53.3121 158.913 49.7279 161.945C49.6409 162.019 45.1724 165.271 45.5459 166.092C46.2168 167.568 51.8839 162.211 52.272 161.823C53.9967 160.099 55.0989 158.028 54.694 155.498C54.4224 153.8 54.1016 154.196 54.1016 155.759C54.1016 156.921 53.7266 162.144 54.9031 162.817C55.8517 163.359 57.3922 157.941 57.5692 157.484C58.291 155.623 58.9903 153.744 59.817 151.926C60.0351 151.446 59.9757 151.161 59.3465 151.56C56.2543 153.518 55.0636 159.26 54.6418 162.538C54.5422 163.311 54.605 168.64 56.2971 165.604C57.0652 164.226 57.2595 162.152 57.2381 160.586C57.1986 157.701 54.0145 163.759 53.6137 164.454C53.4152 164.799 51.1056 169.398 50.6515 168.079C49.6017 165.03 49.2681 161.49 49.0832 158.286C48.9609 156.166 47.461 162.237 47.0271 164.315C46.4063 167.288 46.8877 162.656 46.8877 161.876C46.8877 159.726 46.8877 157.577 46.8877 155.428C46.8877 155.281 47.0186 154.306 46.818 154.139C44.6444 152.328 41.5879 159.518 41.2071 160.238C40.3483 161.862 38.7216 164.284 38.8025 166.267C38.8285 166.902 39.3537 165.109 39.4995 164.489C40.2131 161.456 40.7573 157.974 42.2875 155.219C42.7318 154.419 42.4502 155.487 42.4269 155.916C42.3162 157.955 42.1271 160.116 42.636 162.12C42.8009 162.769 43.2188 164.199 43.7512 163.792C44.4314 163.272 43.5204 159.582 43.4375 159.018C43.3484 158.41 42.7953 152.187 42.1829 152.187C40.8643 152.187 40.0447 154.748 39.5692 155.603C38.577 157.386 38.1373 159.198 37.8616 161.213C37.7411 162.094 37.2186 164.168 37.7919 165.047C39.0622 166.995 36.593 160.533 35.6486 158.408C35.3259 157.682 35.2077 156.816 34.4985 156.422C33.8552 156.064 33.9413 158.046 33.9409 158.077C33.9011 161.184 34.6968 164.472 35.7706 167.364C37.1494 171.079 40.1642 177.35 44.3436 173.062C47.9735 169.338 51.798 164.44 54.1016 159.732C54.7135 158.482 54.0238 157.169 52.5508 158.059C49.3576 159.99 44.1507 170.269 46.8528 167.695C48.16 166.451 48.4486 163.451 48.9264 161.788C49.488 159.834 50.1491 157.892 50.5643 155.899C50.628 155.593 50.8336 154.512 50.1636 155.115C48.549 156.568 47.253 158.672 46.2429 160.569C46.0625 160.908 44.0302 166.705 45.5285 164.367C47.1267 161.874 48.405 157.027 48.09 154.034C47.9789 152.979 45.4123 155.457 45.2846 155.603C44.2256 156.809 40.9648 161.333 42.7231 162.938C44.0945 164.191 44.753 163.306 43.1239 162.259C42.7147 161.996 40.8392 160.824 40.4579 161.544C39.7327 162.914 39.3532 165.852 39.7434 167.364C40.0133 168.41 42.496 169.939 43.0542 168.358C43.3486 167.523 43.6876 166.339 42.9148 165.674C42.3729 165.208 41.6723 164.969 41.1374 164.489C41.125 164.478 40.7796 163.985 40.6844 164.176C39.6053 166.334 46.5119 171.936 46.574 169.577C46.6437 166.931 46.0753 163.236 43.786 161.527C42.1048 160.272 41.1699 160.545 40.8238 162.712C40.2249 166.462 41.9115 170.506 46.4346 169.333C53.1227 167.599 57.1878 158.258 57.726 152.03C57.874 150.318 58.377 139.072 54.8334 139.38C51.4973 139.67 49.1801 145.236 48.2642 147.831C47.9476 148.728 47.2294 150.58 48.4559 151.177C49.8783 151.869 51.772 151.39 53.0387 150.619C58.0908 147.544 62.7511 142.532 63.7724 136.575C64.3723 133.076 42.5319 146.332 53.0387 148.458C59.4765 149.761 65.0669 144 67.8673 138.944C68.9879 136.921 71.413 131.486 67.2748 131.486" stroke="#FFDFF0" stroke-width="5" stroke-linecap="round"/>
<path d="M113.203 193.219C113.209 193.245 113.647 195.41 113.663 194.549C113.672 194.106 113.663 193.662 113.663 193.219C113.663 192.067 114.308 194.396 114.725 194.037C115.651 193.237 116.08 191.819 116.08 190.629C116.08 190.518 116.072 189.641 116.15 189.676C116.528 189.844 116.64 190.761 116.713 191.108C116.942 192.202 116.886 193.323 116.886 194.433C116.886 195.256 116.886 196.079 116.886 196.902C116.886 197.568 116.227 198.078 115.991 198.692C115.713 199.41 115.39 200.154 115.39 200.93" stroke="#FFE685" stroke-width="5" stroke-linecap="round"/>
<path d="M82.0163 176.338C82.0163 177.713 81.7339 179.426 82.086 180.764C82.3693 181.841 83.4444 179.912 83.5149 179.719C83.8395 178.829 84.7956 176.469 83.9679 175.641C82.6207 174.294 82.9521 178.428 83.027 178.952C83.3026 180.881 84.0279 178.145 84.2119 177.593" stroke="#FFE685" stroke-width="5" stroke-linecap="round"/>
<path d="M92 86.64C80.4736 86.64 72.6525 89.3719 67.6825 93.3375C62.7125 97.3031 60.76 102.403 60.76 106.644V120.48H89.16V123.3H46.8262C41.6344 123.3 36.3648 125.536 32.6262 130.262C28.8876 134.988 26.68 142.038 26.68 151.5C26.68 160.962 28.8876 168.012 32.6262 172.738C36.3648 177.464 41.6344 179.7 46.8262 179.7H60.76V196.356C60.76 200.597 62.7125 205.697 67.6825 209.663C72.6525 213.628 80.4736 216.36 92 216.36C103.526 216.36 111.347 213.628 116.317 209.663C121.287 205.697 123.24 200.597 123.24 196.356V182.52H94.84V179.7H137.174C142.366 179.7 147.635 177.464 151.374 172.738C155.112 168.012 157.32 160.962 157.32 151.5C157.32 142.038 155.112 134.988 151.374 130.262C147.635 125.536 142.366 123.3 137.174 123.3H123.24V106.644C123.24 102.293 121.299 97.182 116.317 93.2494C111.336 89.3168 103.515 86.64 92 86.64ZM92 92.28C102.639 92.28 109.084 94.7475 112.767 97.6556C116.451 100.564 117.56 103.946 117.56 106.644V140.22C117.56 144.891 113.744 148.68 109.04 148.68H74.96C69.1136 148.68 64.077 152.26 61.9137 157.316C61.5476 158.153 61.2148 159.046 61.0262 159.96C60.8377 160.874 60.76 161.811 60.76 162.78V174.06H46.8262C43.2208 174.06 39.8816 172.661 37.1525 169.213C34.4234 165.765 32.36 160.081 32.36 151.5C32.36 142.919 34.4234 137.235 37.1525 133.787C39.8816 130.339 43.2208 128.94 46.8262 128.94H94.84V114.84H66.44V106.644C66.44 104.122 67.5383 100.685 71.2325 97.7438C74.9267 94.8026 81.3722 92.28 92 92.28ZM77.8 100.74C74.6716 100.74 72.12 103.274 72.12 106.38C72.12 109.486 74.6716 112.02 77.8 112.02C80.9284 112.02 83.48 109.486 83.48 106.38C83.48 103.274 80.9284 100.74 77.8 100.74ZM123.24 128.94H137.174C140.779 128.94 144.118 130.339 146.847 133.787C149.577 137.235 151.64 142.919 151.64 151.5C151.64 160.081 149.577 165.765 146.847 169.213C144.118 172.661 140.779 174.06 137.174 174.06H89.16V188.16H117.56V196.356C117.56 198.878 116.462 202.315 112.767 205.256C109.073 208.197 102.628 210.72 92 210.72C81.3722 210.72 74.9267 208.197 71.2325 205.256C67.5383 202.315 66.44 198.878 66.44 196.356V162.78C66.44 162.196 66.5066 161.656 66.6175 161.106C67.4162 157.25 70.8442 154.32 74.96 154.32H109.04C116.839 154.32 123.24 147.964 123.24 140.22V128.94ZM106.2 190.98C103.072 190.98 100.52 193.514 100.52 196.62C100.52 199.726 103.072 202.26 106.2 202.26C109.328 202.26 111.88 199.726 111.88 196.62C111.88 193.514 109.328 190.98 106.2 190.98Z" fill="black"/>
</svg>
