<svg width="315" height="237" viewBox="0 0 315 237" fill="none" xmlns="http://www.w3.org/2000/svg">
<path d="M149.621 211.432H160.259C162.061 208.382 162.523 208.537 161.51 204.071C160.497 199.605 157.187 193.221 156.504 185.054C156.09 181.221 155.992 179.072 156.504 175.239C157.716 170.918 158.608 169.104 160.259 166.037H154.627C150.165 170.153 148.133 172.92 145.867 179.182C148.32 185.944 149.844 189.569 153.376 195.132C154.061 202.717 152.657 205.063 148.996 208.014L149.621 211.432Z" fill="white" stroke="black"/>
<path d="M148.996 208.365C150.999 206.56 151.892 205.398 152.75 202.844C154.024 199.756 154.053 198.007 153.376 194.869C149.672 189.378 147.779 184.907 146.493 178.92" stroke="black"/>
<path d="M224.709 166.651C230.223 178.389 230.009 184.971 224.709 196.71C220.675 203.401 219.966 207.324 220.329 214.5C225.634 215.151 227.098 215.904 228.463 217.567C229.616 220.778 229.342 222.31 228.463 224.928H217.2C214.237 221.338 213.202 219.025 212.194 214.5C212.387 206.647 211.884 202.573 215.949 196.71C217.096 189.827 215.409 185.232 214.697 177.079C209.981 172.476 210.329 170.356 206.563 166.651H224.709Z" fill="white"/>
<path d="M228.463 224.928C229.342 222.31 229.616 220.778 228.463 217.567C227.098 215.904 225.634 215.151 220.329 214.5C219.966 207.324 220.675 203.401 224.709 196.71C230.009 184.971 230.223 178.389 224.709 166.651H206.563C210.329 170.356 209.981 172.476 214.697 177.079C215.409 185.232 217.096 189.827 215.949 196.71C211.884 202.573 212.387 206.647 212.194 214.5C213.202 219.025 214.237 221.338 217.2 224.928M228.463 224.928C224.065 224.928 221.599 224.928 217.2 224.928M228.463 224.928H217.2" stroke="black"/>
<path d="M154.627 166.3C149.738 170.544 147.603 174.02 145.241 181.373C144.588 186.953 144.564 190.17 145.241 196.096C146.516 200.659 147.151 203.123 148.996 208.365C149.531 212.924 149.486 215.012 148.996 218.18C148.009 221.155 147.214 222.411 145.241 223.701C141.331 224.312 139.139 224.511 135.229 223.701C133.947 223.356 133.287 223.137 132.727 222.474V217.567L135.229 216.34L139.61 215.113C140.052 214.682 140.31 214.429 140.861 213.886V208.365C137.606 201.884 136.209 197.536 133.978 189.348C132.981 185.626 132.927 183.667 132.727 180.147V175.852C133.225 171.945 134.035 169.633 135.855 166.3H154.627Z" fill="white"/>
<path d="M135.229 216.34L132.727 217.567V222.474C133.287 223.137 133.947 223.356 135.229 223.701C139.139 224.511 141.331 224.312 145.241 223.701C147.214 222.411 148.009 221.155 148.996 218.18C149.486 215.012 149.531 212.924 148.996 208.365C147.151 203.123 146.516 200.659 145.241 196.096C144.564 190.17 144.588 186.953 145.241 181.373C147.603 174.02 149.738 170.544 154.627 166.3H135.855C134.035 169.633 133.225 171.945 132.727 175.852V180.147C132.927 183.667 132.981 185.626 133.978 189.348C136.209 197.536 137.606 201.884 140.861 208.365V213.886C140.31 214.429 140.052 214.682 139.61 215.113M135.229 216.34C136.94 215.861 137.899 215.592 139.61 215.113M135.229 216.34L139.61 215.113" stroke="black"/>
<path d="M214.697 178.92C212.826 186.242 210.567 189.125 208.44 196.71C207.539 198.729 207.843 200.597 208.44 202.844C209.277 205.46 210.226 206.211 212.194 207.138" stroke="black"/>
<path d="M201.557 166.651L205.937 176.466C203.989 185.985 203.352 191.382 202.182 201.004C201.514 202.032 201.215 202.68 200.931 204.071C200.31 206.227 200.291 207.436 200.931 209.592C201.539 211.023 202.076 211.448 203.434 211.432C206.855 211.991 212.194 211.432 212.194 211.432V206.787C210.154 206.123 209.34 205.307 208.44 203.107C207.712 200.928 207.637 199.722 207.814 197.586C210.746 190.426 212 186.584 214.697 179.182V177.342L206.563 166.651L205.937 166.169H201.557V166.651Z" fill="white" stroke="black"/>
<path d="M225.96 166.037H135.229C134.107 164.121 133.58 163.046 135.229 161.13C132.292 158.378 132.444 157.053 135.229 154.995C134.175 151.701 133.436 149.661 131.475 145.18C129.113 140.991 127.986 138.579 126.469 134.138C125.016 129.692 124.814 127.132 125.218 122.483C126.19 118.058 127.215 115.632 130.224 111.441C134.77 109.207 137.531 108.243 143.364 107.76H214.697C219.029 109.376 221.87 110.478 225.96 113.281C229.683 116.205 231.16 118.164 232.218 122.483C232.879 127.291 232.606 129.504 232.218 133.525C231.124 142.288 229.949 147.043 225.96 154.995C229.9 157.391 229.747 158.734 225.96 161.13C227.954 162.842 228.079 163.904 225.96 166.037Z" fill="white"/>
<path d="M225.96 161.13C227.954 162.842 228.079 163.904 225.96 166.037H135.229C134.107 164.121 133.58 163.046 135.229 161.13M225.96 161.13H135.229M225.96 161.13C229.747 158.734 229.9 157.391 225.96 154.995M135.229 161.13C132.292 158.378 132.444 157.053 135.229 154.995M135.229 154.995H225.96M135.229 154.995C134.175 151.701 133.436 149.661 131.475 145.18C129.113 140.991 127.986 138.579 126.469 134.138C125.016 129.692 124.814 127.132 125.218 122.483C126.19 118.058 127.215 115.632 130.224 111.441C134.77 109.207 137.531 108.243 143.364 107.76H214.697C219.029 109.376 221.87 110.478 225.96 113.281C229.683 116.205 231.16 118.164 232.218 122.483C232.879 127.291 232.606 129.504 232.218 133.525C231.124 142.288 229.949 147.043 225.96 154.995" stroke="black"/>
<path d="M123.341 217.567C126.762 217.987 128.68 217.857 132.101 217.567L139.61 215.376L140.861 213.535V208.014L135.229 195.483C132.641 190.156 130.527 187.002 126.469 184.348C112.494 186.046 104.349 186.465 88.9253 185.668L87.6739 186.281C93.3683 189.623 94.4344 193.2 94.5569 201.004C95.8043 209.257 97.198 212.583 100.188 217.567L107.072 215.376L111.452 213.535L117.709 214.149L123.341 217.567Z" fill="white"/>
<path d="M122.089 181.987C123.781 182.759 125.218 183.53 126.469 184.348M126.469 184.348C130.527 187.002 132.641 190.156 135.229 195.483L140.861 208.014V213.535L139.609 215.376L132.101 217.567C128.68 217.857 126.762 217.987 123.341 217.567L117.709 214.149L111.452 213.535L107.072 215.376L100.188 217.567C97.198 212.583 95.8043 209.257 94.5569 201.004C94.4344 193.2 93.3683 189.623 87.6739 186.281M126.469 184.348C112.494 186.046 104.349 186.465 88.9253 185.668L87.6739 186.281M87.6739 186.281C86.6269 192.984 86.9104 196.421 83.2938 204.071C80.2179 207.904 81.3102 210.053 83.2938 213.886C87.671 212.341 88.0416 210.061 87.6739 205.298C87.8729 200.568 88.1662 198.782 88.9253 196.71" stroke="black"/>
<path d="M85.171 188.121C80.6863 192.634 79.2726 195.532 77.6622 201.004C76.5726 202.352 75.7549 203.277 74.9143 204.071C74.2299 204.718 73.5303 205.278 72.6563 205.911C67.5544 208.697 66.5689 211.248 69.457 214.5C69.7334 214.811 70.0452 215.128 70.3923 215.453C70.7019 215.743 71.0394 216.038 71.4049 216.34C79.6264 221.528 83.8334 221.376 91.3557 221.247L92.3788 221.836C95.2754 220.035 97.5241 218.723 100.188 217.758C97.2497 211.942 95.4954 208.77 94.5569 201.266C94.7589 198.739 94.8158 197.218 93.9311 192.678C91.9998 189.521 90.5778 188.085 87.6296 185.93L85.171 188.121Z" fill="white"/>
<path d="M69.457 214.5C65.6517 218.365 64.5644 220.989 65.1475 226.768C70.6565 234.069 74.6031 235.052 82.0422 235.357C90.5209 236.68 94.685 235.809 102.066 234.13C106.699 233.488 108.859 233.516 112.077 234.13C117.955 236.225 120.277 235.748 123.966 234.13C127.114 229.932 126.392 227.275 124.592 222.474C123.648 217.644 122.435 215.718 118.335 214.5C113.448 213.046 110.707 213.623 105.82 216.34C103.621 216.704 101.826 217.165 100.188 217.758C97.5241 218.723 95.2754 220.035 92.3788 221.836L94.5569 223.088C102.385 223.138 106.629 222.731 113.329 219.407C118.11 215.922 119.972 217.404 122.715 222.474C122.992 225.682 122.896 227.436 122.089 230.449C119.349 231.601 117.363 231.643 113.329 231.063C107.416 229.104 104.027 228.84 97.6856 231.676C92.121 232.181 88.8815 232.262 82.668 231.676C78.1326 229.765 74.1517 230.897 70.3923 224.928C69.1584 221.576 67.9047 219.4 70.3923 215.453C70.0452 215.128 69.7334 214.811 69.457 214.5Z" fill="white"/>
<path d="M91.3557 221.247C83.8334 221.376 79.6264 221.528 71.4049 216.34C77.0125 223.535 81.7444 224.418 91.3557 222.474C91.7063 222.255 92.0468 222.042 92.3788 221.836L91.3557 221.247Z" fill="white"/>
<path d="M118.335 172.785C108.275 171.332 102.616 170.721 92.054 174.626C90.9228 176.654 90.7248 178.093 91.3557 180.147C91.5276 180.706 91.7611 181.312 92.054 181.987H97.6856C97.036 180.31 97.0117 179.37 97.6856 177.693C105.751 176.029 109.992 175.778 117.083 176.466C118.324 178.482 118.384 179.73 118.335 181.987H121.463C121.632 178.026 121.278 175.924 118.335 172.785Z" fill="white"/>
<path d="M92.054 181.987C91.7611 181.312 91.5276 180.706 91.3557 180.147C82.3668 184.661 79.1599 189.027 76.4107 199.777L74.9143 204.071C75.7549 203.277 76.5726 202.352 77.6622 201.004C79.2726 195.532 80.6863 192.634 85.171 188.121L87.6296 185.93L92.054 181.987Z" fill="white"/>
<path d="M121.463 181.987H118.335H97.6856H92.054L87.6296 185.93C102.728 186.774 111.139 186.49 126 184L121.463 181.987Z" fill="white"/>
<path d="M121.463 181.987C121.632 178.026 121.278 175.924 118.335 172.785C108.275 171.332 102.616 170.721 92.054 174.626C90.9228 176.654 90.7248 178.093 91.3557 180.147M121.463 181.987H92.054M121.463 181.987H118.335M121.463 181.987L126 184C111.139 186.49 102.728 186.774 87.6296 185.93M92.054 181.987C91.7611 181.312 91.5276 180.706 91.3557 180.147M92.054 181.987L87.6296 185.93M92.054 181.987H97.6856M97.6856 181.987C97.036 180.31 97.0117 179.37 97.6856 177.693C105.751 176.029 109.992 175.778 117.083 176.466C118.324 178.482 118.384 179.73 118.335 181.987M97.6856 181.987H118.335M91.3557 180.147C82.3668 184.661 79.1599 189.027 76.4107 199.777L74.9143 204.071M71.4049 216.34C79.6264 221.528 83.8334 221.376 91.3557 221.247L92.3788 221.836M71.4049 216.34C77.0125 223.535 81.7444 224.418 91.3557 222.474C91.7063 222.255 92.0468 222.042 92.3788 221.836M71.4049 216.34C71.0394 216.038 70.7019 215.743 70.3923 215.453M74.9143 204.071C75.7549 203.277 76.5726 202.352 77.6622 201.004C79.2726 195.532 80.6863 192.634 85.171 188.121L87.6296 185.93M74.9143 204.071C74.2299 204.718 73.5303 205.278 72.6563 205.911C67.5544 208.697 66.5689 211.248 69.457 214.5M69.457 214.5C65.6517 218.365 64.5644 220.989 65.1475 226.768C70.6565 234.069 74.6031 235.052 82.0422 235.357C90.5209 236.68 94.685 235.809 102.066 234.13C106.699 233.488 108.859 233.516 112.077 234.13C117.955 236.225 120.277 235.748 123.966 234.13C127.114 229.932 126.392 227.275 124.592 222.474C123.648 217.644 122.435 215.718 118.335 214.5C113.448 213.046 110.707 213.623 105.82 216.34C103.621 216.704 101.826 217.165 100.188 217.758M69.457 214.5C69.7334 214.811 70.0452 215.128 70.3923 215.453M70.3923 215.453C67.9047 219.4 69.1584 221.576 70.3923 224.928C74.1517 230.897 78.1326 229.765 82.668 231.676C88.8815 232.262 92.121 232.181 97.6856 231.676C104.027 228.84 107.416 229.104 113.329 231.063C117.363 231.643 119.349 231.601 122.089 230.449C122.896 227.436 122.992 225.682 122.715 222.474C119.972 217.404 118.11 215.922 113.329 219.407C106.629 222.731 102.385 223.138 94.5569 223.088L92.3788 221.836M87.6296 185.93C90.5778 188.085 91.9998 189.521 93.9311 192.678C94.8158 197.218 94.7589 198.739 94.5569 201.266C95.4954 208.77 97.2497 211.942 100.188 217.758M87.6296 185.93L86.4224 198.813L85.7966 203.107C85.3729 206.217 86.043 206.782 88.2996 205.56L90.8025 201.266M100.188 217.758C97.5241 218.723 95.2754 220.035 92.3788 221.836" stroke="black"/>
<path d="M224.313 140.349C224.643 137.643 225.228 135.618 226.047 133.083C226.169 132.707 226.082 132.265 226.097 131.876C226.121 131.222 226.543 130.707 226.543 130.04C226.543 129.131 226.721 128.466 226.989 127.602C227.248 126.764 228.054 123.92 227.311 123.18C227.044 122.915 225.668 122.938 225.477 123.279C224.892 124.327 224.646 125.734 224.264 126.875C223.655 128.692 222.743 130.278 222.133 132.097C221.547 133.846 221.419 135.628 220.634 137.344C220.276 138.127 219.627 138.834 219.359 139.635C219.019 140.647 218.314 141.356 217.959 142.344C217.457 143.743 217.001 146.312 215.618 147" stroke="black" stroke-linecap="round"/>
<path d="M213.618 115C216.236 115 213.678 115 216.314 115C218.028 115 219.842 116 221.618 116" stroke="black" stroke-linecap="round"/>
<path d="M220.618 118C221.155 119.318 221.745 119.955 221.792 121.311C221.82 122.138 222.444 123 222.496 123.8C222.543 124.528 222.773 125.934 222.444 126.6C222.163 127.169 221.618 127.496 221.322 128" stroke="black" stroke-linecap="round"/>
<path d="M211.118 142C211.054 139.605 210.618 137.284 210.618 134.864C210.618 132.77 211.47 130.107 212.979 128.452C214.52 126.761 215.618 130.301 215.618 131.119C215.618 133.284 215.368 135.375 215.368 137.52" stroke="black" stroke-linecap="round"/>
<path d="M192.618 124C193.797 124.667 195.116 125.117 196.219 125.774C197.029 126.257 197.496 127.216 198.357 127.571C198.953 127.817 199.668 129.575 199.807 130.157C200.069 131.247 200.313 132.291 200.483 133.391C200.78 135.32 200.495 137.496 200.495 139.443C200.495 142.296 200.495 145.148 200.495 148" stroke="black" stroke-linecap="round"/>
<path d="M185.618 137C186.072 139.691 186.143 142.386 186.868 145.033C187.168 146.127 187.233 149.368 188.618 150" stroke="black" stroke-linecap="round"/>
<path d="M178.945 131C178.9 133.048 178.305 135.594 178.84 137.642C179.131 138.755 179.546 140.431 180.618 141" stroke="black" stroke-linecap="round"/>
<path d="M171.116 129C171.624 130.29 171.866 131.599 171.866 132.955C171.866 134.505 172.365 135.949 172.365 137.498C172.365 139.609 172.365 141.719 172.365 143.829C172.365 144.916 172.615 145.959 172.615 147.058C172.615 148.065 172.71 148.281 171.81 148.88C170.392 149.823 169.618 144.923 169.618 144.567" stroke="black" stroke-linecap="round"/>
<path d="M163.618 123C165.947 125.01 166.236 123.728 164.515 126" stroke="black" stroke-linecap="round"/>
<path d="M157.618 126C157.618 127.631 158.037 129.201 158.037 130.82C158.037 131.511 158.08 132.087 158.285 132.744C158.365 133 158.193 133.448 158.385 133.66C158.53 133.818 158.447 134.135 158.455 134.334C158.47 134.68 158.674 135.042 158.742 135.385C158.959 136.477 159.343 137.596 159.44 138.707C159.484 139.217 159.79 139.737 159.92 140.24C160.016 140.609 159.945 140.981 160.099 141.333C160.537 142.337 160.527 143.533 160.858 144.556C161.144 145.439 161.387 146.347 161.944 147.112C162.252 147.536 162.655 147.994 162.92 148.418C163.045 148.618 163.442 148.758 163.618 149" stroke="black" stroke-linecap="round"/>
<path d="M152.811 145C152.625 143.67 152.584 142.404 152.556 141.067C152.538 140.215 152.086 139.39 151.947 138.552C151.867 138.072 151.756 137.66 151.635 137.193C151.511 136.714 151.589 136.232 151.472 135.754C151.312 135.101 151.465 134.408 151.344 133.745C151.21 133.006 151.118 132.312 150.898 131.598C150.651 130.797 150.844 129.941 150.671 129.125C150.571 128.654 150.643 128.109 150.643 127.629C150.643 127.016 150.63 126.495 150.834 125.916C150.939 125.618 151.114 124.164 151.479 124.058C152.516 123.756 153.759 124.683 153.931 125.8C154.251 127.878 154.465 130.034 155.044 132.067C155.35 133.143 155.16 134.269 155.427 135.357C155.592 136.031 155.618 136.631 155.618 137.323" stroke="black" stroke-linecap="round"/>
<path d="M148.618 115C147.527 114.855 146.483 114.676 145.396 114.594C144.48 114.526 143.512 114 142.618 114" stroke="black" stroke-linecap="round"/>
<path d="M142.618 117C142.618 118.343 142.618 119.686 142.618 121.03C142.618 121.978 142.702 124.512 143.618 125" stroke="black" stroke-linecap="round"/>
<path d="M141.618 128C142.033 129.128 142.423 130.228 142.673 131.382C142.846 132.183 142.949 132.997 143.305 133.75C143.642 134.461 143.653 135.471 143.798 136.243C143.944 137.022 144.561 137.683 144.712 138.451C144.995 139.902 145.703 141.858 146.821 142.993C148.313 144.508 149.004 146.565 150.618 148" stroke="black" stroke-linecap="round"/>
<path d="M135.618 117C135.618 117.998 135.618 118.99 135.618 120" stroke="black" stroke-linecap="round"/>
<path d="M138.618 133.578C138.229 132.277 137.548 131.177 137.516 129.818C137.492 128.761 137.1 127.981 136.69 127.016C136.424 126.389 136.373 125.802 136.14 125.171C135.988 124.761 136.02 124.193 135.788 123.827C135.669 123.64 135.463 123.511 135.344 123.313C134.899 122.568 134.663 121.109 133.799 120.623C133.468 120.437 133.397 120.018 132.973 120.018C132.542 120.018 132.13 119.894 131.948 120.299C131.182 121.999 131.949 124.106 132.254 125.819C132.548 127.47 132.944 128.976 133.738 130.48C133.85 130.694 133.776 130.935 133.807 131.163C133.843 131.429 134.051 131.62 134.074 131.902C134.106 132.285 134.464 132.555 134.594 132.916C135.156 134.467 136.147 135.866 137.379 137" stroke="black" stroke-linecap="round"/>
<path d="M216.518 121.172H144.797C143.431 121.355 144.234 120.585 145.426 119.345L154.234 109.596C154.379 109.355 154.529 109.167 154.788 108.987L154.234 76.087C154.208 73.169 155.559 72.8849 158.638 73.0407H200.79C206.028 72.7856 207.489 73.6729 207.081 77.3056V108.987L216.518 119.954C217.581 121.23 217.247 121.246 216.518 121.172Z" fill="white"/>
<path d="M207.081 108.987L216.518 119.954C217.581 121.23 217.247 121.246 216.518 121.172H144.797C143.431 121.355 144.234 120.585 145.426 119.345L154.234 109.596C154.379 109.355 154.529 109.167 154.788 108.987M207.081 108.987C206.5 108.677 205.921 108.531 203.936 108.378H156.121C155.467 108.609 155.065 108.794 154.788 108.987M207.081 108.987V77.3056C207.489 73.6729 206.028 72.7856 200.79 73.0407H158.638C155.559 72.8849 154.208 73.169 154.234 76.087L154.788 108.987M144.168 121.781C142.91 121.172 144.016 122.712 145.426 123H215.889C216.847 122.496 218.406 120.563 217.147 121.781M169.962 117.517H191.353V116.298C182.999 116.298 178.316 116.298 169.962 116.298M197.998 116.907C198.981 116.907 199.532 116.907 200.514 116.907H201.144M165.558 116.298L164.929 117.517H168.075L168.704 116.298C167.476 116.298 166.787 116.298 165.558 116.298ZM161.154 116.298L160.525 117.517H162.413L163.042 116.298H161.154ZM156.121 116.298L155.492 118.126H157.38L158.638 116.298H156.121ZM193.869 116.298L195.128 118.126H196.386L195.757 116.298H193.869ZM203.306 117.517H205.823L205.194 116.298H202.048L202.677 117.517H203.306ZM156.121 76.087V103.504H205.194V76.087H156.121Z" stroke="black"/>
<path d="M82.6648 63.7273H83.5455V68.9261C83.5455 69.3902 83.4602 69.7843 83.2898 70.1087C83.1193 70.433 82.879 70.6792 82.5689 70.8473C82.2588 71.0154 81.893 71.0994 81.4716 71.0994C81.0739 71.0994 80.7199 71.0272 80.4098 70.8828C80.0997 70.736 79.8558 70.5277 79.6783 70.2578C79.5007 69.9879 79.4119 69.6671 79.4119 69.2955H80.2784C80.2784 69.5014 80.3293 69.6813 80.4311 69.8352C80.5353 69.9867 80.6773 70.1051 80.8572 70.1903C81.0372 70.2756 81.242 70.3182 81.4716 70.3182C81.7249 70.3182 81.9403 70.2649 82.1179 70.1584C82.2955 70.0518 82.4304 69.8956 82.5227 69.6896C82.6174 69.4813 82.6648 69.2268 82.6648 68.9261V63.7273ZM89.2876 65.5455C89.245 65.1856 89.0722 64.9062 88.7692 64.7074C88.4661 64.5085 88.0945 64.4091 87.6541 64.4091C87.3321 64.4091 87.0504 64.4612 86.8089 64.5653C86.5698 64.6695 86.3828 64.8127 86.2479 64.995C86.1153 65.1773 86.049 65.3845 86.049 65.6165C86.049 65.8106 86.0952 65.9775 86.1875 66.1172C86.2822 66.2545 86.4029 66.3693 86.5497 66.4616C86.6965 66.5516 86.8504 66.6262 87.0114 66.6854C87.1723 66.7422 87.3203 66.7884 87.4553 66.8239L88.1939 67.0227C88.3833 67.0724 88.594 67.1411 88.826 67.2287C89.0604 67.3163 89.2841 67.4358 89.4972 67.5874C89.7126 67.7365 89.8902 67.9283 90.0298 68.1626C90.1695 68.397 90.2393 68.6847 90.2393 69.0256C90.2393 69.4186 90.1364 69.7737 89.9304 70.0909C89.7268 70.4081 89.4285 70.6603 89.0355 70.8473C88.6449 71.0343 88.1702 71.1278 87.6115 71.1278C87.0907 71.1278 86.6397 71.0438 86.2585 70.8757C85.8797 70.7076 85.5814 70.4732 85.3636 70.1726C85.1482 69.8719 85.0263 69.5227 84.9979 69.125H85.907C85.9306 69.3996 86.023 69.6269 86.1839 69.8068C86.3473 69.9844 86.5533 70.117 86.8018 70.2045C87.0528 70.2898 87.3227 70.3324 87.6115 70.3324C87.9477 70.3324 88.2495 70.2779 88.517 70.169C88.7846 70.0578 88.9964 69.9039 89.1527 69.7074C89.3089 69.5085 89.3871 69.2765 89.3871 69.0114C89.3871 68.7699 89.3196 68.5734 89.1847 68.4219C89.0497 68.2704 88.8722 68.1473 88.652 68.0526C88.4318 67.9579 88.1939 67.875 87.9382 67.804L87.0433 67.5483C86.4751 67.3849 86.0253 67.1518 85.6939 66.8487C85.3625 66.5457 85.1967 66.1491 85.1967 65.6591C85.1967 65.2519 85.3068 64.8968 85.527 64.5938C85.7495 64.2884 86.0478 64.0516 86.4219 63.8835C86.7983 63.7131 87.2185 63.6278 87.6825 63.6278C88.1513 63.6278 88.5679 63.7119 88.9325 63.88C89.2971 64.0457 89.5859 64.273 89.799 64.5618C90.0144 64.8506 90.1281 65.1785 90.1399 65.5455H89.2876Z" fill="black"/>
<path fill-rule="evenodd" clip-rule="evenodd" d="M102.931 33.8814C103.212 30.9179 102.775 29.7304 98.9388 30.0507H78.0899V37.7121C77.8846 39.1963 77.3505 39.7334 75.4283 40.0105H67V60.696H102.931V33.8814ZM94.5029 48.4379L87.849 44.9903V46.5226L91.3977 48.4379C92.7102 49.1065 92.1968 49.4145 91.3977 49.9701L87.849 51.5024V53.4177L94.5029 49.9701C95.4035 49.5149 95.5227 49.1983 94.5029 48.4379ZM81.6386 53.4177L84.7438 44.9903H86.5182L83.8566 53.4177H81.6386ZM73.6539 48.4379L80.3078 44.9903V46.5226L76.7591 48.4379C75.4466 49.1065 75.96 49.4145 76.7591 49.9701L80.3078 51.5024V53.4177L73.6539 49.9701C72.7533 49.5149 72.6341 49.1983 73.6539 48.4379Z" fill="#FFDFF0"/>
<path d="M78.0899 30.0507L67 40.0105H75.4283C77.3505 39.7334 77.8846 39.1963 78.0899 37.7121V30.0507Z" fill="white"/>
<path d="M98.9388 30.0507V30.5507H98.9597L98.9804 30.549L98.9388 30.0507ZM102.931 33.8814L102.433 33.8342L102.431 33.8578V33.8814H102.931ZM102.931 70.2727L103.42 70.3762L103.431 70.325V70.2727H102.931ZM98.9388 72.9541L98.9825 72.456L98.9607 72.4541H98.9388V72.9541ZM70.9924 72.9541L70.9759 73.4539L70.9841 73.4541H70.9924V72.9541ZM67 70.2727H66.5V70.2987L66.5027 70.3247L67 70.2727ZM67 40.0105L66.6659 39.6384L66.5 39.7875V40.0105H67ZM78.0899 30.0507V29.5507H77.8983L77.7558 29.6787L78.0899 30.0507ZM78.0899 37.7121L78.5852 37.7805L78.5899 37.7465V37.7121H78.0899ZM75.4283 40.0105V40.5105H75.4641L75.4996 40.5053L75.4283 40.0105ZM87.849 44.9903L88.079 44.5463L87.349 44.1681V44.9903H87.849ZM94.5029 48.4379L94.8018 48.037L94.7691 48.0127L94.7329 47.9939L94.5029 48.4379ZM94.5029 49.9701L94.2773 49.5239L94.2729 49.5262L94.5029 49.9701ZM87.849 53.4177H87.349V54.2399L88.079 53.8617L87.849 53.4177ZM87.849 51.5024L87.6508 51.0434L87.349 51.1737V51.5024H87.849ZM91.3977 49.9701L91.5959 50.4292L91.642 50.4093L91.6831 50.3807L91.3977 49.9701ZM91.3977 48.4379L91.1602 48.878L91.1707 48.8834L91.3977 48.4379ZM87.849 46.5226H87.349V46.8209L87.6115 46.9626L87.849 46.5226ZM84.7438 44.9903V44.4903H84.3952L84.2746 44.8174L84.7438 44.9903ZM81.6386 53.4177L81.1695 53.2449L80.9215 53.9177H81.6386V53.4177ZM83.8566 53.4177V53.9177H84.223L84.3334 53.5683L83.8566 53.4177ZM86.5182 44.9903L86.995 45.1409L87.2004 44.4903H86.5182V44.9903ZM80.3078 44.9903H80.8078V44.1681L80.0778 44.5463L80.3078 44.9903ZM73.6539 48.4379L73.4239 47.9939L73.3877 48.0127L73.355 48.037L73.6539 48.4379ZM73.6539 49.9701L73.884 49.5262L73.8795 49.5239L73.6539 49.9701ZM80.3078 53.4177L80.0778 53.8617L80.8078 54.2399V53.4177H80.3078ZM80.3078 51.5024H80.8078V51.1737L80.506 51.0434L80.3078 51.5024ZM76.7591 49.9701L76.4736 50.3807L76.5148 50.4093L76.5609 50.4292L76.7591 49.9701ZM76.7591 48.4379L76.9861 48.8835L76.9966 48.8779L76.7591 48.4379ZM80.3078 46.5226L80.5453 46.9626L80.8078 46.8209V46.5226H80.3078ZM98.9804 30.549C99.9197 30.4706 100.614 30.4883 101.124 30.5881C101.629 30.6866 101.921 30.8583 102.104 31.0655C102.29 31.2758 102.414 31.5811 102.469 32.0459C102.524 32.5146 102.503 33.1015 102.433 33.8342L103.429 33.9285C103.5 33.1796 103.53 32.5067 103.462 31.9293C103.394 31.3479 103.222 30.8207 102.854 30.4037C102.483 29.9836 101.964 29.7333 101.316 29.6067C100.675 29.4813 99.8759 29.4707 98.8972 29.5525L98.9804 30.549ZM102.442 70.1691C102.204 71.2929 101.904 71.8517 101.468 72.1488C101.018 72.4555 100.299 72.5713 98.9825 72.456L98.8952 73.4522C100.237 73.5698 101.271 73.4932 102.031 72.9751C102.805 72.4475 103.172 71.5492 103.42 70.3762L102.442 70.1691ZM98.9388 72.4541H70.9924V73.4541H98.9388V72.4541ZM71.0088 72.4544C70.4035 72.4345 69.8936 72.4159 69.4537 72.3621C69.0143 72.3084 68.6819 72.2233 68.4249 72.0905C67.9698 71.8553 67.6209 71.4018 67.4973 70.2206L66.5027 70.3247C66.6444 71.6791 67.0913 72.5269 67.9658 72.9789C68.3737 73.1896 68.8395 73.2945 69.3323 73.3548C69.8246 73.4149 70.3808 73.4343 70.9759 73.4539L71.0088 72.4544ZM67.3341 40.3825L78.424 30.4227L77.7558 29.6787L66.6659 39.6384L67.3341 40.3825ZM78.0899 30.5507H98.9388V29.5507H78.0899V30.5507ZM67.5 70.2727V60.696H66.5V70.2727H67.5ZM67.5 60.696V40.0105H66.5V60.696H67.5ZM102.431 33.8814V60.696H103.431V33.8814H102.431ZM102.431 60.696V70.2727H103.431V60.696H102.431ZM67 61.196H102.931V60.196H67V61.196ZM77.5899 30.0507V37.7121H78.5899V30.0507H77.5899ZM77.5946 37.6436C77.4974 38.3465 77.3359 38.705 77.0711 38.9399C76.788 39.1911 76.3014 39.3794 75.357 39.5156L75.4996 40.5053C76.4774 40.3644 77.2189 40.1457 77.7348 39.6879C78.2689 39.2141 78.4771 38.5618 78.5852 37.7805L77.5946 37.6436ZM75.4283 39.5105H67V40.5105H75.4283V39.5105ZM87.6189 45.4342L94.2729 48.8818L94.7329 47.9939L88.079 44.5463L87.6189 45.4342ZM94.204 48.8387C94.4481 49.0207 94.5938 49.1546 94.6735 49.2516C94.7561 49.352 94.7197 49.3537 94.7241 49.2863C94.7289 49.212 94.7721 49.2043 94.6989 49.2677C94.6251 49.3316 94.4939 49.4144 94.2773 49.5239L94.7284 50.4164C94.9622 50.2982 95.1836 50.1708 95.3536 50.0235C95.5242 49.8758 95.7023 49.656 95.722 49.3506C95.7413 49.0521 95.5998 48.8036 95.446 48.6166C95.2894 48.4261 95.0676 48.2353 94.8018 48.037L94.204 48.8387ZM94.2729 49.5262L87.6189 52.9738L88.079 53.8617L94.7329 50.4141L94.2729 49.5262ZM88.349 53.4177V51.5024H87.349V53.4177H88.349ZM88.0472 51.9614L91.5959 50.4292L91.1995 49.5111L87.6508 51.0434L88.0472 51.9614ZM91.6831 50.3807C91.8716 50.2496 92.0786 50.1094 92.2408 49.9734C92.3907 49.8476 92.5953 49.6525 92.6712 49.3808C92.7651 49.0441 92.6286 48.7516 92.4278 48.5384C92.2432 48.3424 91.9663 48.1664 91.6247 47.9924L91.1707 48.8834C91.4854 49.0437 91.6365 49.1569 91.6999 49.2241C91.7279 49.2538 91.7197 49.255 91.7104 49.2268C91.6986 49.1911 91.6979 49.1482 91.708 49.112C91.7196 49.0703 91.7281 49.0982 91.598 49.2073C91.4802 49.3062 91.3234 49.4129 91.1123 49.5596L91.6831 50.3807ZM91.6352 47.9979L88.0864 46.0825L87.6115 46.9626L91.1602 48.8779L91.6352 47.9979ZM88.349 46.5226V44.9903H87.349V46.5226H88.349ZM84.2746 44.8174L81.1695 53.2449L82.1078 53.5906L85.213 45.1632L84.2746 44.8174ZM81.6386 53.9177H83.8566V52.9177H81.6386V53.9177ZM84.3334 53.5683L86.995 45.1409L86.0414 44.8397L83.3798 53.2672L84.3334 53.5683ZM86.5182 44.4903H84.7438V45.4903H86.5182V44.4903ZM80.0778 44.5463L73.4239 47.9939L73.8839 48.8818L80.5379 45.4342L80.0778 44.5463ZM73.355 48.037C73.0892 48.2353 72.8674 48.4261 72.7108 48.6166C72.557 48.8036 72.4155 49.0521 72.4348 49.3506C72.4545 49.656 72.6326 49.8758 72.8032 50.0235C72.9732 50.1708 73.1946 50.2982 73.4283 50.4164L73.8795 49.5239C73.6629 49.4144 73.5317 49.3316 73.4579 49.2677C73.3847 49.2043 73.4279 49.212 73.4327 49.2863C73.4371 49.3537 73.4007 49.352 73.4833 49.2516C73.563 49.1546 73.7087 49.0207 73.9528 48.8387L73.355 48.037ZM73.4239 50.4141L80.0778 53.8617L80.5379 52.9738L73.8839 49.5262L73.4239 50.4141ZM80.8078 53.4177V51.5024H79.8078V53.4177H80.8078ZM80.506 51.0434L76.9573 49.5111L76.5609 50.4292L80.1096 51.9614L80.506 51.0434ZM77.0445 49.5596C76.8334 49.4129 76.6766 49.3062 76.5588 49.2073C76.4287 49.0982 76.4372 49.0703 76.4488 49.112C76.4589 49.1482 76.4582 49.1911 76.4464 49.2268C76.4371 49.255 76.4289 49.2538 76.4569 49.2241C76.5203 49.1569 76.6714 49.0437 76.986 48.8834L76.5321 47.9924C76.1905 48.1664 75.9136 48.3424 75.729 48.5384C75.5282 48.7516 75.3917 49.0441 75.4856 49.3808C75.5614 49.6525 75.7661 49.8476 75.916 49.9734C76.0782 50.1094 76.2852 50.2496 76.4736 50.3807L77.0445 49.5596ZM76.9966 48.8779L80.5453 46.9626L80.0704 46.0825L76.5216 47.9979L76.9966 48.8779ZM80.8078 46.5226V44.9903H79.8078V46.5226H80.8078Z" fill="black"/>
<path d="M275.426 50.1304H241.968C240.556 50.2545 240.113 50.6718 240 52.087V66.1739C240.498 67.0587 240.896 67.3659 241.968 67.3478H242.362H275.426C276.401 67.1679 276.727 66.8961 277 66.1739V52.087C276.883 51.2264 276.698 50.767 275.426 50.1304Z" fill="#FFDFF0"/>
<path d="M241.968 50.1304C241.968 41.8785 241.968 37.2519 241.968 29H269.521M241.968 50.1304H275.426M241.968 50.1304C240.556 50.2545 240.113 50.6718 240 52.087V66.1739C240.498 67.0587 240.896 67.3659 241.968 67.3478H242.362M275.426 50.1304V33.6957M275.426 50.1304C276.698 50.767 276.883 51.2264 277 52.087V66.1739C276.727 66.8961 276.401 67.1679 275.426 67.3478M275.426 33.6957L269.521 29M275.426 33.6957H269.521V29M275.426 67.3478H242.362M275.426 67.3478V74H242.362V67.3478" stroke="black"/>
<path d="M254.08 58H253.023C252.96 57.696 252.851 57.429 252.695 57.1989C252.541 56.9688 252.354 56.7756 252.132 56.6193C251.913 56.4602 251.67 56.3409 251.403 56.2614C251.136 56.1818 250.858 56.142 250.568 56.142C250.04 56.142 249.561 56.2756 249.132 56.5426C248.706 56.8097 248.366 57.2031 248.114 57.723C247.864 58.2429 247.739 58.8807 247.739 59.6364C247.739 60.392 247.864 61.0298 248.114 61.5497C248.366 62.0696 248.706 62.4631 249.132 62.7301C249.561 62.9972 250.04 63.1307 250.568 63.1307C250.858 63.1307 251.136 63.0909 251.403 63.0114C251.67 62.9318 251.913 62.8139 252.132 62.6577C252.354 62.4986 252.541 62.304 252.695 62.0739C252.851 61.8409 252.96 61.5739 253.023 61.2727H254.08C254 61.7187 253.855 62.1179 253.645 62.4702C253.435 62.8224 253.173 63.1222 252.861 63.3693C252.548 63.6136 252.197 63.7997 251.808 63.9276C251.422 64.0554 251.009 64.1193 250.568 64.1193C249.824 64.1193 249.162 63.9375 248.582 63.5739C248.003 63.2102 247.547 62.6932 247.214 62.0227C246.882 61.3523 246.716 60.5568 246.716 59.6364C246.716 58.7159 246.882 57.9205 247.214 57.25C247.547 56.5795 248.003 56.0625 248.582 55.6989C249.162 55.3352 249.824 55.1534 250.568 55.1534C251.009 55.1534 251.422 55.2173 251.808 55.3452C252.197 55.473 252.548 55.6605 252.861 55.9077C253.173 56.152 253.435 56.4503 253.645 56.8026C253.855 57.152 254 57.5511 254.08 58ZM260.56 57.4545C260.509 57.0227 260.301 56.6875 259.938 56.4489C259.574 56.2102 259.128 56.0909 258.6 56.0909C258.213 56.0909 257.875 56.1534 257.586 56.2784C257.299 56.4034 257.074 56.5753 256.912 56.794C256.753 57.0128 256.674 57.2614 256.674 57.5398C256.674 57.7727 256.729 57.973 256.84 58.1406C256.953 58.3054 257.098 58.4432 257.275 58.554C257.451 58.6619 257.635 58.7514 257.828 58.8224C258.022 58.8906 258.199 58.946 258.361 58.9886L259.248 59.2273C259.475 59.2869 259.728 59.3693 260.006 59.4744C260.287 59.5795 260.556 59.723 260.811 59.9048C261.07 60.0838 261.283 60.3139 261.451 60.5952C261.618 60.8764 261.702 61.2216 261.702 61.6307C261.702 62.1023 261.578 62.5284 261.331 62.9091C261.087 63.2898 260.729 63.5923 260.257 63.8168C259.789 64.0412 259.219 64.1534 258.549 64.1534C257.924 64.1534 257.382 64.0526 256.925 63.8509C256.471 63.6491 256.113 63.3679 255.851 63.0071C255.593 62.6463 255.446 62.2273 255.412 61.75H256.503C256.532 62.0795 256.642 62.3523 256.836 62.5682C257.032 62.7812 257.279 62.9403 257.577 63.0455C257.878 63.1477 258.202 63.1989 258.549 63.1989C258.952 63.1989 259.314 63.1335 259.635 63.0028C259.956 62.8693 260.211 62.6847 260.398 62.4489C260.586 62.2102 260.679 61.9318 260.679 61.6136C260.679 61.3239 260.598 61.0881 260.436 60.9062C260.275 60.7244 260.061 60.5767 259.797 60.4631C259.533 60.3494 259.248 60.25 258.941 60.1648L257.867 59.858C257.185 59.6619 256.645 59.3821 256.248 59.0185C255.85 58.6548 255.651 58.179 255.651 57.5909C255.651 57.1023 255.783 56.6761 256.047 56.3125C256.314 55.946 256.672 55.6619 257.121 55.4602C257.573 55.2557 258.077 55.1534 258.634 55.1534C259.196 55.1534 259.696 55.2543 260.134 55.456C260.571 55.6548 260.918 55.9276 261.174 56.2741C261.432 56.6207 261.569 57.0142 261.583 57.4545H260.56ZM268.212 57.4545C268.161 57.0227 267.954 56.6875 267.59 56.4489C267.227 56.2102 266.781 56.0909 266.252 56.0909C265.866 56.0909 265.528 56.1534 265.238 56.2784C264.951 56.4034 264.727 56.5753 264.565 56.794C264.406 57.0128 264.326 57.2614 264.326 57.5398C264.326 57.7727 264.381 57.973 264.492 58.1406C264.606 58.3054 264.751 58.4432 264.927 58.554C265.103 58.6619 265.288 58.7514 265.481 58.8224C265.674 58.8906 265.852 58.946 266.013 58.9886L266.9 59.2273C267.127 59.2869 267.38 59.3693 267.658 59.4744C267.94 59.5795 268.208 59.723 268.464 59.9048C268.722 60.0838 268.935 60.3139 269.103 60.5952C269.271 60.8764 269.354 61.2216 269.354 61.6307C269.354 62.1023 269.231 62.5284 268.984 62.9091C268.739 63.2898 268.381 63.5923 267.91 63.8168C267.441 64.0412 266.871 64.1534 266.201 64.1534C265.576 64.1534 265.035 64.0526 264.577 63.8509C264.123 63.6491 263.765 63.3679 263.504 63.0071C263.245 62.6463 263.099 62.2273 263.065 61.75H264.156C264.184 62.0795 264.295 62.3523 264.488 62.5682C264.684 62.7812 264.931 62.9403 265.229 63.0455C265.531 63.1477 265.854 63.1989 266.201 63.1989C266.604 63.1989 266.967 63.1335 267.288 63.0028C267.609 62.8693 267.863 62.6847 268.05 62.4489C268.238 62.2102 268.332 61.9318 268.332 61.6136C268.332 61.3239 268.251 61.0881 268.089 60.9062C267.927 60.7244 267.714 60.5767 267.45 60.4631C267.185 60.3494 266.9 60.25 266.593 60.1648L265.519 59.858C264.837 59.6619 264.298 59.3821 263.9 59.0185C263.502 58.6548 263.303 58.179 263.303 57.5909C263.303 57.1023 263.435 56.6761 263.7 56.3125C263.967 55.946 264.325 55.6619 264.773 55.4602C265.225 55.2557 265.729 55.1534 266.286 55.1534C266.849 55.1534 267.349 55.2543 267.786 55.456C268.224 55.6548 268.57 55.9276 268.826 56.2741C269.085 56.6207 269.221 57.0142 269.235 57.4545H268.212Z" fill="black"/>
<path d="M312.426 111.13H278.968C277.556 111.254 277.113 111.672 277 113.087V127.174C277.498 128.059 277.896 128.366 278.968 128.348H279.362H312.426C313.401 128.168 313.727 127.896 314 127.174V113.087C313.883 112.226 313.698 111.767 312.426 111.13Z" fill="#FFDFF0"/>
<path d="M278.968 111.13C278.968 102.878 278.968 98.2519 278.968 90H306.521M278.968 111.13H312.426M278.968 111.13C277.556 111.254 277.113 111.672 277 113.087V127.174C277.498 128.059 277.896 128.366 278.968 128.348H279.362M312.426 111.13V94.6957M312.426 111.13C313.698 111.767 313.883 112.226 314 113.087V127.174C313.727 127.896 313.401 128.168 312.426 128.348M312.426 94.6957L306.521 90M312.426 94.6957H306.521V90M312.426 128.348H279.362M312.426 128.348V135H279.362V128.348" stroke="black"/>
<path d="M279.057 124V115.273H280.114V119.159H284.767V115.273H285.824V124H284.767V120.097H280.114V124H279.057ZM287.462 116.21V115.273H294.008V116.21H291.263V124H290.207V116.21H287.462ZM295.639 115.273H296.9L299.866 122.517H299.968L302.934 115.273H304.196V124H303.207V117.369H303.122L300.395 124H299.44L296.713 117.369H296.627V124H295.639V115.273ZM306.315 124V115.273H307.371V123.062H311.428V124H306.315Z" fill="black"/>
<path d="M133.881 41V33.7273H136.338C136.909 33.7273 137.375 33.8303 137.737 34.0362C138.102 34.2398 138.372 34.5156 138.547 34.8636C138.722 35.2116 138.81 35.5999 138.81 36.0284C138.81 36.4569 138.722 36.8464 138.547 37.1967C138.374 37.5471 138.107 37.8265 137.744 38.0348C137.382 38.2408 136.918 38.3438 136.352 38.3438H134.591V37.5625H136.324C136.714 37.5625 137.028 37.495 137.265 37.3601C137.502 37.2251 137.673 37.0429 137.78 36.8132C137.889 36.5812 137.943 36.3196 137.943 36.0284C137.943 35.7372 137.889 35.4768 137.78 35.2472C137.673 35.0175 137.5 34.8376 137.261 34.7074C137.022 34.5748 136.705 34.5085 136.31 34.5085H134.761V41H133.881ZM140.654 43.0455C140.512 43.0455 140.386 43.0336 140.275 43.0099C140.163 42.9886 140.086 42.9673 140.044 42.946L140.257 42.2074C140.46 42.2595 140.64 42.2784 140.797 42.2642C140.953 42.25 141.091 42.1802 141.212 42.0547C141.335 41.9316 141.448 41.7315 141.549 41.4545L141.706 41.0284L139.689 35.5455H140.598L142.103 39.892H142.16L143.666 35.5455H144.575L142.26 41.7955C142.155 42.0772 142.026 42.3104 141.873 42.495C141.719 42.6821 141.54 42.8205 141.336 42.9105C141.135 43.0005 140.908 43.0455 140.654 43.0455ZM148.053 35.5455V36.2557H145.227V35.5455H148.053ZM146.05 34.2386H146.888V39.4375C146.888 39.6742 146.923 39.8518 146.991 39.9702C147.063 40.0862 147.152 40.1643 147.261 40.2045C147.373 40.2424 147.49 40.2614 147.613 40.2614C147.705 40.2614 147.781 40.2566 147.84 40.2472C147.899 40.2353 147.947 40.2259 147.982 40.2188L148.153 40.9716C148.096 40.9929 148.017 41.0142 147.915 41.0355C147.813 41.0592 147.684 41.071 147.528 41.071C147.291 41.071 147.059 41.0201 146.832 40.9183C146.607 40.8165 146.42 40.6615 146.271 40.4531C146.124 40.2448 146.05 39.982 146.05 39.6648V34.2386ZM150.269 37.7188V41H149.431V33.7273H150.269V36.3977H150.34C150.468 36.116 150.66 35.8923 150.915 35.7266C151.174 35.5585 151.517 35.4744 151.945 35.4744C152.317 35.4744 152.643 35.549 152.922 35.6982C153.201 35.8449 153.418 36.071 153.572 36.3764C153.728 36.6795 153.806 37.0653 153.806 37.5341V41H152.968V37.5909C152.968 37.1577 152.856 36.8227 152.631 36.5859C152.408 36.3468 152.099 36.2273 151.704 36.2273C151.429 36.2273 151.183 36.2853 150.965 36.4013C150.75 36.5173 150.579 36.6866 150.454 36.9091C150.331 37.1316 150.269 37.4015 150.269 37.7188ZM157.555 41.1136C157.063 41.1136 156.631 40.9964 156.259 40.7621C155.89 40.5277 155.601 40.1998 155.393 39.7784C155.187 39.357 155.084 38.8646 155.084 38.3011C155.084 37.733 155.187 37.237 155.393 36.8132C155.601 36.3894 155.89 36.0604 156.259 35.826C156.631 35.5916 157.063 35.4744 157.555 35.4744C158.048 35.4744 158.479 35.5916 158.848 35.826C159.22 36.0604 159.508 36.3894 159.714 36.8132C159.923 37.237 160.027 37.733 160.027 38.3011C160.027 38.8646 159.923 39.357 159.714 39.7784C159.508 40.1998 159.22 40.5277 158.848 40.7621C158.479 40.9964 158.048 41.1136 157.555 41.1136ZM157.555 40.3608C157.929 40.3608 158.237 40.2649 158.479 40.0732C158.72 39.8814 158.899 39.6293 159.015 39.3168C159.131 39.0043 159.189 38.6657 159.189 38.3011C159.189 37.9366 159.131 37.5968 159.015 37.282C158.899 36.9671 158.72 36.7126 158.479 36.5185C158.237 36.3243 157.929 36.2273 157.555 36.2273C157.181 36.2273 156.873 36.3243 156.632 36.5185C156.39 36.7126 156.212 36.9671 156.096 37.282C155.98 37.5968 155.922 37.9366 155.922 38.3011C155.922 38.6657 155.98 39.0043 156.096 39.3168C156.212 39.6293 156.39 39.8814 156.632 40.0732C156.873 40.2649 157.181 40.3608 157.555 40.3608ZM162.144 37.7188V41H161.306V35.5455H162.116V36.3977H162.187C162.315 36.1207 162.509 35.8982 162.769 35.7301C163.03 35.5597 163.366 35.4744 163.778 35.4744C164.147 35.4744 164.47 35.5502 164.747 35.7017C165.024 35.8509 165.24 36.0781 165.393 36.3835C165.547 36.6866 165.624 37.0701 165.624 37.5341V41H164.786V37.5909C164.786 37.1624 164.675 36.8286 164.452 36.5895C164.23 36.348 163.924 36.2273 163.536 36.2273C163.269 36.2273 163.03 36.2853 162.819 36.4013C162.611 36.5173 162.446 36.6866 162.325 36.9091C162.205 37.1316 162.144 37.4015 162.144 37.7188Z" fill="black"/>
<path fill-rule="evenodd" clip-rule="evenodd" d="M167.931 4.88139C168.212 1.91792 167.775 0.730355 163.939 1.05073H143.09V8.71205C142.885 10.1963 142.35 10.7334 140.428 11.0105H132V31.696H167.931V4.88139ZM159.503 19.4379L152.849 15.9903V17.5226L156.398 19.4379C157.71 20.1065 157.197 20.4145 156.398 20.9701L152.849 22.5024V24.4177L159.503 20.9701C160.403 20.5149 160.523 20.1983 159.503 19.4379ZM146.639 24.4177L149.744 15.9903H151.518L148.857 24.4177H146.639ZM138.654 19.4379L145.308 15.9903V17.5226L141.759 19.4379C140.447 20.1065 140.96 20.4145 141.759 20.9701L145.308 22.5024V24.4177L138.654 20.9701C137.753 20.5149 137.634 20.1983 138.654 19.4379Z" fill="#FFDFF0"/>
<path d="M143.09 1.05073L132 11.0105H140.428C142.35 10.7334 142.885 10.1963 143.09 8.71205V1.05073Z" fill="white"/>
<path d="M163.939 1.05073V1.55073H163.96L163.98 1.549L163.939 1.05073ZM167.931 4.88139L167.433 4.83425L167.431 4.85777V4.88139H167.931ZM167.931 41.2727L168.42 41.3762L168.431 41.325V41.2727H167.931ZM163.939 43.9541L163.982 43.456L163.961 43.4541H163.939V43.9541ZM135.992 43.9541L135.976 44.4539L135.984 44.4541H135.992V43.9541ZM132 41.2727H131.5V41.2987L131.503 41.3247L132 41.2727ZM132 11.0105L131.666 10.6384L131.5 10.7875V11.0105H132ZM143.09 1.05073V0.550734H142.898L142.756 0.678734L143.09 1.05073ZM143.09 8.71205L143.585 8.78054L143.59 8.74646V8.71205H143.09ZM140.428 11.0105V11.5105H140.464L140.5 11.5053L140.428 11.0105ZM152.849 15.9903L153.079 15.5463L152.349 15.1681V15.9903H152.849ZM159.503 19.4379L159.802 19.037L159.769 19.0127L159.733 18.9939L159.503 19.4379ZM159.503 20.9701L159.277 20.5239L159.273 20.5262L159.503 20.9701ZM152.849 24.4177H152.349V25.2399L153.079 24.8617L152.849 24.4177ZM152.849 22.5024L152.651 22.0434L152.349 22.1737V22.5024H152.849ZM156.398 20.9701L156.596 21.4292L156.642 21.4093L156.683 21.3807L156.398 20.9701ZM156.398 19.4379L156.16 19.878L156.171 19.8834L156.398 19.4379ZM152.849 17.5226H152.349V17.8209L152.611 17.9626L152.849 17.5226ZM149.744 15.9903V15.4903H149.395L149.275 15.8174L149.744 15.9903ZM146.639 24.4177L146.169 24.2449L145.922 24.9177H146.639V24.4177ZM148.857 24.4177V24.9177H149.223L149.333 24.5683L148.857 24.4177ZM151.518 15.9903L151.995 16.1409L152.2 15.4903H151.518V15.9903ZM145.308 15.9903H145.808V15.1681L145.078 15.5463L145.308 15.9903ZM138.654 19.4379L138.424 18.9939L138.388 19.0127L138.355 19.037L138.654 19.4379ZM138.654 20.9701L138.884 20.5262L138.879 20.5239L138.654 20.9701ZM145.308 24.4177L145.078 24.8617L145.808 25.2399V24.4177H145.308ZM145.308 22.5024H145.808V22.1737L145.506 22.0434L145.308 22.5024ZM141.759 20.9701L141.474 21.3807L141.515 21.4093L141.561 21.4292L141.759 20.9701ZM141.759 19.4379L141.986 19.8835L141.997 19.8779L141.759 19.4379ZM145.308 17.5226L145.545 17.9626L145.808 17.8209V17.5226H145.308ZM163.98 1.549C164.92 1.47055 165.614 1.48828 166.124 1.58809C166.629 1.68663 166.921 1.85832 167.104 2.0655C167.29 2.27582 167.414 2.58109 167.469 3.04592C167.524 3.51462 167.503 4.10149 167.433 4.83425L168.429 4.92854C168.5 4.17957 168.53 3.50669 168.462 2.92925C168.394 2.34795 168.222 1.82071 167.854 1.40374C167.483 0.983647 166.964 0.733295 166.316 0.606662C165.675 0.4813 164.876 0.470726 163.897 0.552469L163.98 1.549ZM167.442 41.1691C167.204 42.2929 166.904 42.8517 166.468 43.1488C166.018 43.4555 165.299 43.5713 163.982 43.456L163.895 44.4522C165.237 44.5698 166.271 44.4932 167.031 43.9751C167.805 43.4475 168.172 42.5492 168.42 41.3762L167.442 41.1691ZM163.939 43.4541H135.992V44.4541H163.939V43.4541ZM136.009 43.4544C135.404 43.4345 134.894 43.4159 134.454 43.3621C134.014 43.3084 133.682 43.2233 133.425 43.0905C132.97 42.8553 132.621 42.4018 132.497 41.2206L131.503 41.3247C131.644 42.6791 132.091 43.5269 132.966 43.9789C133.374 44.1896 133.84 44.2945 134.332 44.3548C134.825 44.4149 135.381 44.4343 135.976 44.4539L136.009 43.4544ZM132.334 11.3825L143.424 1.42273L142.756 0.678734L131.666 10.6384L132.334 11.3825ZM143.09 1.55073H163.939V0.550734H143.09V1.55073ZM132.5 41.2727V31.696H131.5V41.2727H132.5ZM132.5 31.696V11.0105H131.5V31.696H132.5ZM167.431 4.88139V31.696H168.431V4.88139H167.431ZM167.431 31.696V41.2727H168.431V31.696H167.431ZM132 32.196H167.931V31.196H132V32.196ZM142.59 1.05073V8.71205H143.59V1.05073H142.59ZM142.595 8.64357C142.497 9.34651 142.336 9.70496 142.071 9.93994C141.788 10.1911 141.301 10.3794 140.357 10.5156L140.5 11.5053C141.477 11.3644 142.219 11.1457 142.735 10.6879C143.269 10.2141 143.477 9.56184 143.585 8.78054L142.595 8.64357ZM140.428 10.5105H132V11.5105H140.428V10.5105ZM152.619 16.4342L159.273 19.8818L159.733 18.9939L153.079 15.5463L152.619 16.4342ZM159.204 19.8387C159.448 20.0207 159.594 20.1546 159.674 20.2516C159.756 20.352 159.72 20.3537 159.724 20.2863C159.729 20.212 159.772 20.2043 159.699 20.2677C159.625 20.3316 159.494 20.4144 159.277 20.5239L159.728 21.4164C159.962 21.2982 160.184 21.1708 160.354 21.0235C160.524 20.8758 160.702 20.656 160.722 20.3506C160.741 20.0521 160.6 19.8036 160.446 19.6166C160.289 19.4261 160.068 19.2353 159.802 19.037L159.204 19.8387ZM159.273 20.5262L152.619 23.9738L153.079 24.8617L159.733 21.4141L159.273 20.5262ZM153.349 24.4177V22.5024H152.349V24.4177H153.349ZM153.047 22.9614L156.596 21.4292L156.2 20.5111L152.651 22.0434L153.047 22.9614ZM156.683 21.3807C156.872 21.2496 157.079 21.1094 157.241 20.9734C157.391 20.8476 157.595 20.6525 157.671 20.3808C157.765 20.0441 157.629 19.7516 157.428 19.5384C157.243 19.3424 156.966 19.1664 156.625 18.9924L156.171 19.8834C156.485 20.0437 156.637 20.1569 156.7 20.2241C156.728 20.2538 156.72 20.255 156.71 20.2268C156.699 20.1911 156.698 20.1482 156.708 20.112C156.72 20.0703 156.728 20.0982 156.598 20.2073C156.48 20.3062 156.323 20.4129 156.112 20.5596L156.683 21.3807ZM156.635 18.9979L153.086 17.0825L152.611 17.9626L156.16 19.8779L156.635 18.9979ZM153.349 17.5226V15.9903H152.349V17.5226H153.349ZM149.275 15.8174L146.169 24.2449L147.108 24.5906L150.213 16.1632L149.275 15.8174ZM146.639 24.9177H148.857V23.9177H146.639V24.9177ZM149.333 24.5683L151.995 16.1409L151.041 15.8397L148.38 24.2672L149.333 24.5683ZM151.518 15.4903H149.744V16.4903H151.518V15.4903ZM145.078 15.5463L138.424 18.9939L138.884 19.8818L145.538 16.4342L145.078 15.5463ZM138.355 19.037C138.089 19.2353 137.867 19.4261 137.711 19.6166C137.557 19.8036 137.416 20.0521 137.435 20.3506C137.454 20.656 137.633 20.8758 137.803 21.0235C137.973 21.1708 138.195 21.2982 138.428 21.4164L138.879 20.5239C138.663 20.4144 138.532 20.3316 138.458 20.2677C138.385 20.2043 138.428 20.212 138.433 20.2863C138.437 20.3537 138.401 20.352 138.483 20.2516C138.563 20.1546 138.709 20.0207 138.953 19.8387L138.355 19.037ZM138.424 21.4141L145.078 24.8617L145.538 23.9738L138.884 20.5262L138.424 21.4141ZM145.808 24.4177V22.5024H144.808V24.4177H145.808ZM145.506 22.0434L141.957 20.5111L141.561 21.4292L145.11 22.9614L145.506 22.0434ZM142.045 20.5596C141.833 20.4129 141.677 20.3062 141.559 20.2073C141.429 20.0982 141.437 20.0703 141.449 20.112C141.459 20.1482 141.458 20.1911 141.446 20.2268C141.437 20.255 141.429 20.2538 141.457 20.2241C141.52 20.1569 141.671 20.0437 141.986 19.8834L141.532 18.9924C141.191 19.1664 140.914 19.3424 140.729 19.5384C140.528 19.7516 140.392 20.0441 140.486 20.3808C140.561 20.6525 140.766 20.8476 140.916 20.9734C141.078 21.1094 141.285 21.2496 141.474 21.3807L142.045 20.5596ZM141.997 19.8779L145.545 17.9626L145.07 17.0825L141.522 18.9979L141.997 19.8779ZM145.808 17.5226V15.9903H144.808V17.5226H145.808Z" fill="black"/>
<path d="M207.733 39H206.852C206.8 38.7467 206.709 38.5241 206.579 38.3324C206.451 38.1406 206.295 37.9796 206.11 37.8494C205.928 37.7169 205.725 37.6174 205.503 37.5511C205.28 37.4848 205.048 37.4517 204.807 37.4517C204.366 37.4517 203.968 37.563 203.61 37.7855C203.255 38.008 202.972 38.3359 202.761 38.7692C202.553 39.2024 202.449 39.7339 202.449 40.3636C202.449 40.9934 202.553 41.5249 202.761 41.9581C202.972 42.3913 203.255 42.7192 203.61 42.9418C203.968 43.1643 204.366 43.2756 204.807 43.2756C205.048 43.2756 205.28 43.2424 205.503 43.1761C205.725 43.1098 205.928 43.0116 206.11 42.8814C206.295 42.7488 206.451 42.5866 206.579 42.3949C206.709 42.2008 206.8 41.9782 206.852 41.7273H207.733C207.667 42.099 207.546 42.4316 207.371 42.7251C207.196 43.0187 206.978 43.2685 206.717 43.4744C206.457 43.678 206.165 43.8331 205.84 43.9396C205.518 44.0462 205.174 44.0994 204.807 44.0994C204.187 44.0994 203.635 43.9479 203.152 43.6449C202.669 43.3419 202.289 42.911 202.012 42.3523C201.735 41.7936 201.597 41.1307 201.597 40.3636C201.597 39.5966 201.735 38.9337 202.012 38.375C202.289 37.8163 202.669 37.3854 203.152 37.0824C203.635 36.7794 204.187 36.6278 204.807 36.6278C205.174 36.6278 205.518 36.6811 205.84 36.7876C206.165 36.8942 206.457 37.0504 206.717 37.2564C206.978 37.46 207.196 37.7086 207.371 38.0021C207.546 38.2933 207.667 38.6259 207.733 39ZM211.173 42.7216V38.0341H211.969V42.7216H211.173ZM209.227 40.7756V39.9801H213.915V40.7756H209.227ZM217.765 42.7216V38.0341H218.56V42.7216H217.765ZM215.819 40.7756V39.9801H220.506V40.7756H215.819Z" fill="black"/>
<path fill-rule="evenodd" clip-rule="evenodd" d="M228.931 6.88139C229.212 3.91792 228.775 2.73036 224.939 3.05073H204.09V10.7121C203.885 12.1963 203.35 12.7334 201.428 13.0105H193V33.696H228.931V6.88139ZM220.503 21.4379L213.849 17.9903V19.5226L217.398 21.4379C218.71 22.1065 218.197 22.4145 217.398 22.9701L213.849 24.5024V26.4177L220.503 22.9701C221.403 22.5149 221.523 22.1983 220.503 21.4379ZM207.639 26.4177L210.744 17.9903H212.518L209.857 26.4177H207.639ZM199.654 21.4379L206.308 17.9903V19.5226L202.759 21.4379C201.447 22.1065 201.96 22.4145 202.759 22.9701L206.308 24.5024V26.4177L199.654 22.9701C198.753 22.5149 198.634 22.1983 199.654 21.4379Z" fill="#FFDFF0"/>
<path d="M204.09 3.05073L193 13.0105H201.428C203.35 12.7334 203.885 12.1963 204.09 10.7121V3.05073Z" fill="white"/>
<path d="M224.939 3.05073V3.55073H224.96L224.98 3.549L224.939 3.05073ZM228.931 6.88139L228.433 6.83425L228.431 6.85777V6.88139H228.931ZM228.931 43.2727L229.42 43.3762L229.431 43.325V43.2727H228.931ZM224.939 45.9541L224.982 45.456L224.961 45.4541H224.939V45.9541ZM196.992 45.9541L196.976 46.4539L196.984 46.4541H196.992V45.9541ZM193 43.2727H192.5V43.2987L192.503 43.3247L193 43.2727ZM193 13.0105L192.666 12.6384L192.5 12.7875V13.0105H193ZM204.09 3.05073V2.55073H203.898L203.756 2.67873L204.09 3.05073ZM204.09 10.7121L204.585 10.7805L204.59 10.7465V10.7121H204.09ZM201.428 13.0105V13.5105H201.464L201.5 13.5053L201.428 13.0105ZM213.849 17.9903L214.079 17.5463L213.349 17.1681V17.9903H213.849ZM220.503 21.4379L220.802 21.037L220.769 21.0127L220.733 20.9939L220.503 21.4379ZM220.503 22.9701L220.277 22.5239L220.273 22.5262L220.503 22.9701ZM213.849 26.4177H213.349V27.2399L214.079 26.8617L213.849 26.4177ZM213.849 24.5024L213.651 24.0434L213.349 24.1737V24.5024H213.849ZM217.398 22.9701L217.596 23.4292L217.642 23.4093L217.683 23.3807L217.398 22.9701ZM217.398 21.4379L217.16 21.878L217.171 21.8834L217.398 21.4379ZM213.849 19.5226H213.349V19.8209L213.611 19.9626L213.849 19.5226ZM210.744 17.9903V17.4903H210.395L210.275 17.8174L210.744 17.9903ZM207.639 26.4177L207.169 26.2449L206.922 26.9177H207.639V26.4177ZM209.857 26.4177V26.9177H210.223L210.333 26.5683L209.857 26.4177ZM212.518 17.9903L212.995 18.1409L213.2 17.4903H212.518V17.9903ZM206.308 17.9903H206.808V17.1681L206.078 17.5463L206.308 17.9903ZM199.654 21.4379L199.424 20.9939L199.388 21.0127L199.355 21.037L199.654 21.4379ZM199.654 22.9701L199.884 22.5262L199.879 22.5239L199.654 22.9701ZM206.308 26.4177L206.078 26.8617L206.808 27.2399V26.4177H206.308ZM206.308 24.5024H206.808V24.1737L206.506 24.0434L206.308 24.5024ZM202.759 22.9701L202.474 23.3807L202.515 23.4093L202.561 23.4292L202.759 22.9701ZM202.759 21.4379L202.986 21.8835L202.997 21.8779L202.759 21.4379ZM206.308 19.5226L206.545 19.9626L206.808 19.8209V19.5226H206.308ZM224.98 3.549C225.92 3.47055 226.614 3.48828 227.124 3.58809C227.629 3.68663 227.921 3.85832 228.104 4.0655C228.29 4.27582 228.414 4.58109 228.469 5.04592C228.524 5.51462 228.503 6.10149 228.433 6.83425L229.429 6.92854C229.5 6.17957 229.53 5.50669 229.462 4.92925C229.394 4.34795 229.222 3.82071 228.854 3.40374C228.483 2.98365 227.964 2.7333 227.316 2.60666C226.675 2.4813 225.876 2.47073 224.897 2.55247L224.98 3.549ZM228.442 43.1691C228.204 44.2929 227.904 44.8517 227.468 45.1488C227.018 45.4555 226.299 45.5713 224.982 45.456L224.895 46.4522C226.237 46.5698 227.271 46.4932 228.031 45.9751C228.805 45.4475 229.172 44.5492 229.42 43.3762L228.442 43.1691ZM224.939 45.4541H196.992V46.4541H224.939V45.4541ZM197.009 45.4544C196.404 45.4345 195.894 45.4159 195.454 45.3621C195.014 45.3084 194.682 45.2233 194.425 45.0905C193.97 44.8553 193.621 44.4018 193.497 43.2206L192.503 43.3247C192.644 44.6791 193.091 45.5269 193.966 45.9789C194.374 46.1896 194.84 46.2945 195.332 46.3548C195.825 46.4149 196.381 46.4343 196.976 46.4539L197.009 45.4544ZM193.334 13.3825L204.424 3.42273L203.756 2.67873L192.666 12.6384L193.334 13.3825ZM204.09 3.55073H224.939V2.55073H204.09V3.55073ZM193.5 43.2727V33.696H192.5V43.2727H193.5ZM193.5 33.696V13.0105H192.5V33.696H193.5ZM228.431 6.88139V33.696H229.431V6.88139H228.431ZM228.431 33.696V43.2727H229.431V33.696H228.431ZM193 34.196H228.931V33.196H193V34.196ZM203.59 3.05073V10.7121H204.59V3.05073H203.59ZM203.595 10.6436C203.497 11.3465 203.336 11.705 203.071 11.9399C202.788 12.1911 202.301 12.3794 201.357 12.5156L201.5 13.5053C202.477 13.3644 203.219 13.1457 203.735 12.6879C204.269 12.2141 204.477 11.5618 204.585 10.7805L203.595 10.6436ZM201.428 12.5105H193V13.5105H201.428V12.5105ZM213.619 18.4342L220.273 21.8818L220.733 20.9939L214.079 17.5463L213.619 18.4342ZM220.204 21.8387C220.448 22.0207 220.594 22.1546 220.674 22.2516C220.756 22.352 220.72 22.3537 220.724 22.2863C220.729 22.212 220.772 22.2043 220.699 22.2677C220.625 22.3316 220.494 22.4144 220.277 22.5239L220.728 23.4164C220.962 23.2982 221.184 23.1708 221.354 23.0235C221.524 22.8758 221.702 22.656 221.722 22.3506C221.741 22.0521 221.6 21.8036 221.446 21.6166C221.289 21.4261 221.068 21.2353 220.802 21.037L220.204 21.8387ZM220.273 22.5262L213.619 25.9738L214.079 26.8617L220.733 23.4141L220.273 22.5262ZM214.349 26.4177V24.5024H213.349V26.4177H214.349ZM214.047 24.9614L217.596 23.4292L217.2 22.5111L213.651 24.0434L214.047 24.9614ZM217.683 23.3807C217.872 23.2496 218.079 23.1094 218.241 22.9734C218.391 22.8476 218.595 22.6525 218.671 22.3808C218.765 22.0441 218.629 21.7516 218.428 21.5384C218.243 21.3424 217.966 21.1664 217.625 20.9924L217.171 21.8834C217.485 22.0437 217.637 22.1569 217.7 22.2241C217.728 22.2538 217.72 22.255 217.71 22.2268C217.699 22.1911 217.698 22.1482 217.708 22.112C217.72 22.0703 217.728 22.0982 217.598 22.2073C217.48 22.3062 217.323 22.4129 217.112 22.5596L217.683 23.3807ZM217.635 20.9979L214.086 19.0825L213.611 19.9626L217.16 21.8779L217.635 20.9979ZM214.349 19.5226V17.9903H213.349V19.5226H214.349ZM210.275 17.8174L207.169 26.2449L208.108 26.5906L211.213 18.1632L210.275 17.8174ZM207.639 26.9177H209.857V25.9177H207.639V26.9177ZM210.333 26.5683L212.995 18.1409L212.041 17.8397L209.38 26.2672L210.333 26.5683ZM212.518 17.4903H210.744V18.4903H212.518V17.4903ZM206.078 17.5463L199.424 20.9939L199.884 21.8818L206.538 18.4342L206.078 17.5463ZM199.355 21.037C199.089 21.2353 198.867 21.4261 198.711 21.6166C198.557 21.8036 198.416 22.0521 198.435 22.3506C198.454 22.656 198.633 22.8758 198.803 23.0235C198.973 23.1708 199.195 23.2982 199.428 23.4164L199.879 22.5239C199.663 22.4144 199.532 22.3316 199.458 22.2677C199.385 22.2043 199.428 22.212 199.433 22.2863C199.437 22.3537 199.401 22.352 199.483 22.2516C199.563 22.1546 199.709 22.0207 199.953 21.8387L199.355 21.037ZM199.424 23.4141L206.078 26.8617L206.538 25.9738L199.884 22.5262L199.424 23.4141ZM206.808 26.4177V24.5024H205.808V26.4177H206.808ZM206.506 24.0434L202.957 22.5111L202.561 23.4292L206.11 24.9614L206.506 24.0434ZM203.045 22.5596C202.833 22.4129 202.677 22.3062 202.559 22.2073C202.429 22.0982 202.437 22.0703 202.449 22.112C202.459 22.1482 202.458 22.1911 202.446 22.2268C202.437 22.255 202.429 22.2538 202.457 22.2241C202.52 22.1569 202.671 22.0437 202.986 21.8834L202.532 20.9924C202.191 21.1664 201.914 21.3424 201.729 21.5384C201.528 21.7516 201.392 22.0441 201.486 22.3808C201.561 22.6525 201.766 22.8476 201.916 22.9734C202.078 23.1094 202.285 23.2496 202.474 23.3807L203.045 22.5596ZM202.997 21.8779L206.545 19.9626L206.07 19.0825L202.522 20.9979L202.997 21.8779ZM206.808 19.5226V17.9903H205.808V19.5226H206.808Z" fill="black"/>
<path d="M41.6648 127.727H42.5455V132.926C42.5455 133.39 42.4602 133.784 42.2898 134.109C42.1193 134.433 41.879 134.679 41.5689 134.847C41.2588 135.015 40.893 135.099 40.4716 135.099C40.0739 135.099 39.7199 135.027 39.4098 134.883C39.0997 134.736 38.8558 134.528 38.6783 134.258C38.5007 133.988 38.4119 133.667 38.4119 133.295H39.2784C39.2784 133.501 39.3293 133.681 39.4311 133.835C39.5353 133.987 39.6773 134.105 39.8572 134.19C40.0372 134.276 40.242 134.318 40.4716 134.318C40.7249 134.318 40.9403 134.265 41.1179 134.158C41.2955 134.052 41.4304 133.896 41.5227 133.69C41.6174 133.481 41.6648 133.227 41.6648 132.926V127.727ZM45.8018 135.128C45.4562 135.128 45.1425 135.063 44.8608 134.933C44.5791 134.8 44.3554 134.609 44.1896 134.361C44.0239 134.11 43.9411 133.807 43.9411 133.452C43.9411 133.139 44.0026 132.886 44.1257 132.692C44.2488 132.495 44.4134 132.341 44.6193 132.23C44.8253 132.119 45.0526 132.036 45.3011 131.982C45.5521 131.925 45.8042 131.88 46.0575 131.847C46.389 131.804 46.6577 131.772 46.8636 131.751C47.072 131.727 47.2235 131.688 47.3182 131.634C47.4152 131.579 47.4638 131.484 47.4638 131.349V131.321C47.4638 130.971 47.3679 130.698 47.1761 130.504C46.9867 130.31 46.6991 130.213 46.3132 130.213C45.9131 130.213 45.5994 130.301 45.3722 130.476C45.1449 130.651 44.9851 130.838 44.8928 131.037L44.0973 130.753C44.2393 130.421 44.4287 130.163 44.6655 129.979C44.9046 129.792 45.165 129.661 45.4467 129.588C45.7308 129.512 46.0102 129.474 46.2848 129.474C46.46 129.474 46.6612 129.496 46.8885 129.538C47.1181 129.579 47.3395 129.663 47.5526 129.79C47.768 129.918 47.9467 130.111 48.0888 130.369C48.2308 130.627 48.3018 130.973 48.3018 131.406V135H47.4638V134.261H47.4212C47.3643 134.38 47.2696 134.506 47.1371 134.641C47.0045 134.776 46.8281 134.891 46.608 134.986C46.3878 135.08 46.1191 135.128 45.8018 135.128ZM45.9297 134.375C46.2611 134.375 46.5405 134.31 46.7678 134.18C46.9974 134.049 47.1702 133.881 47.2862 133.675C47.4046 133.469 47.4638 133.253 47.4638 133.026V132.259C47.4283 132.301 47.3501 132.34 47.2294 132.376C47.111 132.409 46.9737 132.438 46.8175 132.464C46.6636 132.488 46.5133 132.509 46.3665 132.528C46.2221 132.545 46.1049 132.559 46.0149 132.571C45.7971 132.599 45.5935 132.646 45.4041 132.71C45.2171 132.771 45.0656 132.865 44.9496 132.99C44.8359 133.113 44.7791 133.281 44.7791 133.494C44.7791 133.786 44.8868 134.006 45.1023 134.155C45.3201 134.302 45.5959 134.375 45.9297 134.375ZM54.0964 129.545L52.0794 135H51.2271L49.21 129.545H50.1191L51.6248 133.892H51.6816L53.1873 129.545H54.0964ZM56.6417 135.128C56.296 135.128 55.9824 135.063 55.7006 134.933C55.4189 134.8 55.1952 134.609 55.0295 134.361C54.8638 134.11 54.7809 133.807 54.7809 133.452C54.7809 133.139 54.8424 132.886 54.9656 132.692C55.0887 132.495 55.2532 132.341 55.4592 132.23C55.6651 132.119 55.8924 132.036 56.141 131.982C56.3919 131.925 56.6441 131.88 56.8974 131.847C57.2288 131.804 57.4975 131.772 57.7035 131.751C57.9118 131.727 58.0633 131.688 58.158 131.634C58.2551 131.579 58.3036 131.484 58.3036 131.349V131.321C58.3036 130.971 58.2077 130.698 58.016 130.504C57.8266 130.31 57.5389 130.213 57.1531 130.213C56.753 130.213 56.4393 130.301 56.212 130.476C55.9847 130.651 55.8249 130.838 55.7326 131.037L54.9371 130.753C55.0792 130.421 55.2686 130.163 55.5053 129.979C55.7444 129.792 56.0049 129.661 56.2866 129.588C56.5707 129.512 56.85 129.474 57.1246 129.474C57.2998 129.474 57.5011 129.496 57.7283 129.538C57.958 129.579 58.1793 129.663 58.3924 129.79C58.6078 129.918 58.7866 130.111 58.9286 130.369C59.0707 130.627 59.1417 130.973 59.1417 131.406V135H58.3036V134.261H58.261C58.2042 134.38 58.1095 134.506 57.9769 134.641C57.8443 134.776 57.668 134.891 57.4478 134.986C57.2276 135.08 56.9589 135.128 56.6417 135.128ZM56.7695 134.375C57.101 134.375 57.3803 134.31 57.6076 134.18C57.8372 134.049 58.0101 133.881 58.1261 133.675C58.2444 133.469 58.3036 133.253 58.3036 133.026V132.259C58.2681 132.301 58.19 132.34 58.0692 132.376C57.9509 132.409 57.8136 132.438 57.6573 132.464C57.5034 132.488 57.3531 132.509 57.2063 132.528C57.0619 132.545 56.9447 132.559 56.8548 132.571C56.637 132.599 56.4334 132.646 56.244 132.71C56.0569 132.771 55.9054 132.865 55.7894 132.99C55.6758 133.113 55.619 133.281 55.619 133.494C55.619 133.786 55.7267 134.006 55.9421 134.155C56.1599 134.302 56.4357 134.375 56.7695 134.375Z" fill="black"/>
<path fill-rule="evenodd" clip-rule="evenodd" d="M66.9312 97.8814C67.2119 94.9179 66.7748 93.7304 62.9388 94.0507H42.0899V101.712C41.8846 103.196 41.3505 103.733 39.4283 104.01H31V124.696H66.9312V97.8814ZM58.5029 112.438L51.849 108.99V110.523L55.3977 112.438C56.7102 113.107 56.1968 113.415 55.3977 113.97L51.849 115.502V117.418L58.5029 113.97C59.4035 113.515 59.5227 113.198 58.5029 112.438ZM45.6386 117.418L48.7438 108.99H50.5182L47.8566 117.418H45.6386ZM37.6539 112.438L44.3078 108.99V110.523L40.7591 112.438C39.4466 113.107 39.96 113.415 40.7591 113.97L44.3078 115.502V117.418L37.6539 113.97C36.7533 113.515 36.6341 113.198 37.6539 112.438Z" fill="#FFDFF0"/>
<path d="M42.0899 94.0507L31 104.01H39.4283C41.3505 103.733 41.8846 103.196 42.0899 101.712V94.0507Z" fill="white"/>
<path d="M62.9388 94.0507V94.5507H62.9597L62.9804 94.549L62.9388 94.0507ZM66.9312 97.8814L66.4334 97.8342L66.4312 97.8578V97.8814H66.9312ZM66.9312 134.273L67.4203 134.376L67.4312 134.325V134.273H66.9312ZM62.9388 136.954L62.9825 136.456L62.9607 136.454H62.9388V136.954ZM34.9924 136.954L34.9759 137.454L34.9841 137.454H34.9924V136.954ZM31 134.273H30.5V134.299L30.5027 134.325L31 134.273ZM31 104.01L30.6659 103.638L30.5 103.787V104.01H31ZM42.0899 94.0507V93.5507H41.8983L41.7558 93.6787L42.0899 94.0507ZM42.0899 101.712L42.5852 101.781L42.5899 101.746V101.712H42.0899ZM39.4283 104.01V104.51H39.4641L39.4996 104.505L39.4283 104.01ZM51.849 108.99L52.079 108.546L51.349 108.168V108.99H51.849ZM58.5029 112.438L58.8018 112.037L58.7691 112.013L58.7329 111.994L58.5029 112.438ZM58.5029 113.97L58.2773 113.524L58.2729 113.526L58.5029 113.97ZM51.849 117.418H51.349V118.24L52.079 117.862L51.849 117.418ZM51.849 115.502L51.6508 115.043L51.349 115.174V115.502H51.849ZM55.3977 113.97L55.5959 114.429L55.642 114.409L55.6831 114.381L55.3977 113.97ZM55.3977 112.438L55.1602 112.878L55.1707 112.883L55.3977 112.438ZM51.849 110.523H51.349V110.821L51.6115 110.963L51.849 110.523ZM48.7438 108.99V108.49H48.3952L48.2746 108.817L48.7438 108.99ZM45.6386 117.418L45.1695 117.245L44.9215 117.918H45.6386V117.418ZM47.8566 117.418V117.918H48.223L48.3334 117.568L47.8566 117.418ZM50.5182 108.99L50.995 109.141L51.2004 108.49H50.5182V108.99ZM44.3078 108.99H44.8078V108.168L44.0778 108.546L44.3078 108.99ZM37.6539 112.438L37.4239 111.994L37.3877 112.013L37.355 112.037L37.6539 112.438ZM37.6539 113.97L37.884 113.526L37.8795 113.524L37.6539 113.97ZM44.3078 117.418L44.0778 117.862L44.8078 118.24V117.418H44.3078ZM44.3078 115.502H44.8078V115.174L44.506 115.043L44.3078 115.502ZM40.7591 113.97L40.4736 114.381L40.5148 114.409L40.5609 114.429L40.7591 113.97ZM40.7591 112.438L40.9861 112.884L40.9966 112.878L40.7591 112.438ZM44.3078 110.523L44.5453 110.963L44.8078 110.821V110.523H44.3078ZM62.9804 94.549C63.9197 94.4706 64.6138 94.4883 65.1245 94.5881C65.6286 94.6866 65.921 94.8583 66.1039 95.0655C66.2895 95.2758 66.414 95.5811 66.4686 96.0459C66.5237 96.5146 66.5028 97.1015 66.4334 97.8342L67.4289 97.9285C67.4999 97.1796 67.5296 96.5067 67.4618 95.9293C67.3935 95.3479 67.2216 94.8207 66.8536 94.4037C66.4828 93.9836 65.9642 93.7333 65.3163 93.6067C64.6749 93.4813 63.8759 93.4707 62.8972 93.5525L62.9804 94.549ZM66.442 134.169C66.204 135.293 65.9037 135.852 65.4678 136.149C65.0178 136.456 64.2987 136.571 62.9825 136.456L62.8952 137.452C64.237 137.57 65.2709 137.493 66.031 136.975C66.8051 136.448 67.1719 135.549 67.4203 134.376L66.442 134.169ZM62.9388 136.454H34.9924V137.454H62.9388V136.454ZM35.0088 136.454C34.4035 136.435 33.8936 136.416 33.4537 136.362C33.0143 136.308 32.6819 136.223 32.4249 136.09C31.9698 135.855 31.6209 135.402 31.4973 134.221L30.5027 134.325C30.6444 135.679 31.0913 136.527 31.9658 136.979C32.3737 137.19 32.8395 137.295 33.3323 137.355C33.8246 137.415 34.3808 137.434 34.9759 137.454L35.0088 136.454ZM31.3341 104.382L42.424 94.4227L41.7558 93.6787L30.6659 103.638L31.3341 104.382ZM42.0899 94.5507H62.9388V93.5507H42.0899V94.5507ZM31.5 134.273V124.696H30.5V134.273H31.5ZM31.5 124.696V104.01H30.5V124.696H31.5ZM66.4312 97.8814V124.696H67.4312V97.8814H66.4312ZM66.4312 124.696V134.273H67.4312V124.696H66.4312ZM31 125.196H66.9312V124.196H31V125.196ZM41.5899 94.0507V101.712H42.5899V94.0507H41.5899ZM41.5946 101.644C41.4974 102.347 41.3359 102.705 41.0711 102.94C40.788 103.191 40.3014 103.379 39.357 103.516L39.4996 104.505C40.4774 104.364 41.2189 104.146 41.7348 103.688C42.2689 103.214 42.4771 102.562 42.5852 101.781L41.5946 101.644ZM39.4283 103.51H31V104.51H39.4283V103.51ZM51.6189 109.434L58.2729 112.882L58.7329 111.994L52.079 108.546L51.6189 109.434ZM58.204 112.839C58.4481 113.021 58.5938 113.155 58.6735 113.252C58.7561 113.352 58.7197 113.354 58.7241 113.286C58.7289 113.212 58.7721 113.204 58.6989 113.268C58.6251 113.332 58.4939 113.414 58.2773 113.524L58.7284 114.416C58.9622 114.298 59.1836 114.171 59.3536 114.024C59.5242 113.876 59.7023 113.656 59.722 113.351C59.7413 113.052 59.5998 112.804 59.446 112.617C59.2894 112.426 59.0676 112.235 58.8018 112.037L58.204 112.839ZM58.2729 113.526L51.6189 116.974L52.079 117.862L58.7329 114.414L58.2729 113.526ZM52.349 117.418V115.502H51.349V117.418H52.349ZM52.0472 115.961L55.5959 114.429L55.1995 113.511L51.6508 115.043L52.0472 115.961ZM55.6831 114.381C55.8716 114.25 56.0786 114.109 56.2408 113.973C56.3907 113.848 56.5953 113.653 56.6712 113.381C56.7651 113.044 56.6286 112.752 56.4278 112.538C56.2432 112.342 55.9663 112.166 55.6247 111.992L55.1707 112.883C55.4854 113.044 55.6365 113.157 55.6999 113.224C55.7279 113.254 55.7197 113.255 55.7104 113.227C55.6986 113.191 55.6979 113.148 55.708 113.112C55.7196 113.07 55.7281 113.098 55.598 113.207C55.4802 113.306 55.3234 113.413 55.1123 113.56L55.6831 114.381ZM55.6352 111.998L52.0864 110.083L51.6115 110.963L55.1602 112.878L55.6352 111.998ZM52.349 110.523V108.99H51.349V110.523H52.349ZM48.2746 108.817L45.1695 117.245L46.1078 117.591L49.213 109.163L48.2746 108.817ZM45.6386 117.918H47.8566V116.918H45.6386V117.918ZM48.3334 117.568L50.995 109.141L50.0414 108.84L47.3798 117.267L48.3334 117.568ZM50.5182 108.49H48.7438V109.49H50.5182V108.49ZM44.0778 108.546L37.4239 111.994L37.8839 112.882L44.5379 109.434L44.0778 108.546ZM37.355 112.037C37.0892 112.235 36.8674 112.426 36.7108 112.617C36.557 112.804 36.4155 113.052 36.4348 113.351C36.4545 113.656 36.6326 113.876 36.8032 114.024C36.9732 114.171 37.1946 114.298 37.4283 114.416L37.8795 113.524C37.6629 113.414 37.5317 113.332 37.4579 113.268C37.3847 113.204 37.4279 113.212 37.4327 113.286C37.4371 113.354 37.4007 113.352 37.4833 113.252C37.563 113.155 37.7087 113.021 37.9528 112.839L37.355 112.037ZM37.4239 114.414L44.0778 117.862L44.5379 116.974L37.8839 113.526L37.4239 114.414ZM44.8078 117.418V115.502H43.8078V117.418H44.8078ZM44.506 115.043L40.9573 113.511L40.5609 114.429L44.1096 115.961L44.506 115.043ZM41.0445 113.56C40.8334 113.413 40.6766 113.306 40.5588 113.207C40.4287 113.098 40.4372 113.07 40.4488 113.112C40.4589 113.148 40.4582 113.191 40.4464 113.227C40.4371 113.255 40.4289 113.254 40.4569 113.224C40.5203 113.157 40.6714 113.044 40.986 112.883L40.5321 111.992C40.1905 112.166 39.9136 112.342 39.729 112.538C39.5282 112.752 39.3917 113.044 39.4856 113.381C39.5614 113.653 39.7661 113.848 39.916 113.973C40.0782 114.109 40.2852 114.25 40.4736 114.381L41.0445 113.56ZM40.9966 112.878L44.5453 110.963L44.0704 110.083L40.5216 111.998L40.9966 112.878ZM44.8078 110.523V108.99H43.8078V110.523H44.8078Z" fill="black"/>
</svg>
