<svg width="294" height="238" viewBox="0 0 294 238" fill="none" xmlns="http://www.w3.org/2000/svg">
<path d="M125.621 212.432H136.259C138.061 209.382 138.523 209.537 137.51 205.071C136.497 200.605 133.187 194.221 132.504 186.054C132.09 182.221 131.992 180.072 132.504 176.239C133.716 171.918 134.608 170.104 136.259 167.037H130.627C126.165 171.153 124.133 173.92 121.867 180.182C124.32 186.944 125.844 190.569 129.376 196.132C130.061 203.717 128.657 206.063 124.996 209.014L125.621 212.432Z" fill="white" stroke="black"/>
<path d="M124.996 209.365C126.999 207.56 127.892 206.398 128.75 203.844C130.024 200.756 130.053 199.007 129.376 195.869C125.672 190.378 123.779 185.907 122.493 179.92" stroke="black"/>
<path d="M200.709 167.651C206.223 179.389 206.009 185.971 200.709 197.71C196.675 204.401 195.966 208.324 196.329 215.5C201.634 216.151 203.098 216.904 204.463 218.567C205.616 221.778 205.342 223.31 204.463 225.928H193.2C190.237 222.338 189.202 220.025 188.194 215.5C188.387 207.647 187.884 203.573 191.949 197.71C193.096 190.827 191.409 186.232 190.697 178.079C185.981 173.476 186.329 171.356 182.563 167.651H200.709Z" fill="white"/>
<path d="M204.463 225.928C205.342 223.31 205.616 221.778 204.463 218.567C203.098 216.904 201.634 216.151 196.329 215.5C195.966 208.324 196.675 204.401 200.709 197.71C206.009 185.971 206.223 179.389 200.709 167.651H182.563C186.329 171.356 185.981 173.476 190.697 178.079C191.409 186.232 193.096 190.827 191.949 197.71C187.884 203.573 188.387 207.647 188.194 215.5C189.202 220.025 190.237 222.338 193.2 225.928M204.463 225.928C200.065 225.928 197.599 225.928 193.2 225.928M204.463 225.928H193.2" stroke="black"/>
<path d="M130.627 167.3C125.738 171.544 123.603 175.02 121.241 182.373C120.588 187.953 120.564 191.17 121.241 197.096C122.516 201.659 123.151 204.123 124.996 209.365C125.531 213.924 125.486 216.012 124.996 219.18C124.009 222.155 123.214 223.411 121.241 224.701C117.331 225.312 115.139 225.511 111.229 224.701C109.947 224.356 109.287 224.137 108.727 223.474V218.567L111.229 217.34L115.61 216.113C116.052 215.682 116.31 215.429 116.861 214.886V209.365C113.606 202.884 112.209 198.536 109.978 190.348C108.981 186.626 108.927 184.667 108.727 181.147V176.852C109.225 172.945 110.035 170.633 111.855 167.3H130.627Z" fill="white"/>
<path d="M111.229 217.34L108.727 218.567V223.474C109.287 224.137 109.947 224.356 111.229 224.701C115.139 225.511 117.331 225.312 121.241 224.701C123.214 223.411 124.009 222.155 124.996 219.18C125.486 216.012 125.531 213.924 124.996 209.365C123.151 204.123 122.516 201.659 121.241 197.096C120.564 191.17 120.588 187.953 121.241 182.373C123.603 175.02 125.738 171.544 130.627 167.3H111.855C110.035 170.633 109.225 172.945 108.727 176.852V181.147C108.927 184.667 108.981 186.626 109.978 190.348C112.209 198.536 113.606 202.884 116.861 209.365V214.886C116.31 215.429 116.052 215.682 115.61 216.113M111.229 217.34C112.94 216.861 113.899 216.592 115.61 216.113M111.229 217.34L115.61 216.113" stroke="black"/>
<path d="M190.697 179.92C188.826 187.242 186.567 190.125 184.44 197.71C183.539 199.729 183.843 201.597 184.44 203.844C185.277 206.46 186.226 207.211 188.194 208.138" stroke="black"/>
<path d="M177.557 167.651L181.937 177.466C179.989 186.985 179.352 192.382 178.182 202.004C177.514 203.032 177.215 203.68 176.931 205.071C176.31 207.227 176.291 208.436 176.931 210.592C177.539 212.023 178.076 212.448 179.434 212.432C182.855 212.991 188.194 212.432 188.194 212.432V207.787C186.154 207.123 185.34 206.307 184.44 204.107C183.712 201.928 183.637 200.722 183.814 198.586C186.746 191.426 188 187.584 190.697 180.182V178.342L182.563 167.651L181.937 167.169H177.557V167.651Z" fill="white" stroke="black"/>
<path d="M201.96 167.037H111.229C110.107 165.121 109.58 164.046 111.229 162.13C108.292 159.378 108.444 158.053 111.229 155.995C110.175 152.701 109.436 150.661 107.475 146.18C105.113 141.991 103.986 139.579 102.469 135.138C101.016 130.692 100.814 128.132 101.218 123.483C102.19 119.058 103.215 116.632 106.224 112.441C110.77 110.207 113.531 109.243 119.364 108.76H190.697C195.029 110.376 197.87 111.478 201.96 114.281C205.683 117.205 207.16 119.164 208.218 123.483C208.879 128.291 208.606 130.504 208.218 134.525C207.124 143.288 205.949 148.043 201.96 155.995C205.9 158.391 205.747 159.734 201.96 162.13C203.954 163.842 204.079 164.904 201.96 167.037Z" fill="white"/>
<path d="M201.96 162.13C203.954 163.842 204.079 164.904 201.96 167.037H111.229C110.107 165.121 109.58 164.046 111.229 162.13M201.96 162.13H111.229M201.96 162.13C205.747 159.734 205.9 158.391 201.96 155.995M111.229 162.13C108.292 159.378 108.444 158.053 111.229 155.995M111.229 155.995H201.96M111.229 155.995C110.175 152.701 109.436 150.661 107.475 146.18C105.113 141.991 103.986 139.579 102.469 135.138C101.016 130.692 100.814 128.132 101.218 123.483C102.19 119.058 103.215 116.632 106.224 112.441C110.77 110.207 113.531 109.243 119.364 108.76H190.697C195.029 110.376 197.87 111.478 201.96 114.281C205.683 117.205 207.16 119.164 208.218 123.483C208.879 128.291 208.606 130.504 208.218 134.525C207.124 143.288 205.949 148.043 201.96 155.995" stroke="black"/>
<path d="M99.3405 218.567C102.762 218.987 104.68 218.857 108.101 218.567L115.61 216.376L116.861 214.535V209.014L111.229 196.483C108.641 191.156 106.527 188.002 102.469 185.348C88.4939 187.046 80.3489 187.465 64.9253 186.668L63.6739 187.281C69.3683 190.623 70.4344 194.2 70.5569 202.004C71.8043 210.257 73.198 213.583 76.1885 218.567L83.0715 216.376L87.4516 214.535L93.7089 215.149L99.3405 218.567Z" fill="white"/>
<path d="M98.0891 182.987C99.7813 183.759 101.218 184.53 102.469 185.348M102.469 185.348C106.527 188.002 108.641 191.156 111.229 196.483L116.861 209.014V214.535L115.609 216.376L108.101 218.567C104.68 218.857 102.762 218.987 99.3405 218.567L93.7089 215.149L87.4516 214.535L83.0715 216.376L76.1885 218.567C73.198 213.583 71.8043 210.257 70.5569 202.004C70.4344 194.2 69.3683 190.623 63.6739 187.281M102.469 185.348C88.4939 187.046 80.3489 187.465 64.9253 186.668L63.6739 187.281M63.6739 187.281C62.6269 193.984 62.9104 197.421 59.2938 205.071C56.2179 208.904 57.3102 211.053 59.2938 214.886C63.671 213.341 64.0416 211.061 63.6739 206.298C63.8729 201.568 64.1662 199.782 64.9253 197.71" stroke="black"/>
<path d="M61.171 189.121C56.6863 193.634 55.2726 196.532 53.6622 202.004C52.5726 203.352 51.7549 204.277 50.9143 205.071C50.2299 205.718 49.5303 206.278 48.6563 206.911C43.5544 209.697 42.5689 212.248 45.457 215.5C45.7334 215.811 46.0452 216.128 46.3923 216.453C46.7019 216.743 47.0394 217.038 47.4049 217.34C55.6264 222.528 59.8334 222.376 67.3557 222.247L68.3788 222.836C71.2754 221.035 73.5241 219.723 76.1885 218.758C73.2497 212.942 71.4954 209.77 70.5569 202.266C70.7589 199.739 70.8158 198.218 69.9311 193.678C67.9998 190.521 66.5778 189.085 63.6296 186.93L61.171 189.121Z" fill="white"/>
<path d="M45.457 215.5C41.6517 219.365 40.5644 221.989 41.1475 227.768C46.6565 235.069 50.6031 236.052 58.0422 236.357C66.5209 237.68 70.685 236.809 78.0656 235.13C82.6988 234.488 84.8587 234.516 88.0773 235.13C93.9554 237.225 96.2774 236.748 99.9662 235.13C103.114 230.932 102.392 228.275 100.592 223.474C99.6476 218.644 98.4346 216.718 94.3347 215.5C89.4477 214.046 86.7071 214.623 81.82 217.34C79.6211 217.704 77.8262 218.165 76.1885 218.758C73.5241 219.723 71.2754 221.035 68.3788 222.836L70.5569 224.088C78.3854 224.138 82.6286 223.731 89.3288 220.407C94.1095 216.922 95.9716 218.404 98.7148 223.474C98.9922 226.682 98.8958 228.436 98.089 231.449C95.3493 232.601 93.3629 232.643 89.3288 232.063C83.4164 230.104 80.0271 229.84 73.6856 232.676C68.121 233.181 64.8815 233.262 58.668 232.676C54.1326 230.765 50.1517 231.897 46.3923 225.928C45.1584 222.576 43.9047 220.4 46.3923 216.453C46.0452 216.128 45.7334 215.811 45.457 215.5Z" fill="white"/>
<path d="M67.3557 222.247C59.8334 222.376 55.6264 222.528 47.4049 217.34C53.0125 224.535 57.7444 225.418 67.3557 223.474C67.7063 223.255 68.0468 223.042 68.3788 222.836L67.3557 222.247Z" fill="white"/>
<path d="M94.3347 173.785C84.2751 172.332 78.6161 171.721 68.054 175.626C66.9228 177.654 66.7248 179.093 67.3557 181.147C67.5276 181.706 67.7611 182.312 68.054 182.987H73.6856C73.036 181.31 73.0117 180.37 73.6856 178.693C81.7507 177.029 85.9917 176.778 93.0832 177.466C94.3239 179.482 94.3844 180.73 94.3347 182.987H97.4634C97.6316 179.026 97.2776 176.924 94.3347 173.785Z" fill="white"/>
<path d="M68.054 182.987C67.7611 182.312 67.5276 181.706 67.3557 181.147C58.3668 185.661 55.1599 190.027 52.4107 200.777L50.9143 205.071C51.7549 204.277 52.5726 203.352 53.6622 202.004C55.2726 196.532 56.6863 193.634 61.171 189.121L63.6296 186.93L68.054 182.987Z" fill="white"/>
<path d="M97.4634 182.987H94.3347H73.6856H68.054L63.6296 186.93C78.7279 187.774 87.139 187.49 102 185L97.4634 182.987Z" fill="white"/>
<path d="M97.4634 182.987C97.6316 179.026 97.2776 176.924 94.3347 173.785C84.2751 172.332 78.6161 171.721 68.054 175.626C66.9228 177.654 66.7248 179.093 67.3557 181.147M97.4634 182.987H68.054M97.4634 182.987H94.3347M97.4634 182.987L102 185C87.139 187.49 78.7279 187.774 63.6296 186.93M68.054 182.987C67.7611 182.312 67.5276 181.706 67.3557 181.147M68.054 182.987L63.6296 186.93M68.054 182.987H73.6856M73.6856 182.987C73.036 181.31 73.0117 180.37 73.6856 178.693C81.7507 177.029 85.9917 176.778 93.0832 177.466C94.3239 179.482 94.3844 180.73 94.3347 182.987M73.6856 182.987H94.3347M67.3557 181.147C58.3668 185.661 55.1599 190.027 52.4107 200.777L50.9143 205.071M47.4049 217.34C55.6264 222.528 59.8334 222.376 67.3557 222.247L68.3788 222.836M47.4049 217.34C53.0125 224.535 57.7444 225.418 67.3557 223.474C67.7063 223.255 68.0468 223.042 68.3788 222.836M47.4049 217.34C47.0394 217.038 46.7019 216.743 46.3923 216.453M50.9143 205.071C51.7549 204.277 52.5726 203.352 53.6622 202.004C55.2726 196.532 56.6863 193.634 61.171 189.121L63.6296 186.93M50.9143 205.071C50.2299 205.718 49.5303 206.278 48.6563 206.911C43.5544 209.697 42.5689 212.248 45.457 215.5M45.457 215.5C41.6517 219.365 40.5644 221.989 41.1475 227.768C46.6565 235.069 50.6031 236.052 58.0422 236.357C66.5209 237.68 70.685 236.809 78.0656 235.13C82.6988 234.488 84.8587 234.516 88.0773 235.13C93.9554 237.225 96.2774 236.748 99.9662 235.13C103.114 230.932 102.392 228.275 100.592 223.474C99.6476 218.644 98.4346 216.718 94.3347 215.5C89.4477 214.046 86.7071 214.623 81.82 217.34C79.6211 217.704 77.8262 218.165 76.1885 218.758M45.457 215.5C45.7334 215.811 46.0452 216.128 46.3923 216.453M46.3923 216.453C43.9047 220.4 45.1584 222.576 46.3923 225.928C50.1517 231.897 54.1326 230.765 58.668 232.676C64.8815 233.262 68.121 233.181 73.6856 232.676C80.0271 229.84 83.4164 230.104 89.3288 232.063C93.3629 232.643 95.3493 232.601 98.089 231.449C98.8958 228.436 98.9922 226.682 98.7148 223.474C95.9716 218.404 94.1095 216.922 89.3288 220.407C82.6286 223.731 78.3854 224.138 70.5569 224.088L68.3788 222.836M63.6296 186.93C66.5778 189.085 67.9998 190.521 69.9311 193.678C70.8158 198.218 70.7589 199.739 70.5569 202.266C71.4954 209.77 73.2497 212.942 76.1885 218.758M63.6296 186.93L62.4224 199.813L61.7966 204.107C61.3729 207.217 62.043 207.782 64.2996 206.56L66.8025 202.266M76.1885 218.758C73.5241 219.723 71.2754 221.035 68.3788 222.836" stroke="black"/>
<path d="M81.75 201L79 194.5L77.75 201H81.75Z" fill="white"/>
<path d="M76.5 207.5L77.75 201M84.5 207.5L81.75 201M81.75 201L79 194.5L77.75 201M81.75 201H77.75M85.5 194C86.6716 199.272 87.3284 202.228 88.5 207.5L94.5 206M94.5 194.5L101 198L102.5 193L99.5 207" stroke="black"/>
<path d="M200.313 141.349C200.643 138.643 201.228 136.618 202.047 134.083C202.169 133.707 202.082 133.265 202.097 132.876C202.121 132.222 202.543 131.707 202.543 131.04C202.543 130.131 202.721 129.466 202.989 128.602C203.248 127.764 204.054 124.92 203.311 124.18C203.044 123.915 201.668 123.938 201.477 124.279C200.892 125.327 200.646 126.734 200.264 127.875C199.655 129.692 198.743 131.278 198.133 133.097C197.547 134.846 197.419 136.628 196.634 138.344C196.276 139.127 195.627 139.834 195.359 140.635C195.019 141.647 194.314 142.356 193.959 143.344C193.457 144.743 193.001 147.312 191.618 148" stroke="black" stroke-linecap="round"/>
<path d="M189.618 116C192.236 116 189.678 116 192.314 116C194.028 116 195.842 117 197.618 117" stroke="black" stroke-linecap="round"/>
<path d="M196.618 119C197.155 120.318 197.745 120.955 197.792 122.311C197.82 123.138 198.444 124 198.496 124.8C198.543 125.528 198.773 126.934 198.444 127.6C198.163 128.169 197.618 128.496 197.322 129" stroke="black" stroke-linecap="round"/>
<path d="M187.118 143C187.054 140.605 186.618 138.284 186.618 135.864C186.618 133.77 187.47 131.107 188.979 129.452C190.52 127.761 191.618 131.301 191.618 132.119C191.618 134.284 191.368 136.375 191.368 138.52" stroke="black" stroke-linecap="round"/>
<path d="M168.618 125C169.797 125.667 171.116 126.117 172.219 126.774C173.029 127.257 173.496 128.216 174.357 128.571C174.953 128.817 175.668 130.575 175.807 131.157C176.069 132.247 176.313 133.291 176.483 134.391C176.78 136.32 176.495 138.496 176.495 140.443C176.495 143.296 176.495 146.148 176.495 149" stroke="black" stroke-linecap="round"/>
<path d="M161.618 138C162.072 140.691 162.143 143.386 162.868 146.033C163.168 147.127 163.233 150.368 164.618 151" stroke="black" stroke-linecap="round"/>
<path d="M154.945 132C154.9 134.048 154.305 136.594 154.84 138.642C155.131 139.755 155.546 141.431 156.618 142" stroke="black" stroke-linecap="round"/>
<path d="M147.116 130C147.624 131.29 147.866 132.599 147.866 133.955C147.866 135.505 148.365 136.949 148.365 138.498C148.365 140.609 148.365 142.719 148.365 144.829C148.365 145.916 148.615 146.959 148.615 148.058C148.615 149.065 148.71 149.281 147.81 149.88C146.392 150.823 145.618 145.923 145.618 145.567" stroke="black" stroke-linecap="round"/>
<path d="M139.618 124C141.947 126.01 142.236 124.728 140.515 127" stroke="black" stroke-linecap="round"/>
<path d="M133.618 127C133.618 128.631 134.037 130.201 134.037 131.82C134.037 132.511 134.08 133.087 134.285 133.744C134.365 134 134.193 134.448 134.385 134.66C134.53 134.818 134.447 135.135 134.455 135.334C134.47 135.68 134.674 136.042 134.742 136.385C134.959 137.477 135.343 138.596 135.44 139.707C135.484 140.217 135.79 140.737 135.92 141.24C136.016 141.609 135.945 141.981 136.099 142.333C136.537 143.337 136.527 144.533 136.858 145.556C137.144 146.439 137.387 147.347 137.944 148.112C138.252 148.536 138.655 148.994 138.92 149.418C139.045 149.618 139.442 149.758 139.618 150" stroke="black" stroke-linecap="round"/>
<path d="M128.811 146C128.625 144.67 128.584 143.404 128.556 142.067C128.538 141.215 128.086 140.39 127.947 139.552C127.867 139.072 127.756 138.66 127.635 138.193C127.511 137.714 127.589 137.232 127.472 136.754C127.312 136.101 127.465 135.408 127.344 134.745C127.21 134.006 127.118 133.312 126.898 132.598C126.651 131.797 126.844 130.941 126.671 130.125C126.571 129.654 126.643 129.109 126.643 128.629C126.643 128.016 126.63 127.495 126.834 126.916C126.939 126.618 127.114 125.164 127.479 125.058C128.516 124.756 129.759 125.683 129.931 126.8C130.251 128.878 130.465 131.034 131.044 133.067C131.35 134.143 131.16 135.269 131.427 136.357C131.592 137.031 131.618 137.631 131.618 138.323" stroke="black" stroke-linecap="round"/>
<path d="M124.618 116C123.527 115.855 122.483 115.676 121.396 115.594C120.48 115.526 119.512 115 118.618 115" stroke="black" stroke-linecap="round"/>
<path d="M118.618 118C118.618 119.343 118.618 120.686 118.618 122.03C118.618 122.978 118.702 125.512 119.618 126" stroke="black" stroke-linecap="round"/>
<path d="M117.618 129C118.033 130.128 118.423 131.228 118.673 132.382C118.846 133.183 118.949 133.997 119.305 134.75C119.642 135.461 119.653 136.471 119.798 137.243C119.944 138.022 120.561 138.683 120.712 139.451C120.995 140.902 121.703 142.858 122.821 143.993C124.313 145.508 125.004 147.565 126.618 149" stroke="black" stroke-linecap="round"/>
<path d="M111.618 118C111.618 118.998 111.618 119.99 111.618 121" stroke="black" stroke-linecap="round"/>
<path d="M114.618 134.578C114.229 133.277 113.548 132.177 113.516 130.818C113.492 129.761 113.1 128.981 112.69 128.016C112.424 127.389 112.373 126.802 112.14 126.171C111.988 125.761 112.02 125.193 111.788 124.827C111.669 124.64 111.463 124.511 111.344 124.313C110.899 123.568 110.663 122.109 109.799 121.623C109.468 121.437 109.397 121.018 108.973 121.018C108.542 121.018 108.13 120.894 107.948 121.299C107.182 122.999 107.949 125.106 108.254 126.819C108.548 128.47 108.944 129.976 109.738 131.48C109.85 131.694 109.776 131.935 109.807 132.163C109.843 132.429 110.051 132.62 110.074 132.902C110.106 133.285 110.464 133.555 110.594 133.916C111.156 135.467 112.147 136.866 113.379 138" stroke="black" stroke-linecap="round"/>
<path d="M192.518 122.172H120.797C119.431 122.355 120.234 121.585 121.426 120.345L130.234 110.596C130.379 110.355 130.529 110.167 130.788 109.987L130.234 77.087C130.208 74.169 131.559 73.8849 134.638 74.0407H176.79C182.028 73.7856 183.489 74.6729 183.081 78.3056V109.987L192.518 120.954C193.581 122.23 193.247 122.246 192.518 122.172Z" fill="white"/>
<path d="M183.081 109.987L192.518 120.954C193.581 122.23 193.247 122.246 192.518 122.172H120.797C119.431 122.355 120.234 121.585 121.426 120.345L130.234 110.596C130.379 110.355 130.529 110.167 130.788 109.987M183.081 109.987C182.5 109.677 181.921 109.531 179.936 109.378H132.121C131.467 109.609 131.065 109.794 130.788 109.987M183.081 109.987V78.3056C183.489 74.6729 182.028 73.7856 176.79 74.0407H134.638C131.559 73.8849 130.208 74.169 130.234 77.087L130.788 109.987M120.168 122.781C118.91 122.172 120.016 123.712 121.426 124H191.889C192.847 123.496 194.406 121.563 193.147 122.781M145.962 118.517H167.353V117.298C158.999 117.298 154.316 117.298 145.962 117.298M173.998 117.907C174.981 117.907 175.532 117.907 176.514 117.907H177.144M141.558 117.298L140.929 118.517H144.075L144.704 117.298C143.476 117.298 142.787 117.298 141.558 117.298ZM137.154 117.298L136.525 118.517H138.413L139.042 117.298H137.154ZM132.121 117.298L131.492 119.126H133.38L134.638 117.298H132.121ZM169.869 117.298L171.128 119.126H172.386L171.757 117.298H169.869ZM179.306 118.517H181.823L181.194 117.298H178.048L178.677 118.517H179.306ZM132.121 77.087V104.504H181.194V77.087H132.121Z" stroke="black"/>
<path d="M58.6648 54.7273H59.5455V59.9261C59.5455 60.3902 59.4602 60.7843 59.2898 61.1087C59.1193 61.433 58.879 61.6792 58.5689 61.8473C58.2588 62.0154 57.893 62.0994 57.4716 62.0994C57.0739 62.0994 56.7199 62.0272 56.4098 61.8828C56.0997 61.736 55.8558 61.5277 55.6783 61.2578C55.5007 60.9879 55.4119 60.6671 55.4119 60.2955H56.2784C56.2784 60.5014 56.3293 60.6813 56.4311 60.8352C56.5353 60.9867 56.6773 61.1051 56.8572 61.1903C57.0372 61.2756 57.242 61.3182 57.4716 61.3182C57.7249 61.3182 57.9403 61.2649 58.1179 61.1584C58.2955 61.0518 58.4304 60.8956 58.5227 60.6896C58.6174 60.4813 58.6648 60.2268 58.6648 59.9261V54.7273ZM65.2876 56.5455C65.245 56.1856 65.0722 55.9062 64.7692 55.7074C64.4661 55.5085 64.0945 55.4091 63.6541 55.4091C63.3321 55.4091 63.0504 55.4612 62.8089 55.5653C62.5698 55.6695 62.3828 55.8127 62.2479 55.995C62.1153 56.1773 62.049 56.3845 62.049 56.6165C62.049 56.8106 62.0952 56.9775 62.1875 57.1172C62.2822 57.2545 62.4029 57.3693 62.5497 57.4616C62.6965 57.5516 62.8504 57.6262 63.0114 57.6854C63.1723 57.7422 63.3203 57.7884 63.4553 57.8239L64.1939 58.0227C64.3833 58.0724 64.594 58.1411 64.826 58.2287C65.0604 58.3163 65.2841 58.4358 65.4972 58.5874C65.7126 58.7365 65.8902 58.9283 66.0298 59.1626C66.1695 59.397 66.2393 59.6847 66.2393 60.0256C66.2393 60.4186 66.1364 60.7737 65.9304 61.0909C65.7268 61.4081 65.4285 61.6603 65.0355 61.8473C64.6449 62.0343 64.1702 62.1278 63.6115 62.1278C63.0907 62.1278 62.6397 62.0438 62.2585 61.8757C61.8797 61.7076 61.5814 61.4732 61.3636 61.1726C61.1482 60.8719 61.0263 60.5227 60.9979 60.125H61.907C61.9306 60.3996 62.023 60.6269 62.1839 60.8068C62.3473 60.9844 62.5533 61.117 62.8018 61.2045C63.0528 61.2898 63.3227 61.3324 63.6115 61.3324C63.9477 61.3324 64.2495 61.2779 64.517 61.169C64.7846 61.0578 64.9964 60.9039 65.1527 60.7074C65.3089 60.5085 65.3871 60.2765 65.3871 60.0114C65.3871 59.7699 65.3196 59.5734 65.1847 59.4219C65.0497 59.2704 64.8722 59.1473 64.652 59.0526C64.4318 58.9579 64.1939 58.875 63.9382 58.804L63.0433 58.5483C62.4751 58.3849 62.0253 58.1518 61.6939 57.8487C61.3625 57.5457 61.1967 57.1491 61.1967 56.6591C61.1967 56.2519 61.3068 55.8968 61.527 55.5938C61.7495 55.2884 62.0478 55.0516 62.4219 54.8835C62.7983 54.7131 63.2185 54.6278 63.6825 54.6278C64.1513 54.6278 64.5679 54.7119 64.9325 54.88C65.2971 55.0457 65.5859 55.273 65.799 55.5618C66.0144 55.8506 66.1281 56.1785 66.1399 56.5455H65.2876Z" fill="black"/>
<path fill-rule="evenodd" clip-rule="evenodd" d="M78.9312 24.8814C79.2119 21.9179 78.7748 20.7304 74.9388 21.0507H54.0899V28.7121C53.8846 30.1963 53.3505 30.7334 51.4283 31.0105H43V51.696H78.9312V24.8814ZM70.5029 39.4379L63.849 35.9903V37.5226L67.3977 39.4379C68.7102 40.1065 68.1968 40.4145 67.3977 40.9701L63.849 42.5024V44.4177L70.5029 40.9701C71.4035 40.5149 71.5227 40.1983 70.5029 39.4379ZM57.6386 44.4177L60.7438 35.9903H62.5182L59.8566 44.4177H57.6386ZM49.6539 39.4379L56.3078 35.9903V37.5226L52.7591 39.4379C51.4466 40.1065 51.96 40.4145 52.7591 40.9701L56.3078 42.5024V44.4177L49.6539 40.9701C48.7533 40.5149 48.6341 40.1983 49.6539 39.4379Z" fill="#FFDFF0"/>
<path d="M54.0899 21.0507L43 31.0105H51.4283C53.3505 30.7334 53.8846 30.1963 54.0899 28.7121V21.0507Z" fill="white"/>
<path d="M74.9388 21.0507V21.5507H74.9597L74.9804 21.549L74.9388 21.0507ZM78.9312 24.8814L78.4334 24.8342L78.4312 24.8578V24.8814H78.9312ZM78.9312 61.2727L79.4203 61.3762L79.4312 61.325V61.2727H78.9312ZM74.9388 63.9541L74.9825 63.456L74.9607 63.4541H74.9388V63.9541ZM46.9924 63.9541L46.9759 64.4539L46.9841 64.4541H46.9924V63.9541ZM43 61.2727H42.5V61.2987L42.5027 61.3247L43 61.2727ZM43 31.0105L42.6659 30.6384L42.5 30.7875V31.0105H43ZM54.0899 21.0507V20.5507H53.8983L53.7558 20.6787L54.0899 21.0507ZM54.0899 28.7121L54.5852 28.7805L54.5899 28.7465V28.7121H54.0899ZM51.4283 31.0105V31.5105H51.4641L51.4996 31.5053L51.4283 31.0105ZM63.849 35.9903L64.079 35.5463L63.349 35.1681V35.9903H63.849ZM70.5029 39.4379L70.8018 39.037L70.7691 39.0127L70.7329 38.9939L70.5029 39.4379ZM70.5029 40.9701L70.2773 40.5239L70.2729 40.5262L70.5029 40.9701ZM63.849 44.4177H63.349V45.2399L64.079 44.8617L63.849 44.4177ZM63.849 42.5024L63.6508 42.0434L63.349 42.1737V42.5024H63.849ZM67.3977 40.9701L67.5959 41.4292L67.642 41.4093L67.6831 41.3807L67.3977 40.9701ZM67.3977 39.4379L67.1602 39.878L67.1707 39.8834L67.3977 39.4379ZM63.849 37.5226H63.349V37.8209L63.6115 37.9626L63.849 37.5226ZM60.7438 35.9903V35.4903H60.3952L60.2746 35.8174L60.7438 35.9903ZM57.6386 44.4177L57.1695 44.2449L56.9215 44.9177H57.6386V44.4177ZM59.8566 44.4177V44.9177H60.223L60.3334 44.5683L59.8566 44.4177ZM62.5182 35.9903L62.995 36.1409L63.2004 35.4903H62.5182V35.9903ZM56.3078 35.9903H56.8078V35.1681L56.0778 35.5463L56.3078 35.9903ZM49.6539 39.4379L49.4239 38.9939L49.3877 39.0127L49.355 39.037L49.6539 39.4379ZM49.6539 40.9701L49.884 40.5262L49.8795 40.5239L49.6539 40.9701ZM56.3078 44.4177L56.0778 44.8617L56.8078 45.2399V44.4177H56.3078ZM56.3078 42.5024H56.8078V42.1737L56.506 42.0434L56.3078 42.5024ZM52.7591 40.9701L52.4736 41.3807L52.5148 41.4093L52.5609 41.4292L52.7591 40.9701ZM52.7591 39.4379L52.9861 39.8835L52.9966 39.8779L52.7591 39.4379ZM56.3078 37.5226L56.5453 37.9626L56.8078 37.8209V37.5226H56.3078ZM74.9804 21.549C75.9197 21.4706 76.6138 21.4883 77.1245 21.5881C77.6286 21.6866 77.921 21.8583 78.1039 22.0655C78.2895 22.2758 78.414 22.5811 78.4686 23.0459C78.5237 23.5146 78.5028 24.1015 78.4334 24.8342L79.4289 24.9285C79.4999 24.1796 79.5296 23.5067 79.4618 22.9293C79.3935 22.3479 79.2216 21.8207 78.8536 21.4037C78.4828 20.9836 77.9642 20.7333 77.3163 20.6067C76.6749 20.4813 75.8759 20.4707 74.8972 20.5525L74.9804 21.549ZM78.442 61.1691C78.204 62.2929 77.9037 62.8517 77.4678 63.1488C77.0178 63.4555 76.2987 63.5713 74.9825 63.456L74.8952 64.4522C76.237 64.5698 77.2709 64.4932 78.031 63.9751C78.8051 63.4475 79.1719 62.5492 79.4203 61.3762L78.442 61.1691ZM74.9388 63.4541H46.9924V64.4541H74.9388V63.4541ZM47.0088 63.4544C46.4035 63.4345 45.8936 63.4159 45.4537 63.3621C45.0143 63.3084 44.6819 63.2233 44.4249 63.0905C43.9698 62.8553 43.6209 62.4018 43.4973 61.2206L42.5027 61.3247C42.6444 62.6791 43.0913 63.5269 43.9658 63.9789C44.3737 64.1896 44.8395 64.2945 45.3323 64.3548C45.8246 64.4149 46.3808 64.4343 46.9759 64.4539L47.0088 63.4544ZM43.3341 31.3825L54.424 21.4227L53.7558 20.6787L42.6659 30.6384L43.3341 31.3825ZM54.0899 21.5507H74.9388V20.5507H54.0899V21.5507ZM43.5 61.2727V51.696H42.5V61.2727H43.5ZM43.5 51.696V31.0105H42.5V51.696H43.5ZM78.4312 24.8814V51.696H79.4312V24.8814H78.4312ZM78.4312 51.696V61.2727H79.4312V51.696H78.4312ZM43 52.196H78.9312V51.196H43V52.196ZM53.5899 21.0507V28.7121H54.5899V21.0507H53.5899ZM53.5946 28.6436C53.4974 29.3465 53.3359 29.705 53.0711 29.9399C52.788 30.1911 52.3014 30.3794 51.357 30.5156L51.4996 31.5053C52.4774 31.3644 53.2189 31.1457 53.7348 30.6879C54.2689 30.2141 54.4771 29.5618 54.5852 28.7805L53.5946 28.6436ZM51.4283 30.5105H43V31.5105H51.4283V30.5105ZM63.6189 36.4342L70.2729 39.8818L70.7329 38.9939L64.079 35.5463L63.6189 36.4342ZM70.204 39.8387C70.4481 40.0207 70.5938 40.1546 70.6735 40.2516C70.7561 40.352 70.7197 40.3537 70.7241 40.2863C70.7289 40.212 70.7721 40.2043 70.6989 40.2677C70.6251 40.3316 70.4939 40.4144 70.2773 40.5239L70.7284 41.4164C70.9622 41.2982 71.1836 41.1708 71.3536 41.0235C71.5242 40.8758 71.7023 40.656 71.722 40.3506C71.7413 40.0521 71.5998 39.8036 71.446 39.6166C71.2894 39.4261 71.0676 39.2353 70.8018 39.037L70.204 39.8387ZM70.2729 40.5262L63.6189 43.9738L64.079 44.8617L70.7329 41.4141L70.2729 40.5262ZM64.349 44.4177V42.5024H63.349V44.4177H64.349ZM64.0472 42.9614L67.5959 41.4292L67.1995 40.5111L63.6508 42.0434L64.0472 42.9614ZM67.6831 41.3807C67.8716 41.2496 68.0786 41.1094 68.2408 40.9734C68.3907 40.8476 68.5953 40.6525 68.6712 40.3808C68.7651 40.0441 68.6286 39.7516 68.4278 39.5384C68.2432 39.3424 67.9663 39.1664 67.6247 38.9924L67.1707 39.8834C67.4854 40.0437 67.6365 40.1569 67.6999 40.2241C67.7279 40.2538 67.7197 40.255 67.7104 40.2268C67.6986 40.1911 67.6979 40.1482 67.708 40.112C67.7196 40.0703 67.7281 40.0982 67.598 40.2073C67.4802 40.3062 67.3234 40.4129 67.1123 40.5596L67.6831 41.3807ZM67.6352 38.9979L64.0864 37.0825L63.6115 37.9626L67.1602 39.8779L67.6352 38.9979ZM64.349 37.5226V35.9903H63.349V37.5226H64.349ZM60.2746 35.8174L57.1695 44.2449L58.1078 44.5906L61.213 36.1632L60.2746 35.8174ZM57.6386 44.9177H59.8566V43.9177H57.6386V44.9177ZM60.3334 44.5683L62.995 36.1409L62.0414 35.8397L59.3798 44.2672L60.3334 44.5683ZM62.5182 35.4903H60.7438V36.4903H62.5182V35.4903ZM56.0778 35.5463L49.4239 38.9939L49.8839 39.8818L56.5379 36.4342L56.0778 35.5463ZM49.355 39.037C49.0892 39.2353 48.8674 39.4261 48.7108 39.6166C48.557 39.8036 48.4155 40.0521 48.4348 40.3506C48.4545 40.656 48.6326 40.8758 48.8032 41.0235C48.9732 41.1708 49.1946 41.2982 49.4283 41.4164L49.8795 40.5239C49.6629 40.4144 49.5317 40.3316 49.4579 40.2677C49.3847 40.2043 49.4279 40.212 49.4327 40.2863C49.4371 40.3537 49.4007 40.352 49.4833 40.2516C49.563 40.1546 49.7087 40.0207 49.9528 39.8387L49.355 39.037ZM49.4239 41.4141L56.0778 44.8617L56.5379 43.9738L49.8839 40.5262L49.4239 41.4141ZM56.8078 44.4177V42.5024H55.8078V44.4177H56.8078ZM56.506 42.0434L52.9573 40.5111L52.5609 41.4292L56.1096 42.9614L56.506 42.0434ZM53.0445 40.5596C52.8334 40.4129 52.6766 40.3062 52.5588 40.2073C52.4287 40.0982 52.4372 40.0703 52.4488 40.112C52.4589 40.1482 52.4582 40.1911 52.4464 40.2268C52.4371 40.255 52.4289 40.2538 52.4569 40.2241C52.5203 40.1569 52.6714 40.0437 52.986 39.8834L52.5321 38.9924C52.1905 39.1664 51.9136 39.3424 51.729 39.5384C51.5282 39.7516 51.3917 40.0441 51.4856 40.3808C51.5614 40.6525 51.7661 40.8476 51.916 40.9734C52.0782 41.1094 52.2852 41.2496 52.4736 41.3807L53.0445 40.5596ZM52.9966 39.8779L56.5453 37.9626L56.0704 37.0825L52.5216 38.9979L52.9966 39.8779ZM56.8078 37.5226V35.9903H55.8078V37.5226H56.8078Z" fill="black"/>
<path d="M32.6975 82C35.8875 89.3814 21.2606 93.9398 19.9012 100.089C18.6551 105.739 28.5922 112.305 28.6012 112.305C27.0923 109.967 25.9822 108.041 24.4687 104.403C21.9086 98.2491 40.0608 92.6802 32.6975 82ZM42.4125 92.2225C42.4125 92.2225 29.58 93.0472 28.9275 101.249C28.6375 104.901 32.3033 106.822 32.4075 109.477C32.4936 111.648 30.2325 113.465 30.2325 113.465C30.2325 113.465 34.3469 112.681 35.6337 109.369C37.0611 105.694 32.8515 103.211 33.2775 100.27C33.6853 97.4561 42.4125 92.2225 42.4125 92.2225ZM22.2575 111.181C22.2575 111.181 10.5125 111.014 10.5125 114.335C10.5125 117.806 25.887 118.064 36.8662 115.93C36.8662 115.93 39.7844 113.923 40.5637 113.175C33.3681 114.643 16.965 114.806 16.965 113.537C16.965 112.368 22.2575 111.181 22.2575 111.181ZM44.8412 111.181C43.6903 111.272 42.4487 111.716 41.325 112.522C43.9712 111.952 46.2187 113.592 46.2187 115.459C46.2187 119.664 40.1287 123.615 40.1287 123.615C40.1287 123.615 49.5537 122.546 49.5537 115.64C49.5537 112.504 47.3742 110.982 44.8412 111.181ZM19.43 117.634C17.6265 117.634 14.935 119.048 14.935 120.389C14.935 123.085 28.4925 125.16 38.5337 121.222L35.0537 119.084C28.2478 121.263 15.7144 120.552 19.43 117.634ZM21.0975 123.688C18.628 123.688 17.0012 125.178 17.0012 126.298C17.0012 129.759 31.7505 130.108 37.5912 126.587L33.8937 124.231C29.5301 126.075 18.5781 126.356 21.0975 123.688ZM12.8687 126.805C8.84499 126.723 6.23499 128.531 6.23499 130.031C6.23499 138.006 47.415 137.639 47.415 129.487C47.415 128.133 45.8517 127.476 45.2762 127.167C48.643 134.961 11.5637 134.34 11.5637 129.741C11.5637 128.695 14.2915 127.693 16.82 128.182L14.6812 126.95C14.0514 126.855 13.4442 126.819 12.8687 126.805ZM51.765 132.17C45.5028 138.106 29.6344 140.258 13.6662 136.592C29.6298 143.127 51.688 139.461 51.765 132.17Z" fill="black"/>
<path d="M125.5 2C121.198 2 118.279 2.96875 116.424 4.375C114.569 5.78125 113.84 7.58984 113.84 9.09375V14H124.44V15H108.639C106.702 15 104.735 15.793 103.339 17.4688C101.944 19.1445 101.12 21.6445 101.12 25C101.12 28.3555 101.944 30.8555 103.339 32.5312C104.735 34.207 106.702 35 108.639 35H113.84V40.9062C113.84 42.4102 114.569 44.2188 116.424 45.625C118.279 47.0312 121.198 48 125.5 48C129.802 48 132.721 47.0312 134.576 45.625C136.431 44.2188 137.16 42.4102 137.16 40.9062V36H126.56V35H142.361C144.298 35 146.265 34.207 147.661 32.5312C149.056 30.8555 149.88 28.3555 149.88 25C149.88 21.6445 149.056 19.1445 147.661 17.4688C146.265 15.793 144.298 15 142.361 15H137.16V9.09375C137.16 7.55078 136.435 5.73828 134.576 4.34375C132.717 2.94922 129.798 2 125.5 2ZM125.5 4C129.471 4 131.877 4.875 133.251 5.90625C134.626 6.9375 135.04 8.13672 135.04 9.09375V21C135.04 22.6562 133.616 24 131.86 24H119.14C116.958 24 115.078 25.2695 114.271 27.0625C114.134 27.3594 114.01 27.6758 113.939 28C113.869 28.3242 113.84 28.6562 113.84 29V33H108.639C107.294 33 106.047 32.5039 105.029 31.2812C104.01 30.0586 103.24 28.043 103.24 25C103.24 21.957 104.01 19.9414 105.029 18.7188C106.047 17.4961 107.294 17 108.639 17H126.56V12H115.96V9.09375C115.96 8.19922 116.37 6.98047 117.749 5.9375C119.128 4.89453 121.533 4 125.5 4ZM120.2 7C119.032 7 118.08 7.89844 118.08 9C118.08 10.1016 119.032 11 120.2 11C121.368 11 122.32 10.1016 122.32 9C122.32 7.89844 121.368 7 120.2 7ZM137.16 17H142.361C143.706 17 144.953 17.4961 145.971 18.7188C146.99 19.9414 147.76 21.957 147.76 25C147.76 28.043 146.99 30.0586 145.971 31.2812C144.953 32.5039 143.706 33 142.361 33H124.44V38H135.04V40.9062C135.04 41.8008 134.63 43.0195 133.251 44.0625C131.872 45.1055 129.467 46 125.5 46C121.533 46 119.128 45.1055 117.749 44.0625C116.37 43.0195 115.96 41.8008 115.96 40.9062V29C115.96 28.793 115.985 28.6016 116.026 28.4062C116.324 27.0391 117.604 26 119.14 26H131.86C134.771 26 137.16 23.7461 137.16 21V17ZM130.8 39C129.632 39 128.68 39.8984 128.68 41C128.68 42.1016 129.632 43 130.8 43C131.968 43 132.92 42.1016 132.92 41C132.92 39.8984 131.968 39 130.8 39Z" fill="black"/>
<path d="M184.5 4.2C183.714 4.2 182.932 4.39765 182.227 4.79297L163.699 15.2043C162.289 15.9992 161.4 17.4816 161.4 19.0887V39.9113C161.4 41.5227 162.289 43.0051 163.699 43.8L182.227 54.207C183.636 55.0019 185.364 55.0019 186.773 54.207L205.301 43.8C206.715 43.0051 207.6 41.5184 207.6 39.9113V19.0887C207.6 17.4816 206.711 15.9992 205.301 15.2043L186.773 4.79297C186.068 4.39765 185.286 4.2 184.5 4.2ZM184.5 6.4C184.913 6.4 185.329 6.50312 185.699 6.70937L204.227 17.1207C204.962 17.5375 205.4 18.2852 205.4 19.0887V39.9113C205.4 40.7148 204.962 41.4625 204.223 41.8793L185.699 52.2906C184.96 52.7031 184.04 52.7031 183.301 52.2906L164.777 41.8793C164.038 41.4625 163.6 40.7191 163.6 39.9113V19.0887C163.6 18.2852 164.038 17.5375 164.777 17.1207L183.301 6.70937C183.671 6.50312 184.088 6.4 184.5 6.4ZM184.5 15.2C176.624 15.2 170.2 21.6238 170.2 29.5C170.2 37.3762 176.624 43.8 184.5 43.8C188.999 43.8 193.175 41.7031 195.874 38.1496L196.626 37.157L189.966 33.2984L189.364 33.9516C188.122 35.3094 186.361 36.1 184.5 36.1C180.852 36.1 177.9 33.148 177.9 29.5C177.9 25.852 180.852 22.9 184.5 22.9C186.361 22.9 188.122 23.6906 189.364 25.0484L189.966 25.7016L196.626 21.843L195.874 20.8504C193.175 17.2969 188.999 15.2 184.5 15.2ZM184.5 17.4C187.882 17.4 190.975 18.848 193.24 21.2629L190.223 23.0074C188.634 21.6152 186.657 20.7 184.5 20.7C179.657 20.7 175.7 24.6574 175.7 29.5C175.7 34.3426 179.657 38.3 184.5 38.3C186.657 38.3 188.634 37.3848 190.223 35.9926L193.24 37.7371C190.975 40.152 187.882 41.6 184.5 41.6C177.818 41.6 172.4 36.1816 172.4 29.5C172.4 22.8184 177.818 17.4 184.5 17.4Z" fill="black"/>
<path d="M194 26.5V28.5V29.5V32H195V29.5V28.5V26.5H194Z" fill="black"/>
<path d="M194 29.5V28.5H192V29.5H194Z" fill="black"/>
<path d="M195 28.5V29.5H196.626V28.5H195Z" fill="black"/>
<path d="M199.5 26.5V28.5V29.5V32H200.5V29.5V28.5V26.5H199.5Z" fill="black"/>
<path d="M199.5 29.5V28.5H197.5V29.5H199.5Z" fill="black"/>
<path d="M200.5 28.5V29.5H202.126V28.5H200.5Z" fill="black"/>
<path d="M254.426 62.1304H220.968C219.556 62.2545 219.113 62.6718 219 64.087V78.1739C219.498 79.0587 219.896 79.3659 220.968 79.3478H221.362H254.426C255.401 79.1679 255.727 78.8961 256 78.1739V64.087C255.883 63.2264 255.698 62.767 254.426 62.1304Z" fill="#FFDFF0"/>
<path d="M220.968 62.1304C220.968 53.8785 220.968 49.2519 220.968 41H248.521M220.968 62.1304H254.426M220.968 62.1304C219.556 62.2545 219.113 62.6718 219 64.087V78.1739C219.498 79.0587 219.896 79.3659 220.968 79.3478H221.362M254.426 62.1304V45.6957M254.426 62.1304C255.698 62.767 255.883 63.2264 256 64.087V78.1739C255.727 78.8961 255.401 79.1679 254.426 79.3478M254.426 45.6957L248.521 41M254.426 45.6957H248.521V41M254.426 79.3478H221.362M254.426 79.3478V86H221.362V79.3478" stroke="black"/>
<path d="M233.08 70H232.023C231.96 69.696 231.851 69.429 231.695 69.1989C231.541 68.9688 231.354 68.7756 231.132 68.6193C230.913 68.4602 230.67 68.3409 230.403 68.2614C230.136 68.1818 229.858 68.142 229.568 68.142C229.04 68.142 228.561 68.2756 228.132 68.5426C227.706 68.8097 227.366 69.2031 227.114 69.723C226.864 70.2429 226.739 70.8807 226.739 71.6364C226.739 72.392 226.864 73.0298 227.114 73.5497C227.366 74.0696 227.706 74.4631 228.132 74.7301C228.561 74.9972 229.04 75.1307 229.568 75.1307C229.858 75.1307 230.136 75.0909 230.403 75.0114C230.67 74.9318 230.913 74.8139 231.132 74.6577C231.354 74.4986 231.541 74.304 231.695 74.0739C231.851 73.8409 231.96 73.5739 232.023 73.2727H233.08C233 73.7187 232.855 74.1179 232.645 74.4702C232.435 74.8224 232.173 75.1222 231.861 75.3693C231.548 75.6136 231.197 75.7997 230.808 75.9276C230.422 76.0554 230.009 76.1193 229.568 76.1193C228.824 76.1193 228.162 75.9375 227.582 75.5739C227.003 75.2102 226.547 74.6932 226.214 74.0227C225.882 73.3523 225.716 72.5568 225.716 71.6364C225.716 70.7159 225.882 69.9205 226.214 69.25C226.547 68.5795 227.003 68.0625 227.582 67.6989C228.162 67.3352 228.824 67.1534 229.568 67.1534C230.009 67.1534 230.422 67.2173 230.808 67.3452C231.197 67.473 231.548 67.6605 231.861 67.9077C232.173 68.152 232.435 68.4503 232.645 68.8026C232.855 69.152 233 69.5511 233.08 70ZM239.56 69.4545C239.509 69.0227 239.301 68.6875 238.938 68.4489C238.574 68.2102 238.128 68.0909 237.6 68.0909C237.213 68.0909 236.875 68.1534 236.586 68.2784C236.299 68.4034 236.074 68.5753 235.912 68.794C235.753 69.0128 235.674 69.2614 235.674 69.5398C235.674 69.7727 235.729 69.973 235.84 70.1406C235.953 70.3054 236.098 70.4432 236.275 70.554C236.451 70.6619 236.635 70.7514 236.828 70.8224C237.022 70.8906 237.199 70.946 237.361 70.9886L238.248 71.2273C238.475 71.2869 238.728 71.3693 239.006 71.4744C239.287 71.5795 239.556 71.723 239.811 71.9048C240.07 72.0838 240.283 72.3139 240.451 72.5952C240.618 72.8764 240.702 73.2216 240.702 73.6307C240.702 74.1023 240.578 74.5284 240.331 74.9091C240.087 75.2898 239.729 75.5923 239.257 75.8168C238.789 76.0412 238.219 76.1534 237.549 76.1534C236.924 76.1534 236.382 76.0526 235.925 75.8509C235.471 75.6491 235.113 75.3679 234.851 75.0071C234.593 74.6463 234.446 74.2273 234.412 73.75H235.503C235.532 74.0795 235.642 74.3523 235.836 74.5682C236.032 74.7812 236.279 74.9403 236.577 75.0455C236.878 75.1477 237.202 75.1989 237.549 75.1989C237.952 75.1989 238.314 75.1335 238.635 75.0028C238.956 74.8693 239.211 74.6847 239.398 74.4489C239.586 74.2102 239.679 73.9318 239.679 73.6136C239.679 73.3239 239.598 73.0881 239.436 72.9062C239.275 72.7244 239.061 72.5767 238.797 72.4631C238.533 72.3494 238.248 72.25 237.941 72.1648L236.867 71.858C236.185 71.6619 235.645 71.3821 235.248 71.0185C234.85 70.6548 234.651 70.179 234.651 69.5909C234.651 69.1023 234.783 68.6761 235.047 68.3125C235.314 67.946 235.672 67.6619 236.121 67.4602C236.573 67.2557 237.077 67.1534 237.634 67.1534C238.196 67.1534 238.696 67.2543 239.134 67.456C239.571 67.6548 239.918 67.9276 240.174 68.2741C240.432 68.6207 240.569 69.0142 240.583 69.4545H239.56ZM247.212 69.4545C247.161 69.0227 246.954 68.6875 246.59 68.4489C246.227 68.2102 245.781 68.0909 245.252 68.0909C244.866 68.0909 244.528 68.1534 244.238 68.2784C243.951 68.4034 243.727 68.5753 243.565 68.794C243.406 69.0128 243.326 69.2614 243.326 69.5398C243.326 69.7727 243.381 69.973 243.492 70.1406C243.606 70.3054 243.751 70.4432 243.927 70.554C244.103 70.6619 244.288 70.7514 244.481 70.8224C244.674 70.8906 244.852 70.946 245.013 70.9886L245.9 71.2273C246.127 71.2869 246.38 71.3693 246.658 71.4744C246.94 71.5795 247.208 71.723 247.464 71.9048C247.722 72.0838 247.935 72.3139 248.103 72.5952C248.271 72.8764 248.354 73.2216 248.354 73.6307C248.354 74.1023 248.231 74.5284 247.984 74.9091C247.739 75.2898 247.381 75.5923 246.91 75.8168C246.441 76.0412 245.871 76.1534 245.201 76.1534C244.576 76.1534 244.035 76.0526 243.577 75.8509C243.123 75.6491 242.765 75.3679 242.504 75.0071C242.245 74.6463 242.099 74.2273 242.065 73.75H243.156C243.184 74.0795 243.295 74.3523 243.488 74.5682C243.684 74.7812 243.931 74.9403 244.229 75.0455C244.531 75.1477 244.854 75.1989 245.201 75.1989C245.604 75.1989 245.967 75.1335 246.288 75.0028C246.609 74.8693 246.863 74.6847 247.05 74.4489C247.238 74.2102 247.332 73.9318 247.332 73.6136C247.332 73.3239 247.251 73.0881 247.089 72.9062C246.927 72.7244 246.714 72.5767 246.45 72.4631C246.185 72.3494 245.9 72.25 245.593 72.1648L244.519 71.858C243.837 71.6619 243.298 71.3821 242.9 71.0185C242.502 70.6548 242.303 70.179 242.303 69.5909C242.303 69.1023 242.435 68.6761 242.7 68.3125C242.967 67.946 243.325 67.6619 243.773 67.4602C244.225 67.2557 244.729 67.1534 245.286 67.1534C245.849 67.1534 246.349 67.2543 246.786 67.456C247.224 67.6548 247.57 67.9276 247.826 68.2741C248.085 68.6207 248.221 69.0142 248.235 69.4545H247.212Z" fill="black"/>
<path d="M291.426 112.13H257.968C256.556 112.254 256.113 112.672 256 114.087V128.174C256.498 129.059 256.896 129.366 257.968 129.348H258.362H291.426C292.401 129.168 292.727 128.896 293 128.174V114.087C292.883 113.226 292.698 112.767 291.426 112.13Z" fill="#FFDFF0"/>
<path d="M257.968 112.13C257.968 103.878 257.968 99.2519 257.968 91H285.521M257.968 112.13H291.426M257.968 112.13C256.556 112.254 256.113 112.672 256 114.087V128.174C256.498 129.059 256.896 129.366 257.968 129.348H258.362M291.426 112.13V95.6957M291.426 112.13C292.698 112.767 292.883 113.226 293 114.087V128.174C292.727 128.896 292.401 129.168 291.426 129.348M291.426 95.6957L285.521 91M291.426 95.6957H285.521V91M291.426 129.348H258.362M291.426 129.348V136H258.362V129.348" stroke="black"/>
<path d="M258.057 125V116.273H259.114V120.159H263.767V116.273H264.824V125H263.767V121.097H259.114V125H258.057ZM266.462 117.21V116.273H273.008V117.21H270.263V125H269.207V117.21H266.462ZM274.639 116.273H275.9L278.866 123.517H278.968L281.934 116.273H283.196V125H282.207V118.369H282.122L279.395 125H278.44L275.713 118.369H275.627V125H274.639V116.273ZM285.315 125V116.273H286.371V124.062H290.428V125H285.315Z" fill="black"/>
</svg>
