<svg width="411" height="315" viewBox="0 0 411 315" fill="none" xmlns="http://www.w3.org/2000/svg">
<path d="M409.5 34.5C410.198 8.90975 403.54 1.78018 380.5 0.5H22C1.49998 0.5 0.249059 15.2763 1.49999 34.5M409.5 34.5V286C406.965 306.042 398.925 311.875 375 314H22C7.48898 308.861 3.66429 302.138 1.49999 286V34.5M409.5 34.5H1.49999M148.5 10V27H363V10H148.5Z" stroke="black"/>
<circle cx="33" cy="19" r="12" fill="#FFDFF0"/>
<circle cx="65" cy="19" r="12" fill="#FFD6CA"/>
<circle cx="97" cy="19" r="12" fill="#FFE685"/>
<line x1="206" y1="100.5" x2="343" y2="100.5" stroke="black"/>
<line x1="208" y1="119.5" x2="252" y2="119.5" stroke="black"/>
<line x1="266" y1="119.5" x2="310" y2="119.5" stroke="black"/>
<line x1="325" y1="119.5" x2="369" y2="119.5" stroke="black"/>
<line x1="208" y1="143.5" x2="345" y2="143.5" stroke="black"/>
<line x1="208" y1="165.5" x2="345" y2="165.5" stroke="black"/>
<line x1="210" y1="183.5" x2="347" y2="183.5" stroke="black"/>
<line x1="210" y1="200.5" x2="254" y2="200.5" stroke="black"/>
<path d="M169.642 22L167.256 13.2727H168.33L170.153 20.3807H170.239L172.097 13.2727H173.29L175.148 20.3807H175.233L177.057 13.2727H178.131L175.744 22H174.653L172.727 15.0455H172.659L170.733 22H169.642ZM181.446 22.1364C180.815 22.1364 180.271 21.9972 179.814 21.7188C179.359 21.4375 179.009 21.0455 178.761 20.5426C178.517 20.0369 178.395 19.4489 178.395 18.7784C178.395 18.108 178.517 17.517 178.761 17.0057C179.009 16.4915 179.352 16.0909 179.793 15.804C180.236 15.5142 180.753 15.3693 181.344 15.3693C181.685 15.3693 182.021 15.4261 182.354 15.5398C182.686 15.6534 182.989 15.8381 183.261 16.0938C183.534 16.3466 183.751 16.6818 183.913 17.0994C184.075 17.517 184.156 18.0312 184.156 18.642V19.0682H179.111V18.1989H183.134C183.134 17.8295 183.06 17.5 182.912 17.2102C182.767 16.9205 182.56 16.6918 182.29 16.5241C182.023 16.3565 181.707 16.2727 181.344 16.2727C180.943 16.2727 180.597 16.3722 180.304 16.571C180.014 16.767 179.791 17.0227 179.635 17.3381C179.479 17.6534 179.401 17.9915 179.401 18.3523V18.9318C179.401 19.4261 179.486 19.8452 179.656 20.1889C179.83 20.5298 180.07 20.7898 180.376 20.9688C180.683 21.1449 181.04 21.233 181.446 21.233C181.71 21.233 181.949 21.196 182.162 21.1222C182.378 21.0455 182.564 20.9318 182.72 20.7812C182.876 20.6278 182.997 20.4375 183.082 20.2102L184.054 20.483C183.952 20.8125 183.78 21.1023 183.538 21.3523C183.297 21.5994 182.999 21.7926 182.643 21.9318C182.288 22.0682 181.889 22.1364 181.446 22.1364ZM185.822 22V13.2727H186.828V16.4943H186.913C186.987 16.3807 187.089 16.2358 187.22 16.0597C187.354 15.8807 187.544 15.7216 187.791 15.5824C188.041 15.4403 188.379 15.3693 188.805 15.3693C189.357 15.3693 189.842 15.5071 190.263 15.7827C190.683 16.0582 191.011 16.4489 191.247 16.9545C191.483 17.4602 191.601 18.0568 191.601 18.7443C191.601 19.4375 191.483 20.0384 191.247 20.5469C191.011 21.0526 190.685 21.4446 190.267 21.723C189.849 21.9986 189.368 22.1364 188.822 22.1364C188.402 22.1364 188.065 22.0668 187.812 21.9276C187.56 21.7855 187.365 21.625 187.229 21.446C187.092 21.2642 186.987 21.1136 186.913 20.9943H186.794V22H185.822ZM186.811 18.7273C186.811 19.2216 186.884 19.6577 187.028 20.0355C187.173 20.4105 187.385 20.7045 187.663 20.9176C187.942 21.1278 188.283 21.233 188.686 21.233C189.107 21.233 189.457 21.1222 189.739 20.9006C190.023 20.6761 190.236 20.375 190.378 19.9972C190.523 19.6165 190.595 19.1932 190.595 18.7273C190.595 18.267 190.524 17.8523 190.382 17.483C190.243 17.1108 190.031 16.8168 189.747 16.6009C189.466 16.3821 189.112 16.2727 188.686 16.2727C188.277 16.2727 187.933 16.3764 187.655 16.5838C187.376 16.7884 187.166 17.0753 187.024 17.4446C186.882 17.8111 186.811 18.2386 186.811 18.7273ZM196.889 17.7898V18.7273H193.071V17.7898H196.889ZM198.795 22V13.2727H201.744C202.429 13.2727 202.988 13.3963 203.423 13.6435C203.86 13.8878 204.184 14.2188 204.395 14.6364C204.605 15.054 204.71 15.5199 204.71 16.0341C204.71 16.5483 204.605 17.0156 204.395 17.4361C204.187 17.8565 203.866 18.1918 203.431 18.4418C202.997 18.6889 202.44 18.8125 201.761 18.8125H199.647V17.875H201.727C202.196 17.875 202.572 17.794 202.856 17.6321C203.14 17.4702 203.346 17.2514 203.474 16.9759C203.605 16.6974 203.67 16.3835 203.67 16.0341C203.67 15.6847 203.605 15.3722 203.474 15.0966C203.346 14.821 203.139 14.6051 202.852 14.4489C202.565 14.2898 202.184 14.2102 201.71 14.2102H199.852V22H198.795ZM206.276 22V15.4545H207.248V16.4432H207.316C207.435 16.1193 207.651 15.8565 207.963 15.6548C208.276 15.4531 208.628 15.3523 209.02 15.3523C209.094 15.3523 209.186 15.3537 209.297 15.3565C209.408 15.3594 209.492 15.3636 209.549 15.3693V16.392C209.515 16.3835 209.436 16.3707 209.314 16.3537C209.195 16.3338 209.069 16.3239 208.935 16.3239C208.617 16.3239 208.333 16.3906 208.083 16.5241C207.836 16.6548 207.64 16.8366 207.495 17.0696C207.353 17.2997 207.282 17.5625 207.282 17.858V22H206.276ZM213.201 22.1364C212.61 22.1364 212.091 21.9957 211.645 21.7145C211.202 21.4332 210.855 21.0398 210.605 20.5341C210.358 20.0284 210.235 19.4375 210.235 18.7614C210.235 18.0795 210.358 17.4844 210.605 16.9759C210.855 16.4673 211.202 16.0724 211.645 15.7912C212.091 15.5099 212.61 15.3693 213.201 15.3693C213.792 15.3693 214.309 15.5099 214.752 15.7912C215.198 16.0724 215.544 16.4673 215.792 16.9759C216.042 17.4844 216.167 18.0795 216.167 18.7614C216.167 19.4375 216.042 20.0284 215.792 20.5341C215.544 21.0398 215.198 21.4332 214.752 21.7145C214.309 21.9957 213.792 22.1364 213.201 22.1364ZM213.201 21.233C213.65 21.233 214.019 21.1179 214.309 20.8878C214.598 20.6577 214.813 20.3551 214.952 19.9801C215.091 19.6051 215.161 19.1989 215.161 18.7614C215.161 18.3239 215.091 17.9162 214.952 17.5384C214.813 17.1605 214.598 16.8551 214.309 16.6222C214.019 16.3892 213.65 16.2727 213.201 16.2727C212.752 16.2727 212.382 16.3892 212.093 16.6222C211.803 16.8551 211.588 17.1605 211.449 17.5384C211.31 17.9162 211.24 18.3239 211.24 18.7614C211.24 19.1989 211.31 19.6051 211.449 19.9801C211.588 20.3551 211.803 20.6577 212.093 20.8878C212.382 21.1179 212.752 21.233 213.201 21.233ZM217.702 15.4545H218.707V22.4773C218.707 22.8807 218.638 23.2301 218.499 23.5256C218.362 23.821 218.155 24.0497 217.876 24.2116C217.601 24.3736 217.253 24.4545 216.832 24.4545C216.798 24.4545 216.764 24.4545 216.73 24.4545C216.696 24.4545 216.662 24.4545 216.628 24.4545V23.517C216.662 23.517 216.693 23.517 216.722 23.517C216.75 23.517 216.781 23.517 216.815 23.517C217.122 23.517 217.347 23.4261 217.489 23.2443C217.631 23.0653 217.702 22.8097 217.702 22.4773V15.4545ZM218.196 14.3636C218 14.3636 217.831 14.2969 217.689 14.1634C217.55 14.0298 217.48 13.8693 217.48 13.6818C217.48 13.4943 217.55 13.3338 217.689 13.2003C217.831 13.0668 218 13 218.196 13C218.392 13 218.56 13.0668 218.699 13.2003C218.841 13.3338 218.912 13.4943 218.912 13.6818C218.912 13.8693 218.841 14.0298 218.699 14.1634C218.56 14.2969 218.392 14.3636 218.196 14.3636ZM223.294 22.1364C222.663 22.1364 222.119 21.9972 221.662 21.7188C221.207 21.4375 220.856 21.0455 220.609 20.5426C220.365 20.0369 220.243 19.4489 220.243 18.7784C220.243 18.108 220.365 17.517 220.609 17.0057C220.856 16.4915 221.2 16.0909 221.64 15.804C222.083 15.5142 222.6 15.3693 223.191 15.3693C223.532 15.3693 223.869 15.4261 224.201 15.5398C224.534 15.6534 224.836 15.8381 225.109 16.0938C225.382 16.3466 225.599 16.6818 225.761 17.0994C225.923 17.517 226.004 18.0312 226.004 18.642V19.0682H220.958V18.1989H224.981C224.981 17.8295 224.907 17.5 224.76 17.2102C224.615 16.9205 224.407 16.6918 224.137 16.5241C223.87 16.3565 223.555 16.2727 223.191 16.2727C222.791 16.2727 222.444 16.3722 222.152 16.571C221.862 16.767 221.639 17.0227 221.483 17.3381C221.326 17.6534 221.248 17.9915 221.248 18.3523V18.9318C221.248 19.4261 221.333 19.8452 221.504 20.1889C221.677 20.5298 221.917 20.7898 222.224 20.9688C222.531 21.1449 222.887 21.233 223.294 21.233C223.558 21.233 223.797 21.196 224.01 21.1222C224.225 21.0455 224.412 20.9318 224.568 20.7812C224.724 20.6278 224.845 20.4375 224.93 20.2102L225.902 20.483C225.799 20.8125 225.627 21.1023 225.386 21.3523C225.145 21.5994 224.846 21.7926 224.491 21.9318C224.136 22.0682 223.737 22.1364 223.294 22.1364ZM230.193 22.1364C229.579 22.1364 229.051 21.9915 228.608 21.7017C228.164 21.4119 227.824 21.0128 227.585 20.5043C227.346 19.9957 227.227 19.4148 227.227 18.7614C227.227 18.0966 227.349 17.5099 227.593 17.0014C227.841 16.4901 228.184 16.0909 228.625 15.804C229.068 15.5142 229.585 15.3693 230.176 15.3693C230.636 15.3693 231.051 15.4545 231.42 15.625C231.789 15.7955 232.092 16.0341 232.328 16.3409C232.564 16.6477 232.71 17.0057 232.767 17.4148H231.761C231.684 17.1165 231.514 16.8523 231.25 16.6222C230.988 16.3892 230.636 16.2727 230.193 16.2727C229.801 16.2727 229.457 16.375 229.162 16.5795C228.869 16.7812 228.64 17.0668 228.475 17.4361C228.314 17.8026 228.233 18.233 228.233 18.7273C228.233 19.233 228.312 19.6733 228.471 20.0483C228.633 20.4233 228.86 20.7145 229.153 20.9219C229.449 21.1293 229.795 21.233 230.193 21.233C230.454 21.233 230.691 21.1875 230.904 21.0966C231.118 21.0057 231.298 20.875 231.446 20.7045C231.593 20.5341 231.699 20.3295 231.761 20.0909H232.767C232.71 20.4773 232.569 20.8253 232.345 21.1349C232.123 21.4418 231.829 21.6861 231.463 21.8679C231.099 22.0469 230.676 22.1364 230.193 22.1364ZM237.083 15.4545V16.3068H233.691V15.4545H237.083ZM234.68 13.8864H235.686V20.125C235.686 20.4091 235.727 20.6222 235.809 20.7642C235.895 20.9034 236.002 20.9972 236.133 21.0455C236.267 21.0909 236.407 21.1136 236.555 21.1136C236.666 21.1136 236.757 21.108 236.828 21.0966C236.899 21.0824 236.956 21.071 236.998 21.0625L237.203 21.9659C237.135 21.9915 237.039 22.017 236.917 22.0426C236.795 22.071 236.64 22.0852 236.453 22.0852C236.169 22.0852 235.89 22.0241 235.618 21.902C235.348 21.7798 235.123 21.5938 234.944 21.3438C234.768 21.0938 234.68 20.7784 234.68 20.3977V13.8864ZM239.329 22.0682C239.119 22.0682 238.939 21.9929 238.788 21.8423C238.637 21.6918 238.562 21.5114 238.562 21.3011C238.562 21.0909 238.637 20.9105 238.788 20.7599C238.939 20.6094 239.119 20.5341 239.329 20.5341C239.539 20.5341 239.72 20.6094 239.87 20.7599C240.021 20.9105 240.096 21.0909 240.096 21.3011C240.096 21.4403 240.061 21.5682 239.99 21.6847C239.922 21.8011 239.829 21.8949 239.713 21.9659C239.599 22.0341 239.471 22.0682 239.329 22.0682ZM242.395 22H241.287L244.492 13.2727H245.583L248.787 22H247.679L245.071 14.6534H245.003L242.395 22ZM242.804 18.5909H247.27V19.5284H242.804V18.5909ZM251.016 13.2727V22H250.01V13.2727H251.016ZM253.506 24.4545C253.335 24.4545 253.183 24.4403 253.05 24.4119C252.916 24.3864 252.824 24.3608 252.773 24.3352L253.028 23.4489C253.273 23.5114 253.489 23.5341 253.676 23.517C253.864 23.5 254.03 23.4162 254.175 23.2656C254.322 23.1179 254.457 22.8778 254.58 22.5455L254.767 22.0341L252.347 15.4545H253.438L255.244 20.6705H255.312L257.119 15.4545H258.21L255.432 22.9545C255.307 23.2926 255.152 23.5724 254.967 23.794C254.783 24.0185 254.568 24.1847 254.324 24.2926C254.082 24.4006 253.81 24.4545 253.506 24.4545ZM265.64 16C265.546 15.7131 265.423 15.456 265.269 15.2287C265.119 14.9986 264.938 14.8026 264.728 14.6406C264.521 14.4787 264.285 14.3551 264.021 14.2699C263.756 14.1847 263.467 14.142 263.151 14.142C262.634 14.142 262.164 14.2756 261.741 14.5426C261.317 14.8097 260.981 15.2031 260.731 15.723C260.481 16.2429 260.356 16.8807 260.356 17.6364C260.356 18.392 260.482 19.0298 260.735 19.5497C260.988 20.0696 261.33 20.4631 261.762 20.7301C262.194 20.9972 262.68 21.1307 263.219 21.1307C263.719 21.1307 264.16 21.0241 264.54 20.8111C264.924 20.5952 265.222 20.2912 265.435 19.8991C265.651 19.5043 265.759 19.0398 265.759 18.5057L266.083 18.5739H263.458V17.6364H266.782V18.5739C266.782 19.2926 266.629 19.9176 266.322 20.4489C266.018 20.9801 265.597 21.392 265.06 21.6847C264.526 21.9744 263.913 22.1193 263.219 22.1193C262.447 22.1193 261.768 21.9375 261.183 21.5739C260.6 21.2102 260.146 20.6932 259.819 20.0227C259.495 19.3523 259.333 18.5568 259.333 17.6364C259.333 16.946 259.425 16.3253 259.61 15.7741C259.798 15.2202 260.062 14.7486 260.403 14.3594C260.744 13.9702 261.147 13.6719 261.613 13.4645C262.079 13.2571 262.592 13.1534 263.151 13.1534C263.612 13.1534 264.04 13.223 264.438 13.3622C264.839 13.4986 265.195 13.6932 265.508 13.946C265.823 14.196 266.086 14.4957 266.296 14.8452C266.506 15.1918 266.651 15.5767 266.731 16H265.64ZM268.68 22H267.572L270.777 13.2727H271.868L275.072 22H273.964L271.357 14.6534H271.288L268.68 22ZM269.089 18.5909H273.555V19.5284H269.089V18.5909Z" fill="black"/>
<path d="M164.745 151.4H31.8191C26.2083 151.907 24.4488 153.614 24 159.4V217C25.9767 220.618 27.5605 221.874 31.8191 221.8H33.383H164.745C168.621 221.064 169.915 219.953 171 217V159.4C170.535 155.881 169.801 154.003 164.745 151.4Z" fill="#FFDFF0"/>
<path d="M31.8191 151.4C31.8191 117.659 31.8191 98.7413 31.8191 65H141.287M31.8191 151.4H164.745M31.8191 151.4C26.2083 151.907 24.4488 153.614 24 159.4V217C25.9767 220.618 27.5605 221.874 31.8191 221.8H33.383M164.745 151.4V84.2M164.745 151.4C169.801 154.003 170.535 155.881 171 159.4V217C169.915 219.953 168.621 221.064 164.745 221.8M164.745 84.2L141.287 65M164.745 84.2H141.287V65M164.745 221.8H33.383M164.745 221.8V249H33.383V221.8" stroke="black"/>
<path d="M68.308 172H66.1944C66.0694 171.392 65.8506 170.858 65.5381 170.398C65.2313 169.938 64.8563 169.551 64.4131 169.239C63.9756 168.92 63.4898 168.682 62.9557 168.523C62.4217 168.364 61.8648 168.284 61.2853 168.284C60.2285 168.284 59.2711 168.551 58.4131 169.085C57.5609 169.619 56.8819 170.406 56.3762 171.446C55.8762 172.486 55.6262 173.761 55.6262 175.273C55.6262 176.784 55.8762 178.06 56.3762 179.099C56.8819 180.139 57.5609 180.926 58.4131 181.46C59.2711 181.994 60.2285 182.261 61.2853 182.261C61.8648 182.261 62.4217 182.182 62.9557 182.023C63.4898 181.864 63.9756 181.628 64.4131 181.315C64.8563 180.997 65.2313 180.608 65.5381 180.148C65.8506 179.682 66.0694 179.148 66.1944 178.545H68.308C68.1489 179.437 67.8592 180.236 67.4387 180.94C67.0182 181.645 66.4955 182.244 65.8705 182.739C65.2455 183.227 64.5438 183.599 63.7654 183.855C62.9927 184.111 62.166 184.239 61.2853 184.239C59.7967 184.239 58.4728 183.875 57.3137 183.148C56.1546 182.42 55.2427 181.386 54.5779 180.045C53.9131 178.705 53.5807 177.114 53.5807 175.273C53.5807 173.432 53.9131 171.841 54.5779 170.5C55.2427 169.159 56.1546 168.125 57.3137 167.398C58.4728 166.67 59.7967 166.307 61.2853 166.307C62.166 166.307 62.9927 166.435 63.7654 166.69C64.5438 166.946 65.2455 167.321 65.8705 167.815C66.4955 168.304 67.0182 168.901 67.4387 169.605C67.8592 170.304 68.1489 171.102 68.308 172ZM81.269 170.909C81.1667 170.045 80.7519 169.375 80.0246 168.898C79.2974 168.42 78.4053 168.182 77.3485 168.182C76.5758 168.182 75.8996 168.307 75.3201 168.557C74.7462 168.807 74.2974 169.151 73.9735 169.588C73.6553 170.026 73.4962 170.523 73.4962 171.08C73.4962 171.545 73.607 171.946 73.8286 172.281C74.0559 172.611 74.3457 172.886 74.6979 173.108C75.0502 173.324 75.4195 173.503 75.8059 173.645C76.1922 173.781 76.5474 173.892 76.8712 173.977L78.644 174.455C79.0985 174.574 79.6042 174.739 80.161 174.949C80.7235 175.159 81.2604 175.446 81.7718 175.81C82.2888 176.168 82.715 176.628 83.0502 177.19C83.3854 177.753 83.553 178.443 83.553 179.261C83.553 180.205 83.3059 181.057 82.8116 181.818C82.3229 182.58 81.607 183.185 80.6638 183.634C79.7263 184.082 78.5871 184.307 77.2462 184.307C75.9962 184.307 74.9138 184.105 73.9991 183.702C73.09 183.298 72.3741 182.736 71.8513 182.014C71.3343 181.293 71.0417 180.455 70.9735 179.5H73.1553C73.2121 180.159 73.4337 180.705 73.8201 181.136C74.2121 181.562 74.7065 181.881 75.303 182.091C75.9053 182.295 76.553 182.398 77.2462 182.398C78.053 182.398 78.7775 182.267 79.4195 182.006C80.0616 181.739 80.5701 181.369 80.9451 180.898C81.3201 180.42 81.5076 179.864 81.5076 179.227C81.5076 178.648 81.3457 178.176 81.0218 177.812C80.6979 177.449 80.2718 177.153 79.7434 176.926C79.215 176.699 78.644 176.5 78.0303 176.33L75.8826 175.716C74.519 175.324 73.4394 174.764 72.644 174.037C71.8485 173.31 71.4508 172.358 71.4508 171.182C71.4508 170.205 71.715 169.352 72.2434 168.625C72.7775 167.892 73.4934 167.324 74.3911 166.92C75.2945 166.511 76.303 166.307 77.4167 166.307C78.5417 166.307 79.5417 166.509 80.4167 166.912C81.2917 167.31 81.9849 167.855 82.4962 168.548C83.0133 169.241 83.286 170.028 83.3144 170.909H81.269ZM96.5736 170.909C96.4714 170.045 96.0566 169.375 95.3293 168.898C94.6021 168.42 93.71 168.182 92.6532 168.182C91.8805 168.182 91.2043 168.307 90.6248 168.557C90.0509 168.807 89.6021 169.151 89.2782 169.588C88.96 170.026 88.8009 170.523 88.8009 171.08C88.8009 171.545 88.9117 171.946 89.1333 172.281C89.3606 172.611 89.6503 172.886 90.0026 173.108C90.3549 173.324 90.7242 173.503 91.1106 173.645C91.4969 173.781 91.8521 173.892 92.1759 173.977L93.9486 174.455C94.4032 174.574 94.9089 174.739 95.4657 174.949C96.0282 175.159 96.5651 175.446 97.0765 175.81C97.5935 176.168 98.0197 176.628 98.3549 177.19C98.6901 177.753 98.8577 178.443 98.8577 179.261C98.8577 180.205 98.6106 181.057 98.1163 181.818C97.6276 182.58 96.9117 183.185 95.9685 183.634C95.031 184.082 93.8918 184.307 92.5509 184.307C91.3009 184.307 90.2185 184.105 89.3038 183.702C88.3947 183.298 87.6788 182.736 87.156 182.014C86.639 181.293 86.3464 180.455 86.2782 179.5H88.46C88.5168 180.159 88.7384 180.705 89.1248 181.136C89.5168 181.562 90.0111 181.881 90.6077 182.091C91.21 182.295 91.8577 182.398 92.5509 182.398C93.3577 182.398 94.0822 182.267 94.7242 182.006C95.3663 181.739 95.8748 181.369 96.2498 180.898C96.6248 180.42 96.8123 179.864 96.8123 179.227C96.8123 178.648 96.6503 178.176 96.3265 177.812C96.0026 177.449 95.5765 177.153 95.0481 176.926C94.5197 176.699 93.9486 176.5 93.335 176.33L91.1873 175.716C89.8236 175.324 88.7441 174.764 87.9486 174.037C87.1532 173.31 86.7555 172.358 86.7555 171.182C86.7555 170.205 87.0197 169.352 87.5481 168.625C88.0822 167.892 88.7981 167.324 89.6958 166.92C90.5992 166.511 91.6077 166.307 92.7214 166.307C93.8464 166.307 94.8464 166.509 95.7214 166.912C96.5964 167.31 97.2896 167.855 97.8009 168.548C98.318 169.241 98.5907 170.028 98.6191 170.909H96.5736ZM61.0126 213V195.545H63.1262V203.318H72.433V195.545H74.5467V213H72.433V205.193H63.1262V213H61.0126ZM77.8236 197.42V195.545H90.9146V197.42H85.4259V213H83.3123V197.42H77.8236ZM94.1766 195.545H96.6994L102.631 210.034H102.836L108.768 195.545H111.29V213H109.313V199.739H109.143L103.688 213H101.779L96.3244 199.739H96.1539V213H94.1766V195.545ZM115.528 213V195.545H117.642V211.125H125.755V213H115.528Z" fill="black"/>
</svg>
