<svg version="1.2" xmlns="http://www.w3.org/2000/svg" viewBox="0 0 1200 1200" width="1200" height="1200">
	<title>v1014-em-056-ai</title>
	<defs>
		<radialGradient id="g1" cx="168.7" cy="400" r="102.7" gradientUnits="userSpaceOnUse">
			<stop offset="0" stop-color="#c095c4" stop-opacity="0"/>
			<stop offset="1" stop-color="#c095c4"/>
		</radialGradient>
		<radialGradient id="g2" cx="483.5" cy="260.1" r="206.5" gradientUnits="userSpaceOnUse">
			<stop offset=".1" stop-color="#f7c2d9"/>
			<stop offset=".9" stop-color="#f7c2d9" stop-opacity=".1"/>
		</radialGradient>
		<radialGradient id="g3" cx="347.3" cy="710.9" r="281.6" gradientUnits="userSpaceOnUse">
			<stop offset=".1" stop-color="#f7c2d9"/>
			<stop offset=".4" stop-color="#f49ebc" stop-opacity=".8"/>
			<stop offset="1" stop-color="#f7c2d9" stop-opacity=".1"/>
		</radialGradient>
		<radialGradient id="g4" cx="663.7" cy="702.8" r="157.2" gradientUnits="userSpaceOnUse">
			<stop offset=".1" stop-color="#f7c2d9" stop-opacity=".1"/>
			<stop offset=".6" stop-color="#f49ebc" stop-opacity=".8"/>
			<stop offset="1" stop-color="#f7c2d9"/>
		</radialGradient>
		<radialGradient id="g5" cx="802.2" cy="911.4" r="191.6" gradientUnits="userSpaceOnUse">
			<stop offset=".2" stop-color="#fefcef"/>
			<stop offset=".8" stop-color="#f8e8de" stop-opacity=".1"/>
		</radialGradient>
		<radialGradient id="g6" cx="515.5" cy="611.6" r="88.1" gradientUnits="userSpaceOnUse">
			<stop offset="0" stop-color="#c095c4" stop-opacity="0"/>
			<stop offset="1" stop-color="#c095c4"/>
		</radialGradient>
		<radialGradient id="g7" cx="875.3" cy="526.6" r="326.7" gradientUnits="userSpaceOnUse">
			<stop offset="0" stop-color="#c095c4"/>
			<stop offset="1" stop-color="#c095c4" stop-opacity="0"/>
		</radialGradient>
		<linearGradient id="g8" x1="482.1" y1="1018.7" x2="482.1" y2="983.9" gradientUnits="userSpaceOnUse">
			<stop offset="0" stop-color="#f0dab3"/>
			<stop offset=".2" stop-color="#f0dab3"/>
			<stop offset=".6" stop-color="#cfa380"/>
			<stop offset=".7" stop-color="#9b745c"/>
			<stop offset=".8" stop-color="#cfa380"/>
			<stop offset="1" stop-color="#f0dab3"/>
		</linearGradient>
		<radialGradient id="g9" cx="455" cy="1035.4" r="87.7" gradientUnits="userSpaceOnUse">
			<stop offset=".1" stop-color="#f7c2d9"/>
			<stop offset=".9" stop-color="#f7c2d9" stop-opacity=".1"/>
		</radialGradient>
		<linearGradient id="g10" x1="490" y1="982.8" x2="491.7" y2="982.7" gradientUnits="userSpaceOnUse">
			<stop offset="0" stop-color="#f0dab3"/>
			<stop offset=".2" stop-color="#f0dab3"/>
			<stop offset=".6" stop-color="#cfa380"/>
			<stop offset=".7" stop-color="#9b745c"/>
			<stop offset=".8" stop-color="#cfa380"/>
			<stop offset="1" stop-color="#f0dab3"/>
		</linearGradient>
		<radialGradient id="g11" cx="801.9" cy="235.3" r="133.1" gradientUnits="userSpaceOnUse">
			<stop offset=".2" stop-color="#fefcef"/>
			<stop offset=".8" stop-color="#f8e8de" stop-opacity=".1"/>
		</radialGradient>
		<radialGradient id="g12" cx="327.2" cy="238.5" r="157.2" gradientUnits="userSpaceOnUse">
			<stop offset=".2" stop-color="#fefcef"/>
			<stop offset=".8" stop-color="#f8e8de" stop-opacity=".1"/>
		</radialGradient>
	</defs>
	<style>
		.s0 { fill: url(#g1) } 
		.s1 { fill: none;stroke: #000000;stroke-linecap: round;stroke-linejoin: round;stroke-width: 1.8 } 
		.s2 { fill: url(#g2) } 
		.s3 { fill: none;stroke: #000000;stroke-linecap: round;stroke-linejoin: round;stroke-width: 2.2 } 
		.s4 { fill: url(#g3) } 
		.s5 { fill: none;stroke: #000000;stroke-linecap: round;stroke-linejoin: round;stroke-width: 2.3 } 
		.s6 { fill: url(#g4) } 
		.s7 { fill: none;stroke: #000000;stroke-linecap: round;stroke-linejoin: round;stroke-width: 1 } 
		.s8 { fill: url(#g5) } 
		.s9 { fill: none;stroke: #000000;stroke-linecap: round;stroke-linejoin: round;stroke-width: 1.9 } 
		.s10 { fill: url(#g6) } 
		.s11 { fill: none;stroke: #000000;stroke-linecap: round;stroke-linejoin: round;stroke-width: 1.7 } 
		.s12 { fill: url(#g7) } 
		.s13 { fill: none;stroke: #000000;stroke-linecap: round;stroke-linejoin: round;stroke-width: 2.8 } 
		.s14 { fill: #eedebc } 
		.s15 { fill: url(#g8) } 
		.s16 { fill: url(#g9) } 
		.s17 { fill: url(#g10) } 
		.s18 { fill: none;stroke: #000000;stroke-linecap: round;stroke-linejoin: round;stroke-width: 1.5 } 
		.s19 { fill: url(#g11) } 
		.s20 { fill: none;stroke: #000000;stroke-linecap: round;stroke-linejoin: round;stroke-width: 2 } 
		.s21 { fill: url(#g12) } 
	</style>
	<g id="Background">
		<g id="&lt;Group&gt;">
			<g id="&lt;Clip Group&gt;">
				<g id="&lt;Group&gt;" style="opacity: .5;mix-blend-mode: multiply">
				</g>
			</g>
		</g>
	</g>
	<g id="Graphic Elements">
		<g id="&lt;Group&gt;">
			<g id="&lt;Group&gt;">
				<g id="&lt;Group&gt;">
					<path id="&lt;Path&gt;" class="s0" d="m135.1 438.1c1-2.5 3.5-3.8 6.2-4.6 3.9-1.2 8.5-1.4 13.1-1.6 3.4-0.1 6.9-0.2 10.8 0.6 4.3 1 9.1 3.1 13.8 5.4 1 0.5 1.7 1.3 2.3 2.3 0.7 1 1.1 2 1.8 3 1.1 1.6 2.9 3 4.6 3.8 1.2 0.6 1.8 0.8 2.7 1-1.8-1.3-3.6-2.4-5-4-1.4-1.7-2.3-3.8-3.9-5.3-1.4-1.4-3.3-2.1-4.6-3.5-1.5-1.8-1.9-4.5-0.8-6.6l0.9-1c2-1.1 4.8-0.9 6.6 0.7q0.6 0.4 1 1c-1-4.4-1.7-9-1.5-13.5 0.3-5.2 1.8-10.2 3.3-15.1 2-6.7 4-13.4 7.2-19.6 2.2-4.3 5-8.4 8.9-11.1 1.2-0.9 2.5-1.6 4-1.8 1.4-0.1 3 0.2 4 1.3 0.7 0.8 1.1 1.8 1.6 2.7 2 3.5 6.1 4.9 9.3 7.4 4.1 3.2 6.5 8.2 7.7 13.3 1.1 5.1 1 10.4 0.9 15.6 2.4 0.4 4.9 1.9 7.1 2.8 2.2 0.9 4.3 2.4 5.4 4.5 1.5 2.5 1.4 5.6 2.6 8.2 1.3 3 4.1 5.3 4.7 8.5 0.7 3.3-1.1 6.5-3.3 9.1-2.1 2.5-4.7 4.7-6.1 7.7-1 2.1-1.5 4.7-3.5 6-1.3 1-3.1 1.1-4.7 1.2-6.6 0.2-13.2 0.2-19.6-1.3q-0.6-0.2-1.3-0.4c2.3 2.9 4 6.2 5.1 9.6 0.9 3.2-1.1 2.4-2.1 2.1-4.3-1.1-8.3-3.2-11.7-6.2-1.5-1.4-2.9-3-4.3-4.5 1.9 2.4 3.4 4.9 4.8 7.4 2.8 5.2 4.6 10.3 6.1 15.3 0.4 1.2 0.7 2.5 0.4 3.4-0.6 1.2-2.4 1-3.8 1.4-1.9 0.5-2.9 2-4.3 3.1-1.4 1.1-3.4 1.8-6.1 0.7-2.6-1.1-5.1-3.7-7.7-5.4-2.4-1.4-4.7-2-7-3.6-1.9-1.3-3.6-3.2-4.9-5.1-1-1.5-2.4-3.3-3.4-4.9-0.4-0.7-1.1-1.2-1.9-1.4-3.5-0.9-7.1-1.9-10.9-3.6-4.2-1.9-8.6-4.8-12.2-8.6-2.7-2.9-4.9-6.4-8.1-8.7-0.9-0.5-1.7-1-2.5-1.7-1.1-1-1.8-2.3-2-3.3-0.2-1.1 0-2 0.3-2.7z"/>
					<g id="&lt;Group&gt;">
						<g id="&lt;Group&gt;">
							<path id="&lt;Path&gt;" class="s1" d="m205.4 463.4c3.7 5.1 7.2 10.5 9.2 16.5 2.1 5.9 2.5 12.7 0.1 18.5-1.5 3.5-3.9 7-3.2 10.7 0.4 1.8 1.3 4.2-0.4 5.1-1.1 0.6-2.4-0.3-3.4-1.2q-11.7-10.5-23.5-20.9c-3.4-3.1-6.8-6.1-9.8-9.6-2.6-3.1-4.8-7.4-3-11 1.9 0.3 2.3 3.1 1 4.5-1.3 1.4-3.4 1.6-5.3 1.4-9-0.9-16.4-7.3-23-13.5-6.6-6.2-13.6-12.8-22.4-14.5-1.8-0.3-4.2-0.9-4.3-2.7 0-1.4 1.3-2.3 2.4-3 11.8-6.6 25-7 38.3-9.2 4.7-0.8 9.4 0.3 13.8 2 4.3 1.7 8.5 3.9 12.9 5.6 3 1.1 6.2 2 8.8 4 2 1.5 3.5 3.6 5 5.6 4.1 5.5 8.6 10.8 14 14.9 5.4 4 12 6.9 18.8 7.1-1.2-7.5-4.8-14.5-10.3-19.7-7.9-7.6-19.2-11.3-26.6-19.5 0.3 2.4-0.8 4.8-2.8 6.3-1.9 1.4-4.5 1.7-6.7 0.9 2.1-0.8 4.4-1.6 5.9-3.3 1.5-1.7 1.9-4.7 0.1-6.2-2 3.3-6 5.4-9.8 4.7-3.7-0.7-6.9-4.2-6.7-8.1 0.2-3.8 4-7.2 7.7-6.6 2.3 0.4 4.2 2 5.6 3.8 1.7 2.3 2.7 5.4 1.8 8.2-1.1 3.3-4.9 5.2-8.3 4.9-3.5-0.3-6.6-2.3-8.9-4.9-2.1-2.3-3.8-5.3-3.2-8.3 0.8-3.7 4.7-6 8.4-5.9 3.7 0.1 7.1 2.2 9.9 4.7 0.4 0.3 0.7 0.6 1.3 0.8 0.5 0.3 2.1 1.7 2.2 1.2q0-0.3-0.4-0.9c-2-2.4-3.4-5.4-3.8-8.5-1-7.9 0.7-16.1 3.4-23.6 3.4-9.7 8.4-18.7 11.6-28.5 1.7-5.1 2.9-10.5 5.4-15.3 2.5-4.9 6.7-9.2 12-10.2 3.6-0.7 6.7 1.4 8.6 4.5 1.9 3.1 2.6 6.7 3.7 10.1 2.1 6.7 5.6 12.8 8.9 19.1 3.2 6.2 6.2 12.7 7.1 19.6 0.9 6.8-0.4 14.1-4.8 19.3 0 0-1.6 1.7-2.1-0.2-0.4-1.9 2.8-2.1 3.9-1.5 13 6.1 23.1 17.7 27.5 31.3 0.5 1.5-0.2 3.1-1.6 3.7-7.1 3.4-12.4 10-19.9 12.6-5.1 1.7-10.8 1.5-16.1 0.3-5.3-1.2-9.5-3.5-14.5-5.6"/>
							<path id="&lt;Path&gt;" class="s1" d="m132.9 392.2c8.8-1.1 18.1 1.1 25.4 6.2 7.4 5.1 12.8 12.9 14.9 21.6"/>
							<path id="&lt;Path&gt;" class="s1" d="m178.9 418.9c0.9-9.2-5.6-17.9-5.2-27.2 0.1-3.3 1.1-6.4 1.7-9.6 0.6-3.2 0.8-6.6-0.6-9.5"/>
						</g>
					</g>
				</g>
				<g id="&lt;Group&gt;">
					<path id="&lt;Path&gt;" class="s2" d="m613.3 341.1c1 5.8-4 11.2-9.5 13.2-5.6 1.9-11.7 1.3-17.6 1.4-19 0.1-37.2 6.8-54.8 14-17.5 7.2-35.1 15.2-53.8 18.1-18.7 3-39.3 0.2-53.9-11.9-4.3-3.7-8.3-8.9-7.5-14.5 0.5-3.1 2.4-5.8 4.5-8.3 9.7-11.5 23.9-19.2 38.9-21.2 8.6-1.1 19.3-1.6 23-9.4 5.8-12.3-13.1-25.6-8.2-38.2 2.5-6.3 10.4-9.1 17.1-8 6.7 1.2 12.4 5.3 18 9.2q34.8 25.1 69.6 50.2c-0.2-21.7-12.4-41.8-28-57-15.5-15.2-34.3-26.5-51.8-39.3-6-4.4-12.5-10.7-10.8-18 1.1-4.4 5.2-7.6 9.7-8.9 4.4-1.2 9.1-0.8 13.7-0.4q12.5 1 24.9 2c3.5 0.3 7.3 0.6 10.4-1.1 6.6-3.6 6.3-12.8 6.2-20.3-0.2-19.1 7.2-38.1 20.2-52 4.7-5.1 12.3-9.6 18-5.8 3.2 2.2 4.4 6.4 5.3 10.2 15.1 65.1 15.2 133.6 0.3 198.8"/>
					<g id="&lt;Group&gt;">
						<g id="&lt;Group&gt;">
							<path id="&lt;Path&gt;" class="s3" d="m276.8 488.1c26.3 0.6 52.9 1.2 78.6-4.6 25.7-5.9 50.6-19.1 65.4-40.9 7.4-10.8 13.3-24.6 25.9-28.5 5.3-1.7 12.9 0.4 13.1 5.9 0.1 3-2.3 5.7-5.1 6.7-2.8 1-6 0.5-8.8-0.6-11.1-4.6-16.2-18.9-12.4-30.2 3.9-11.4 15.1-19.2 26.9-21.3 11.8-2.1 24.1 0.9 34.9 6.1 3.2 1.5 6.6 3.3 10.2 3.4 3.6 0.1 5.5-1.2 5.8-4.8-10.6-0.7-20.2 5.5-28.9 11.6-8.6 6.1-17.9 12.7-28.5 12.6-13.4 0-25.2-10.6-38.6-10.5-12.9 0-23.5 9.8-35.5 14.6-5.2 2.1-12.4 2.8-15.5-2-2.2-3.3-1.2-7.9 1.3-11 2.4-3.1 6-5 9.5-6.8q18.3-9.6 36.6-19.2c4.9-2.5 10.5-6.5 9.6-11.9-1-5.5-8.7-8.8-7.9-14.3 0.6-4.1 5.4-6 9.5-6.7 4-0.8 8.9-1.8 10.5-5.6 2.1-5.1-3.3-10.3-3.9-15.8-0.8-6.5 5.2-11.8 6.8-18.1 1.8-6.8-1.7-14-6.6-19.1-4.8-5.1-10.9-8.8-16.1-13.6-4.7-4.3-8.7-10.5-7.3-16.7 0.9-3.7 3.8-6.9 7.4-8 3.6-1.2 7.2 0.4 10.9 1.4 54.6 15.1 106 41.6 149.9 77.4 1.4 1.2 2.8 2.4 3.5 4 0.8 1.6 0.6 3.8-0.9 4.9-1.4 1-3.5 0.6-4.8-0.6-1.3-1.1-2.1-2.8-2.8-4.3-2.6-5.7-4.7-11.4-8-16.7-8.3-13.3-21.6-22.7-35.4-30.2-13.8-7.6-28.4-13.8-41.3-22.7-5.6-3.8-11-8.9-11.4-16-0.1-1.9 0.6-3.5 1.5-5.2 1.4-2.4 2.7-4.8 5.3-6 2.7-1.3 5.8-1.3 8.7-1q1.2 0.1 2.3 0.3c3.8 0.5 7.7 1.1 11.3 0 8.8-2.8 11.2-13.9 17.2-20.9 8.5-10 23.9-11.1 33.5-20.1 11.9-11.1 11.4-30.9 22.4-42.9 5.5-6 13.3-9.3 19.7-14.3 6.5-4.9 12-13 9.6-20.8-1-3.7-3.8-6.8-3.2-11 0.3-1.9 1.6-3.5 3.4-3.9 3.7-0.8 5.8 3.7 6.6 7.3 17.2 77.6 14.1 160.6-14.5 234.7-2.4 6.4-5.1 12.3-7.7 18.6-1.9 4.6-3.6 9.8-1.5 14.3 1.9 3.8 6.6 6 10.7 4.9 4.1-1.1 7.1-5.4 6.8-9.6-0.5-5.8-6.7-10-12.5-9.7-5.8 0.3-11 4-14.7 8.5-3.8 4.5-6.4 9.7-9.7 14.6-10.7 16-28.4 27.1-47.5 29.8-3.2 0.5-6.6 0.7-9.6-0.6-2.9-1.2-5.4-4.4-4.8-7.6"/>
							<path id="&lt;Path&gt;" class="s3" d="m616.4 321c-1.9-2.7-3.7-5.5-4.6-8.7-0.9-3.2-0.7-6.9 1.4-9.5 2.1-2.6 6.3-3.5 8.8-1.3 2.4 2 2.5 5.7 1.9 8.8-1.9 10.8-9.2 20.1-17.9 26.8-8.7 6.7-18.9 11.1-28.9 15.5q-25 10.8-50 21.7c-5 2.2-10.1 4.4-14.2 8-4 3.7-6.9 9-6.3 14.5"/>
							<path id="&lt;Path&gt;" class="s3" d="m633.3 316.9c0.4-2.8 4.3-4 6.6-2.5 2.3 1.5 3 4.8 2.3 7.5-0.7 2.7-2.6 4.9-4.5 6.9-9.6 9.9-22.4 16.5-36 18.7"/>
						</g>
						<g id="&lt;Group&gt;">
							<path id="&lt;Path&gt;" class="s3" d="m276.8 488.1c26.3 0.6 52.9 1.2 78.6-4.6 25.7-5.9 50.6-19.1 65.4-40.9 7.4-10.8 13.3-24.6 25.9-28.5 5.3-1.7 12.9 0.4 13.1 5.9 0.1 3-2.3 5.7-5.1 6.7-2.8 1-6 0.5-8.8-0.6-11.1-4.6-16.2-18.9-12.4-30.2 3.9-11.4 15.1-19.2 26.9-21.3 11.8-2.1 24.1 0.9 34.9 6.1 3.2 1.5 6.6 3.3 10.2 3.4 3.6 0.1 5.5-1.2 5.8-4.8-10.6-0.7-20.2 5.5-28.9 11.6-8.6 6.1-17.9 12.7-28.5 12.6-13.4 0-25.2-10.6-38.6-10.5-12.9 0-23.5 9.8-35.5 14.6-5.2 2.1-12.4 2.8-15.5-2-2.2-3.3-1.2-7.9 1.3-11 2.4-3.1 6-5 9.5-6.8q18.3-9.6 36.6-19.2c4.9-2.5 10.5-6.5 9.6-11.9-1-5.5-8.7-8.8-7.9-14.3 0.6-4.1 5.4-6 9.5-6.7 4-0.8 8.9-1.8 10.5-5.6 2.1-5.1-3.3-10.3-3.9-15.8-0.8-6.5 5.2-11.8 6.8-18.1 1.8-6.8-1.7-14-6.6-19.1-4.8-5.1-10.9-8.8-16.1-13.6-4.7-4.3-8.7-10.5-7.3-16.7 0.9-3.7 3.8-6.9 7.4-8 3.6-1.2 7.2 0.4 10.9 1.4 54.6 15.1 106 41.6 149.9 77.4 1.4 1.2 2.8 2.4 3.5 4 0.8 1.6 0.6 3.8-0.9 4.9-1.4 1-3.5 0.6-4.8-0.6-1.3-1.1-2.1-2.8-2.8-4.3-2.6-5.7-4.7-11.4-8-16.7-8.3-13.3-21.6-22.7-35.4-30.2-13.8-7.6-28.4-13.8-41.3-22.7-5.6-3.8-11-8.9-11.4-16-0.1-1.9 0.6-3.5 1.5-5.2 1.4-2.4 2.7-4.8 5.3-6 2.7-1.3 5.8-1.3 8.7-1q1.2 0.1 2.3 0.3c3.8 0.5 7.7 1.1 11.3 0 8.8-2.8 11.2-13.9 17.2-20.9 8.5-10 23.9-11.1 33.5-20.1 11.9-11.1 11.4-30.9 22.4-42.9 5.5-6 13.3-9.3 19.7-14.3 6.5-4.9 12-13 9.6-20.8-1-3.7-3.8-6.8-3.2-11 0.3-1.9 1.6-3.5 3.4-3.9 3.7-0.8 5.8 3.7 6.6 7.3 17.2 77.6 14.1 160.6-14.5 234.7-2.4 6.4-5.1 12.3-7.7 18.6-1.9 4.6-3.6 9.8-1.5 14.3 1.9 3.8 6.6 6 10.7 4.9 4.1-1.1 7.1-5.4 6.8-9.6-0.5-5.8-6.7-10-12.5-9.7-5.8 0.3-11 4-14.7 8.5-3.8 4.5-6.4 9.7-9.7 14.6-10.7 16-28.4 27.1-47.5 29.8-3.2 0.5-6.6 0.7-9.6-0.6-2.9-1.2-5.4-4.4-4.8-7.6"/>
							<path id="&lt;Path&gt;" class="s3" d="m616.4 321c-1.9-2.7-3.7-5.5-4.6-8.7-0.9-3.2-0.7-6.9 1.4-9.5 2.1-2.6 6.3-3.5 8.8-1.3 2.4 2 2.5 5.7 1.9 8.8-1.9 10.8-9.2 20.1-17.9 26.8-8.7 6.7-18.9 11.1-28.9 15.5q-25 10.8-50 21.7c-5 2.2-10.1 4.4-14.2 8-4 3.7-6.9 9-6.3 14.5"/>
							<path id="&lt;Path&gt;" class="s3" d="m633.3 316.9c0.4-2.8 4.3-4 6.6-2.5 2.3 1.5 3 4.8 2.3 7.5-0.7 2.7-2.6 4.9-4.5 6.9-9.6 9.9-22.4 16.5-36 18.7"/>
						</g>
					</g>
				</g>
				<g id="&lt;Group&gt;">
					<path id="&lt;Path&gt;" class="s4" d="m491.6 817.7c-3 4.2-7.8 6.6-12.4 8.5q-1.7 0.7-3.5 1.4-24.3 9-48.7 18c-9.1 3.4-18.8 6.8-28.6 5.3-15.8-2.5-26.6-17-35.7-30.2-9.1-13.2-20.3-27.5-36.2-29.5q12.8 22.2 25.5 44.5c4.1 7.2 8.4 15.3 6.5 23.3-2.7 10.9-15.2 15.8-26 19q-20.3 5.9-40.5 11.8c-5.9 1.8-11.9 3.5-18.1 3.2-6.1-0.2-12.6-2.9-15.8-8.2-3.3-5.5-2.5-12.6 0.3-18.3 2.7-5.7 7.1-10.4 11-15.4 8.8-11.1 15.3-24 19.2-37.6q0.2-0.6 0.2-1.2 0.4-0.6 0.8-1.2c0-4.5-6.1-6.2-8.7-1.6l-13 22.6c-5.5 9.6-11.1 19.3-19.1 26.9-8.1 7.6-19.1 12.8-30.2 11.4-9.9-3.5-11.7-17.1-8.4-26.9 3.4-9.8 10.1-18.6 10.8-28.9 1.3-19.5-18.8-38.9-10.7-56.6 4.4-9.6 16.1-14.2 26.8-13.7 10.7 0.4 20.8 4.9 30.8 8.9q2.8 1.1 5.8 2.2c5 1.8 7.9-5.4 3-7.6-13-5.6-26.7-9.4-40.6-11.2-12.4-1.7-27.1-3.1-33.2-14-2.5-4.6-2.8-9.9-3.1-15.1q-2.5-43.4-5-86.7c-0.1-2.5 0.9-5 2.9-6.6 4.1-3.2 8.5 0.1 11.7 3.1 33.9 31.7 62.6 68.9 84.8 109.5 6.6 12.2 13.1 25.3 24.4 33.3-10.6 8.3-22.2 14.8-27.8 27.7q-0.2 0.5-0.3 1.1c5.4-11.6 16.1-17.7 25.9-25.4q0.7 0.5 1.4 0.9c14.4 9.5 32.8 8.2 50 8.6 10.1 0.2 20.3 1.2 30.4 2.8 10.1 1.7 20.1 4.1 29.9 7.1 9.8 3 19.5 6.8 28.8 11.1 9.3 4.4 18.3 9.4 26.9 15q3.2 2.1 6.4 4.3c2.1 1.4 2.9 2.1 1.4 4.4z"/>
					<g id="&lt;Group&gt;">
						<g id="&lt;Group&gt;">
							<g id="&lt;Group&gt;">
								<g id="&lt;Group&gt;">
									<path id="&lt;Path&gt;" class="s5" d="m298.9 782.9c0.1-4.6 0.5-9.6 3.8-12.8 3.7-3.7 9.7-3.5 14.9-2.5 5.2 0.9 10 0.1 15.2-0.1 69.2-2.5 139 16.1 197.7 52.8 4.9 3.1 10 6.5 12.3 11.7 2.4 5.3 0.8 12.8-4.6 14.7-5 1.7-11.2-1.5-15.3 1.7-4.3 3.3-2.5 10.7-6 14.8-3.1 3.5-8.7 3.1-13 1.3-4.3-1.7-8.2-4.6-12.8-5.2-5.7-0.9-11.3 1.9-15.9 5.4-4.5 3.4-8.5 7.7-13.3 10.8-9.8 6.2-21.9 6.8-33.4 7.2-7.5 0.3-15.6 0.4-22-3.6-7.7-4.9-10.8-14.4-14.1-22.9-12.2-31.5-34.9-58.8-63.6-76.6-1.4-0.9-3.3-1.8-4.7-0.8-2.3 1.6 0.1 5.1 2.3 6.8 27 20.1 47.9 48.2 59.5 79.8 2.9 7.7 4.9 17.1-0.2 23.6-0.5 3.3-4.4 4.8-7.2 2.9-1.1-0.8-1.9-2.1-3.2-2.7-2.9-1.3-5.9 1.8-7.1 4.7-1.2 3-2 6.5-4.8 8-3.6 1.9-7.7-0.9-11.6-1.9-4.1-1-8.4-0.1-12.1 1.8-3.7 1.8-7 4.5-10.1 7.2-4.4 3.7-10.2 4-15.9 3.3q-9.3-1.2-18.6-2.5c-5.3-0.6-10.9-1.3-16 0.3-7.6 2.5-12.6 9.5-17.1 16.1-5.2 7.7-10.5 15.4-14.6 23.6-3.6 7.1-6.4 14.6-8.2 22.3-1.6 6.6-3.8 14.7-10.4 16.2-6.6 1.4-12.4-5.9-12.2-12.6 0.3-6.7 4.4-12.6 8.5-18q7.7-10.3 15.4-20.7c7.1-9.7 17.5-16.8 18.1-28.9 0.6-10-3.3-19.6-3.7-29.5-0.2-5.6 1-10.9 3.5-15.9 2.8-5.5 6.8-10.3 9.9-15.7 10.4-17.9 26.5-31.7 29.1-52.3 0.5-4.3 1.3-7.5 1.5-11.8z"/>
									<path id="&lt;Path&gt;" class="s5" d="m298.3 788.4c3.7 14 5.5 29.4-0.3 42.6-5.4 12.6-16.9 21.5-28.2 29.2-4.2 2.8-8.4 5.6-11.5 9.5-3 4-4.7 9.4-2.8 14.1"/>
								</g>
								<g id="&lt;Group&gt;">
									<path id="&lt;Path&gt;" class="s5" d="m297.1 793.1c-18.2 9.9-25.2 29.9-38 46.2-3.9 4.8-7 10.3-11.1 14.9-3.7 4.2-8.2 7.2-13.5 9-9.4 3.3-19.7 3.2-28.9 7.4-10.9 5-13.8 17.2-20.2 27.4q-6.8 11-13.7 21.9c-3.5 5.7-7.5 11.7-13.6 14.4-6.2 2.7-15.1-0.1-16.2-6.7-1.1-6.7 5.7-11.7 11.3-15.6 6.5-4.5 12.4-9.9 17.7-15.7 6.2-6.9 11.4-14.6 16.7-22.2 4.5-6.6 9.2-13.9 8.7-21.9-0.3-5.3-3-10.2-5.5-15q-4.6-8.2-9.1-16.4c-2.7-5-4.6-10.6-2.7-16 1.3-3.9 2.6-7.9 3-12 0.4-4.2-0.3-8.5-2.7-11.9-2.4-3.3-6.5-6.2-6.1-10.2 0.4-3.2 3.4-5.2 5.7-7.4 2.3-2.1 4.1-6 1.8-8.3-1-0.9-2.5-1.2-3.6-2-2.8-1.9-2.9-6.1 0-7.7 4.2-7.1 13.7-8.7 21.9-8.8 33.7-0.8 67.5 8.5 96.1 26.2 2.3 1.5 6.5 2.4 7.1-0.3 0.4-1.6-1.1-3-2.4-4-27.1-20.3-60.8-31.4-94.6-31.3-9.1 0-19.1 0.6-26.5-4.8-6-4.5-8.8-12.1-11.3-19.2-3.8-10.9-7.7-22.4-5.5-33.7 1.1-5.6 3.7-10.9 5.3-16.4 1.5-5.5 2-11.8-0.8-16.7-2.3-4.1-6.4-6.7-9.6-10-3.2-3.4-5.6-8.5-3.4-12.6 2.5-4.8 10-5.8 11.5-11 1.5-5-3.8-9.6-4-14.8-0.2-5.8 6.2-10 12-9.7 5.7 0.3 10.8 3.7 15.4 7.2 55.5 41.3 98.3 99.5 121.3 164.8 1.7 5 2.7 9.7 5.4 14.2 2.8 4.5 5.2 10 3.1 14.8-1.8 4.2-6.3 6.4-10.5 8.2-4 1.8-6.6 3.7-10.5 5.7z"/>
									<path id="&lt;Path&gt;" class="s5" d="m229.5 864.7c5 0 9.5-3.5 12-7.8 2.6-4.3 3.7-9.3 4.8-14.1 3-13.4 7.1-27.3 16.8-37 10.3-10.2 25.2-14.1 39.6-15.8"/>
								</g>
								<path id="&lt;Path&gt;" class="s5" d="m361.4 744.4c-11.1-2.4-24.3 1.1-35.4 9.4-2.3 1.7-4.5 3.7-6.1 6.2-1.5 2.5-2.3 5.7-1.2 7.9 1.1 2.5 4.3 3.1 7.1 1.6 2.8-1.4 5-4.5 5.8-7.7 1-3.8 0.2-7.7-2-10.1-2.1-2.4-5.3-3.5-8.8-3.4-2.9 0.1-6.1 1.2-8.8 3.4-2.6 2.3-4.6 5.8-4.5 9 0 3.2 2.4 5.7 5.4 5.2 2.8-0.5 5.4-3.3 6.7-6.3 1.2-3 1.4-6.1 1.5-9.1 0.2-14-2.4-27.3-7.5-38.8"/>
							</g>
						</g>
					</g>
				</g>
				<g id="&lt;Group&gt;">
					<path id="&lt;Path&gt;" class="s6" d="m775.9 719c-2.4 1.3-5.4 1.1-8 0.3-2.6-0.8-5.1-2-7.7-2.7-9.7-2.5-19.7 3-29.7 2.5-6-0.3-12.2-2.5-16.4-6.7-2.5-0.2-4.7-1.9-6.3-3.9-1.5-2-2.7-4.2-4.3-6.2-0.7-0.8-1.4-1.5-2.1-2.3 2.5 5.4 4.6 11.4 9.3 14.3 0.7 0.4 0.4 1.6-0.3 2.1-0.7 0.5-1.7 0.6-2.5 0.5-3.4-0.4-6.2-2.3-8.4-4.5-2.3-2.3-4-5-6.1-7.4-1.7-1.9-3.5-3.6-4.5-5.9-0.9-2.3-1-5.2-3.1-6.6-1.9-1.1-5-0.7-5.9-2.7-0.4-0.9-0.2-2.1 0.3-3.2 1-2.2 3.1-4 5.4-4.8-6.7-6.4-13.2-13.1-18.8-20.6-7.1-9.6-12.7-20.7-14.1-32.5q-0.3-2.6 0.1-5c0.3-2 2.4-3.2 4.3-2.4 2.6 1 5 2.3 7.2 3.8 2.5 1.7 4.7 3.8 7.6 4.7 3.4 1.1 7.3 0.5 10.3 2.3 2.8 1.6 4.3 4.9 7.3 6.1 1.9 0.8 4.3 0.6 5.8 2 1.3 1.3 1.4 3.3 2.6 4.6 1.5 1.7 4.2 1.7 6.5 1.6 1 1.5 0.4 3.3-0.4 5-3.2 5.9-6.9 11.6-8.8 18.1q-0.7 2.4-0.9 4.8c1.1-5.5 3.2-10.6 6.1-15.2 4.4-7 10.4-12.7 16.4-18.2 8.7-8.2 18-16.2 29.6-19.7 1.4 0.8 1.5 3.2 0.9 4.6-0.6 1.4-1.5 2.7-1.5 4.3 0 2.3 2.1 4.2 2.6 6.4 0.7 2.6-0.6 5-0.7 7.5-0.1 3.3 2 6.9 5 8.4 1.8 0.9 1.3 4.1 0.6 5.8-0.8 1.7-2 3.1-3 4.6-1 1.6-1.8 3.5-1.2 5.5 0.3 1 0.9 2 1.5 3 0.5 1 1.2 2.6 0.4 3.1-4.4 3.3-4.4-3.6-21.3 0.4 4.8-0.2 9.6 0.9 14.3 1.9 1.6 0.4 3.3 0.8 4.3 2 0.8 1.2 0.9 2.8 1.7 4 0.9 1.2 2.4 1.8 3.7 2.4 1.4 0.6 2.8 1.6 3 3.1 0.2 1.5-0.9 2.8-1.8 4-0.8 1.2-1.6 2.9-0.8 4.1 0.8 1.2 2.5 1.3 3.8 1.8 2.6 1.1 3.8 4.6 2.3 7-0.4 0.8-1.1 1.4-1.3 2.3-0.3 0.8 0.1 2 1 2 1.6 1.8 2.6 3.1 4.9 3.4 2.4 0.2 4.8 0.3 7 1.1 2.1 0.8 4.1 2.8 4.1 5.1z"/>
					<g id="&lt;Group&gt;">
						<g id="&lt;Group&gt;">
							<path id="&lt;Path&gt;" class="s7" d=""/>
							<path id="&lt;Path&gt;" class="s7" d="m686.1 687.3c-1-3.9-3.7-6.7-6.4-9.7q-7-7.7-13.5-16c-5.8-7.4-11.3-15.5-13-24.7-1.2-6.1-0.6-12.3 0-18.4 1.4 0.2 2.2 1.2 3.1 2.4 0.8 1.2 1.6 2.6 2.7 3.5 2.4 2 6.1 1.7 8.5 3.6 2.1 1.6 3 4.7 5.4 6 2.1 1.1 4.9 0.4 7.2 1.4 2 0.8 3.3 2.8 5.1 4.2 1.7 1.4 3.9 2.1 6 2.8q2.7 0.9 5.4 1.8c1.4 0.5 2.7 0.9 4 1.4 1.4 0.6 2.9 1.2 4.2 2.2 2.1 1.6 3.7 2.7 2.3 5.3-2.7 5.2-15.7 8.8-19.2 27.2-0.6 2.8 0.3 5.8 1.6 3.1 0.6-8.9 4.3-17.4 9.5-24.7 5.2-7.3 11.8-13.4 18.9-18.9 9.4-7.3 19.9-13.8 31.6-15.6 0.7-0.1 1.4-0.2 1.9 0.3 0.7 0.7 0.1 2-0.6 2.7-1 1-2.1 1.8-3 2.9-0.9 1-1.5 2.4-1.2 3.8 0.4 2.3 3.1 3.5 3.7 5.7 0.8 3.5-4 6.5-3 9.9 0.5 1.6 2.2 2.7 2.7 4.3 0.7 1.8-0.3 3.8-1.4 5.4-1.1 1.7-2.3 3.4-2.3 5.3 0 1.2 0.6 2.4 0.8 3.6 0.2 1.2-0.2 2.8-1.3 3.1-4.1 1.1-10.1 0.8-21.3 5-11.2 4.3-27.5 11.8-19.9 6.6 4.8-3.4 10.1-6.2 15.7-8.4 5.5-2.2 11.5-3.5 17.4-2.8 5.5 0.6 10.7 2.9 15.8 5.2 1.6 0.7 3.5 1.9 3.4 3.7-0.1 0.8-0.6 1.6-0.3 2.4 0.6 1.4 2.8 0.9 3.8 2 1.2 1.4-0.6 3.6-0.1 5.4 0.6 2.2 3.8 2.3 5 4.2 1.4 2.1-0.8 4.8-0.7 7.4 0.1 1.5 0.9 2.9 1.4 4.4 0.4 1.2 0.4 2.8-0.4 3.7-0.2 0.3-0.2 0.7 0.1 0.9 1.1 1 2.3 1.7 3.5 2.4 0.8 0.4 1.4 1.9 1 2.7-0.4 1-1.8 1.4-3 1.2-1.1-0.3-2.1-1-3.2-1.5-4.6-2.4-10.3-1.9-15.4-0.7-5.1 1.1-10.3 2.7-15.5 2.2-4.3-0.5-8.3-2.4-11.9-4.8-3.6-2.4-6.8-5.2-10.3-7.9-5.5-4.2-11.1-8.9-17.8-10.6-9.5-2.5-12-1-7.3-6.2 4.7-5.1 6.9 1.9 6.7 5.8-0.2 5.1-1.8 6.2 10.7 13.8 12.4 7.6 19.4 8.5 15.3 3.8-4.1-4.7-7.3-6.2-12.6-9.6-5.3-3.3-23.7-5.6-22.4-10.3"/>
							<path id="&lt;Path&gt;" class="s7" d="m668.1 670.7c5.3-5.4 13.3 20.3 18.1 16.6"/>
							<path id="&lt;Path&gt;" class="s7" d="m659.5 677.6c5-5.2 21.4 13.9 26.1 10.1"/>
						</g>
					</g>
				</g>
				<g id="&lt;Group&gt;">
					<path id="&lt;Path&gt;" class="s8" d="m911.1 790.1c-0.7 2.9-2.5 5.5-4.1 8-4.2 6.5-7.7 13.6-10.3 20.9-1.5 4.2-2.6 9.3 0.2 12.7 3.6 4.5 11.6 3.2 15.2 7.7 2.7 3.3 1.7 8.5-1 11.7-2.8 3.3-6.8 5.2-10.7 7-3.8 1.9-7.8 4-10.1 7.6-2.8 4.5-2.6 10.4-0.8 15.3 1.8 5 5 9.4 7.7 13.9 11.2 18.1 16.4 39.2 21.4 59.8 0.6 2.4 1.2 5.1 0.1 7.3-1.4 3.2-5.4 4.3-8.9 5-6.2 1.2-12.9 2.4-18.7 0.1-4.7-1.9-8.2-5.7-11.6-9.4-15.2-16.7-34.1-30-51.7-44.1-6.9-5.6 16.2 50.4 6.3 54.1-2.1 0.8-4.5-2.7-5.5-4-3.1-4-5.5-8.5-7.7-12.9-5.9-11.5-10.8-23.7-14.9-36q-1.9 1.1-4 1.6c-2.7 0.6-5.7 0.7-7.9 2.5-2.4 1.9-3 5.4-2.7 8.5 0.3 3.1 1.3 6.2 1.5 9.3 0.3 9.6-7.6 17.3-11.4 26.2-4.5 10.6-3 22.6-2.8 34.1 0.1 11.5-2 24.3-11.1 31.3-2.6 2-6.2 3.5-9.2 2.1-4.3-2-4.4-8-4.1-12.8 1.2-14.9-0.2-31.9-11.8-41.3-5.7-4.6-13.6-7.1-17.1-13.5-2.8-5.3-1.8-11.7-2.1-17.7-0.3-6-2.9-13-8.8-14.2-3-0.6-6 0.5-9 1.1-3 0.6-6.6 0.4-8.5-2-3.6-4.6 2.5-11.8-0.2-17-3.1-5.8-12.9-2.5-17.9-6.8-4.9-4.3-1.9-12.2-2.5-18.6-0.6-6.9-5.7-12.6-11.6-16.1-5.8-3.6-12.5-5.6-18.8-8.3-2.9-1.3-6.1-3.4-6.2-6.5 0-4.2 5.3-6 9.4-6.3 35.7-3 70.2 11.3 103.9 23.3 8.2 2.9 17 5.8 25.4 3.9 7.7-1.8 14-7.2 19.8-12.6q0.2-0.8 0.6-1.6c0.6-1.2 1.9-1.9 3.2-2.5q0.2-0.1 0.4-0.2c3.5-1.6 7.2 1.3 10.7 1.8 6.7 1.1 12-5.4 15.7-11.1 18.2-27.5 39.7-54.5 69.5-68.5 3.2-1.5 7.2-2.8 10.1-0.8 2.5 1.7 3.2 5.1 2.6 8z"/>
					<g id="&lt;Group&gt;">
						<g id="&lt;Group&gt;">
							<path id="&lt;Path&gt;" class="s9" d="m811.1 869.3c23.7-42.1 61.8-74 100.5-102.8 3.7-2.8 7.4-5.5 11.8-6.8 4.5-1.2 9.7-0.5 12.7 2.9 3 3.2 3.3 8.1 2.2 12.3-1.1 4.2-3.5 8-5.5 11.9-3.4 6.6-5.8 14.6-3 21.6 1.3 3.1 3.6 6 3.8 9.4 0.3 6.6-7.3 10.9-9.2 17.3-2.8 9.2 7.1 18.4 5 27.7-1 4.3-4.5 7.7-8.5 9.7-2.8 1.3-5.8 2.1-8.8 2.7-2.4 0.5-4.8 1.1-7.1 2-13.8 5.3-29.3 7.6-43.7 5-2.3-0.4-4.6-0.9-6.2-2.8-0.7-0.9-1.1-2.1-0.9-3.3 0.5-2.5 3.3-3.3 5.7-3.6 17.8-2.2 36.6 5.9 47.2 20.4 3.9 5.4 6.2 10.7 7.1 17.3 0.8 6.6 0 13.3-0.4 19.9-0.3 6.7-0.2 13.6 2.2 19.8 4.3 10.9 14.5 17 24.4 23.3q24.5 15.5 49 31c1.9 1.2 2.6 3.7 2.6 6.1 0 1.7-1 4.1-2.4 5.1-1.4 1-3.1 1.5-4.8 1.7-3.6 0.3-7.2-1-9.9-3.4-12.3-11.2-24.7-22.8-39.7-30-3-1.4-6.3-2.7-9.6-2.2-1.6 0.3-3.1 1.2-4.2 2.4-2.8 3.1-0.7 6-0.4 9 0.1 2.1-1.5 3.9-3.7 3.9-4.3 0-8.6-1.8-11.7-4.9-3.8-4-6.4-10.5-12-10.9-1.1-0.1-2.2 0-3.3-0.1-2.2-0.2-4.1-1.5-5.9-2.8-6.1-4.7-11.5-10.4-16-16.7-1.7-2.4-3.2-4.9-5.5-6.6-1.5-1.1-3.1-1.9-4.7-2.8-3.4-2-6.3-4.8-9.1-7.6-11.2-11.1-22.7-22.7-27.8-37.6-0.5-1.6-0.8-3.1-0.3-4.6 0.2-0.5 0.4-0.9 0.9-1.1 0.9-0.4 1.7 0.6 2.1 1.4 1.5 3.2 1.8 6.9 0.9 10.2-0.3 1.2-1.2 2.6-2.4 2.5-1-0.1-1.6-1-2-1.9-2.7-5.6-3.5-12.9-4.3-18.9"/>
							<path id="&lt;Path&gt;" class="s9" d="m793.2 898.1c3.3 4.9 3.2 11.3 3.3 17.2 0 1.4 0 2.8-0.5 4-0.4 1.3-1.5 2.5-2.9 2.7-1.9 0.2-3.5-1.4-4.5-3-1.2-2-2-4.1-2.4-6.3-0.1-0.8-0.2-1.7 0-2.5 0.3-0.8 0.9-1.5 1.7-1.6 0.8 0 1.5 0.4 2 0.9 1.8 1.4 3.1 3.4 3.7 5.6 3.9 15.3 0.7 31.3-2.5 46.7-0.8 3.9-1.7 7.9-3.4 11.4-0.8 1.6-1.8 3.2-2.4 4.9-0.9 2.7-0.9 5.7-1 8.6-0.2 7.7-1.6 15.4-4.1 22.7-0.8 2.1-1.6 4.3-3.4 5.7-0.8 0.6-1.8 1.1-2.7 1.8-4.4 3.5-3 10.3-4 15.7-0.8 4.3-3.4 8.2-7 10.6-1.8 1.2-4.2 0.6-5.2-1.3-1.5-2.6-1.3-6.1-5.3-7.3-1.6-0.4-3.3-0.3-4.9 0.4-3.1 1.4-5.1 4.2-6.8 7.1-8.5 14.3-12.5 30.8-16.6 46.9-0.9 3.5-3.2 6.6-6.4 8.3-1.5 0.8-3.2 1.3-4.9 1.2-1.7-0.1-3.9-1.4-4.8-2.9-1.3-2-2.1-4.5-1.1-6.5q11.8-26.5 23.7-52.9c4.8-10.7 9.9-21.5 7.5-32.9-1.4-6.5-5.1-12.3-9.1-17.7-4-5.3-8.3-10.5-11.3-16.4-2.9-6-3.9-11.7-3.6-18.4 0.9-17.9 12.1-35 28.1-43 2.2-1 4.9-1.9 6.8-0.1 0.8 0.8 1.2 2.1 1 3.3-0.2 2.4-1.9 4.1-3.6 5.7-10.6 10-24.8 16.7-39.2 19.9-2.4 0.5-4.7 1.3-7 2.2-2.9 1.2-5.8 2.2-8.9 2.6-4.4 0.6-9.1-0.3-12.3-3.4-7-6.6-3.8-19.7-11.2-25.8-5.1-4.3-13.8-3.7-17.2-9.4-1.7-2.9-1.4-6.6-2-9.9-1.5-7.4-7.9-12.8-14.5-16.4-3.7-2.2-7.8-4-11-6.9-3.3-2.9-5.7-7.1-5.1-11.4 0.7-4.6 4.7-8 9.1-9.4 4.3-1.4 9-1.2 13.5-1 48.3 2.8 97.6 8.4 140.6 30.4"/>
							<path id="&lt;Path&gt;" class="s9" d="m823.2 970.7c-2.1-1.3-3.5-3.5-4.7-5.7-11.9-21.8-13.6-48.2-26.7-69.2-4.2-6.7-12.7-13.7-9.1-20.6 2.8-5.5 7.8-9.8 13.6-11.7 3.9-1.3 8.6-1.5 11.7 1.3 1.7 1.5 2.7 3.7 3.4 5.9 4.8 13.4 4.5 28.2 7.6 42.1 2.1 9.7 5.8 18.9 8.5 28.4 2.7 9.5 4.5 19.5 2.6 29.2-1.7 1.8-4.7 1.7-6.9 0.3z"/>
							<path id="&lt;Path&gt;" class="s9" d="m785.4 869.9c-3.2-1.2-5.1-4.9-4.7-8.3 0.4-3.4 2.8-6.3 5.8-7.9 3.1-1.6 6.9-2 9.9-0.4 3 1.6 4.9 5.5 3.8 8.7"/>
							<path id="&lt;Path&gt;" class="s9" d="m815 772.6c4.1 8.8 2.1 19.2-2.1 27.9-4.1 8.7-10.3 16.2-15.1 24.6-4.8 8.3-8.2 18.1-6.1 27.5"/>
							<path id="&lt;Path&gt;" class="s9" d="m710.3 805.2c6.6 5.2 13.7 9.7 21.2 13.4 9.9 4.9 20.5 8.5 30.2 13.7 9.8 5.2 19 12.3 23.8 22.3"/>
						</g>
					</g>
				</g>
				<g id="&lt;Group&gt;">
					<path id="&lt;Compound Path&gt;" fill-rule="evenodd" class="s10" d="m439.8 547.6c-2.2-4-4.4-8.8-2.6-13 1.3-3.2 4.6-5.2 8-5.8 3.4-0.6 6.8 0 10.2 0.8 23.8 5.1 46 17.3 63.1 34.6 16.3 16.5 27.9 37.5 33.2 60-3.6-19.7-12.4-40.5-25.2-54.6 6-3.5 12.3-12.4 15.7-18.5 3.4-6.3 8.8-11.6 15.6-14 1-0.3 2.4-1.1 3.3-1.6 1.3-0.7 2.7-1 2.4-2.4-0.2-0.9 0-1.9 0.6-2.5 1.4-1.6 3.5-1.7 5.1-2.8 1.5-1.1 2.4-3 4.1-3.8 1.9-0.9 5.3-0.3 6.6 1.4 6.7 8.9 7 21 5.8 32.1-1 9.7-3 19.3-5.9 28.7 1.9 4.2 2.6 9 2.1 13.7-0.5 5.5-2.6 10.7-5.4 15.3-1.6 2.6-3.4 5-5.4 7.2q1.2 1.1 1.9 2.6c5.5-4.7 10.8-9.8 14.7-16 4-6.4 6.5-14.1 5.3-21.8-0.6-4.4-2.4-8.6-5.3-11.9-0.5-0.5 0.3-1.3 0.8-0.7 5.4 6.1 6.9 14.7 5.2 22.5-1.6 7.9-6.1 14.9-11.5 20.7-2.7 2.9-5.7 5.6-8.7 8.2 2.4 6.1-1.5 13.5-7.1 15.1-1.5 1.7-3.1 3.1-4.4 4.8-0.3 0.4-1.4 2.2-1.9 3.3-0.7 1.3-1.3 2.7-2 4.1-1.3 2.9-2.7 5.4-4.5 7.6-3.5 4.2-7.9 6.2-11.6 8.4-1.3 0.8-2.6 1.7-3.8 3.1-1 1.1-1.7 2.4-2.1 4.1-1.1 5-7 0.3-6.1-4.6q0 0 0-0.1 0.2-0.6 0.2-1.4 0-0.3 0-0.7 0.6-3.2 1.4-6.1c-4.8 3.6-10.1 7.4-15.9 10.9-8.2 5-17 8.7-26.3 11.1-14.5 3.6-25.4 7.8-29 10.4-4.3 3-5.1 6.1-7.7 0.8q0 0 0 0c-0.4-2.6-1.3-5.2-2.3-7.7-2.3-5.6-5.5-10.9-7.7-16.6-5-13 3.9-24.8 3-38.8-0.5-7.5 3-14.5 6.2-21.5q0 0 0.1-0.1c5.8-9.3 9.6-11.2 37.1-19.3 0.4-0.1 0.3-0.6-0.1-0.6-4.8 1-11.8 2.6-18.1 4.8-3 1.1-5.8 2.2-8.1 3.1-3.1 1.1-6.3-1.3-6-4.6 0.5-7.4-1.1-15-3.8-22-3.4-9.1-8.5-17.4-13.2-25.9zm130.5 74.1c3.5-3.9 6.4-8.3 8.4-13.1 1.9-5 2.8-10.5 2-15.9q-0.5-2.5-1.4-5c-3.6 11.1-8.4 21.7-14.4 31.7 1.9 0.1 3.8 1 5.4 2.3zm-17.3 11.2q0-0.2 0-0.4-0.1 0.2-0.1 0.5 0.1-0.1 0.1-0.1z"/>
					<g id="&lt;Group&gt;">
						<g id="&lt;Group&gt;">
							<path id="&lt;Path&gt;" class="s11" d="m526.7 669.6c-8.2 8.8-17.4 16.4-28.2 21.6-9.5 4.6-20 7.1-29.2 12.3l-18.4 16.5c-0.9 0.5-1.8 1-2.8 0.9-1-0.1-1.8-1-1.8-2l-0.1-8.9c-0.1-9.3-0.3-19-4.9-27.2-1.6-2.8-3.6-5.3-5-8.2-1.5-3-1.6-8.1-0.3-11.2 1.2-2.9 1.9-6.1 2.2-9.3 0.6-5.5 0.1-11.2 0.8-16.8 1.2-11.1 7-21.8 15.5-29.2 3.6-3.1 6.7-6.7 9.2-10.8 2.4-4.2 5.4-8 9.1-11.1 5.7-4.7 13-7.6 20.3-6.9 2.4 0.2 4.9 0.9 5.8 3.6 0.6 1.7 0.2 3.6-0.8 5.1-2.2 3.1-6 4-9.6 4.5-10 1.4-20.7-0.4-30.9-0.3-8.9 0.2-17.3-7.2-18.3-16-0.6-5.4 1.3-11.1-0.5-16.3-2.1-6-8.4-9.2-13.9-12.3-5.6-3.1-11.5-7.4-12.1-13.7-0.4-4.6 2.4-9.1 6.1-11.7 3.7-2.7 7.5-5 12-4.4 28.5 3.6 55.7 15.7 77.6 34.2 21.8 18.4 38 43.2 46.3 70.5q0.1 0.3 0 0.7h-0.1c-0.3 0.6-1.2 0.7-1.5 0-7.6-14.1-15.2-28.3-20.5-43.4-2.3-6.4-4.1-13.8-0.8-19.8 2.9-5.5 9.4-8.3 13.4-13.1 4.5-5.4 6.2-13.5 12.5-16.5 3.6-1.7 8.4-1.4 11.2-4.3 1.7-1.7 2.3-4.2 3.8-6.1 1.9-2.5 5.1-3.7 8-4.7l5.5-1.9c2.3-0.8 4.9 0.1 6.3 2.1 5.8 8.5 8.1 18.8 7.6 29.3-0.5 12-4.3 23.6-8.6 34.8-5 12.9-10.8 25.6-18.3 37.3-1.1 1.7-3.8 0.1-2.8-1.7q0.8-1.3 1.7-2.4c1.7-2 4.5-3.6 6.9-2.5 2.4 1.2 2.9 4.4 2.6 7.1-0.7 7.1-4.4 13.8-10.1 18.2-3.1 2.3-6.6 3.9-9.4 6.6-4.2 4-6.2 9.8-8.7 15-2.1 4.4-4.6 8.6-7.6 12.4-2.1 2.8-4.7 5.5-8.2 6.1-3.8 0.8-7.8-1.6-9.7-5-2-3.4-2-7.7-0.9-11.4 1.1-3.8 3.3-7.1 5.7-10.2 3.7-4.9 8.8-8.8 14.3-11.6 5.4-2.8 11.2-5 16.4-8.2 1.4-0.9 2.8-1.9 3.9-3.3 1-1.3 1.6-3.1 1.2-4.7"/>
						</g>
					</g>
				</g>
				<g id="&lt;Group&gt;">
					<path id="&lt;Path&gt;" class="s12" d="m1037 396c-1.1 6.8-8.7 10.1-15.3 12.3q-9.7 3.2-19.5 6.5c-3.2 1-6.7 2.3-7.4 6.3-0.4 2.1 0.2 4.2 1.4 6 3.9 5.8 11.3 6.8 15.6 12 1.4 1.7 2.2 3.8 1.9 6-0.5 4.2-4.5 5.6-7.8 7.3-11.6 6.2-16.8 22-11.1 33.8 1.4 2.9 3.4 5.7 3.2 9.1-0.1 1.5-0.8 3-2.1 3.8-2.9 1.9-5.9-0.6-8.9-0.8-5-0.4-8.5 5.6-7.6 10.4 0.6 3.1 2.3 5.7 4.3 8.1 0.3 0.4 0.4 0.9 0.4 1.3q0 0.1 0.1 0.1c5.5 3 11.2 6 15.2 10.8 4.1 4.8 6.2 11.8 3.6 17.5-0.9 2-2.4 3.7-2.7 5.8-0.9 4.7 3.5 8.5 6.3 12.3 3.3 4.4 4.8 10.3 2.7 15.3-1.1 2.8-3.2 5-4.1 7.8-2.4 7.9 5.6 15.6 5.2 23.8-0.5 7.7-8.4 13.2-16.1 13.6-7.7 0.4-15-2.8-22-6.1-30.7-14.1-55.2-39.4-78.7-63.7q-0.3-0.4-0.6-0.7c3.2 5.6 6.3 11.3 8.9 17.3 1.3 2.8 3.1 9.1 0 9.1q-1.4-0.1-2.8-0.2 3.3 4.4 6.5 8.9 4.8 6.8 9.6 13.7 4.9 6.9 9.7 14 4.9 7.2 9.7 14.6 1.2 1.7 2.3 3.5c1.7 2.6 3.4 5.2 4.1 8.5 0.6 3.3 0 7.3-2.4 10.1-2.4 2.7-6 3.8-9 3.4-3.1-0.4-5.7-2-8.1-3.7-5.9-4.3-11-9.5-15.1-15.5-1.1-1.7-2.4-3.5-4.5-3.6-1.5-0.1-3 0.7-4.5 1.1-5.2 1.3-9.4-2.3-11.6-6.5-2.3-4.2-3.4-9.1-6.5-12.6-6.1-7.1-18.9-6.5-23.8-14.5-3.3-5.5-2-13.8-6-18.6-3.6-4.4-11.3-5.2-13-10.9-1.6-5.6 3.7-12.4 4.8-18.7q0.1-0.7 0.2-1.3c-0.8 0.2-1.6 0.4-2.3 0.4l-1.2-0.1c-7.2-1.2-14.5-2.5-20.2-5.9-5.7-3.4-9.6-9.5-8.3-16.6-9.4 2.8-18.5-1.4-19.7-9.1-0.5-3 0.1-6.2-0.5-9.1-1.3-6.1-7.3-9.4-11.8-13.4-4.4-4-5.8-11.1-1.2-17.1-25.5-10.9-43.4-30-50.2-52.7-1-3.2-1.6-7 2.6-10.4 1.7-1.4 3.9-2.3 6.1-2.8 4.9-1 8.9 0.1 12.6 1.5 8.9 3.3 16.8 7.9 24.3 12.8 28.7 18.7 53.6 42.7 73.7 71.5q2.3 3.2 4 6.7c-0.8-3-1.7-6.1-1.7-9.2-0.1-3.7 1.4-7.3 3.9-10 1.4-1.5 5.2-3 9.6-0.7 13.1 6.7 1.9 30.4 11 40.3q0.3-0.7 0.7-1.3c-0.5-2.3-0.6-4.8-1-6.7q-0.1 0-0.1-0.1c-2-8.9-1.5-18.1 1.5-26.7 14-39.5 35.4-76.6 65.9-105.1 12.4-11.5 27.1-21.9 43.9-23.2 15.6-1.3 30.8 5.4 43.7 14.3 5.5 3.8 11.3 9.4 10.2 16z"/>
					<g id="&lt;Group&gt;">
						<g id="&lt;Group&gt;">
							<path id="&lt;Path&gt;" class="s13" d="m876 525.2c-4.8-10.8-6.6-22.8-4.8-34.5 8-53.9 26-106.7 57.9-150.7 12.9-17.8 29.1-34.8 50.3-40.7 19.5-5.6 40.7-0.8 59.3 7.3 8 3.5 16.8 9.2 17.1 17.9 0.3 9-8.6 15.2-16.4 19.6q-11.7 6.6-23.4 13.1c-3.8 2.2-8 4.7-7.9 10 0.1 2.8 1.4 5.3 3.3 7.3 6.4 6.4 16.1 5.8 23 11.4 2.2 1.8 3.8 4.4 3.9 7.2 0.4 5.5-4.4 8.3-8.2 11.3-13.2 10.8-15.8 32.3-5.6 45.9 2.5 3.4 5.7 6.4 6.3 10.9 0.2 2-0.3 4-1.7 5.4-3.3 3.2-7.7 0.7-11.7 1.2-6.4 0.7-9.3 9.2-6.9 15.2 1.4 3.7 4.2 6.7 7.4 9.2 1.7 1.4 0.7 4.1-1.4 4.1-17.1-0.2-33.7 1.4-50.9 2.9-15.3 1.2-30.6 3.3-44.9 8.9-14.2 5.5-27.8 19.2-35.6 32.4-5.4-0.6-6.9-10.2-9.1-15.1q0-0.1 0-0.2z"/>
							<path id="&lt;Path&gt;" class="s13" d="m885.1 540.5c1.8-10.2 11.1-17.1 20-22.2 36.1-20.5 80.9-32.2 120.5-20 7.8 2.4 15.8 5 22.2 10.1 6.4 5.1 10.8 13.5 8.9 21.4-0.7 2.7-2 5.3-2 8.1 0.1 6.2 6.6 10 11.2 14.1 5.2 4.8 8.7 12 7.3 18.9-0.7 3.8-2.9 7.2-3.3 11-1.1 10.7 11.1 18.5 12.5 29.2 1.4 9.9-7.4 18.9-17.1 21.3-9.7 2.5-19.9 0.1-29.7-2.2-42.7-10.4-80.4-36.6-116.4-61.8-12.4-8.7-20.7-20.8-34.1-27.9z"/>
							<path id="&lt;Path&gt;" class="s13" d="m845 580.2c-9.4 0.2-19 0.4-27.2-2.5-8.1-3-14.7-9.7-14.8-19.1-11.2 5.9-23.9 2.8-27.4-6.7-1.4-3.7-1.5-8-3-11.6-3.1-7.5-11.5-10.2-18.3-14.2-6.7-4-10.2-12.6-5.8-21.4-35.4-7.6-63.1-27.5-77.4-54.8-2-3.9-3.7-8.6 0.7-13.9 1.9-2.3 4.5-4 7.2-5.2 6-2.5 11.4-2 16.4-1.2 12.3 1.9 23.4 5.8 34.2 10.2 41.5 16.8 79.3 41.2 112.1 72.9 8.5 8.3 14.8 17.8 18.6 30q0.2 0.6 0.5 1.3c0.8 2.2 0.9 3.9-0.4 5.7-1.4 2-3.4 3.5-5 5.4-2.5 3-3.8 6.8-3.5 10.1 0.2 1.8 0.9 3.5 1.2 5.3 0.3 1.8 0.3 3.9-0.9 5.8-1.2 2-3.5 3.3-5.6 3.7z"/>
							<path id="&lt;Path&gt;" class="s13" d="m995.4 658.4c2.8 2.9 5.7 5.9 7.3 9.9 1.6 4 1.9 9.3-0.6 13.5-2.3 4.1-6.6 6.3-10.6 6.6-4 0.3-7.7-1.1-11.2-2.7-8.6-4-16.4-9.4-23.2-16.1-1.9-1.8-4-3.8-6.7-3.4-1.8 0.2-3.6 1.7-5.4 2.5-6.3 3.1-12.6-0.5-16.5-5.3-4-4.8-6.7-10.9-11.4-14.5-9.6-7.5-25.8-3.6-34-12.6-5.7-6.2-6-17.1-12.3-22.3-5.8-4.7-15.9-3.8-19.4-10.6-3.5-6.8 1.6-16.8 1.4-25.1 0-6.2-3.2-11.2-4.9-16.7-1.7-5.4-1.7-12.6 3.1-17.7 4.3-4.5 10.7-5.2 15.2-3.5 4.2 1.6 8.2 3.9 11.8 6.5 2.7 1.9 5 4.3 7.3 6.7 4.1 4 8.3 7.8 12.6 11.7q7.5 6.8 15.1 13.8 7.6 7 15.3 14.1 7.8 7.2 15.6 14.6 7.8 7.5 15.7 15.1 7.9 7.6 15.9 15.5 8 7.9 16.1 16.1 1.9 2 3.8 3.9z"/>
							<path id="&lt;Path&gt;" class="s13" d="m844.5 515.7c-2.4-3.5-3.9-7.8-4.8-12-1-4.7 0-9.6 2.5-13.7 1.5-2.2 5.9-5.1 12.1-3.3 19.2 5.5 13.7 35.5 26.1 49.9"/>
							<path id="&lt;Path&gt;" class="s13" d="m907.5 558.7c7.1 7.6 13.8 15.8 19.7 24.4 2.3 3.3 4 7.9 2.3 11.6"/>
							<path id="&lt;Path&gt;" class="s13" d="m752.5 406.2c6.5-1.1 13.2 0.5 19 3.6 5.8 3.1 10.7 7.7 15 12.6 20.1 22.8 29.8 54.1 52.8 74"/>
							<path id="&lt;Path&gt;" class="s13" d="m849.5 485.4c-13-37.3-26.3-75.4-50.5-106.7"/>
						</g>
					</g>
				</g>
				<g id="&lt;Group&gt;">
					<g id="&lt;Group&gt;">
						<path id="&lt;Compound Path&gt;" fill-rule="evenodd" class="s14" d="m452.7 988.9q-0.4 3-0.8 6.1c-0.1 0.3-0.4 0.5-0.6 0.4-0.3-0.1-0.4-0.3-0.4-0.6q0-0.1 0-0.1-0.1-0.1-0.1-0.4-0.2-1.7-0.3-3.4c0-0.9 0-1.9 0.6-2.6 0.2-0.4 0.7-0.8 1.1-0.6 0.6 0.1 0.6 0.7 0.5 1.2zm-1.1 0.9q0-0.3 0.1-0.6-0.1 0.1-0.1 0.3-0.1 0.5-0.1 1 0-0.4 0.1-0.7z"/>
						<path id="&lt;Compound Path&gt;" fill-rule="evenodd" class="s14" d="m465.1 1017.8c-1-1.5-2-3-3-4.5-3.4-4.6-7.3-9-9.8-14.2q-0.1 0-0.1-0.1-0.5-0.9-0.7-1.8c-1.2-3.1-1.7-6.5-0.3-9.6 0-0.3 0.2-0.6 0.5-0.5 1 0.3 1.2 1.4 1.1 2.3-0.2 1.1-0.5 2.1-0.7 3.2-0.2 1.5-0.2 3 0.1 4.4 1.2 2.8 2.8 5.4 4.6 7.9 2.9 4.1 6.2 7.9 8.8 12.3-0.3 0.1-0.4 0.3-0.5 0.6zm-13.3-27.5c0.1-0.5 0.5-1.6 0.1-2.2-0.7 1.6-0.8 3.4-0.6 5.1q0.1-1.5 0.5-2.9z"/>
					</g>
					<path id="&lt;Compound Path&gt;" fill-rule="evenodd" class="s15" d="m490.8 993.9q-0.4 0.9-0.9 1.7 0 0.1-0.1 0.2c-2.9 5-7.2 9-10.9 13.3-2.5 2.9-4.8 6.1-6.3 9.6-0.2-0.3-0.4-0.4-0.7-0.5q0.7-1.6 1.6-3.1c3.1-5.2 7.5-9.3 11.3-13.9 2-2.3 3.9-4.8 5.2-7.6 0.5-1.3 0.6-2.8 0.5-4.3-0.1-1.1-0.3-2.2-0.4-3.3-0.1-0.9 0.2-2 1.2-2.1 0.3-0.1 0.5 0.2 0.5 0.5 1.1 3.2 0.4 6.6-1 9.5zm0.3-9c-0.5 0.4-0.2 1.6-0.1 2.2q0.2 1.4 0.3 2.8c0.3-1.7 0.3-3.4-0.2-5z"/>
					<path id="&lt;Path&gt;" class="s16" d="m517.5 1018.3c0.2 1.7-0.7 3.3-1.7 4.6-5.7 7.9-16.7 11.2-21.1 19.9-1 2-1.7 4.2-3.2 5.8-2.4 2.4-6.1 2.8-9.5 3.1-1.6 0.1-3.3 0.4-4.8 0.8-1.4 0.5-1.6 2.4-0.3 3.1 1 0.5 1.9 1.3 2.4 2 1.3 1.9 1.1 4.5 0.1 6.5-1 2.1-2.7 3.7-4.2 5.4-7.4 7.8-13 17.1-16.6 27.2-0.3 0.7-0.9 1.3-1.7 1.4-1.6 0.3-2.3-1.5-2.5-2.9-2.1-13.5 1.7-27 5.4-40.1 0.8-2.7 1.6-4.9 2.5-7.2q-1.1 1.3-2.1 2.8c-2.4 3.5-3.8 7.6-5.6 11.4-1.8 3.9-4.2 7.7-7.8 9.8-1 0.6-1.2 1.7-1.8 2.5-0.4 0.6-0.9 1.2-1.6 1.3-0.7 0.2-1.4-0.3-1.8-0.9-1-1.4-0.5-3.3-0.9-5-1.7-7.2 0.4-15.1 5.3-20.6 2-2.2 4.4-4.2 5-7q0-0.2 0.1-0.3c-0.8 0.9-1.6 1.8-2.3 2.9q-0.3 0.3-0.7 0.5c-14.7 5.4-25.4 18.6-39.8 24.9-0.4 0.2-0.9 0.2-1.3 0-2.2-1.4-5.2-1.6-7.5-0.5-0.9 0.5-1.7 1.1-2.7 1.2-1.2 0.3-2.5-0.2-3.2-1.2-0.8-1-0.5-2.7-0.1-3.9 1.6-4.9 5.4-8.8 7.4-13.6 1.4-3.4 1.9-7.1 2.7-10.7 0.9-3.5 1.8-8.3 5.1-9.8q8-3.8 16.1-7.5c0.6-0.3 1.2-0.6 1.7-1.1q0 0 0 0c0.6-0.8 0.3-2-0.7-2.3-4.3-1.4-8.7-3-11.5-6.6-3-3.9-3.3-9.3-3.9-14.3q-0.8-7.1-2.6-13.9c-0.6-1.9-1.1-3.9-0.7-5.7 0.5-1.9 1.9-3.5 3.5-4.5 3.7-2.2 8.5-1.9 12.3-0.1 3.9 1.8 7 4.9 9.7 8.3 2.6 3.4 4.9 7 7.7 10.2 4.2 5 10 12.8 13.3 18.5 2.1 3.8 3 7.1 3.4 10.5 1.3-1.1 2.8-2 4.4-2.6 1.1-1.9 2.7-3.7 4.6-4.7 2-1 4.5-1.1 6.4-0.1 2 1.1 3.2 3.5 2.6 5.7-0.3 1-1 1.9-1.5 3-0.5 1.3-0.5 2.8 0 4.1q0 0 0 0c12-6.8 25.3-11.4 39-13.3 1.5-0.2 3.2-0.4 4.4 1.1 0.4 0.6 0.6 1.3 0.6 1.9z"/>
					<path id="&lt;Path&gt;" class="s17" d="m491.5 991.8c-0.1 0.3-0.3 0.4-0.6 0.4q0 0 0 0c-0.4 0-0.8-0.3-0.6-0.7 0.5-1 0.4-2.1 0.4-3.1-0.1-1.1-0.3-2.2 0.1-3.3 0.1-0.2 0.2-0.4 0.5-0.4 0.2 0 0.4 0.1 0.5 0.3 0.4 2.3 0.4 4.6-0.3 6.8z"/>
					<g id="&lt;Group&gt;">
						<g id="&lt;Group&gt;">
							<path id="&lt;Path&gt;" class="s18" d="m405.3 954.3c3.1 0.5 5.8 2.7 8.1 4.9 4.3 4.1 8.1 8.8 11.8 13.5 6.2 7.9 12.1 16 18 24.1 6.5 8.8 13.2 18.1 14.6 28.9q0.1 0.3 0.1 0.6 0 0.1 0 0.3 0 0.4-0.1 0.7c0.2 3.4-0.6 6.9-2.4 9.8-0.3 0.5-0.6 1-1 1.3q-0.4 0.3-0.8 0.3-0.1 0.1-0.2 0.1c-0.9 0.5-1.8 1.2-2.6 1.9-1.7 1.3-3.2 3-4.4 4.8q-0.3 0.4-0.6 0.6-0.7 1.3-1.5 2.5c-2.2 3.2-5.3 5.6-8.3 7.9q-11.9 9.4-23.7 18.7c-1.6 1.2-3.7 2.5-5.4 1.5-0.9-0.4-1.4-1.3-2.2-1.9-1.6-0.9-3.7-0.1-5 1.1-1.4 1.3-2.3 3-3.6 4.3-1.4 1.2-3.5 1.9-5 0.9-2.2-1.5-1.3-5.1-2.8-7.3-1.1-1.6-3.5-2.1-4.4-3.9-0.9-1.9 0.4-4.1 2.1-5.3 1.6-1.2 3.7-1.8 5.4-2.9 2.4-1.6 4.1-4.2 4.4-7 0.4-2.9-0.6-5.8-0.9-8.8-0.4-4.7 0.8-9.6 3.6-13.6-0.3-0.3-0.5-0.9-0.3-1.5 1.2-3.7 4.3-5.7 7.8-6.7 2.2-0.7 4.8-0.9 6.9-2q0.1-0.2 0.2-0.3-4.4-0.7-8.6-1.9c-1.2-0.3-2.6-0.7-3.3-1.8-1.1-1.6 0-3.9-0.1-5.9-0.1-3.2-2.9-5.7-3.5-8.9-0.5-2.8 0.9-5.7 1.4-8.5 0.9-4.7-0.6-9.4-2.5-13.7-0.6-1.3-1.2-2.7-1.4-4.2-0.2-1.5 0.1-3.1 1.2-4.2 0.6-0.5 1.4-0.9 2-1.4 1.6-1.6 1.3-4.2 0.6-6.3-0.7-2.1-1.7-4.3-1.2-6.4 0.7-3.1 4.4-4.8 7.6-4.3z"/>
							<path id="&lt;Path&gt;" class="s18" d="m524.3 1021.3c-1.2 1.8-2.7 2.7-4.2 3.7-1.4 1-3 2.7-3.7 4.7-0.2 0.7-0.2 1.5-0.5 2.2-0.4 1.4-1.3 2.7-2.2 3.6-1 1-2 1.5-2.9 2.1-3 1.8-6.2 4.1-8.9 7.8-1.6 2.3-3 5.2-4.9 6.8-2 1.9-4.1 1.8-6.1 4-1.3 1.3-2.4 3.6-3.7 4-0.8 0.3-1.3-0.2-1.7-0.7q-1.6-1.8-2.9-4 0 0 0 0.1-0.2 0.3-0.2 0.6c-0.2 1.8 0.2 3.5 0.2 5.2 0.1 2.8-0.5 6.2-2.5 9.4q-0.3 0.5-0.6 0.7-0.4 0.3-0.7 0.8c-1.8 4.2-4.4 8.1-7.3 10.9-1.8 1.9-3.8 3.3-5.5 5.6-1.7 2.1-2.9 4.9-3.4 7.4-0.3 1.9-0.3 3.5-0.7 5.4-0.3 1.8-1.5 4.2-2.8 4.9-1.3 0.7-2.1-0.4-3.3 0-1.6 0.6-3.6 3.6-5 3.4-0.9-0.2-0.9-2.1-0.4-3.7 0.5-1.7 1.3-3.4 1.8-5.1 0.5-1.7 0.6-3.6-0.3-3.9-0.5-0.1-1.1 0.2-1.6 0-1-0.4-0.6-2.6-0.2-4.4q3.3-13.6 6.6-27.3c0.9-3.5 1.7-7.1 3.2-10.6q0.5-1.2 1.1-2.3 0.1-0.2 0.1-0.4 0.1-0.3 0.3-0.7c0.8-2 1.5-4 2-6 0.3-0.9 0.5-1.9 0.6-2.9q0-0.1 0-0.1 0-0.3 0.1-0.7c0.1-0.5 0.3-1.1 0.6-1.6 1.4-3 3.3-5.9 5.4-8.1q0.1-0.1 0.2-0.3 0.1-0.2 0.3-0.4 0.1-0.1 0.2-0.2 0.1-0.1 0.1-0.2l0.5-0.4c6.8-6.3 13.8-8.7 20.4-10.8 6.1-1.9 12.2-3.9 18.3-5.5 3.6-1 7.2-1.9 10.7-2.1 1.8-0.2 3.6 0 4.6 1.5 0.9 1.6 0.7 5-1.1 7.6z"/>
							<path id="&lt;Path&gt;" class="s18" d="m461 1022.3c0.3-0.1 0.5-0.2 0.6-0.5 2.1-3.5 6.2-7 10-3.5 1.5 1.4 2.8 3.4 2.4 5.6-0.2 1-0.8 1.9-1.6 2.6q0 0 0 0c-0.1 0.4-0.1 0.6-0.2 0.9q0 0.1 0 0.2 0.1 0.2 0.1 0.5 0 0.2 0.2 0.4 0.1 0.2 0.2 0.3c1.6 3.2 0.6 6.4-1.8 8.9-1.6 1.7-3.3 3.4-5 5.2q-0.1 0-0.1 0.2-0.4 0.7-1 1.2-0.3 0.2-0.6 0.5-0.1 0-0.1 0.1-1.3 1.5-2.5 3 0 0-0.1 0c-2.5 3.9-3.7 8.8-5.6 12.7-2.9 5.8-6.9 11.1-11.8 15.3-2.2 1.9-5.5 0.5-5.1-2.6 0.6-4.2 1.2-8.4 2.2-12.5q0.8-3 2-6c0.7-1.8 1.6-4 2.9-5.5q0.7-0.8 1.5-1.2 0.1 0 0.1-0.1c0.5-0.5 1.1-0.9 1.8-1.4q0.2-0.2 0.3-0.4c1.2-2.9 2.1-5.9 1.8-9q0-0.5 0.1-0.9c0-1.6 0.1-3.2 0.6-4.7 1.1-4.4 3.9-9 8.7-9.3z"/>
						</g>
					</g>
				</g>
				<g id="&lt;Group&gt;">
					<path id="&lt;Path&gt;" class="s19" d="m869.9 247.1c-3.8 3.4-8.3 6.6-13.4 7.1-2.8 0.3-5.7-0.3-8.5-0.8-4-0.8-8.2-0.6-11.9-2.4q-4.1-2-8.4-3.6c-1.3-0.4-2.3 1.1-1.3 2q0.3 0.3 0.5 0.5c6.4 6.5 9.7 15.8 8.5 24.4-0.1 0.8-0.6 1.4-1.4 1.7-0.8 0.2-1.6 0.1-2.5 0-0.8-0.1-1.7-0.2-2.4 0.1-1 0.5-1.5 1.6-1.7 2.6-0.4 1.2-0.6 2.3-1.1 3.4-0.5 1-1.4 1.9-2.6 2.1-0.9 0.1-1.8-0.1-2.6 0.1-1.3 0.4-1.9 2-3.2 2.5-1 0.4-2.2 0.1-3.3 0-1.1-0.1-2.4 0.2-2.7 1.2l0.1-0.2c0 1.4-0.6 2.8-1.8 3.6q0 0-0.1 0.1c-1.5 1-3.6 0.2-4.1-1.5-0.4-1.6-1.5-3.1-2.6-4.3-1.7-1.7-3.8-3.1-5.6-4.7-1.2-1.2-1.9-2.4-2.5-3.8-1-2.4-1.5-4.9-1.3-7.4-1.5 1.9-6 11.8-7.4 13.8-0.6 0.8-1.9 1-3 0.6l-0.5-0.2c-1-0.4-1.9-1.4-1.7-2.5 0.3-2.3 3.6-12.7 3.9-15.1-1.6 1.9-3.7 3.5-6.1 4.6-1.4 0.6-2.7 1-4.4 1-2.4 0.1-4.8-0.3-7.3-0.2-1.6 0.1-3.3 0.5-4.7 1.3-1.6 0.9-3.7 0.1-4.1-1.6q0 0 0-0.1c-0.3-1.4 0.1-2.9 1.1-3.9l-0.1 0.2c0.5-0.9-0.3-2-1.1-2.7-0.9-0.7-2-1.2-2.5-2.2-0.6-1.2 0-2.8-0.7-4-0.5-0.7-1.3-1.1-1.8-1.8-0.8-1-0.8-2.3-0.5-3.4 0.3-1.1 0.9-2.1 1.5-3.1 0.5-1 0.9-2.1 0.4-3.2-0.3-0.7-1-1.2-1.6-1.7-0.7-0.5-1.5-1-1.9-1.7-0.4-0.7-0.3-1.5 0.1-2.2 4.9-7.1 13.6-11.7 22.8-12.2q0.3 0 0.6 0c1.4-0.1 1.7-1.8 0.4-2.4q-4.2-1.7-8.6-3c-5.7-1.7-12.9-4.3-16.3-9.2-2.6-3.8-3-8.6-3.3-13.1-0.5-9.5-0.4-19.1 1.6-28.3 1.4-6 3.6-11.8 6.9-16.9 3.1-4.8 9.7-5.8 14-2 9.9 8.5 17.5 19.6 22 32 0.5 0.1-0.4 0.1-0.1 0.5 4 9.2 6.1 18.8 7.6 28.6 0.4 2.3 3.1 3.5 5.1 2.2q0.1 0 0.2 0-0.5-0.7-0.8-1.5c-0.7-1.8-0.8-4 0.2-5.7 1.4-2.4 4.5-3.3 7.2-3.1 2.3 0.1 4.6 0.9 6.3 2.4 1.7 1.5 2.7 3.9 2.2 6.2-0.6 3-3.7 5.1-6.7 5.7 0.9 1.7 3.3 2.3 5 1 7.7-6.2 15.8-11.8 24.9-15.9 14.4-6.3 30.3-8 45.9-10.1 1.8-0.2 4-0.2 4.5 2.1q0 0.4 0 0.9c-0.9 18-9.9 35.2-23.3 47.2z"/>
					<g id="&lt;Group&gt;">
						<g id="&lt;Group&gt;">
							<path id="&lt;Path&gt;" class="s20" d="m817 218.2c0.2-0.6 0.3-1.3 0.2-2-0.3-1.7-1.4-3.2-2.8-4.3-2.5-1.8-6-2.2-8.8-1-1 0.4-1.9 1-2.4 1.9-0.7 1.2-0.7 2.6-0.2 3.8 0.6 1.3 1.5 2.2 2.6 3 1.1 0.7 2.3 1.2 3.6 1.8 2.6 1.1 5.2 1.3 7.4 3.1 1.2 1 2.3 2.3 2.4 4 0 0.9-0.3 1.8-0.9 2.4q-0.1 0-0.1 0c-1.2 1-2.8-0.6-1.8-1.8 16.9-20 44.3-35 63.1-34.6q0.7 0.1 1.4 0c8.2-0.8 16.8 0.3 24.6 3.3-0.9 10.9-5.4 21-10.3 30.9-3.1 5-6 9.5-9.4 13.9-5.1 5.9-9.8 10.8-16.2 15.6-7.6 5.1-16.6 2.6-25.1 0.6-3.3-0.8-5.8-1.9-8.9-2.5-3.8-0.8-7.6-1.9-11.2-3.5-0.8-0.4-1.8-1-1.7-1.9q0.1-0.4 0.3-0.7c0.5-0.5 1.1-0.7 1.8-0.7 1.5 0 3 0.9 3.9 2.2q0.6 0.9 0.9 2c0.5 1.8 1.3 3.5 2.4 5 5.2 7.2 7.4 16.6 5.8 25.4-0.2 1-0.9 1.8-1.8 2-0.9 0.3-1.8 0.1-2.6 0.1-0.9-0.1-1.8-0.2-2.6 0.2-1.2 0.6-1.8 1.8-2.1 3-0.4 1.3-0.7 2.7-1.3 3.8-0.7 1.2-1.7 2.3-3 2.5-0.9 0.2-1.9 0-2.8 0.2-1.5 0.5-2.2 2.3-3.6 2.9-1.1 0.5-2.4 0.1-3.5 0-1.2-0.1-2.7 0.3-3 1.4l-0.1 0.4c0 1.5-0.8 3.1-2.1 4q-0.1 0.1-0.2 0.2c-1.6 1.1-3.7 0.2-4.2-1.7-0.4-1.7-1.4-3.3-2.6-4.6-1.8-1.9-3.9-3.4-5.8-5.2-1.3-1.3-1.9-2.6-2.5-4.2-1.6-4.1-1.8-8.6-0.4-12.7 1.1-3.1 3.9-6.1 5.8-9.1 1.8-2.8 1.2-6.6-1.3-8.8-8-7-8.5-9.5-8.3-12 2.1-9.3 8.2-21.4 11.8-24.9 3.6-3.6 10.3-0.2 12.3 3.2 2 3.5-7.2 25.7-9.9 27.9-3.8 3.1-9 3.5-13.8 2.3-0.8-0.2-1.8-0.1-3 0.4-5.3 2.4-3.1 11.1-5.5 16.3-1.7 4.1-4.9 7.3-8.8 9.2-1.5 0.8-2.9 1.3-4.7 1.4-2.6 0.1-5.2-0.3-7.8-0.1-1.7 0.2-3.6 0.7-5.1 1.7-1.5 1-3.7 0.2-4.2-1.6q0-0.2 0-0.3c-0.3-1.5 0.1-3.2 1.2-4.4l0.1-0.3c0.6-1.1-0.3-2.3-1.2-3-0.9-0.8-2.1-1.4-2.6-2.4-0.6-1.4 0-3.2-0.7-4.6-0.5-0.8-1.4-1.3-1.9-2-0.8-1.1-0.9-2.6-0.5-3.9 0.3-1.3 1-2.4 1.6-3.7 0.5-1.1 0.9-2.4 0.5-3.6-0.4-0.8-1.1-1.4-1.8-2-0.7-0.5-1.4-1-1.9-1.7-0.5-0.8-0.5-1.9 0-2.7 4.7-7.5 12.6-13 21.2-14.8 2-0.5 3.9-1.3 5.6-2.3q0.8-0.5 1.8-0.7c1.5-0.4 3.2 0 4.4 1 0.4 0.5 0.8 1 0.8 1.7q0 0.4-0.3 0.7c-0.5 0.8-1.6 0.6-2.4 0.3-13.2-4.6-28.9-4-37.1-26.5-2.7-7.6-1.6-14.7-1.4-22.5 0.4-5.5 1.4-10.8 2.5-16.5 3-10.7 6.5-21.2 13.2-29.8 7.9 3 14.9 8 20.4 14.1h0.1q0.4 0.5 0.9 1c14.2 12.4 24.3 42 23.2 68.1-0.1 1.6-2.3 1.7-2.5 0.2q0-0.1 0-0.1c-0.1-0.9 0.2-1.8 0.9-2.4 1.2-1.2 2.9-1.4 4.5-1.3 4.2 0.2 7.8 2.6 12 3.1 1.2 0.1 2.4 0.2 3.5-0.3 0.6-0.3 1.3-0.9 1.6-1.6q0.1-0.2 0.1-0.4c0-0.3-0.1-0.5-0.3-0.7-0.2-0.2-0.5-0.4-0.8-0.6q-0.6-0.4-1.1-0.9-0.8-0.6-1.4-1.3c-1-1.2-1.7-2.8-1.4-4.3 0.2-1.2 0.9-2.2 1.8-2.9 0.9-0.8 2-1.2 3.1-1.5 2.2-0.6 4.4-0.7 6.6-0.9 2.2-0.1 4.5-0.2 6.5-1 2.1-0.7 4-2.2 5-4.2"/>
							<path id="&lt;Path&gt;" class="s20" d="m803.5 186c-2.7 5.4-2.3 12.3 1.1 17.4 1.2 1.9 2.7 3.5 3.9 5.3 0.5 0.8 0.9 1.7 0.8 2.6-0.1 1.1-1.2 2-2.4 2.3-1.2 0.3-2.4 0.1-3.6-0.1"/>
							<path id="&lt;Path&gt;" class="s20" d="m778.2 295.3c-2.3-3.8-2.8-8.4-2.2-12.6 0.7-4.4 2.6-8.5 4.5-12.5 1.5-3.1 3-6.2 5.2-8.8 2-2.4 4.7-4.4 7.8-5.3 0.6-0.2 1.4 0.1 1.7 0.7 1.7 2.7 2.3 6 2.2 9.1-0.1 3.5-1.1 6.8-2.1 10.1-1.3 4.2-2.7 8.5-5.2 12.2-2.3 3.5-5.7 6.6-10.1 7.8q-0.5 0.1-1-0.1-0.5-0.2-0.8-0.6z"/>
						</g>
					</g>
				</g>
			</g>
			<g id="&lt;Group&gt;">
				<path id="&lt;Path&gt;" class="s21" d="m219.2 249.6c2.2-0.8 4.6-0.9 6.9-1.1 2.4-0.3 3.4-1.6 5-3.3 0.8-0.1 1.3-1.3 1-2.1-0.3-0.9-0.9-1.5-1.4-2.3-1.4-2.4-0.2-5.9 2.4-7 1.3-0.5 3-0.6 3.7-1.8 0.8-1.2 0.1-2.9-0.8-4.1-0.8-1.2-1.9-2.5-1.7-4 0.2-1.4 1.6-2.4 2.9-3.1 1.4-0.6 2.9-1.2 3.7-2.4 0.9-1.2 0.9-2.8 1.8-3.9 1-1.3 2.7-1.7 4.2-2.1 4.8-1 9.5-2 14.4-1.9-17-4-16.9 2.9-21.4-0.3-0.8-0.6 0-2.2 0.5-3.2 0.5-1 1.2-2 1.5-3 0.5-2-0.2-3.9-1.2-5.4-1-1.6-2.3-2.9-3-4.7-0.7-1.7-1.2-4.9 0.5-5.7 3.1-1.6 5.2-5.1 5.1-8.5-0.2-2.5-1.4-4.9-0.8-7.5 0.6-2.2 2.6-4.1 2.7-6.4 0-1.6-1-2.9-1.5-4.3-0.6-1.4-0.5-3.8 0.9-4.6 11.5 3.5 20.8 11.5 29.6 19.7 6 5.5 11.9 11.3 16.4 18.2 2.9 4.6 5 9.7 6.1 15.2q-0.2-2.4-0.9-4.8c-1.9-6.5-5.6-12.2-8.8-18.1-0.9-1.7-1.5-3.5-0.4-5 2.3 0.1 5 0.2 6.5-1.6 1.1-1.3 1.3-3.3 2.5-4.5 1.5-1.5 3.9-1.3 5.9-2.1 2.9-1.2 4.5-4.5 7.3-6.1 3-1.8 6.9-1.2 10.3-2.3 2.8-0.9 5.1-3 7.5-4.7 2.3-1.5 4.7-2.8 7.3-3.8 1.9-0.7 3.9 0.4 4.3 2.4q0.4 2.4 0.1 5c-1.5 11.9-7 22.9-14.1 32.5-5.6 7.5-12.1 14.2-18.8 20.6 2.3 0.8 4.3 2.6 5.4 4.8 0.5 1.1 0.7 2.3 0.3 3.2-0.9 2-4.1 1.6-5.9 2.8-2.1 1.3-2.2 4.2-3.2 6.5-0.9 2.3-2.8 4.1-4.4 5.9-2.1 2.4-3.9 5.1-6.1 7.4-2.2 2.2-5 4.2-8.4 4.5-0.9 0.1-1.8 0.1-2.5-0.5-0.7-0.5-1-1.7-0.3-2.1 4.6-2.8 6.8-8.9 9.3-14.3-0.7 0.8-1.4 1.5-2.1 2.3-1.6 2-2.8 4.3-4.4 6.2-1.5 2-3.7 3.7-6.2 3.9-4.3 4.2-10.5 6.4-16.4 6.7-10 0.5-20-5-29.7-2.5-2.7 0.7-5.1 1.9-7.7 2.7-2.7 0.8-5.6 1-8-0.3-0.1-2.3 1.9-4.2 4.1-5.1z"/>
				<g id="&lt;Group&gt;">
					<g id="&lt;Group&gt;">
						<path id="&lt;Path&gt;" class="s18" d=""/>
						<path id="&lt;Path&gt;" class="s18" d="m307.4 226.9c1.4 4.8-17.1 7-22.4 10.4-5.2 3.3-8.4 4.8-12.5 9.5-4.1 4.7 2.9 3.8 15.3-3.8 12.4-7.6 10.8-8.7 10.6-13.8-0.1-3.9 2-10.9 6.8-5.8 4.7 5.2 2.1 3.8-7.3 6.2-6.7 1.7-12.3 6.4-17.9 10.7-3.4 2.6-6.6 5.4-10.2 7.8-3.6 2.4-7.6 4.3-11.9 4.8-5.2 0.5-10.4-1.1-15.5-2.2-5.2-1.1-10.8-1.7-15.5 0.7-1 0.5-2 1.2-3.1 1.5-1.2 0.2-2.6-0.1-3.1-1.2-0.3-0.8 0.3-2.3 1-2.7 1.3-0.7 2.5-1.4 3.6-2.3 0.3-0.3 0.3-0.7 0-1-0.8-0.9-0.8-2.5-0.3-3.7 0.4-1.5 1.3-2.9 1.4-4.4 0.1-2.6-2.1-5.3-0.7-7.4 1.1-1.9 4.4-2 5-4.2 0.5-1.8-1.3-4-0.1-5.3 1-1.1 3.2-0.7 3.7-2.1 0.3-0.8-0.2-1.6-0.2-2.4-0.1-1.8 1.8-3 3.4-3.7 5.1-2.3 10.3-4.6 15.8-5.2 5.9-0.7 11.9 0.6 17.4 2.8 5.5 2.2 10.8 5 15.7 8.4 7.6 5.3-8.7-2.3-19.9-6.6-11.2-4.2-17.2-3.9-21.3-5-1.2-0.3-1.5-1.9-1.3-3.1 0.2-1.2 0.7-2.4 0.8-3.6 0-1.9-1.3-3.6-2.3-5.3-1.1-1.6-2.1-3.6-1.5-5.4 0.6-1.6 2.3-2.6 2.8-4.3 1-3.4-3.8-6.4-3-9.9 0.5-2.2 3.2-3.4 3.7-5.7 0.3-1.3-0.3-2.7-1.2-3.8-0.9-1.1-2-1.9-3-2.9-0.7-0.7-1.3-2-0.6-2.7 0.4-0.5 1.2-0.4 1.9-0.3 11.7 1.8 22.2 8.3 31.6 15.6 7 5.5 13.7 11.6 18.9 18.9 5.2 7.3 8.9 15.8 9.5 24.7 1.2 2.7 2.2-0.3 1.6-3.1-3.5-18.4-16.5-22-19.3-27.2-1.3-2.5 0.3-3.7 2.4-5.3 1.2-1 2.7-1.6 4.2-2.2 1.3-0.5 2.6-0.9 4-1.4q2.6-0.9 5.3-1.8c2.2-0.7 4.4-1.4 6.1-2.8 1.7-1.4 3-3.4 5.1-4.2 2.2-1 5-0.3 7.2-1.4 2.4-1.3 3.2-4.4 5.4-6 2.4-1.9 6-1.6 8.4-3.6 1.2-0.9 1.9-2.3 2.8-3.5 0.9-1.2 1.6-2.2 3.1-2.4 0.6 6.1 1.1 12.4 0 18.4-1.7 9.2-7.3 17.3-13 24.7q-6.5 8.3-13.5 16c-2.7 3-5.4 5.8-6.4 9.7"/>
						<path id="&lt;Path&gt;" class="s18" d="m322.9 206.5c-5.4-5.5-13.4 20.2-18.1 16.5"/>
						<path id="&lt;Path&gt;" class="s18" d="m331.4 213.3c-4.9-5.2-21.3 13.9-26 10.1"/>
					</g>
				</g>
			</g>
		</g>
	</g>
</svg>